<?xml version="1.0" standalone="no"?>
<!DOCTYPE svg PUBLIC "-//W3C//DTD SVG 1.1//EN" "http://www.w3.org/Graphics/SVG/1.1/DTD/svg11.dtd" >
<svg xmlns="http://www.w3.org/2000/svg" xmlns:xlink="http://www.w3.org/1999/xlink" version="1.1">
<metadata></metadata>
<defs>
<font id="ondiseregular" horiz-adv-x="1030" >
<font-face units-per-em="2048" ascent="1638" descent="-410" />
<missing-glyph horiz-adv-x="456" />
<glyph horiz-adv-x="0" />
<glyph horiz-adv-x="682" />
<glyph horiz-adv-x="0" />
<glyph horiz-adv-x="0" />
<glyph unicode="&#xd;" horiz-adv-x="456" />
<glyph unicode=" "  horiz-adv-x="456" />
<glyph unicode="&#x09;" horiz-adv-x="456" />
<glyph unicode="&#xa0;" horiz-adv-x="456" />
<glyph unicode="!" horiz-adv-x="765" d="M137 20l4 9q9 6 11 8q1 0 8 1t8 1q8 -2 10 -2l12 -2q13 -13 13 -19q-4 -12 -4 -18l-6 -16q0 -5 -13 -5q-3 3 -18 3l-17 4q-2 2 -6 14t-4 16q2 4 2 6zM270 285q0 2 1 6.5t1 5.5q2 7 22.5 65.5t22.5 65.5l7 18q33 100 38 111q0 3 29 76q3 5 9.5 22t11.5 30.5t8 14.5 q3 9 28 65t31 69q19 38 19 47q8 8 16 20q21 28 21 29q24 12 30 16q1 0 13.5 3t13.5 3q19 19 26 19q7 -2 9 -2l8 -2q0 -1 1 -8.5t1 -8.5q1 -6 0 -30.5t0 -28.5q0 -1 -8 -25l-8 -30q-4 -4 -11.5 -26t-15 -45t-8.5 -26q0 -1 -3 -8t-3 -8q-3 -4 -33 -64q-13 -26 -107 -182 q-4 -11 -39 -55q-1 -2 -12 -16.5t-12 -16.5q-3 -2 -14.5 -22.5t-14.5 -30.5q-4 -4 -17 -27t-16 -33q-4 -5 -14.5 -24t-22.5 -40.5t-14 -25.5l-10 -4l-4 8q-3 3 16 86q2 7 4 9z" />
<glyph unicode="&#x22;" horiz-adv-x="718" d="M260 903l-2 2q0 3 -1 28t-1 28q0 2 -2 12t-2 12q0 3 -2 16t-2 15q-2 4 -17 49v16q6 24 11 29q10 8 12 8q6 6 14 6q5 0 16.5 -4.5t12.5 -7.5q2 -2 8.5 -13t7.5 -12q1 -2 3.5 -8.5t5 -11.5t2.5 -6v-49q0 -9 -11 -64q0 -1 -3 -9.5t-3 -10.5q-15 -23 -16 -23q-6 -4 -8 -6 l-9 -2q-2 -1 -6 -0.5t-6 2.5q0 2 -2 4zM426 903l-2 2v56q0 2 -2 12t-2 12q0 3 -3 16t-3 15q-2 4 -17 49v16q1 3 3.5 10t5 12.5t2.5 6.5q10 8 14 8q6 6 12 6q5 0 16.5 -4.5t12.5 -7.5q2 -2 8.5 -13t7.5 -12q10 -15 10 -26q0 -1 0.5 -12.5t0.5 -22t-1 -14.5q0 -7 -3.5 -32 t-6.5 -32q0 -1 -3 -9.5t-3 -10.5q-1 -2 -4.5 -8t-6 -10.5t-3.5 -4.5q-4 0 -10 -6l-9 -2q-2 -1 -6 -0.5t-6 2.5q0 2 -2 4z" />
<glyph unicode="#" horiz-adv-x="1304" d="M389 -164v4q16 24 35 62q0 1 1 7t1 7q1 3 12.5 28.5t12.5 28.5q2 3 15.5 35t14.5 35q2 12 23 53q3 3 22 41q2 3 8 19.5t14 38t11 28.5v4l2 4l-14 9q-2 2 -12 2l-11 2q-6 1 -41.5 1t-40.5 1q-6 -6 -10 -6q-1 -1 -3 -8.5t-4.5 -16.5t-4.5 -12q-3 -6 -17.5 -49t-15.5 -50 q-1 -3 -8 -17.5t-13 -27.5t-8 -16q0 -1 -3 -12t-6 -20t-5 -11q-1 -3 -14.5 -12t-18.5 -11l-6 -2l-2 5q-3 0 -7.5 5.5t-4.5 8.5q0 24 10 74q16 70 16 71q0 9 17 60q2 6 4 10l2 8q-5 10 -8 10l-13 -1q-13 -1 -16 -1t-33 -7.5t-37 -8.5q-42 -11 -49 -14h-4l-4 2q-2 0 -3.5 3.5 t-0.5 4.5q1 3 18 15.5t23 15.5q2 1 31.5 8t31.5 8q8 2 74 24q0 1 4 3.5t8.5 5t6.5 4.5q0 2 3.5 7t4.5 5q0 3 6 21t8 22q0 1 6.5 13t8.5 14q2 6 2 8v8q-5 8 -7 8q-1 0 -7 1t-7 1l-14 4q-1 0 -14 -1t-17 -1q-4 -1 -15.5 -2.5t-20.5 -3t-11 -2.5q-15 0 -31 -8q-1 0 -3.5 3 t-2.5 5q-2 2 -2 4l2 4q2 1 6 3.5t7.5 5t4.5 2.5q1 1 6 3.5t11.5 5t7.5 3.5q2 1 9.5 2.5t14 3t7.5 2.5q3 0 30.5 2t30.5 2q7 0 25 12q3 0 8 5q1 1 5 6t5 6q14 20 25 49q0 7 14 35q5 15 25 55q21 49 26 64q1 3 17 48t18 50q0 2 5 18t5 17q27 91 35 139l2 -2h4q1 -1 3 -5t3 -5 t3.5 -7.5t3.5 -7.5q0 -2 1 -8.5t1.5 -10t-0.5 -5.5q0 -2 -2 -30t-2 -36q-2 -6 -2 -8l-3 -8q-26 -118 -34 -152q0 -11 -17 -53q-3 -4 -9.5 -25t-6.5 -26q-6 -12 -6 -29q-1 -3 -7.5 -18.5t-12 -29t-7.5 -15.5v-17q3 -1 35.5 -10t40.5 -10q13 0 33 8q1 0 4 3t4 3q1 1 5 7.5 t5 7.5q0 5 23 40q24 38 49 97q0 15 10 35q5 5 27 49q2 2 5 10l3 8q2 2 12 17t12 16q0 2 5 12t6 10q0 2 3.5 8.5t4.5 6.5q6 4 27.5 26t29.5 31q3 2 14 12t13 11q24 18 24 20h13q4 -4 12 -4q-10 -20 -12 -20q-4 -4 -21.5 -33t-21.5 -37q-36 -60 -56 -100q-18 -54 -18 -58 q-2 -3 -10.5 -24.5t-19 -49t-15.5 -38.5q-2 -7 -13 -36.5t-14 -33.5v-6l-2 -2q6 -13 15 -17q18 0 45 9q3 0 20.5 2.5t18.5 3.5q2 0 19 -2t19 -2q0 -1 -2 -5.5t-2 -5.5q-3 -3 -13.5 -9.5t-12.5 -6.5q-2 -1 -23 -4t-22 -4t-18.5 -3.5t-20.5 -2.5q-1 -1 -19 -1t-20 -1 q0 1 -3 -3l-3 -4q-2 -2 -7 -6.5t-6 -5.5q-1 -2 -5 -13t-8 -22.5t-5 -15.5q0 -1 -1 -6.5t-1 -7.5v-13q0 -4 4 -8t8 -4q20 -4 66 -4q5 0 30.5 -1t30.5 -1t17.5 -0.5t22.5 -1t11 -0.5q8 -1 35.5 2.5t36.5 5.5q1 1 13.5 6t28 11.5t22.5 9.5l32 16q2 1 8.5 4t11 5t5.5 1 q2 0 12 -10q0 -6 -2 -8v-6q-2 -2 -5 -7t-5 -6q-2 -2 -7.5 -3.5t-6.5 -0.5q-4 -3 -21.5 -10.5t-34.5 -14t-18 -7.5q-41 -14 -49 -15l-21 -4q-43 0 -47 2q-6 -6 -16 -6q-4 0 -13 -1t-10 -1q-3 0 -29.5 5t-29.5 5q-70 10 -86 10q-13 0 -19 -6q-4 -11 -21.5 -44t-38 -70.5 t-22.5 -42.5q-1 -4 -16 -31t-16 -29q-3 -3 -8 -15.5t-5 -14.5q-8 -12 -32 -60q-2 -3 -11.5 -17.5t-11.5 -17.5q-4 -8 -10 -14q-1 -1 -5.5 -4.5t-8 -7t-3.5 -4.5q-1 -1 -6 -7.5t-6 -7.5q-11 -11 -33 -22l-4 -2l-4 4q-1 1 -3 6t-3 6q2 2 2 4zM604 356l2 11q-8 8 -12 8l-96 16 q-7 -8 -9 -12q-26 -43 -26 -55l-12 -48l19 -2q18 -1 22 0q6 -1 15.5 -0.5t25 1.5t20.5 1q1 0 8 2.5t8 2.5q1 1 8.5 6t8.5 6q0 1 3.5 10.5t7.5 22t5 18.5q2 8 2 12z" />
<glyph unicode="$" horiz-adv-x="665" d="M-61 -106l8 28q2 3 9.5 13t8.5 10q2 10 6 14q2 10 2 12q-22 15 -40.5 48.5t-18.5 62.5q-12 181 76 342q20 20 24 31q2 3 21 22q3 0 12.5 4t11.5 4q2 1 14.5 3.5t14.5 3.5q80 -3 117 -138q0 -2 1 -18t1 -19q0 -58 -14 -86q0 -1 -2 -5.5t-4 -11t-3 -9.5q-8 -12 -8 -25 q-27 -53 -39 -67q-8 -8 -8 -15q-3 -2 -11 -7.5t-14.5 -10t-7.5 -4.5q-5 -5 -21.5 -12t-19.5 -7l-10 2q0 2 3.5 7.5t4.5 5.5t14.5 10.5t16.5 13.5q1 1 4 9.5t7 19t7 14.5q0 9 13 35q10 30 10 31q2 0 2 24q0 8 0.5 22t0.5 26t-1 24q0 86 -35 158q-1 0 -3 1t-3 1h-8 q-52 0 -94 -94q-18 -64 -26 -93t-18 -81t-8 -81t13 -63.5t35 -58.5q0 -2 8.5 -6t11.5 -4q6 -3 8 -5l10 -2q4 1 11.5 0.5t18.5 -1.5t13 -1q2 1 13 2t12 2q3 2 24.5 9.5t24.5 9.5l10 6q10 6 11 8q3 1 12.5 12.5t11.5 14.5q52 81 64 156t2 196q-2 24 -15.5 112t-13.5 97 q0 51 -4 59q1 5 -1 50.5t-1 50.5q0 33 4 57q0 23 13 69t26 66q50 68 84 80q2 1 41 14q2 0 11 2.5t11 2.5q15 -5 52 -5q1 1 5 4.5t5 4.5q14 28 43 72t33 63q0 1 2 2.5t4.5 3t3.5 2.5h6q4 -4 8 -4q0 -1 5 -5t5 -5q1 -11 -1 -22t-9 -26.5t-11 -23t-16.5 -29t-15.5 -26.5 l-3.5 -14l-4.5 -18t-2 -11q1 -5 12 -22t15 -21q1 -4 7.5 -16t6.5 -15q12 -24 12 -33q0 -2 3 -14.5t3 -14.5q9 -58 11.5 -81.5t-1.5 -67.5t-20 -82q0 -1 -3 -5t-6.5 -8.5t-4.5 -6.5q-19 -19 -31 -25q-2 0 -13.5 -5.5t-15.5 -6.5q-16 0 -20 2l-4 2l-8 2q-1 0 -9 5t-10 5 q-1 3 -5.5 7t-4.5 5l-10 17v6l4 4q2 0 7 1t7 1q1 -2 9.5 -15.5t9.5 -15.5l2 -4h6h24q9 0 15 6q16 15 20 19q1 0 6 6t6 6q3 3 10 14.5t7 14.5q0 1 1.5 4t3.5 7.5t3 6.5q14 94 -12 199q1 1 -2.5 8.5t-5.5 9.5v15q-13 26 -13 28q-1 2 -11 15.5t-11 15.5q-1 1 -4 2.5t-5 3.5 t-2 4q-50 30 -51 31h-4q-5 -1 -9 -1t-7 1q-2 0 -9 -1t-8 -1l-14 -6q-24 -18 -33 -27q-3 -1 -10.5 -15t-9.5 -20q0 -1 -3 -9t-3 -9l-6 -23q-1 -1 -4 -17.5t-3 -21.5q0 -3 -1 -15.5t-1 -14.5t1 -35t1 -45q0 -34 7 -55q30 -312 -15 -467q-1 -3 -9 -28.5t-9 -31.5 q-3 -5 -7.5 -18.5t-8.5 -24.5t-5 -12q0 -2 -8 -19t-12 -22q-13 -26 -15 -27q-4 -5 -13.5 -17.5t-17 -22.5t-9.5 -11q-1 -4 -10 -11t-11 -7q-10 -10 -37 -19q-4 -2 -18 -8t-15 -6q-2 -1 -11 -3t-11 -3q-36 -9 -74 -4q-2 -2 -4 -5t-4 -5q-9 -15 -17 -52.5t-18 -56.5 q-1 -2 -6.5 -4.5t-5.5 -3.5l-8 -4h-4l-9 6q-4 0 -4 6q0 25 4 31q0 8 9 35z" />
<glyph unicode="%" horiz-adv-x="1241" d="M289 -137q0 2 1 7.5t1 6.5q16 23 22 29q4 6 6 8q26 35 37 53q12 25 82 162.5t82 161.5q1 1 6.5 16.5t12.5 33.5t10 26q0 2 3.5 11t4.5 9q2 6 9 25.5t12.5 36.5t7.5 20q1 1 7.5 17t8.5 20q11 33 21 53q2 2 13.5 27.5t14.5 29.5t12 21.5t16 30.5t9 14l27 40q27 40 35 50 q11 11 20 29q32 48 37 53q4 6 27.5 28.5t33.5 30.5q15 11 21 15l16 8q4 -6 6 -8v-4v-4q-54 -54 -59 -58q-5 -5 -37 -45q-1 -2 -6.5 -9t-9.5 -12.5t-4 -7.5q-14 -18 -45 -69q-1 0 -11.5 -15t-13.5 -22q-27 -45 -29 -49q-25 -58 -37 -74q-1 -2 -4.5 -11t-6.5 -16.5t-3 -9.5 q-2 -5 -11 -33.5t-11 -33.5q-4 -10 -12.5 -39.5t-8.5 -34.5q-1 -3 -4.5 -18.5t-3.5 -18.5q-1 -2 -7 -16t-11 -27t-5 -16v-9q-7 -14 -22 -59q-1 -1 -4.5 -9.5t-3.5 -10.5q-2 -3 -21 -62q-4 -5 -13 -25t-9 -24q-29 -52 -52 -106q-1 0 -7.5 -8.5t-8.5 -12.5q-2 -3 -9 -12 t-13 -16t-7 -9l-45 -45q-13 -7 -43 -29l-16 -8q-1 0 -3.5 3t-2.5 5q-2 13 -2 15zM756 33q0 2 1 8.5t1 7.5q0 13 4 29q3 6 16 45q0 13 8 29q1 3 29 59q10 10 16 22q0 2 13 15q1 1 11.5 3t12.5 3h17h20q11 -4 13 -6q3 -3 15.5 -16t14.5 -15q1 -1 4.5 -7.5t6.5 -12.5t4 -9 t4 -22t4 -23v-37v-36q-1 -4 -2.5 -14.5t-3 -19t-2.5 -11.5q0 -1 -3 -5t-6.5 -9t-5.5 -7q-2 -3 -11.5 -15t-10.5 -14l-8 -8q-2 -2 -11 -8.5t-10 -7.5q-42 -21 -45 -21q-1 0 -8 -1t-8 -1l-21 2q-7 0 -16 9l-5 5q-6 4 -10.5 8.5t-5.5 6.5l-16 21q-4 8 -4 38q-2 11 -2 15z M778 20v-2q1 -2 4 -15t4 -15q0 -4 9 -13q0 -4 5 -10t7 -6q0 -2 24 -2q19 0 21 2q1 0 10 10t12 11q0 1 3.5 7.5t7 14.5t4.5 10t4 14.5t4 14.5v16v21q-1 2 -4 16t-7 33t-5 25q-7 14 -7 28l-6 23h-4h-4q-2 -1 -24 -23q-16 -23 -29 -57q-11 -33 -21 -68q-8 -16 -8 -30v-5z M274 709q0 3 1 10t1 8q0 3 7 45q7 36 8 37q0 2 5.5 14t8.5 15q10 20 14 24q4 3 17.5 15.5t13.5 13.5h12h17q2 -1 11.5 -4t10.5 -4t11 -10t12 -11q0 -10 6 -16q1 -2 3 -7t3.5 -9t1.5 -5v-39v-43q-1 -4 -4 -33t-4 -32q-6 -12 -6 -25l-8 -8q-22 -11 -23 -12q-18 -12 -28 -17h-5 h-4q-2 1 -17 8t-20 9q-14 7 -14 8q-2 0 -8 5.5t-6 6.5q-1 1 -2.5 4t-3 7.5t-2.5 5.5q-1 2 -2.5 7t-3 8.5t-1.5 4.5q-2 15 -2 19zM305 678q6 -12 14 -16q10 -10 31 -17h2h4q3 2 8 7.5t10 11.5l5 6q0 1 8 49q0 9 1.5 27.5t3.5 33.5l1 15q-6 20 -6 30q-8 16 -8 21l-8 16h-2h-4 q-2 -1 -6.5 -6t-10 -11t-6.5 -7q-3 -2 -8 -8.5t-9.5 -13t-5.5 -7.5q-6 -6 -6 -29q-1 -4 -3 -13t-3.5 -16t-1.5 -8l-1 -13q-1 -14 -1 -19q0 -3 1 -17t1 -16z" />
<glyph unicode="&#x26;" horiz-adv-x="1255" d="M461 117v30q0 7 8 23q20 40 23 43q8 15 22 25q3 1 29 14h24h21q3 -2 11 -10.5t9 -12.5v-8v-8l-37 -37q-3 -3 -20 -37q-16 -32 -16 -37v-34v-39q0 -5 8 -13l16 -16q7 -5 29 -16t28 -13q15 -2 19 -2q2 0 9.5 1t8.5 1t6 2t11 4t8 3q1 0 37 12q4 0 12 8q4 2 13 7t16 8.5 t8 4.5l37 37q33 44 37 54l7 13q7 13 13.5 26.5t9.5 19.5q4 5 20 40t17 42q6 12 8 14q0 9 7 23q8 24 8 28v33v35q0 1 -1.5 5t-3.5 10t-3 8t-7.5 14t-7.5 14q0 2 -6 8q-2 1 -15 3.5t-16 3.5h-8h-6q-3 -1 -9 -4t-12.5 -6.5t-7.5 -4.5t-53 -45l-14 -14q0 -1 -7.5 -3.5t-18 -6.5 t-13.5 -5q-1 -1 -10 -4.5t-11 -3.5q-1 0 -4.5 -1t-5.5 -1l-6 2q-4 6 -4 8l-2 7q0 1 1 4t1 4t2 7t2 7q29 29 33 31q43 21 43 22q59 59 67 66q1 2 6.5 11t6.5 11q3 6 16 44t14 45q1 3 18.5 39.5t18.5 41.5q1 2 7 21.5t8 24.5q0 12 8 28q14 42 14 53q8 24 8 43v37v37q0 7 -8 31 q0 1 -3 8.5t-6.5 16.5t-4.5 12q-2 2 -8.5 13t-6.5 15q-2 3 -7.5 13t-9.5 16.5t-5 7.5l-45 45q-11 4 -45 29q-2 1 -10.5 4t-10.5 4q-5 0 -29 1t-28 1q-5 0 -18 -0.5t-23.5 -1t-11.5 -0.5q-24 -8 -54 -14q-6 -4 -38 -20.5t-35 -18.5q-9 -6 -38 -34.5t-36 -39.5 q-32 -64 -37 -73q-1 -3 -7 -18.5t-7 -18.5q-2 -5 -11.5 -33t-11.5 -33q-11 -28 -22 -74q-6 -12 -6 -36l-9 -29q-2 -13 -7.5 -64t-6.5 -55l-1 -11q-1 -11 -1 -14l2 -20q0 -2 3 -15t3 -16q0 -6 8 -14l23 -23q6 -6 37 -6q10 -2 14 -2l14 2q1 0 12.5 3.5t21 6.5t12.5 5 q6 2 19.5 10t16.5 12q3 3 21.5 18.5t21.5 18.5q15 10 46 42.5t36 39.5q6 6 20 34.5t17 39.5h8h9q1 -1 4 -4.5t4 -4.5v-12v-10q-15 -27 -45 -96l-8 -15q-4 -5 -16 -25l-13 -20q-2 -2 -15 -18t-16 -19l-14 -14q-15 -15 -47 -43.5t-35 -30.5q-18 -18 -51 -37q-20 -15 -74 -51 q-6 -5 -23 -22t-22 -23l-14 -28q-9 -18 -9 -31q0 -2 -3 -12t-3 -11q-1 -2 -3 -5t-3.5 -5.5t-1.5 -3.5l-8 -6q-8 -8 -21 -8q-1 0 -4.5 -1t-5.5 -1l-6 2q-1 0 -3.5 3t-2.5 5q-8 8 -8 20v29v31q0 6 8 30q0 3 6 15q1 1 8 11t8 11l15 15q3 2 22.5 14.5t22.5 13.5q0 1 28 8h15 q40 20 45 23q19 9 37 23q12 4 22 14q29 29 74 65q1 0 2.5 2l3 4t2.5 3h-4h-4q-5 -3 -30 -16.5t-29 -14.5q-28 -14 -46 -14q-16 -2 -22 -2q-2 0 -11 1t-10 1q-11 0 -53 14q-12 6 -14 8q-14 5 -23 14q-21 21 -22 23q-26 39 -29 45q-1 1 -4 10t-4 10q-6 18 -6 31q-8 40 -8 51 v60v59q0 34 8 66q0 10 14 45l14 28q14 28 23 37q3 3 14 25q8 9 22.5 29.5t14.5 21.5q2 1 15 14t16 15q1 1 11 7t11 7t7.5 8t7.5 8q1 0 8.5 4.5t16.5 9.5t12 7q4 2 16.5 10t22.5 14t12 7q6 3 20.5 10t26 12t12.5 6q1 0 12.5 3.5t26 7.5t21.5 6q3 1 18.5 3t18.5 3q4 1 27 4 t26 4h12h16q1 0 6.5 -1.5t12.5 -3.5t10 -3q12 -6 23 -6q1 -1 7 -4t7 -4q4 -2 13 -8t16 -10.5t8 -4.5q7 -6 30 -28.5t29 -30.5q1 -1 11 -16.5t12 -20.5q0 -1 3 -8t6.5 -16t4.5 -13q2 -6 7.5 -20.5t10 -26t5.5 -12.5q8 -24 8 -29v-33v-33q0 -5 -8 -45q-9 -18 -9 -28 q-6 -18 -6 -45q-4 -24 -14 -54q-1 -3 -18.5 -40t-18.5 -42q-3 -7 -18.5 -51t-18.5 -51q0 -2 3 -7.5t3 -6.5q1 -1 15.5 -7.5t15.5 -7.5l37 -37q1 -1 3.5 -8t5.5 -16t5 -12q6 -18 6 -31v-27v-24q0 -13 -6 -31q-8 -30 -14 -43q-18 -36 -23 -51q-12 -32 -30 -68q-2 -3 -8 -16.5 t-7 -14.5q-2 -4 -8 -13.5t-13.5 -20t-8.5 -11.5q-31 -31 -43 -49q-2 -3 -14.5 -13t-16.5 -11q-1 0 -19 -9.5t-34 -17.5t-21 -10q-12 -6 -28 -6h-19h-18q-5 0 -23 6q-12 6 -14 8q-3 1 -26.5 12.5t-26.5 12.5q-2 0 -11 4.5t-10 7.5q-6 5 -17.5 16t-11.5 12q-4 7 -13 34t-11 36 v27z" />
<glyph unicode="'" horiz-adv-x="434" d="M129 903v2q0 3 -1 28t-1 28q0 2 -2 12t-2 12q0 3 -3 16t-3 15q-8 16 -19 49v16q5 21 13 29q10 8 14 8l10 6q5 0 18 -4.5t13 -7.5q2 -2 7.5 -13t6.5 -12q13 -19 13 -26v-49q0 -6 -5 -31.5t-8 -32.5q0 -1 -3 -9.5t-3 -10.5q-8 -23 -12 -23t-10 -6l-11 -2q-4 -4 -10 2 q0 2 -2 4z" />
<glyph unicode="(" horiz-adv-x="710" d="M137 459q0 6 1 25l1 18q0 8 3.5 52.5t4.5 51.5v6q7 70 9 74q0 25 14 74q1 3 3 17t3 16q1 1 4.5 10.5t7.5 20t5 12.5q20 60 20 73q0 1 5 10.5t11.5 22.5t8.5 19q11 33 28 67q4 7 23 45.5t22 42.5q3 6 29 45q7 7 22 37q29 51 37 59q1 1 14 16.5t15 20.5q19 19 23 21 q2 2 11.5 8.5t10.5 7.5h12h17l8 -8q1 -1 4 -10t4 -10v-5v-4q-1 -3 -18 -39t-19 -43q-1 -2 -8 -18t-8 -18q-1 -4 -21.5 -44t-21.5 -45q-1 -1 -4.5 -10.5t-3.5 -11.5q-1 -1 -4.5 -10.5t-6.5 -17.5t-4 -9q-8 -16 -8 -22q-6 -12 -6 -29q-1 -3 -11.5 -31t-11.5 -31 q-1 -1 -4.5 -13.5t-3.5 -14.5q-1 -2 -4 -13t-6 -20.5t-4 -11.5t-4 -15t-4 -14q-3 -9 -21 -45q-1 -5 -8 -51t-8 -51q-6 -12 -6 -37q-1 -4 -7.5 -48.5t-7.5 -48.5q-1 -1 -4.5 -10.5t-3.5 -11.5q-1 -3 -3 -10t-3.5 -12.5t-1.5 -6.5v-22q-6 -60 -6 -201v-22v-23q0 -19 6 -69.5 t8 -61.5q0 -5 14.5 -63t22.5 -85q1 -2 6.5 -24.5t7.5 -28.5q5 -16 9 -20q7 -23 22 -54q2 -7 37 -59q4 -10 33 -66.5t33 -66.5q-1 0 -3.5 -1t-3.5 -1l-8 2q-6 0 -14 8l-11.5 11.5l-20 20l-13.5 13.5q-3 1 -14.5 16t-14.5 21q-1 1 -8 10.5t-8 10.5q-12 12 -21 30q-9 9 -16 23 q-10 15 -21 37q0 1 -7.5 12.5t-8.5 15.5q-8 8 -14 37q-9 33 -23 60q-35 101 -37 112q-1 1 -8 37q-6 12 -6 49q-14 42 -14 62q0 1 -2 20t-4 44t-3 38t-3 41t-3.5 48.5t-1.5 21.5t-0.5 9.5t-1 19.5t-0.5 16z" />
<glyph unicode=")" horiz-adv-x="796" d="M645 459v-45q0 -18 -6 -111q-1 -12 -3 -37.5t-3.5 -44.5t-1.5 -20q0 -11 -17 -62q0 -2 -3 -24.5t-3 -24.5q-6 -30 -6 -37q-1 -5 -8.5 -27t-18 -50.5t-12.5 -34.5q0 -9 -22 -60q-1 -7 -7 -21t-8 -16q-1 -3 -4 -8.5t-6.5 -12t-3.5 -7.5q-14 -28 -23 -37q-9 -18 -14 -23 q-8 -16 -22 -30q-1 -1 -7.5 -10.5t-7.5 -10.5q-26 -35 -30 -37q-3 -6 -22 -24.5t-21 -20.5q-8 -8 -15 -8q-6 -2 -8 -2q-1 0 -4 1t-4 1q5 10 33.5 66.5t33.5 66.5q35 52 37 59q1 2 5 12t10 23.5t8 18.5q0 2 6 20q2 6 9 29t7 24q37 144 37 148q9 46 15 131v23v22 q0 16 -4 101.5t-5 99.5v22q0 5 -6 29q0 2 -3.5 11.5t-4.5 10.5q-2 7 -8 48.5t-6 48.5q0 3 -4 18.5t-5 18.5q-1 5 -7 51t-7 51q-21 42 -22 45q-1 1 -4 13.5t-3 15.5q-3 6 -16 45q0 1 -3 14t-3 14q-1 3 -11.5 31t-11.5 31q0 13 -8 29q0 1 -3 10.5t-3 11.5q-1 1 -4.5 9t-7 17.5 t-4.5 10.5q0 16 -6 22q-37 74 -46 89q-1 2 -7 18t-7 18q-13 26 -37 82v4v5q1 1 4 10t4 10q0 2 3 5t4 3h16h14q0 -1 4.5 -4t9.5 -6.5t7 -5.5q2 -1 22 -21q3 -3 16.5 -19t14.5 -18q0 -7 37 -59q0 -3 10 -19t12 -18q1 -3 14.5 -23.5t14.5 -21.5q3 -4 22 -42.5t23 -45.5 q1 -2 6.5 -14.5t12.5 -29t10 -23.5q22 -51 22 -52q0 -4 23 -73q1 -2 7 -22t7 -21q0 -15 6 -33q17 -60 17 -74q1 -2 8 -74v-6q6 -30 6 -104v-43z" />
<glyph unicode="*" horiz-adv-x="458" d="M16 723q3 9 21 45q9 18 20 29q3 4 15.5 16.5t17.5 15.5q2 0 21 13q2 1 18 12t18 12q14 7 54 37v10v11q-1 3 -8 16.5t-15 27.5t-8 15q-4 7 -14 45q-2 4 -2 6l2 8q0 2 5.5 8t8.5 7h4h2q12 -24 17 -29q1 -1 7 -18.5t7 -18.5q8 -24 14 -30q0 -2 3.5 -5.5t4.5 -3.5q5 5 15 25 q15 30 22 51q1 1 4 7t4 7h2h5l8 -8v-10v-10q-2 -9 -23 -62q6 0 15 9q2 1 11 8t11 8q6 4 8 6q1 1 14 11t15 12q24 24 29 36l30 45q1 1 3 6t3.5 10t2.5 5q0 2 6 8h4h4q1 -1 3 -4t3 -4v-2v-4q-1 -4 -4.5 -15.5t-6 -20t-3.5 -9.5q-6 -12 -23 -29q-1 -1 -7 -11t-7 -11l-29 -29 q-48 -36 -74 -62q-8 -4 -16 -12l-2 -4l2 -4q1 -3 6 -13t11 -20.5t6 -11.5q14 -35 14 -37q4 -20 4 -59q-8 0 -10 2q-8 0 -8 4q-1 1 -4 15.5t-3 17.5q-12 24 -16 36l-14 21q-6 6 -6 8h-5h-4l-8 -8q-5 -15 -20 -45q-1 -1 -12 -17t-13 -20q-4 -12 -12 -20l-17 -17l-8 -2v10 l37 74q1 3 8.5 18.5t8.5 18.5v4v4q-1 -1 -8.5 -4t-8.5 -4q-3 -3 -17.5 -11t-19.5 -10q-3 -2 -14 -10t-19.5 -14.5t-9.5 -7.5q-1 0 -14 -13t-45 -61l-8 -4l-4 -2l-5 2q-4 0 -4 4z" />
<glyph unicode="+" horiz-adv-x="348" d="M57 78v4q1 1 8.5 7t8.5 7l8 15q0 4 8 28q0 25 6 37q0 27 6 45q0 9 17 68q0 12 8 28v13v10l-8 8h-99l-4 6q0 4 4 8q11 11 17 11h96q4 14 6 18q5 25 31 90q5 15 23 51q1 1 9.5 17.5t10.5 19.5q2 2 13 16t12 15q4 4 20 12q8 4 33 4q0 -1 -1 -5t-1 -5q-18 -36 -23 -51 q-14 -35 -14 -37q-1 -1 -2.5 -7.5t-3 -14t-2.5 -9.5q-6 -18 -6 -36v-7q-1 -1 -4.5 -11t-4.5 -11l-8 -14q0 -1 -1 -5t-1 -6l2 -6q6 -6 17 -6h90q0 -1 -1 -4t-1 -4q-8 -8 -9 -8q-2 0 -18 -3.5t-18 -3.5q-56 -14 -60 -14q-3 -1 -10.5 -10t-9.5 -12q-1 -2 -8.5 -22.5t-8.5 -22.5 q-7 -10 -28 -74q-1 -1 -5 -11t-4 -12q-2 -4 -7.5 -20t-6.5 -17q-3 -8 -11.5 -25.5t-10.5 -19.5q-34 -34 -37 -36l-4 -3l-4 3q-2 0 -5.5 3.5t-3.5 4.5v4z" />
<glyph unicode="," horiz-adv-x="296" d="M-8 -115v4q4 12 24 52q1 1 2 10.5t2 11.5t3 9t3.5 12.5t2.5 7.5q0 29 8 53q0 2 3.5 7t4.5 5q8 12 21 25q12 2 16 2q2 0 7.5 -1t6.5 -1q21 -21 23 -25q0 -1 1 -13.5t1 -14.5q0 -5 -1 -17l-1 -12q0 -1 -5.5 -10.5t-10.5 -20t-7 -14.5q-24 -36 -39 -51q0 -3 -12 -15 q-24 -16 -25 -16t-4 -1t-4 -1l-12 2q-2 0 -5 3.5t-3 4.5v4z" />
<glyph unicode="-" horiz-adv-x="696" d="M186 362l2 7l15 14l295 -8q2 0 8.5 -5t7.5 -8l2 -12q-6 1 -25 1t-41.5 -0.5t-25.5 -0.5q-11 -1 -86.5 -4.5t-89.5 -3.5l-12 1q-12 1 -15 1h-24q-2 0 -5.5 4.5t-3.5 7.5q-2 4 -2 6z" />
<glyph unicode="." horiz-adv-x="317" d="M117 68q0 2 1 7.5t1 6.5l14 14q2 0 14 6h5h4q18 -6 20 -6q0 -1 1.5 -3.5t3.5 -5.5t3 -5q1 -3 3 -10t4 -12.5t2 -6.5q0 -7 -9 -16q-2 -2 -5 -6t-5.5 -7.5t-3.5 -3.5t-6.5 -1t-7.5 -1l-17 2q-3 0 -12 17q-8 8 -8 16q-2 9 -2 15z" />
<glyph unicode="/" horiz-adv-x="524" d="M-53 -281q0 1 -1 14t-1 15q0 5 1 18l1 13q0 13 8 37q1 2 8 18.5t8 18.5q0 10 9 28q0 19 4 23q0 2 3.5 19t4.5 18t8 21.5t8 21.5q0 16 8 32q8 40 13 50q1 3 8 22t13 36.5t7 22.5q1 3 12.5 27t12.5 27q9 27 14 37q6 25 37 102q1 3 11.5 29.5t11.5 29.5q1 2 4 11.5t6 20.5 t4 13q36 90 43 111q0 1 12 31t13 35q19 57 20 59q12 24 23 68q1 3 11 28.5t11 28.5q21 57 88 266q11 34 90 207q1 2 3 8.5t3 7.5l15 15q1 0 5 1t5 1q0 -1 -1 -8.5t-1 -8.5q-1 -4 -14 -41.5t-15 -48.5q-11 -22 -16 -37q-6 -6 -6 -14q-1 -1 -4 -11t-4 -12q-9 -23 -29 -102 q-1 -4 -11.5 -38t-11.5 -38v-6q-1 -1 -4.5 -10.5t-3.5 -11.5q-1 -4 -11 -37t-11 -37q-12 -47 -29 -90q-8 -8 -8 -12q-1 -1 -2 -6t-2 -11t-2 -8q-3 -8 -19.5 -59t-17.5 -58q-8 -8 -8 -14q-8 -39 -60 -178l-20 -60q0 -1 -6.5 -18.5t-12 -34t-6.5 -20.5q-3 -10 -37 -110.5 t-37 -113.5q-1 -2 -10 -38.5t-10 -38.5q-1 -3 -8 -27t-8 -27t-6.5 -30t-6.5 -29q-1 -1 -4.5 -10.5t-7 -17.5t-4.5 -9t-4.5 -11t-3.5 -12q-2 -5 -7 -20t-6 -16q-13 -26 -16 -29l-16 -16q-2 -2 -11 -8t-10 -7l-4 -2l-4 2q-1 0 -4.5 3.5t-3.5 4.5z" />
<glyph unicode="0" horiz-adv-x="792" d="M23 274q0 6 2 24l2 19q0 14 8 70q8 32 8 41q14 42 14 57q0 2 4 17t5 18t15 34t15 34q0 2 4.5 11t5.5 9q17 34 23 49q0 1 3 8.5t3 8.5q5 7 16 23.5t19.5 29.5t9.5 14t41 33q2 1 10 7t14 10t7 4h51q2 4 19 32.5t20 34.5q4 8 23 27q2 3 22 20.5t23 20.5q2 2 15 9.5t15 8.5 q1 1 29 15l8 8q1 1 7.5 2t7.5 2q30 12 45 12h34q5 0 15 -0.5t17.5 -1t8.5 -0.5t12 -3t13 -3q5 -5 35 -25q12 -12 14 -12q5 -8 30.5 -57.5t31.5 -57.5q1 -2 3 -12.5t3 -11.5q4 -20 4 -70v-67v-64q0 -2 -2 -26t-2 -31q-2 -6 -7.5 -31.5t-12.5 -55t-9 -38.5q-1 -2 -2 -10.5 t-2 -16t-2 -8.5q-1 -7 -11.5 -43t-11.5 -41l-10 -20q-6 -6 -6 -13q-6 -12 -6 -20q-10 -20 -10 -31q-19 -39 -21 -47q-13 -27 -16 -27q-1 -2 -12 -24.5t-11 -24.5q-1 -1 -9 -11.5t-18 -23.5t-14 -18q0 -3 -5 -13t-7 -10q-6 0 -25 -28q-2 -3 -9.5 -11t-13 -14.5t-5.5 -7.5 q-33 -33 -45 -39q-7 -7 -26 -20t-21 -13q-7 -5 -21 -11t-25 -10.5t-12 -4.5q-17 -4 -31.5 -6.5t-27.5 -2t-21 0.5t-18.5 3.5l-13.5 4.5t-13 5l-10 5q-8 3 -27.5 16t-19.5 15q-3 1 -10.5 8.5t-16.5 17.5t-10 11t-11 13t-12 13q-3 4 -10 19t-16 32.5t-10 20.5q-3 3 -29 69 q-8 24 -8 31q-8 48 -8 92q0 33 -2 47zM174 109q1 -3 11 -40.5t14 -45.5v-5q0 -12 6 -24q7 -21 14 -35q3 -7 12 -23t11 -18q12 -18 20 -22q14 -7 37 -7q6 -3 47 5q17 0 23 6q5 2 28.5 18t30.5 23q7 0 33 26q8 12 37 41q7 7 27.5 33.5t25.5 34.5q2 5 17 27.5t22 31.5 q26 52 28 58q1 3 12.5 27.5t12.5 27.5q0 1 23 47q0 13 8 29q0 1 3 11t3 11q1 4 5 16t8.5 24t4.5 13q9 66 31 156q0 24 8 96v43q1 4 1 11v13v12l-1 5q0 15 -6 51q-2 2 -5 12.5t-3 14.5q-4 12 -4 21q-3 6 -14.5 27t-20.5 38t-12 21q0 1 -3 3.5t-7 6t-5 4.5t-10.5 7.5 t-11.5 8.5q-2 1 -9 3t-8 3q-2 1 -8.5 3t-12 3.5t-7.5 2.5q-1 0 -9 1t-10 1h-12l-45 -15q-5 0 -29 -12q-2 -2 -8.5 -6t-14 -8.5t-9.5 -5.5q-3 -3 -22.5 -20.5t-22.5 -20.5q0 -4 -15 -19l-6 -8l-9 -15t-11 -17.5t-5 -8.5q-3 -6 -6 -30.5t-2 -30.5l-49 2l2 26q-1 -2 -7 -13 t-7 -13t-21.5 -56.5t-21.5 -60.5q-8 -8 -8 -17q-2 -7 -12 -33t-11 -28q-3 -8 -9.5 -35t-6.5 -35v-20q-8 -24 -8 -49q-1 -1 -5.5 -14.5t-5.5 -14.5q-8 -48 -8 -61l-1 -47q-1 -47 -1 -64v-108z" />
<glyph unicode="1" horiz-adv-x="694" d="M238 -115v11q0 16 6 28q1 5 7 52t7 51q18 91 31 147q1 5 7 34t7 34q9 42 14 59q12 49 23 74q1 2 4 11.5t6 20.5t4 13q0 13 8 29q7 21 7 36h-7q-11 -13 -57.5 -58t-60.5 -58q-4 -5 -27 -22t-33 -23q-15 -10 -57 -31l-16 -1q-16 -1 -21 -1t-16 0.5t-19.5 1t-9.5 0.5 q-9 0 -25 8q-4 0 -4 8q-8 8 -8 15h111q20 8 28 14q5 5 23 14q2 2 15.5 11.5t15.5 11.5q4 4 88 74l14 14q6 8 27.5 33.5t23.5 27.5q2 1 11 12.5t19.5 26t14.5 19.5q1 1 7.5 11t7.5 11q2 3 7.5 12.5t9.5 17t5 7.5q0 1 20.5 45.5t24.5 50.5q0 5 6 17q17 29 51.5 95.5t36.5 72.5 q9 18 17 22l14 14q2 1 15.5 8.5t15.5 8.5h8h12q1 -1 9 -17v-10v-10q-1 -2 -4.5 -15.5t-4.5 -15.5q-3 -6 -7.5 -21.5t-8 -29.5t-4.5 -16q-18 -36 -25 -43q-1 -1 -6 -19t-6 -20q-3 -5 -20 -40t-17 -38q-1 -4 -6.5 -19.5t-11.5 -32.5t-6 -18q-6 -12 -21 -57q-8 -16 -8 -23 q-2 -6 -18.5 -62t-18.5 -62q-2 -8 -22 -68q-1 -4 -11.5 -37t-11.5 -37q-1 -2 -4 -13t-6 -20.5t-4 -11.5q-1 -4 -11.5 -44t-11.5 -44q-4 -10 -20 -57.5t-17 -55.5q-1 -2 -7 -32t-7 -33q-1 -2 -4 -11t-4 -10q-5 -20 -15 -30q-1 -1 -6 -7t-9.5 -10.5t-6.5 -5.5q-1 -1 -10 -4.5 t-11 -3.5q-1 0 -8.5 -1t-9.5 -1l-12 2q-1 0 -3.5 3t-2.5 5v6z" />
<glyph unicode="2" horiz-adv-x="915" d="M14 -223q0 1 1 4t1 4q2 10 4 12q68 97 91 135q15 15 22 29q2 3 15.5 18.5t15.5 18.5q20 30 43 53q5 4 30 29.5t29 28.5q45 36 60 45q91 59 221 133q6 4 22.5 21t36.5 37.5t23 23.5q1 0 9 11t11 17q14 14 17 23q4 6 13 20.5t15.5 26t7.5 12.5q18 28 37 74q0 1 5 16 l10.5 31.5t12 35.5t9.5 28q0 12 8 28q0 8 9 17q4 8 4 20q1 3 4 18.5t4 18.5q8 56 8 68v40v39q0 1 -8 25q-1 2 -6 14.5t-6 14.5q-15 16 -21.5 22.5t-19 14.5t-29.5 14q-43 23 -120 22.5t-122 -22.5q-31 -8 -37 -14q-5 -2 -31 -16t-36 -21q-18 -13 -37 -23q-11 -4 -29 -22 q-36 -28 -82 -74q-2 -2 -14.5 -16t-24 -26.5t-14.5 -14.5l-6 -9q-16 -24 -37 -45q-1 -2 -8.5 -12t-14 -19.5t-8.5 -13.5q-8 -16 -12 -28q-3 -7 -13.5 -30t-10.5 -24q-3 -3 -9 -28q-13 -46 -9.5 -91t18 -79.5t52.5 -53t95 -12.5q45 3 113.5 65t87.5 97q1 1 6.5 10.5t13 23.5 t10.5 19q27 54 29 57q1 2 11.5 18.5t11.5 18.5q2 5 17.5 34t18.5 32q9 18 15 24q2 2 8.5 9.5t12 13t7.5 6.5q1 1 5.5 2.5t11 3t8.5 2.5h14h15l8 -16v-21v-24q-1 -1 -4 -11.5t-7 -25.5t-5 -20q-1 -4 -15 -46q-4 -14 -22 -51q-21 -42 -21 -43q-8 -8 -16 -24 q-151 -209 -350 -209q-65 2 -105 34t-52 84.5t-10 105.5t15 112q1 2 5 12t8.5 22.5t7.5 18.5q2 2 7.5 12t10.5 19t6 10q0 5 21 33q3 2 15 19t13 18q4 3 17 16.5t27.5 29.5t17.5 19q1 4 12 15t16 14q21 14 52 45q3 2 11.5 9t15.5 12.5t9 6.5t21 14.5t24 16.5q3 1 18.5 11.5 t18.5 11.5q1 1 27.5 12.5t32.5 15.5q221 72 338 -45q12 -12 24 -28q1 -2 5 -8t6.5 -10t3.5 -5q0 -7 22 -51q8 -22 8 -23q1 -9 4 -28t6 -34t3 -17v-70v-74q0 -1 -3.5 -18t-3.5 -19q-1 -4 -7 -43t-7 -43q-1 -2 -10.5 -31t-11.5 -36q-1 -1 -5.5 -12t-9.5 -23t-8 -16 q-1 -1 -4 -8.5t-4 -8.5q-3 -4 -11.5 -20t-9.5 -17t-12 -14t-12 -14t-6 -11.5t-6 -11.5q-2 -3 -15 -15t-14 -14q-3 -3 -39 -30l-31 -23q-24 -14 -147 -74q-2 -1 -39.5 -17.5t-40.5 -18.5q-3 -1 -31 -15q-4 -2 -25.5 -15.5t-25.5 -15.5q-3 -2 -12.5 -6.5t-10.5 -5.5 q-3 -5 -17.5 -19.5t-18.5 -17.5q-1 -1 -21 -24.5t-22 -28.5q10 5 43 16q15 5 30 5h27h31q3 0 26.5 -2.5t26.5 -2.5l14 -1q15 -1 21 -1q3 0 16 1t14 1q3 1 19 3.5t30.5 5t18.5 4.5q3 1 34 17t40 20q6 8 8 8q1 0 8 1t8 1q0 -15 -4 -19q-1 0 -4.5 -4t-8 -9t-7.5 -7 q-2 -2 -12 -8.5t-11 -7.5q-2 -1 -24 -10t-27 -11q-32 -16 -45 -16q-1 0 -8.5 -0.5t-17.5 -1t-15 -0.5q-6 0 -27 1l-20 1q-6 0 -35 3.5t-33 4.5h-12h-10q-3 -1 -19 -4t-18 -4q-1 -1 -11 -5t-22.5 -8.5t-17.5 -7.5q-1 -1 -5 -3t-6.5 -3.5t-3.5 -1.5q-1 -1 -11 -7t-11 -7 q-2 -1 -18.5 -11.5t-18.5 -11.5q-8 -8 -14 -8q-6 -2 -25 -15.5t-20 -13.5q-1 -1 -5 -4t-7 -6t-3 -4q-1 -1 -10.5 -12t-18 -20.5t-10.5 -10.5q-1 -4 -9.5 -14.5t-10.5 -10.5q-6 -2 -8 -2l-9 2q-4 0 -4 9q-2 6 -2 8z" />
<glyph unicode="3" horiz-adv-x="835" d="M18 236q0 2 1 11.5t1 10.5q0 19 17 53q1 1 20 39q1 4 12.5 20t16.5 21q131 157 285 103q50 -27 73 -67t29 -114q0 -13 -6 -49t-6 -49l-12 -18q-4 -9 -15.5 -28.5t-13.5 -21.5q-1 -2 -16.5 -18.5t-18.5 -22.5l-8 -6q-12 -4 -17 -4h-14l-16 4q-15 9 -19 11q-2 2 -5.5 4 t-6 3.5t-2.5 2.5l-12 14q-2 10 -2 12q4 4 4 13l10 20q2 2 19 27.5t20 28.5q5 7 21 32t18 27q1 2 3.5 9.5t5 16.5t3.5 11q0 12 2 16q0 2 1 11t1 10q0 13 1 31t1 23.5t-3.5 14.5t-12 15.5t-25.5 15.5q-94 25 -177.5 -31t-125.5 -194q-24 -157 33 -250q40 -85 119 -103 q32 -8 37 -8l18 -1q19 -1 25 -1q5 0 16 0.5t19.5 1t9.5 0.5t5 1.5t9.5 3.5t7.5 3q1 0 10.5 4.5l19 9t13.5 7.5q6 3 18.5 10t23 13.5t11.5 7.5q118 89 193.5 288t75.5 375v17v14q-1 1 -8 5.5t-9 6.5l-14 8h-27h-24q-13 0 -29 -8q-9 -5 -39 -12l-14 -8l-45 -45 q-15 -15 -21 -15q-2 -2 -11.5 0.5t-10.5 5.5q-3 1 -9 8t-6 9q-2 10 -2 14q0 1 1 7.5t1 7.5q16 22 74 90q3 6 71.5 93t74.5 93q8 8 8 14h-37q-3 -1 -19 -2t-18 -2q-79 -11 -98 -16q-2 0 -18 -5t-19 -5q-1 -1 -14.5 -5.5t-14.5 -5.5q-65 -33 -114 -98l-5 -2l-4 2q-6 8 -6 10 q-2 7 -2 9q0 1 1 3t1 3q7 27 34 55.5t67 44.5q3 2 12 5.5t16 6.5t8 4q12 0 103 25q8 4 22 4q3 0 25.5 3.5t26.5 4.5q10 1 58.5 15.5t59.5 19.5q1 0 4.5 3t4.5 3q10 10 20 25q10 5 25 20q1 1 6 4t6 4h8h8q1 -1 7.5 -4t7.5 -4q0 -1 3 -7t3 -7l-3 -16q-3 -16 -3 -21 q-1 -2 -2.5 -7.5t-2.5 -9.5t-2 -5t-7.5 -10t-8.5 -11q-27 -41 -37 -53q-117 -163 -125 -170l-2 -4l2 -4q0 -2 3.5 -5.5t4.5 -3.5h17q22 -11 37 -16q2 -1 10 -6t10 -6l45 -45q0 -1 8 -17q1 -2 4.5 -10t4.5 -10q0 -25 4 -29q1 -4 3 -22.5t4 -35t3 -18.5v-14v-14 q-1 -6 -4 -44.5t-4 -45.5q-1 -4 -3 -26t-3 -26q0 -13 -27 -94q-10 -25 -20 -65q0 -1 -2 -4t-4 -7.5t-3 -5.5q-6 -9 -17 -29t-19 -36t-9 -17t-10 -14t-10 -14t-8.5 -10.5t-8.5 -10.5q-9 -12 -34 -38t-31 -29q-2 -1 -31 -20.5t-37 -22.5q-6 -6 -28 -17q-28 -14 -37 -14 q-12 -6 -23 -6q-2 -1 -14 -4t-14 -4q-3 -1 -19.5 -4.5t-19.5 -4.5q-5 -1 -15.5 -3t-18.5 -3.5t-9 -1.5q-74 0 -129.5 23t-114.5 82q-2 0 -8.5 9t-7.5 13q-22 29 -33.5 74.5t-13.5 76.5t-3 93q0 19 2 27z" />
<glyph unicode="4" horiz-adv-x="933" d="M557 -82v6q0 18 6.5 39t21 54t17.5 40q0 2 5.5 19t6.5 18q2 7 9.5 28t14 39t7.5 21v8v9q-2 1 -15.5 3t-15.5 3h-28q-5 0 -23.5 3.5t-21.5 4.5h-17h-20q-4 -1 -35.5 -4.5t-38.5 -3.5h-14q-24 -6 -37 -6q-11 -11 -51 -31q-14 -4 -23 -14q-74 -74 -119 -91q-1 0 -7 -1t-7 -1 l-14 2q-8 0 -17 9q-6 6 -6 8q-2 8 -2 12q2 6 2 8q3 7 20 33.5t23 34.5l31 31q9 9 37 51q2 2 22 29t23 30q2 4 34 51t40 60q1 2 11 18.5t11 18.5l23 37q24 38 28 43q3 3 8 12t9.5 16t5.5 8q16 42 37 74q8 9 17 47t11 43q1 4 4 13.5t7 20t4 11.5q8 32 8 37v31v35 q-3 12 -6 32.5t-5.5 31t-12.5 23.5t-27 23q-39 16 -111 0q-24 -6 -31 -6q-80 -37 -125 -82q-7 -5 -36 -43q-27 -41 -29 -45q-8 -8 -8 -16q-1 -1 -6.5 -10t-11 -17t-5.5 -10q-1 -1 -14 -32.5t-17 -41.5q-8 -16 -8 -20q0 -3 -2 -16t-2 -15q-3 -9 -7 -27t-6.5 -32t-2.5 -15 t-0.5 -10t-1 -20.5t-0.5 -16.5q0 -4 -0.5 -14t-0.5 -15t1.5 -12.5t6 -13t11.5 -8.5q47 -23 102.5 23t73.5 93q0 1 8 17q4 14 15 37q0 16 6 28q1 3 8 27t8 27q0 18 6 36q0 5 4 29.5t5 28.5q0 10 14 31q0 1 1.5 2t3.5 2t3 2q0 1 3.5 2.5l7 3t4.5 2.5h6h8q2 -2 14 -8l8 -6 q1 -3 4 -23.5t3 -28.5v-26v-27q0 -6 -7.5 -38.5t-7.5 -35.5q-4 -22 -22 -57q-5 -5 -21 -37q-1 -2 -5 -8l-7 -10.5t-4 -5.5l-21 -21q-8 -7 -25.5 -21t-31.5 -25t-16 -13q-1 -1 -10.5 -4.5t-17.5 -6.5t-9 -4q-8 -8 -17 -8l-20 -8l-9 -1q-9 -1 -12 -1l-16 2q-44 0 -59 20 t-17 74q0 6 1 26l1 21q0 19 21 113q0 2 6.5 19.5t9.5 21.5q0 1 2 8t2 8q32 79 45 97q1 1 4.5 7t4.5 7l7 10q7 11 9 12q1 2 6 10t9 14t5 7q54 68 133.5 101t169.5 24q50 -12 81 -46.5t38 -86.5q0 -4 3 -23t3 -22v-70v-61q-1 -5 -12 -82q-1 -2 -7.5 -21t-8.5 -24 q-1 -4 -8 -19.5t-7 -17.5q-3 -6 -9.5 -19.5t-13.5 -26.5l-7 -13q-5 -11 -18 -32.5t-19 -35.5q-4 -7 -16.5 -31.5t-12.5 -25.5q-2 -3 -18.5 -27t-18.5 -27q-2 -2 -11.5 -18.5t-10.5 -17.5q-14 -28 -15 -29h111q4 0 40.5 -4t41.5 -4l16 -1q15 -1 21 -1q3 0 18.5 1t18.5 1l8 8 q1 1 21.5 54.5t43.5 111t27 65.5q1 1 4 7.5t4 7.5q21 42 21 51q1 4 8.5 15.5t7.5 12.5q1 2 8 12.5t8 12.5q1 1 6.5 6t6.5 6q1 0 5 1t5 1q0 -2 -1 -11.5t-1 -10.5q-2 -2 -7.5 -22.5t-6.5 -30.5q-3 -6 -43.5 -129t-42.5 -131v-5q1 0 9.5 -1.5t10.5 -0.5t17.5 7t19.5 8 q1 1 11.5 6.5t12.5 7.5q0 1 13 14q4 4 13.5 17t20 27.5t11.5 15.5q0 6 8 14q2 2 8 2v-8q-1 -3 -3 -11t-3.5 -13.5t-1.5 -6.5q-9 -9 -23 -37q-16 -16 -22 -28q-21 -21 -21 -23q-5 -3 -45 -22.5t-45 -22.5q-1 -1 -8 -7t-8 -7t-5 -10t-9 -19.5t-6 -13.5q-23 -46 -23 -53 q-6 -6 -6 -21q-31 -77 -31 -82q-6 -6 -6 -24q-2 -3 -8.5 -19.5t-7.5 -17.5q-15 -15 -15 -21l-22 -22h-8h-7l-14 14v2z" />
<glyph unicode="5" horiz-adv-x="819" d="M317 -104q-99 -22 -174.5 -1.5t-114.5 87.5t-22 159q0 2 6 27.5t6 32.5q1 1 8 14t9 16q2 4 8.5 16t12 22t7.5 12q44 55 46 57q4 6 51 45q7 7 37 25q3 1 14.5 8.5t13.5 7.5q40 19 58 23t67 -1q3 -2 15.5 -7.5t13.5 -6.5q24 -17 34.5 -35t20.5 -53v-14v-13q0 -4 -8 -12 q-2 -3 -7 -8.5t-7 -5.5h-25h-18q-2 1 -15 12.5t-16 13.5v5v8q0 2 -4 28.5t-4 28.5q-4 17 -6 19q-3 0 -9 5t-8 5q-5 0 -18 -1l-13 -1q-109 -46 -196 -162q-1 -2 -8 -15t-13 -25.5t-8 -16.5q-1 -1 -4 -11.5t-4 -11.5q-8 -24 -8 -31q-14 -58 1.5 -103.5t50.5 -69t88.5 -22.5 t111.5 31q140 106 220 248.5t73 296.5q3 67 -25.5 99.5t-95.5 40.5q-6 0 -23 -4l-16 -5q-13 0 -37 -8q-3 0 -22 -5.5t-23 -6.5q-3 -1 -18.5 -8.5t-18.5 -8.5q-2 -1 -5 -3t-5.5 -3.5t-3.5 -1.5q-14 -5 -45 -28q-1 -1 -8 -6t-14 -9.5t-7 -5.5q-1 -1 -11.5 -8t-11.5 -8 q-6 -4 -23.5 -21.5t-21.5 -23.5q-1 0 -4 -5l-6 -10t-4 -6l-22 -22q-1 -1 -7.5 -4.5t-7.5 -4.5q-1 0 -11 -3t-11 -3h-4h-5l-12 6l-8 15q-2 16 -2 22l2 15q2 8 16 37t21 36q2 3 78 139t88 150q1 2 6.5 11.5t10.5 17t7 8.5q18 24 58 27q3 1 47.5 -11t48.5 -14q3 -1 22.5 -2 t44.5 -2t35 -2q1 0 11.5 -1t11.5 -1t11 0.5t23 1t19 0.5q3 1 13.5 1h19.5t10 1q39 8 53 10q3 -1 7.5 -0.5t10.5 1.5l5 1q2 1 12 3.5l18 4.5t9 3q6 0 18 6q16 6 23 12q3 3 18.5 14t16.5 13t15.5 20t16.5 21l6 6q0 -2 7 -9q-2 -6 -2 -8l-2 -6q0 -2 -9 -20q-16 -27 -24 -35 q-1 -1 -7.5 -8.5t-7.5 -8.5q-4 -1 -13.5 -6t-19 -10.5t-10.5 -5.5q-10 0 -16 -6t-22 -6q-2 0 -16 -4.5t-15 -4.5q-5 -2 -25 -5.5t-22 -4.5q-1 -1 -9.5 -1h-19.5t-16 -1q-16 -2 -54 -2q-139 4 -182 16q-6 -1 -28 3t-23 4q-3 -1 -10 -8t-11 -9l-18 -33q-4 -4 -29 -56.5 t-52 -109t-28 -57.5q7 -6 9 -6h4h2q32 12 110 51q9 3 37 17q1 0 6.5 1.5t13.5 3.5t11 3q16 4 37 4q11 0 28.5 2t31 2t28.5 -4q15 -1 30.5 -6t21.5 -7.5t26.5 -14t23.5 -13.5q31 -23 31 -25q2 -4 8.5 -13.5t14 -19.5t8.5 -12q5 -5 12 -49q27 -121 -8 -250q-91 -254 -344 -370 q-1 0 -7.5 -3t-7.5 -3z" />
<glyph unicode="6" horiz-adv-x="827" d="M57 348q21 96 40.5 158.5t32.5 89.5t50 100q34 51 35 54q19 19 25 28q4 9 16.5 25t15.5 18q5 6 35.5 38.5t34.5 37.5q140 108 289 70q12 -6 14 -6q1 -1 17 -9t20 -16q27 -27 40 -64t14.5 -65t0.5 -76q-8 -48 -8 -67q0 -4 -4 -14.5t-6 -12.5h-2h-4q-6 6 -6 8q23 134 6 195 q0 4 -4.5 16t-6.5 14l-20 35q-6 5 -16.5 14.5t-14.5 13t-13 8t-20 7.5q-3 0 -22 1.5t-33 0.5h-35q-2 -2 -14.5 -6t-15.5 -6q-64 -31 -111 -84q-1 -4 -10.5 -13.5t-11.5 -9.5q-2 -3 -24.5 -34t-27.5 -37q0 -2 -8 -10q-22 -56 -24 -66q-10 -24 -37 -121q-14 -63 -17 -78 q0 -1 -2.5 -17.5t-5.5 -38t-4 -32.5q-1 -9 -2 -30.5t-2 -37t-2 -16.5q-2 -10 -2 -73q-3 -18 4 -101q1 -5 2 -25.5t2.5 -36.5t3.5 -18q0 -8 8.5 -41.5t12.5 -40.5q0 -5 7 -25t7 -22q14 -14 16 -14q7 -2 9 -2h10q4 0 14.5 3.5t13.5 8.5q2 0 48 23q3 3 18 12t16 10q4 3 33.5 34 t38.5 38q1 1 13 18t27.5 38.5t23.5 31.5q0 3 8 16t10 13q3 4 19 40t20 42q4 7 12 28.5t8 24.5q4 41 6 55q8 59 9 60q-4 4 -4 43l-7 36q0 3 -8.5 29.5t-9.5 30.5q-1 0 -7.5 7.5t-8.5 8.5q-27 20 -27 21q-1 1 -9 1t-9 1l-21 2q-13 0 -16 -8q-45 -27 -51 -39q0 -1 -5.5 -8.5 t-11.5 -17t-8 -13.5q-1 0 -6 -9.5t-6 -9.5q-12 -30 -21 -57q-1 -4 -4 -14.5t-5.5 -18.5t-4.5 -8q1 -2 -0.5 -12t-4 -23.5t-3.5 -19.5q0 -5 -0.5 -18t-1 -23.5t-0.5 -11.5q2 -2 2 -39q0 -2 -1 -15t-1 -16q-5 -15 -5 -31q-2 -3 -12 -31q-5 -10 -6 -10l-10 -2l-4 4l-17 8 q-22 15 -22 19q-1 1 -5.5 12t-11 26.5t-8.5 20.5q-10 13 -10 41q-1 2 -0.5 19.5t2.5 27.5q1 6 4 21t5 25.5t1 11.5q0 11 13 37q0 3 5 15.5t5 16.5q8 9 12 15q0 14 27 59q2 2 11 15t9 16q1 1 2.5 5.5t3 8t2.5 4.5q6 0 52 37q30 15 34 16q0 1 6 3.5t14 6.5t11 5q3 6 23 6 q10 -2 14 -4q2 0 7.5 -1t6.5 -1q0 1 4.5 -0.5t12 -4.5t8.5 -3q1 -1 4 -3t5.5 -3.5t2.5 -2.5q3 -2 16 -11t15 -11q12 -16 27 -31q0 -1 2.5 -5t5.5 -9t4 -8q2 -8 12 -34l10 -26q0 -2 2.5 -17.5t1.5 -17.5l-4 -33q-4 -33 -4 -44q-8 -40 -8 -66q0 -2 -6 -17.5t-15 -37t-12 -27.5 q-1 -7 -7.5 -24t-8.5 -19q-3 -1 -15 -22t-16 -25q-4 -10 -20 -35t-19 -28q-3 -12 -16 -25q-9 -14 -29 -36t-26 -25q-2 -1 -19 -15t-36.5 -29t-28.5 -20q-2 -3 -15.5 -10.5t-17.5 -7.5q-2 -1 -10 -4.5t-14 -6.5t-7 -2q-27 -2 -41 0q-5 0 -16 2t-19.5 3.5t-9.5 0.5 q-16 9 -20 9q-37 22 -41 22q-5 1 -16 15.5t-13 15.5q-9 19 -29 45q-1 2 -9 23t-15 41t-8 30q-2 0 -3.5 3.5t-3 9t-2.5 6.5q-2 2 -2.5 13t0.5 13q0 3 -4 26.5t-4 26.5v58q0 2 1.5 20.5t3.5 43t3 36.5z" />
<glyph unicode="7" horiz-adv-x="829" d="M260 -74v4q2 3 7.5 16.5t12 31t9.5 24.5q3 6 16 45q3 6 27 74.5t28 77.5q0 1 4.5 11t8.5 19t6 11v14q0 2 1 8.5t1 7.5t-8 9q-2 0 -16 1t-17 1q-6 0 -20 1l-13 1q-10 0 -31 -7q-3 0 -22.5 -5t-22.5 -5q-8 -8 -16 -8h-31q0 14 4 18q7 5 9 7q2 0 14 6q9 5 39 12q1 1 11 3 t11 3q18 6 37 6q2 0 18.5 -1t18.5 -1q4 -1 10 -0.5t15.5 1.5t11.5 1q5 0 14 9q1 1 8.5 6t8.5 6l8 16q5 10 18 49q24 64 35 86q12 42 31.5 85t21.5 55q34 69 35 71t3 8t3.5 10t1.5 5v18l-4 4q-4 -1 -33.5 -5t-33.5 -5q-3 -1 -24.5 -5t-24.5 -5q-2 0 -19.5 -1t-19.5 -1 q-1 0 -12.5 -2t-12.5 -2q-7 0 -50.5 -5.5t-49.5 -7.5q-19 0 -25 -6q-6 -1 -30.5 -7.5t-26.5 -6.5q-7 0 -39 -16q-17 -11 -21 -11q-2 -4 -13 -10l-11 -6q-6 -3 -15 -12q-10 -17 -12 -19q-1 -1 -3 -5t-3 -5q-2 0 -14 -6q-4 -2 -6 -2v2l-7 14q-2 2 -2 4l2 6q0 4 9 13q2 3 8 9.5 t8 6.5q4 6 6 8q3 4 14 12t20 14t9 7q5 4 31 15t37 14q0 1 37 8l10 2q10 2 14 2q21 0 39 6q14 0 60 7.5t59 11.5q4 0 24.5 3t24.5 3q3 0 30 6.5t34 7.5q2 1 10.5 3t9.5 3q5 3 30.5 13t28.5 12q7 7 27 22q0 1 2 4t4.5 7t3.5 6q24 24 27 30q2 4 13.5 18t15.5 17q5 4 13.5 13.5 t15.5 18.5l7 9q15 8 21 10q1 1 8 3.5t8 3.5q2 1 10 3t9 3h8h6q0 -1 3 -8t3 -9v-2v-2q-1 -2 -3.5 -9t-4.5 -13t-2 -8q-1 -2 -4.5 -11t-6.5 -16.5t-3 -9.5l-15 -15q-6 -8 -21.5 -41t-19.5 -36q-8 -24 -32 -72q-11 -22 -11 -25q-10 -20 -10 -28q-5 -17 -46.5 -111.5 t-47.5 -120.5q-3 -4 -7.5 -16t-8.5 -22t-5 -11q-16 -56 -16 -59v-13q1 0 3.5 -1t4.5 -1.5t4 0.5q2 0 70 17h4h2q1 -1 3 -4.5t3 -4.5l-2 -6v-8q-1 -1 -3 -4t-3 -4q-2 -2 -17 -7t-16 -5q-14 -5 -82 -25q-6 -6 -6 -8q-9 -9 -18 -27q-29 -51 -51 -123q-21 -42 -35 -84 q-2 -2 -10 -19.5t-9 -18.5q-1 -3 -13 -33t-13 -33q-6 -12 -9 -12q-1 0 -4 -3t-6 -7t-4 -5q-15 -7 -16 -6q-1 0 -9 -1t-10 -1l-18 4q-6 0 -14 8l-13 15q-8 8 -8 16v4z" />
<glyph unicode="8" horiz-adv-x="796" d="M74 18q-39 99 9.5 230t160.5 213q22 18 58.5 40t53.5 34l29 12q-4 -4 -17.5 2.5t-30 21.5t-30.5 38t-19.5 52.5t1.5 65.5q29 104 133 143q53 18 99.5 -1t58.5 -70q4 -8 4 -17q-5 -47 -22 -70.5t-60 -29.5l-8 2q-3 8 -5 8l1 3q2 3 -1 3q3 15 5 19q4 3 8 15.5t8 17.5 q2 3 2.5 8t1.5 6q-1 17 -3 29t-8.5 26t-17 20.5t-30.5 5t-47 -13.5q-93 -66 -94 -149q0 -63 50 -93q63 -38 145 9q47 27 91 80q33 44 44.5 87t3 75t-32 55.5t-56 33.5t-73 4.5t-78.5 -28.5q-26 0 -29 -8q-8 -3 -17 6l3 2l2 2q2 11 4 15q51 33 108.5 38t102 -13.5t73 -58.5 t27.5 -91q-3 -85 -43 -140q-4 -2 -19 -16.5t-20 -22.5l-18 -12q-19 -12 -21 -16q-39 -19 -41 -19q7 -3 39.5 -10t38.5 -10q3 0 17 -7.5t16 -8.5q52 -30 78 -80.5t24.5 -105t-14.5 -113.5q-22 -73 -54.5 -125t-93.5 -111q-3 -4 -29.5 -22.5t-31.5 -20.5q-142 -77 -264 -72 q-66 13 -107.5 42t-64.5 91zM367 500q-45 -21 -93 -61.5t-90.5 -93.5t-68.5 -120.5t-23 -132.5q0 -77 55 -128.5t132 -33.5q3 2 10 3.5t12 3t6 2.5q55 22 100 55.5t75 68t56 81.5t40.5 82.5t31.5 84.5q1 5 6 30.5t6.5 36.5t3.5 34.5t-0.5 37t-8 31t-17.5 29.5t-29 20 q-3 5 -16 5q-3 2 -19 3.5t-18 2.5h-22q-53 -2 -129 -41z" />
<glyph unicode="9" horiz-adv-x="759" d="M172 -152q2 3 2 5q28 22 72.5 62.5t54.5 57.5q25 35 39 45q9 18 14 23q0 2 6.5 11.5t15 21.5t11.5 18t12.5 22.5t17 29t7.5 14.5q47 79 51 84q97 178 137 350q0 9 11 31q1 4 4 15.5t5.5 21.5t2.5 12q0 38 6 65v56q0 41 -6 59q-1 1 -4.5 16.5t-5.5 18.5q-9 18 -15 24 q-21 32 -62 45.5t-80.5 11t-76.5 -13.5q-33 -13 -59 -33.5t-44.5 -49t-31.5 -54.5t-23 -65t-15.5 -65t-12.5 -69q0 -5 -1 -18.5t-2 -24.5t-1 -12l1 -12q0 -12 0.5 -27t0.5 -24l1 -20q1 -20 1 -23t1 -19l1 -16l6 -35q0 -4 6.5 -22t9.5 -23q0 -1 6 -7.5t7 -8.5q11 -11 14 -11 h4h2q17 0 21 4q81 48 136 119.5t99 169.5q14 32 19 74t-7 76l-6 10h-14l-16 2q-2 -2 -12 -7t-11 -5h-12h-8q-3 0 -8.5 7.5t-4.5 10.5q-2 4 -2 6l2 2q1 3 10 10t13 9q16 6 22 8q30 0 43 -8t33 -41q17 -44 -2.5 -120t-38.5 -110q-15 -29 -39 -65.5t-59 -79t-71.5 -70.5 t-76 -41t-73.5 9q-33 16 -41 26q-8 4 -19 15q-28 38 -30 43q-2 2 -17 39q-4 4 -4 16q-4 8 -10 38.5t-6 37.5q-2 5 -2.5 23.5t0.5 23.5v39q2 8 8 37.5t9 41.5t11 34.5t19 41.5q45 104 121.5 176t174.5 91.5t203 -45.5q4 -4 22 -25.5t21 -24.5q1 -1 7 -10.5t8 -11.5 q12 -49 18 -55q1 -2 4 -10.5t6 -15.5t3 -9q0 -7 6 -25q1 -2 3 -13t3 -13q0 -14 1.5 -61.5t0.5 -76.5q-22 -157 -57 -260q-2 -2 -6.5 -11t-4.5 -11q-8 -16 -8 -29q-11 -22 -16 -37q-5 -7 -18 -34t-15 -29q-1 -4 -12.5 -22.5t-12.5 -20.5q-25 -38 -30 -52q-25 -31 -25 -34 q-16 -16 -16 -17q-13 -16 -15 -18q-7 -10 -42 -42t-38 -36q-2 -2 -26.5 -18t-30.5 -23q-7 -2 -29.5 -14.5t-48 -28t-30.5 -18.5q-29 -23 -37 -23h-11l-10 4q-1 0 -3.5 3t-2.5 5q-2 0 -2 2z" />
<glyph unicode=":" horiz-adv-x="491" d="M209 178q0 2 1 8t1 7l14 14q6 6 15 6h4h4q2 0 11.5 -3t10.5 -3q0 -1 3 -6.5t3 -7.5q1 -3 3 -10t4 -12.5t2 -6.5q0 -8 -9 -17q-2 -3 -7 -8.5t-7 -5.5q-1 0 -6.5 -1t-7.5 -1l-15 2q-2 0 -8.5 5.5t-7.5 8.5q-6 6 -6 17q-2 10 -2 14zM209 438q0 2 1 7t1 6l14 14q1 1 7.5 4 t7.5 4h4h4q16 -8 22 -8q0 -1 3 -6.5t3 -7.5q9 -27 9 -29t-4 -8t-5 -6q-2 -3 -7.5 -10t-6.5 -7t-6.5 -1t-7.5 -1l-15 2q-1 0 -7.5 7t-8.5 10q-1 0 -3.5 6t-2.5 8q-2 10 -2 16z" />
<glyph unicode=";" horiz-adv-x="491" d="M186 61q0 2 8.5 19.5t8.5 19.5q1 1 3 10t3 11q4 8 4 20v11q0 2 -1 6.5t-1 5.5q-2 10 -2 14q0 2 1 8t1 7l14 14l15 6h8h4h2q1 0 6 -1t6 -1l17 -16q0 -2 1 -12t1 -11v-10l-2 -15l-17 -32q-22 -33 -28 -41l-13 -13q-8 -8 -16 -8q-1 0 -4 -1t-4 -1l-8 2q-7 0 -7 4v4zM209 438 q0 2 1 7t1 6l14 14l15 8h8q16 -8 22 -8q0 -1 3 -6.5t3 -7.5q9 -27 9 -29t-4 -8t-5 -6q-2 -3 -7.5 -10t-6.5 -7t-6.5 -1t-7.5 -1l-15 2q-1 0 -7.5 7t-8.5 10q-1 0 -3.5 6t-2.5 8q-2 10 -2 16z" />
<glyph unicode="&#x3c;" horiz-adv-x="753" d="M104 395l2 4q1 1 6.5 10t11 17t5.5 10q2 4 11.5 25.5t11.5 25.5q2 6 18.5 58.5t17.5 54.5q0 1 3.5 8t7 16t4.5 13q5 9 51 123q5 25 31 90q1 3 14 29q1 2 23 24q2 1 14 6t14 6h8h9q1 -1 7 -3t7 -3q6 -6 6 -14v-35v-31q0 -3 -6 -18.5t-8 -17.5q0 -1 -4 -12.5t-7 -21 t-4 -11.5q-26 -61 -36 -74q-3 -6 -23 -35.5t-23 -32.5l-16 -28q-15 -29 -20 -39q0 -3 -6.5 -15t-8.5 -14q-1 -2 -13 -24t-15 -27q-2 -3 -7.5 -12t-10.5 -16.5t-5 -8.5q-2 -2 -8 -12t-6 -11t3 -7t3 -7q1 -2 10.5 -18.5t11.5 -18.5q1 -4 13.5 -23t15.5 -22q1 -1 6.5 -10 t11 -17t5.5 -10q30 -50 36 -59q2 -2 8.5 -12t6.5 -11q12 -18 45 -73q0 -2 3.5 -8.5t4.5 -6.5q18 -36 23 -51q0 -10 6 -16v-9v-4q-1 -1 -2 -3t-2 -3.5t-2 -1.5q-7 -2 -9 -2l-8 2q-4 6 -6 8q-3 1 -8.5 10t-5.5 11q-1 3 -11.5 26.5t-11.5 26.5q-2 3 -22 43q-32 48 -52 88 q-1 0 -4.5 3.5t-3.5 4.5q-8 12 -28 52q-26 26 -31 36q-1 1 -15.5 21.5t-15.5 23.5q0 1 -14 14t-15 15q-2 2 -2 4z" />
<glyph unicode="=" horiz-adv-x="696" d="M186 233l2 7l15 12l295 -6q2 0 8.5 -5t7.5 -8l2 -12q-6 1 -25 1t-41.5 -0.5t-25.5 -0.5q-10 -3 -82.5 -5.5t-93.5 -2.5h-27h-24q-2 0 -5.5 5.5t-3.5 8.5q-2 4 -2 6zM186 436l2 8l15 13l295 -8q2 0 8.5 -5t7.5 -8l2 -12q-6 1 -25 1t-41.5 -0.5t-25.5 -0.5 q-11 -1 -86.5 -4.5t-89.5 -3.5l-12 1q-12 1 -15 1h-24q-2 0 -5.5 4.5t-3.5 7.5q-2 4 -2 6z" />
<glyph unicode="&#x3e;" horiz-adv-x="532" d="M424 395v-4q-1 -2 -8 -8.5t-15 -13.5l-8 -7q-1 -4 -13 -23t-15 -22q-5 -10 -31 -36q-17 -34 -29 -52q0 -1 -3.5 -4.5t-4.5 -3.5q-23 -46 -51 -88q-17 -34 -23 -43q-1 -2 -6 -14.5t-9.5 -24t-4.5 -14.5q0 -2 -7 -11t-10 -10l-8 -8q-4 -2 -6 -2l-6 2l-8 8v4v9q8 8 8 16 q0 11 20 51q1 0 5 6.5t4 8.5q33 55 45 73q0 1 6 11.5t6 11.5q9 9 39 59q0 2 5 10t10.5 17t6.5 10t14.5 21.5t14.5 23.5q2 2 6.5 9.5t10 16.5t6.5 11q6 6 6 14q0 1 -6.5 11t-8.5 12q-7 7 -22 37t-29 51q-2 2 -8 14t-6 15q-28 56 -39 67q-1 2 -21 33t-22 35q-5 7 -19.5 35.5 t-17.5 38.5q-1 2 -4 11.5t-6 20.5t-4 13q-1 1 -4.5 9t-7.5 17t-5 10v31v35q0 5 9 14q1 1 8 3t8 3h6h6q21 -7 31 -12q20 -20 22 -24q1 -1 4.5 -7.5t6.5 -12.5t4 -9q24 -60 30 -90q44 -109 52 -123q1 -4 4.5 -13t6.5 -16t3 -8q1 -3 10 -30.5t17 -53t10 -29.5t11 -25.5 t11 -25.5q1 -2 11.5 -18.5t11.5 -18.5v-4z" />
<glyph unicode="?" horiz-adv-x="808" d="M135 -76l4 19q0 1 5 6.5t6 7.5t8.5 7.5t7.5 6.5q8 0 10 -2h12q0 -1 7 -8.5t8 -9.5q0 -17 2 -21q0 -1 -1 -8.5t-1 -9.5v-10q0 -2 -3.5 -5t-4.5 -3q-19 -9 -23 -5q-1 0 -5.5 -1t-6.5 -1l-10 4q-3 1 -9 7t-6 8v18zM168 141q1 2 2 7.5t2 10t2 5.5q0 2 4.5 18t5.5 19v6 q0 2 3 9t6 15.5t4 10.5q1 1 5 14.5t5 15.5q0 1 5 17t7 18q1 4 8.5 18.5t17 31t11.5 20.5q20 35 55 84q2 3 16 20.5t31 39t23 28.5q5 8 25 31.5t26 27.5q18 24 68 74q0 2 3.5 8.5t6.5 7.5q2 4 16.5 25t18.5 25q1 2 9 13t9 13q13 26 19 35q1 3 6.5 16t9.5 22.5t4 10.5 q0 13 4 29q0 5 1 17l1 11q0 8 -8 48l-12 24q-4 0 -21 17q-4 0 -14 10l-17 8.5t-18 7.5q-2 2 -7.5 4.5t-9 4.5t-3.5 3h-13l-10 2q-30 -10 -47 -10q-20 -10 -31 -10q-4 -3 -28 -19.5t-27 -19.5q-2 -1 -9 -9.5t-15 -18.5t-11 -13q-17 -17 -26 -35q-3 -3 -19 -28t-18 -27 q-1 0 -2.5 -4.5t-3 -9.5t-2.5 -6q-4 -4 -13 -31q-10 -30 -10 -35q0 -1 -2 -12t-4.5 -25t-3.5 -20q0 -7 -0.5 -22t-0.5 -27l-1 -13v-49l4 -21q4 -21 6 -26q0 -3 3.5 -12.5t6.5 -10.5q8 -8 17 -8q1 -1 17.5 -3t18.5 -3q1 0 1.5 -1.5t1.5 -3.5t2 -3v-4v-4l-9 -13l-45 5 q-3 2 -18 20.5t-21 28.5q-4 18 -6 22q-8 40 -8 53q0 3 -1 12.5t-1.5 15t0.5 9.5l1 17q1 16 1 22q6 36 6 43q0 4 7 30t10 34q8 42 10 45q2 4 10.5 22.5t9.5 20.5q7 15 27 41q1 1 13 15.5t14 19.5q7 7 20.5 23t13.5 18q1 1 18.5 14.5t22.5 15.5q4 4 17 11.5t16 7.5q7 4 34 10 t34 6q20 -2 28 -2q12 -4 31 -4q21 -10 27 -10q6 -2 18.5 -8t22 -10.5t10.5 -4.5t12 -7.5t14 -8.5q2 -1 11.5 -9.5t11.5 -9.5q0 -6 10 -16q21 -28 21 -33q1 -2 3 -10.5t4 -19t3 -13.5v-39q0 -1 -0.5 -9.5t-1 -19t-0.5 -14.5q0 -6 -2 -21l-2 -16q-1 -1 -10 -19.5t-11 -23.5 q-1 -1 -20.5 -34t-26.5 -43q-11 -22 -16 -27q-1 -1 -9.5 -11.5t-9.5 -11.5q-8 -8 -8 -12q-1 -2 -13 -17.5t-13 -17.5q-4 -3 -17.5 -19t-17.5 -22q-1 -1 -12.5 -13t-12.5 -13q-13 -14 -18 -27q-16 -32 -19 -35q-4 -10 -15 -29.5t-13 -21.5q-1 0 -8.5 -9t-8.5 -9 q-14 -10 -26 -35q-17 -22 -27 -43q-51 -90 -68 -131q-26 -68 -32 -94q-3 -4 -16 -13.5t-17 -11.5q-6 -2 -8 -2l-6 4q-1 0 -15 14q-1 1 -3 7.5t-4 15t-3 10.5q-4 8 -4 31v20z" />
<glyph unicode="@" horiz-adv-x="1333" d="M240 406v16q0 3 6.5 41t7.5 47q0 13 8 29q14 42 14 45q1 3 7.5 18.5t7.5 18.5q0 8 8 16q6 8 25 40.5t20 33.5q13 20 43 57q29 29 37 45l16 16q17 17 37 29q24 16 29 21q2 1 11 8t11 8q1 1 7.5 4t7.5 4q40 11 59 21q30 10 60 16q4 1 26.5 3t26.5 3h16h21q2 -1 20.5 -3 t22.5 -3q16 -8 30 -8q5 -5 29 -17q12 -5 38 -19.5t28 -16.5q4 -3 26.5 -25t26.5 -25q3 -3 20 -45q1 -3 8.5 -18t8.5 -18q4 -16 14 -46q6 -18 6 -28q0 -6 1 -38t1 -36q0 -10 -0.5 -28.5t-1.5 -33.5v-14q0 -17 -14 -73v-7q0 -8 -15 -53q-4 -7 -16 -41l-12 -33q-1 -2 -11.5 -18 t-11.5 -18q-1 -1 -4 -7.5t-4 -7.5q0 -4 -11 -28t-11 -25q-2 0 -15 -20q-7 -14 -22 -29q-6 -8 -29 -31q-3 -2 -9 -5t-12.5 -5.5t-7.5 -3.5q-1 0 -5.5 -1t-6.5 -1l-12 2q-13 0 -21 8q-11 4 -28 29q-12 12 -17 28q-1 1 -2.5 7t-3 13t-2.5 9q-1 6 -6 39.5t-6 36.5t-4.5 20.5 t-3.5 22.5q-1 -1 -8.5 -7.5t-8.5 -7.5q-8 -8 -8 -14q-1 -2 -49 -74q-2 -3 -9.5 -10.5t-16.5 -15.5t-11 -10q-7 -7 -31 -23q-6 -6 -14 -6h-4h-4q-2 1 -7 2t-9 2t-5 2q-20 10 -24 14q-1 1 -10.5 10t-17 16.5t-9.5 10.5q-14 28 -15 31q0 2 -3 21t-3 22l-1 19q-1 18 -1 24 q0 5 0.5 16.5t1 20.5t0.5 10q0 3 3 28t3 31q1 6 8 31t7 27q4 17 53 104q5 5 14 23q2 2 15 13.5t16 14.5q21 21 37 29q20 10 45 25q1 1 10 4t11 4h8h8q1 -1 10 -4t10 -4q21 -21 21 -25t8 -12q8 -24 8 -25v-16v-21q-1 -2 -4 -18t-4 -19q-1 0 -4 -1t-4 -1l-4 2q-1 0 -4.5 3.5 t-3.5 5.5v82q0 2 -4 8t-5 6q-1 1 -8 3t-8 3h-16h-21l-49 -49q-1 -1 -16 -31q-8 -17 -15 -43q-6 -18 -6 -31q-8 -32 -8 -67q-1 -3 -4.5 -18.5t-3.5 -18.5q-8 -48 -8 -51v-60v-59q0 -27 8 -51q0 -1 3 -3.5t5 -2.5q8 0 14 6q2 1 15.5 11t15.5 11q12 12 12 15q3 4 45 67 q2 2 9 15t16 29.5t12 21.5q2 4 8 15t11 20t6 10q1 2 6 29t6 30q0 5 8 21q1 1 4.5 9.5t7 16.5t5.5 11q1 3 9.5 25.5t10.5 27.5q1 1 4 7t4 7q0 1 1.5 2t3.5 2t3 2t6.5 4.5t6.5 4.5h8h8q1 -1 4 -4.5t4 -4.5v-6v-6q-1 -4 -4 -27t-4 -26q-1 -2 -4 -14.5t-4 -14.5q0 -7 -1 -41.5 t-1 -40.5q0 -9 0.5 -28.5t1 -36t0.5 -17.5q0 -23 16 -147q0 -2 3 -15t3 -16q1 -1 3.5 -6t3.5 -6q2 -2 4 -2l4 2l6 4q5 4 10 8.5t6 7.5q1 1 5.5 7.5t9.5 13t8 8.5q17 22 29 45q3 5 21.5 43t23.5 47q0 2 3.5 11.5t4.5 9.5q1 2 7 19.5t7 19.5q0 3 14 73q9 36 9 43q6 36 6 97v20 v16q0 13 -6 37q-13 27 -17 45q-1 3 -7 18.5t-7 18.5q0 1 -14 29q-2 2 -8 12.5t-7 11.5q-6 4 -21 19t-16 18q-33 17 -39 21q-4 4 -27 15t-30 13q-2 1 -7.5 3t-9.5 4t-5 2h-47h-50q-9 0 -45 -9q-2 -1 -22.5 -6t-22.5 -6q-1 -1 -14 -4t-14 -4q-2 -2 -16 -11t-21 -12 q-2 -1 -7.5 -4.5t-9 -6t-4.5 -3.5q-32 -24 -37 -29l-24 -24q-3 -4 -19 -23t-18 -22l-16 -22q-16 -22 -21 -27q-6 -11 -23 -38t-20 -30q-2 -2 -8 -14.5t-6 -16.5q-16 -28 -31 -73q-3 -9 -8.5 -38t-5.5 -36l-1 -33q-1 -33 -1 -45q0 -6 1 -38.5t1 -37.5q6 -18 6 -30 q0 -3 3.5 -18.5t4.5 -18.5q22 -66 23 -68q20 -50 36 -74q5 -10 23 -28q6 -8 43 -45q1 -1 7 -5t13.5 -8.5t10.5 -7.5q10 -10 22 -16q8 -8 15 -8q4 -3 18.5 -8t17.5 -5q30 -10 60 -16q48 -8 53 -8q10 0 66 8q1 0 4.5 1.5t8.5 3.5t7 3q3 1 18.5 8.5t18.5 8.5q12 0 16 4 q2 1 22.5 16t22.5 16q1 1 6.5 2t6.5 2h4h4q-1 -1 -4 -10t-4 -10t-3.5 -4t-3.5 -4q-3 -3 -16 -11.5t-14 -9.5t-19.5 -11.5t-23.5 -12.5q-2 -1 -10 -3.5t-18 -6t-11 -3.5q-6 -2 -62 -2q-59 0 -61 2q-62 9 -90 21q-29 10 -88 45q-1 0 -5 3l-10 7.5t-8 5.5q-9 2 -28 21 q-6 3 -23 20q-2 2 -8 12t-6 13q-7 9 -24 43.5t-21 44.5q-5 5 -23 59q-8 16 -8 29q-6 18 -6 53q-8 56 -8 74v21z" />
<glyph unicode="A" d="M739 -188q-4 13 -23.5 90.5t-23.5 89.5q0 13 -8 37q-4 28 -4 63q-1 17 -4 112t-4 111q0 2 -3.5 5.5t-4.5 3.5q-6 6 -17 6q-1 1 -18 4.5t-21 3.5q-8 8 -20 8q-3 3 -29 16q-8 0 -16 -8q-26 -47 -68 -114q-2 -2 -14 -20t-15 -23q-48 -68 -55 -76q-3 -6 -11.5 -17.5 t-10.5 -11.5q-6 -9 -32 -36.5t-36 -35.5q-2 -1 -14.5 -10t-14.5 -10q-8 -8 -22 -8l-18 -1q-19 -1 -25 -1q-2 0 -20 1t-21 1l-16 8q-2 2 -9.5 9t-13 12.5t-6.5 7.5q-29 48 -29 63q-1 1 -4.5 21t-3.5 28l-1 17q-1 16 -1 22t1 22l1 15q0 38 8 62q0 19 21 75q6 13 8 15 q2 3 11.5 18.5t17 27t10.5 13.5l6 8q3 3 45 31q2 2 9.5 5.5t13.5 6.5t6 4h16h16q2 -1 14.5 -8t14.5 -8q22 -22 29 -39q3 -1 6.5 -6.5t3.5 -7.5v-11v-12q-6 -6 -10 -6q0 1 -7 6.5t-8 7.5q-1 1 -4 8.5t-6 13.5t-4 7q-6 9 -22 25h-11h-12q-2 -1 -8 -4.5t-8 -4.5q-1 -2 -6 -7 t-11 -10l-6 -5q-5 -6 -14 -31q0 -11 -6 -29q-9 -27 -9 -38q0 -15 3 -59.5t7 -93.5t5 -58q0 -18 14 -60q1 -1 4 -8t4 -8q15 -15 15 -17h4h6q16 13 22 17q4 4 15.5 12t13.5 8q2 2 11.5 12t17 17.5t10.5 9.5q23 34 68 92q0 1 3 6t6.5 10t4.5 7q2 4 24 37q6 13 20 38.5t26 46 t12 21.5q8 8 8 23v4v4q0 6 -8 14l-51 68q-3 4 -27 38t-27 38q-3 3 -15.5 19t-14.5 18q-4 6 -19 19.5t-20 16.5q-3 4 -20.5 16.5t-22.5 14.5h-54h-53q-15 0 -45 -6q-2 0 -15 -3t-16 -3l-20 -10q-3 0 -16 -7.5t-15 -9.5q-2 0 -17.5 -1t-17.5 -1q0 1 1 9.5t1 9.5t9 10 q1 1 8 3.5t13 5t7 3.5q37 15 39 17q3 1 22.5 4.5t22.5 3.5q2 0 16.5 4t16.5 4q5 0 24 2l19 2l17 1q16 1 22 1t22 -1l15 -1q3 0 22 -2t25 -2q5 -1 25 -8l20 -8q1 -1 11.5 -8.5t11.5 -8.5q7 -4 32.5 -30t34.5 -37q11 -11 23 -29q3 -7 22 -35.5t23 -32.5l16 -16l4 -2l2 2 q6 6 6 8q31 39 31 45q50 90 98 197q8 57 19 106q0 6 8 45t12 52q1 5 17 53q9 27 12 39q4 6 15.5 29t13.5 28q14 21 18 25q34 34 37 36q9 9 16 9h11h10q3 -3 9.5 -15t6.5 -16v-23v-30q0 -3 -3 -22t-3 -21q-1 -4 -14.5 -40l-16.5 -44q0 -2 -3.5 -8.5t-4.5 -6.5 q-29 -72 -29 -77q-2 -5 -8.5 -46.5t-7.5 -58.5v-39q-1 -11 -4.5 -94t-3.5 -100q0 -2 -0.5 -37.5t-1 -78t-0.5 -63.5q0 -13 1 -88t1 -90q0 -21 8 -45v-59q0 -13 8 -53q0 -15 8 -31v-21q0 -6 2.5 -33t2.5 -30q7 -42 24 -111q3 -9 21 -45q1 -2 9 -8.5t9 -7.5h4h2q2 2 23 16l8 8 q11 11 20 29q1 1 4.5 7t4.5 7q8 16 8 23q6 12 6 33q0 1 0.5 8.5t1 17.5t0.5 15l-2 41q-2 22 -6 30q0 2 -3.5 11t-4.5 10v10q8 0 8 -2q1 0 3.5 -3t2.5 -5q2 -2 8.5 -11t7.5 -10q0 -6 9 -24q8 -24 8 -39v-21v-22q-1 -3 -4 -22.5t-4 -22.5q-8 -8 -15 -37q-6 -12 -10 -16 q0 -9 -14 -23q-2 -2 -14.5 -15.5t-14.5 -15.5q-6 -6 -16 -6h-29h-23q-3 0 -45 21q-5 3 -16 14.5t-14 17.5q-19 25 -25 37q-18 28 -29 54zM588 414q0 -1 1.5 -3.5t3.5 -6.5t3 -5t6 -6.5t9 -10t7 -5.5q8 -8 17 -8h12h17q8 48 8 84q8 80 8 98v31q-6 -2 -8 -2q-1 0 -4.5 -3.5 t-3.5 -5.5q-1 -1 -4.5 -9t-7.5 -17t-5 -10q-6 -18 -20 -46q-2 -2 -12.5 -18t-12.5 -18q0 -5 -6 -17q-8 -16 -8 -22z" />
<glyph unicode="B" horiz-adv-x="1044" d="M408 -43v4q1 8 4.5 22.5t6.5 25t3 11.5q7 14 31 46q1 0 10 11t12 15q7 5 40 34.5t36 31.5q2 2 18.5 15t18.5 15q3 2 15 14.5t15 14.5q1 2 6.5 9l11 14t5.5 8q1 3 7 8.5t7 5.5l13 4q0 -21 -4 -33q0 -3 -7 -11.5t-10 -10.5q-7 -11 -37 -40.5t-39 -35.5q-2 -2 -36 -29 t-37 -32q-4 -3 -19 -21t-18 -24q-23 -38 -23 -47q-2 -15 -2 -23q0 -5 1 -16l1 -11q0 -12 8 -16q0 -2 3 -5t4 -3q16 -8 22 -14q5 0 23 -9h6h8q18 9 23 9q4 2 15.5 7.5t20 9.5t9.5 5q4 3 28 26.5t33 34.5q9 10 14 23q31 56 37 74q3 7 15.5 45.5t15.5 52.5q2 7 13 46t12 44 q1 7 6 45t6 45q0 4 8 76v4v4l-12 84q0 7 -8 31q-1 1 -3 6t-3.5 9t-2.5 5l-8 17q-16 8 -20 8q-3 0 -19 -8q-3 -3 -26 -27t-25 -26q-7 -7 -23 -15q-4 -1 -14.5 -4.5t-21 -7.5t-11.5 -4h-14h-14q-2 0 -7.5 3t-13 7.5t-10.5 5.5q0 1 -1.5 2t-3.5 2t-3 2l-6 15q0 21 6 39l7 10 q7 11 9 12q2 2 9.5 10t13.5 14t8 7q2 2 27 14.5t30 16.5q3 0 14.5 3.5t12.5 4.5t4.5 9.5t8.5 19.5t7 16q3 3 9 22q4 14 12 50.5t8 41.5q2 0 2 29q0 21 -2 21l-12 16q-17 2 -25 2q-2 0 -15 -1t-14 -1t-5 -1.5t-9.5 -3.5t-7.5 -3q-8 0 -16 -8q-1 0 -10 -6.5t-11 -6.5 q-25 -25 -39 -32q-1 0 -12.5 -2.5t-13.5 -2.5q0 21 4 29q0 1 3 5.5t6.5 9t4.5 6.5q24 24 39 30q1 1 7 4.5t7 4.5l43 16h33h31q1 0 4.5 -1.5t8.5 -3.5t7 -3q16 -8 19 -8q4 -3 16 -12.5t12 -10.5q13 -13 21 -29l8 -24q8 -32 8 -39l1 -14q1 -14 1 -19l-2 -33q0 -2 -3.5 -11.5 t-4.5 -10.5q0 -1 -4 -8.5t-4 -8.5q-9 -36 -12 -45q21 -21 45 -53q1 0 3.5 -4t6 -10t4.5 -8q2 -3 12 -19.5t12 -19.5q0 -1 2.5 -7.5t2.5 -7.5q2 -3 8.5 -19.5t7.5 -17.5q6 -11 16 -53q0 -15 6 -51q7 -56 7 -61l1 -10q1 -9 1 -13l-2 -22q0 -12 -7 -54q-6 -30 -6 -37 q-1 -3 -12 -23.5t-12 -23.5q-13 -26 -13 -37q-25 -50 -34 -59q-2 -6 -13.5 -24t-15.5 -21q-15 -22 -37 -39q-1 -1 -10 -8t-10 -8q-12 -6 -27 -21q-7 -7 -37 -22q-15 -10 -45 -25q-6 -3 -26 -8.5t-25 -5.5h-31h-31q-3 0 -17.5 5.5t-18.5 8.5q-5 3 -17 15.5t-14 15.5 q0 1 -3 10t-6.5 20t-4.5 15v4zM178 -88l2 4q1 1 6.5 4.5l11 7t5.5 4.5q1 0 4.5 3.5t3.5 5.5q14 14 14 20q15 30 15 39q4 8 32 92q5 67 7 96q0 6 4 57t4 56q0 3 3 34t3 34q8 92 8 98q1 19 -1 107l-1 88q-1 0 -3 1t-3 1q-9 -9 -14 -9q-1 -2 -8.5 -7.5t-17 -12.5t-13.5 -10 q-1 -3 -24 -22t-28 -23q-25 -24 -38 -29q-3 -4 -46 -47q-3 -3 -18 -21.5t-18 -21.5q-5 -5 -15 -25q0 -2 -7.5 -15t-8.5 -13l-19 -7q0 39 2 43q0 5 17 31q12 18 31 37q6 8 26.5 28t26.5 25q4 3 48 41t48 41q8 6 37.5 32.5t32.5 29.5q3 4 15 16t13 14q2 2 8.5 13.5t6.5 15.5 q3 7 23.5 68.5t23.5 68.5q1 1 6.5 17.5t7.5 19.5q1 1 4 7t4 7l15 23l8 14q1 3 31 33q2 1 14.5 11t15.5 12q6 6 15 6h12h10q3 0 8 -5.5t7 -9.5v-4v-4q0 -1 -3.5 -10.5t-3.5 -11.5q-1 -1 -4 -15t-4 -16q-9 -44 -16 -51q0 -1 -3 -8.5t-3 -8.5q0 -3 -4 -22.5t-5 -20.5 q-1 -5 -14.5 -63.5t-13.5 -65.5q-8 -32 -8 -59v-39q-7 -49 -7 -90q-8 -24 -8 -47q-1 -3 -5 -40.5t-5 -41.5q0 -20 -14 -62q0 -3 -6.5 -22t-8.5 -23q-1 -1 -4.5 -13t-3.5 -15t-3 -23.5t-3 -23.5q-8 -21 -8 -23t-4 -15t-4 -14q-1 -6 -10.5 -37.5t-10.5 -37.5q-11 -33 -18 -47 q-2 -6 -13 -29t-16 -29q-9 -18 -22 -31q-1 -2 -7.5 -12t-7.5 -12l-8 -12q-1 -2 -5 -8t-7 -11t-4 -6q0 -4 -6.5 -9t-8.5 -5h-18h-19q-2 0 -5 2.5t-3 3.5q-2 2 -2 4zM592 618l-4 -2q-1 -1 -11 -6.5t-12 -7.5l-14 -14q-1 -2 -5.5 -8l-7.5 -10t-3 -5t-1.5 -12t-1.5 -12h19 q1 1 7 5t7 5q1 0 3.5 3t2.5 5q13 13 17 21l14 28q0 2 -2.5 5t-3.5 3q-2 2 -4 2z" />
<glyph unicode="C" horiz-adv-x="679" d="M37 182v41q0 4 4 38t4 38v23q8 24 8 47v6q4 43 21 143q16 48 22 84q1 1 4.5 9.5t7 16.5t5.5 11q53 102 67 135q0 1 11.5 14t11.5 15q1 1 10.5 14.5t17.5 25.5t9 15q21 21 39 45q1 1 7 6t7 6q33 33 45 39q33 22 39 25q2 0 18 6t19 6q24 8 30 8h13h10q6 0 22 -8q2 0 8 -3 t7 -3l8 -6q30 -45 31 -47q3 -6 12 -32.5t10 -33.5v-12v-14q-1 -2 -3 -21t-3 -22q-1 -1 -4.5 -15t-3.5 -16v-8l-8 -6q-2 0 -8.5 3t-8.5 3v2v6q0 2 8 36t9 38v18v14q-2 2 -5 14.5t-3 16.5q0 3 -9 12q-6 16 -14 25l-23 23q-8 8 -14 8h-18h-21q-1 -1 -10.5 -4t-11.5 -4 q-27 -18 -37 -23l-31 -31q-8 -7 -25.5 -27t-19.5 -24q-9 -18 -37 -67l-24 -48q0 -4 -10.5 -32t-12.5 -33q-14 -28 -14 -39v-25q0 -3 -3 -29t-3 -30q-1 -6 -3 -23t-4 -30t-2 -15v-16q-2 -9 -8 -85.5t-6 -86.5v-4v-4q0 -42 6 -96q1 -12 3 -35t3.5 -40t1.5 -18t3.5 -15.5 t7 -32.5t4.5 -27q8 -24 8 -29q12 -36 14 -39q3 -4 8 -15t9.5 -20t5.5 -10q21 -21 24 -23h4h3q1 1 7 5.5t7 5.5q7 3 69 65q0 1 15 23q55 99 59 106q11 14 25 43q0 10 22 76q1 3 7.5 27.5t7.5 27.5l14 43h12q0 -31 -4 -43q0 -7 -8 -39q0 -2 -3.5 -15t-4.5 -13q-1 -3 -7.5 -38 t-7.5 -38q0 -2 -5.5 -15t-8.5 -16t-24 -39t-23 -39q-2 -2 -11 -21t-9 -22q-3 -3 -17 -24q-2 -3 -7.5 -10t-10 -12.5t-4.5 -6.5q-29 -36 -45 -47q-1 0 -7 -2.5t-13.5 -5.5t-10.5 -4q-16 -8 -21 -8h-24h-23q-17 0 -45 14q-2 0 -11.5 7t-10.5 7q-25 25 -29 31q-5 5 -19 21 l-14 16q0 4 -22 55q-11 33 -17 45q0 15 -4 31q-16 64 -16 65v35z" />
<glyph unicode="D" horiz-adv-x="1120" d="M96 -160q10 7 40 36.5t38 39.5q26 52 29 64q1 0 10 26t12 39q8 16 8 31l7 20q8 42 14 92q10 35 10 62q0 104 8 196q0 17 7 97q0 44 8 84q6 75 6 92q0 5 -2.5 17t-3.5 12h-8q-1 0 -24.5 -23.5t-57 -58t-47.5 -48.5q-1 -1 -11 -14.5t-10 -15.5l-13 -15q-14 -15 -28.5 -30.5 t-21.5 -20.5q0 -1 -9 -10q-2 -14 -4 -14q-1 -1 -4 -4.5t-4 -4.5h-4h-4q-8 8 -8 9v2v4l8 24q16 16 20 31q2 2 23 25t24 24q8 16 25 33q62 62 74 78q6 3 38.5 41t37.5 47q1 1 15 14.5t15 14.5q7 6 15 32q1 0 3.5 9.5t2.5 13.5l8 14q1 1 4 10.5t6.5 17.5t5.5 9q2 4 14 16t17 15 q6 6 14 6q9 2 11 2l12 -2q2 0 4 -2.5t2 -3.5v-15v-16q0 -87 -6 -111q0 -23 -8 -47v-8v-8q1 -1 4 -10t4 -10l2 -3l4 3q45 45 55 51q17 17 37 32q2 0 6.5 2.5t10 6t6.5 4.5q3 3 45 24q14 4 53 23q7 0 23 8q24 6 28 6h39h37q13 0 25 -6q7 -4 26 -13.5t33.5 -17t15.5 -8.5 q33 -43 45 -61q0 -8 15 -23q1 -1 4 -8t4 -8q0 -1 3 -10t3 -11q2 -7 7.5 -30t6.5 -25q9 -27 9 -37l1 -17q0 -18 0.5 -39t0.5 -30q0 -12 -0.5 -34.5t-1 -40.5t-0.5 -19q0 -14 -9 -68q-13 -67 -14 -69q0 -15 -14 -43l-31 -62q-1 -2 -12 -25.5t-11 -25.5q-6 -6 -6 -14 q-2 -3 -12.5 -19.5t-11.5 -19.5q-30 -44 -31 -45q-3 -6 -20 -23t-25 -33q-3 -2 -37 -36q-17 -9 -76 -60q-2 -2 -7 -6t-8.5 -7t-4.5 -3q-6 -2 -23 -7t-30.5 -9.5t-16.5 -4.5l-17 -1q-16 -1 -22 -1t-24 1l-19 1q-3 0 -30 9q-2 0 -9 3t-8 3q-1 1 -6.5 6t-10 9.5t-5.5 6.5 q-22 44 -23 47q-6 12 -6 21q-8 32 -8 53l-1 9q-1 10 -1 14t1 14l1 10q0 5 8 37q0 11 6 23q0 1 8 12.5t9 15.5q0 3 6 13t8 10l22 22q15 15 39 31q8 8 15 8h14h14q1 0 25 -8q6 -6 14 -6q6 -6 6 -10q1 0 5 -6.5t4 -8.5v-8v-6q0 -1 -15 -23l-6 -8q-1 0 -6 -1t-6 -1l-12 2 q-2 0 -5.5 3.5t-3.5 4.5v37q0 8 -6 8q-2 3 -4 3l-4 -3q-2 -1 -11.5 -8t-11.5 -8q-6 -4 -45 -43q0 -6 -16 -22q0 -11 -6 -17l-14 -43l-1 -20q-1 -21 -1 -27q0 -5 0.5 -16t1 -19.5t0.5 -9.5t2.5 -8t6 -16.5t5.5 -14.5q6 -12 6 -16q8 -4 25 -21q8 -8 14 -8q13 0 37 -8h4h4 q48 8 53 8q7 0 23 8q3 0 20 17q12 3 39 30q1 1 12.5 10t12.5 11q1 1 6 9.5t12 19.5t10 16q5 7 14.5 21.5t16.5 25.5t8 12q17 34 29 70q8 16 25 67q1 4 6 30t6 30q12 60 18 84q0 53 8 127l5 137v78v65q0 21 -13 60q-6 6 -10 8q-1 1 -10 8t-10 8l-17 6h-26h-27q-3 0 -59 -14 q-22 -8 -23 -8q-6 -3 -24.5 -12t-33.5 -16t-18 -9q-1 -2 -11.5 -9.5t-23.5 -16.5t-18 -13l-8 -8q-13 -13 -21 -29l-8 -8q-14 -14 -14 -20q-3 -5 -13 -24.5t-12 -22.5q0 -3 -3.5 -15.5t-4.5 -13.5q0 -2 -2.5 -9.5t-3.5 -7.5q-1 -2 -4 -15t-4 -15q0 -1 -3 -38.5t-3 -51.5 q0 -6 -4.5 -57t-4.5 -56q-1 -13 -3 -39.5t-3.5 -46t-1.5 -20.5q0 -34 -6 -46q-23 -46 -39 -92q-16 -24 -37 -73q-2 -4 -18.5 -34t-18.5 -34q-2 -3 -12 -23.5t-12 -23.5q-1 -2 -7.5 -10.5t-7.5 -10.5t-9.5 -12t-20 -23.5t-15.5 -17.5q-8 -8 -8 -10q-5 -2 -23 -13.5t-22 -15.5 q-8 -8 -14 -8h-8h-9q-2 0 -5 3t-3 5z" />
<glyph unicode="E" horiz-adv-x="790" d="M211 399v25q0 1 -5.5 9.5l-11 17t-6.5 10.5q-2 2 -5 14.5t-3 16.5l-1 9q-1 9 -1 13l2 21q0 18 17 69q0 2 3 16t3 15v10q-1 0 -20.5 1.5t-24.5 0.5q-15 0 -45 -12q-24 -9 -47 -25q-4 -1 -18 -12t-19 -16q-2 0 -5.5 3.5t-3.5 4.5v12v8q0 8 9 17q14 14 16 14q7 7 21 14 q38 25 47 25t45 6q4 1 29.5 4t29.5 4q1 0 4.5 3t3.5 5q1 2 11.5 18.5t11.5 18.5q14 21 16 23q7 10 23.5 33t29.5 40t13 19q5 5 31 30t30 29q2 1 21.5 15t23.5 16q73 36 76 37q24 8 31 8h37h36q3 0 19 -8q3 -2 15 -15t14 -14q8 -16 8 -24v-13v-10q0 -15 -8 -31 q-1 -2 -8.5 -14t-8.5 -14q-1 -4 -9 -16t-11 -15q-41 -41 -47 -45q-2 -2 -17.5 -10.5t-19.5 -11.5q-10 -4 -76 -37q-47 -23 -53 -25q-1 -1 -11 -3t-23 -4.5t-18 -4.5q-16 -8 -32 -8q0 -5 -6 -11l-15 -37q-8 -16 -8 -20q-8 -24 -8 -39v-8v-8q0 -7 8 -15h12h17l7 4q7 3 11 3 q1 1 10.5 8t10.5 8q0 1 3.5 4.5t4.5 3.5q16 8 31 23q10 10 45 22q33 11 45 14h2h4q2 0 5 -3t3 -5q2 -4 2 -6l-2 -6q-7 -8 -49 -50t-49 -50q-15 -15 -23 -31l-6 -6q-15 -15 -23 -31q-4 -4 -17 -23t-15 -20q0 -3 -4.5 -12l-10 -20t-6.5 -15q-1 -3 -8 -18.5t-8 -18.5 q-41 -127 -45 -137q-1 -3 -4.5 -20.5t-3.5 -22.5v-51v-49q0 -1 1.5 -6.5t3.5 -13.5t3 -11q1 -2 4 -11t4 -10q5 -19 16 -30q13 -13 21 -25q8 -8 16 -8h19h20q1 1 10 4.5t11 3.5q4 2 24.5 13t38 20.5t21.5 13.5q2 1 8 5t13 9.5t9 6.5q1 2 13.5 16t15.5 18q8 4 28.5 27.5 t24.5 30.5q1 1 7.5 10t7.5 10q2 3 5.5 10t7 14.5t3.5 8.5q7 15 20 59q11 22 11 25v39v43q-4 5 -15.5 17.5t-15.5 13.5h-21h-24q-2 -1 -15.5 -4.5t-15.5 -4.5q0 -1 -3 -3.5t-5 -2.5l-23 -16q-3 0 -7.5 5.5t-6.5 10.5q-2 9 -2 11l2 10q10 6 14 8q2 1 8 3t10 3.5t5 1.5 q24 6 47 6h10h11q16 0 22 -6q14 -7 14 -8q3 0 11 -8q1 -1 7 -10.5t7 -10.5t3 -8t3 -8q8 -16 8 -23v-41v-32q-4 -16 -20 -64q-1 0 -4.5 -9t-3.5 -11q-2 -5 -10 -17.5t-9 -13.5q-1 -3 -10 -15t-19.5 -27t-13.5 -19q-1 -3 -19 -23.5t-26 -28.5q0 -1 -3 -4.5t-5 -3.5 q-12 -9 -76 -47q-4 -2 -19.5 -9.5t-33.5 -17t-21 -10.5l-24 -8h-25h-26q-14 0 -54 16q-3 1 -15.5 8t-14.5 7q-1 1 -14.5 14t-14.5 18q-3 2 -16 21q-1 4 -9 16t-8 13q-12 36 -12 47v129q0 9 12 45q2 3 16.5 33.5t16.5 33.5q0 11 6 23q23 46 23 53l8 21v30zM584 958h-25 q-1 0 -11.5 -3t-12.5 -3q-4 -3 -17 -8.5t-23.5 -10t-11.5 -5.5q-9 -4 -47 -29q-27 -37 -37 -53q-14 -21 -14 -23q-1 -2 -8 -18.5t-8 -18.5q0 -3 -10.5 -23.5t-10.5 -23.5q-6 -12 -6 -28h12q9 3 45 12q46 23 76 35q4 0 21.5 7.5t23.5 12.5q4 3 21 11.5t18 9.5q37 37 43 47 q4 4 14 16l11 12q0 1 3 10.5t6.5 21t4.5 14.5v4v4q0 2 -3 8.5t-3 7.5q-1 0 -4.5 3t-3.5 5q-2 0 -10 3t-9 3h-24z" />
<glyph unicode="F" horiz-adv-x="849" d="M57 -106v40q9 54 9 89q0 1 1.5 5.5l3.5 10.5t3 8q21 42 22 45q1 2 8.5 11.5t8.5 11.5l37 37q1 1 13.5 11t16.5 11q28 14 31 14q1 1 13.5 5t15.5 4h4h4q6 0 24 -9q28 -14 29 -14q3 -1 14.5 -13.5t14.5 -17.5q8 -8 8 -14q2 -12 2 -16q0 -2 -1 -9t-1 -8q-10 -10 -14 -12 q-16 -8 -23 -8q-1 0 -3.5 1.5t-5.5 3.5t-5 3l-8 8q-1 3 -4 21t-3 22q-2 5 -8.5 14.5t-9.5 10.5h-12h-17q-12 -6 -14 -8q-2 -1 -11.5 -8.5t-11.5 -8.5l-10.5 -7t-13 -9t-6.5 -4q-5 -5 -16.5 -20t-12.5 -19q-1 -1 -6.5 -10.5t-11 -20t-7.5 -14.5q-8 -16 -8 -23q-4 -20 -4 -53 q0 -1 -0.5 -12t-1 -24.5t-0.5 -18.5q0 -7 0.5 -21t1.5 -25v-12q0 -27 4 -47q6 -10 8 -12q8 -16 17 -25q3 -1 10.5 -10t9.5 -12q9 0 17 -8q3 0 15 -3.5t15 -3.5h9h6q1 0 10.5 3.5t11.5 3.5l15 8q22 15 22 16q2 0 14.5 15t16.5 22q1 2 11 15.5t11 15.5q15 15 15 22 q28 47 39 74q1 5 8 21t8 18q1 9 14.5 58.5t14.5 54.5q1 3 7 31t13 59.5t10 46.5q23 110 31 143q1 3 4 22.5t4 22.5v8v7l-8 16l-8 6q-1 0 -10.5 -3t-12.5 -3q-8 0 -16 -8q-3 -3 -22.5 -16t-20.5 -13l-16 -10q-1 0 -12 -1t-13 -1q0 1 1 8.5t1 9.5q4 6 6 8q25 15 39 29 q1 0 10.5 5.5t20 10.5t14.5 7q28 14 39 14q8 8 14 8q9 9 9 10q0 2 3 12.5t6.5 22.5t4.5 15q1 4 4.5 27t3.5 28q1 2 3 18t3 19q9 18 9 28q0 7 6.5 36t9.5 32q2 8 14 40.5t15 35.5v4v4q-8 8 -9 8h-8h-12q-28 0 -68 -8q-15 0 -47 -8q-2 0 -14 -2t-14 -2q-2 -1 -7.5 -3t-10 -4 t-5.5 -2l-8 -8q-8 -16 -8 -30q0 -2 -3.5 -13t-3.5 -12q-1 -1 -8 -14.5t-8 -14.5q0 -2 -3.5 -10.5t-4.5 -9.5q-1 -3 -23 -47q-1 -2 -13.5 -18t-14.5 -19l-47 -47q-1 -3 -13 -11t-16 -10q-7 -6 -27.5 -17t-25.5 -13q-1 -1 -16 -4t-21 -3h-4h-4q-7 0 -22 2.5t-17 4.5 q-2 0 -9 5.5t-8 8.5q0 3 -5 15t-7 14q-8 24 -8 38v17v14q0 3 3.5 18.5t4.5 18.5q0 6 8 14q1 3 4 8.5t6 10.5t3 6q2 1 13 11t13 11q0 1 43 29q5 3 45.5 24t44.5 23q9 3 23 17q6 0 6 20q1 4 1 20.5v33.5t-0.5 33.5t-0.5 17.5q8 72 8 92q0 2 3.5 7.5t6.5 6.5q1 2 15 16 q1 0 3.5 2t5.5 4t5 3h4h4q25 -25 29 -33q1 0 6.5 -14.5t7.5 -22.5q3 -3 6.5 -12t3.5 -11q0 -1 3.5 -26t3.5 -33q0 -36 8 -68h37h37q2 0 151 13q1 2 7 9t7 9q2 2 16 22t15 21q4 6 45 47q1 0 8.5 3t8.5 3h22h25q1 -2 2 -7.5t2 -6.5v-10v-14q-4 -4 -4 -29v-4v-4q0 -9 4 -9h22 h23q2 0 47 9q13 0 29 8q35 14 47 14q3 2 28.5 15t30.5 16q2 2 12.5 8t12.5 8l37 37q1 1 7 11.5t7 11.5l6 6l10 2q0 -29 -2 -31q0 -3 -3 -11.5t-5 -10.5q0 -3 -5.5 -9t-14 -13.5t-9.5 -8.5q-42 -28 -47 -31q-40 -20 -43 -22q-16 -10 -61 -21q-12 -5 -78.5 -21t-71.5 -18 q-1 0 -4.5 -3.5t-3.5 -4.5q-2 -1 -6 -8.5t-9 -16.5t-7 -12q-8 -16 -9 -16q-13 -39 -16 -51q-1 -4 -6 -42t-6 -42q-17 -34 -17 -37q-1 -7 1.5 -36t2.5 -30q1 0 6.5 -1t6.5 -1q16 0 28 6l17 7q4 5 33 31t34 32h13v-25q0 -2 -49 -51q-4 -3 -38 -27.5t-38 -27.5q-27 -18 -31 -29 q0 -1 -1.5 -5t-3.5 -9.5t-3 -7.5q0 -23 -8 -47q0 -6 -3.5 -20.5t-5.5 -16.5q0 -7 -8 -15q-10 -40 -37 -112q0 -2 -2.5 -16t-3.5 -15l-45 -90q-1 -2 -8 -22.5t-8 -22.5q-2 -5 -8 -21.5t-7 -17.5q-4 -12 -25 -53t-28 -51q0 -1 -3 -6t-6.5 -10.5t-4.5 -8.5q-2 -2 -11.5 -14.5 t-11.5 -14.5q-7 -7 -21 -25t-16 -22q-12 -10 -69 -67q-6 0 -21 -15q-4 -2 -12 -5.5t-13.5 -6t-6.5 -2.5h-35h-39q-19 6 -25 8l-12 6q-1 1 -8 7.5t-8 7.5q-4 4 -12.5 16t-8.5 14q-2 1 -9 15t-9 16q0 3 -3 12t-5 11q-9 45 -9 47v35zM66 586v-35q0 -7 8 -23q1 -1 3 -2t3.5 -2 t1.5 -2l14 -8q6 -2 8 -2l9 2q1 1 10.5 6.5t11.5 7.5l37 37q1 2 8.5 12t14 19.5t8.5 13.5q1 2 6 13t9.5 20t6.5 12q15 37 15 47q4 12 4 39q-17 0 -19 -2q-3 0 -11.5 -3t-10.5 -5q-3 -2 -33 -18t-35 -19q-1 -1 -7 -5t-14 -9t-10 -6l-8 -8q-18 -27 -22 -31q-8 -8 -8 -17v-32z " />
<glyph unicode="G" horiz-adv-x="1024" d="M256 840q0 4 -1 14l-1 10q0 6 -6 6q-1 0 -11.5 3.5t-11.5 3.5q-11 5 -31 12t-36 12.5t-17 5.5l-11 10q-12 10 -17 15q-2 0 -5.5 3.5t-3.5 4.5q-3 1 -7.5 10t-4.5 11q-8 8 -8 22l-1 13q-1 14 -1 20q0 4 1 16l1 12q0 11 8 15q1 4 12.5 16t16.5 15q6 6 14 6q23 2 31 2 q5 0 18 -1l13 -1q8 0 20 -6q19 -5 31 -17q2 -1 11.5 -9.5t12.5 -10.5q21 -32 29 -37q2 -3 7.5 -13.5t6.5 -11.5q0 -1 4.5 -8.5t7.5 -13.5t3 -8q1 -1 4.5 -10t3.5 -11l8 -16q8 -2 10 -2l13 2q13 0 45 16q12 3 42 14.5t33 14.5q13 7 71.5 36.5t80.5 38.5q2 2 34 19t34 18 q15 9 59 31q2 1 11 4.5t16.5 6.5t9.5 3t12.5 3.5t24 7.5t18.5 6q2 0 15 3t14 3q2 0 12 4t12 4l29 6q10 2 14 2l17 -2q13 0 31 -6l8 -8v-6v-8q-25 0 -70 -9q-23 -16 -29 -20q-8 -8 -8 -10q0 -1 -3 -8t-7 -16t-6 -13l-4.5 -13.5t-7 -19.5t-3.5 -10q-6 -24 -6 -39 q-8 -56 -8 -84v-53q0 -20 -8 -60q0 -150 -8 -362q0 -12 -8 -68q0 -6 -13 -84q-12 -36 -26 -92q0 -4 -5.5 -21.5t-7.5 -21.5q-1 -2 -11.5 -21.5t-12.5 -23.5q-1 -1 -3.5 -7.5t-5 -11.5t-3.5 -6q-7 -5 -34 -30t-30 -27q-13 -13 -43 -31q-44 -27 -61 -36q-42 -21 -54 -25 q-6 -4 -23 -9t-20 -5h-53h-45q-11 0 -55 22q-1 1 -7.5 4t-7.5 4q-1 2 -11 10.5t-11 10.5q-1 1 -4 7.5t-6 14.5t-4 9q-7 7 -7 24q-8 16 -8 29q0 1 -0.5 8.5t-1 17.5t-0.5 15t0.5 15.5t1 18.5t0.5 9q0 25 8 45q0 1 7 22q2 3 5 12l5.5 16.5t3.5 8.5l8 8q29 22 29 23q2 1 16 7.5 t16 6.5q3 3 37 10h4h5l36 -18q36 -36 54 -51q0 -2 6 -14q8 -24 8 -25q2 -12 2 -18l-2 -19q-6 -4 -8 -6q-16 -16 -21 -16q-1 0 -7.5 -1.5t-8.5 -1.5l-14 3q-1 0 -17 8l-8 8q0 58 -6 88l-8 16l-6 9q-13 2 -17 2l-14 -2q-5 0 -23 -9q-16 -8 -24 -16q-13 -10 -15 -12 q0 -11 -6 -17q-1 -2 -3 -7t-3.5 -9t-1.5 -6q-14 -63 -14 -84q-2 -19 -2 -21q0 -3 1 -13t1 -11q0 -23 6 -47q0 -5 8 -13q2 -2 11.5 -12t11.5 -12t22 -12q12 -8 39 -17q2 -2 16.5 -5t20.5 -3h2h4q9 0 33 8q1 1 11 4t11 4q8 8 29 15q9 4 30 16t23 14q6 5 33.5 31.5t36.5 36.5 q0 4 20 37q1 4 9 18l8 13q0 2 3.5 11.5t4.5 10.5q0 2 2 16t2 15q16 72 16 90q9 63 9 98q1 26 4.5 180t3.5 183q1 3 3.5 34t5.5 69.5t5 53.5q0 19 8 43q0 15 9 33q0 7 8 23q6 31 12 37q4 6 13.5 25t20 41t11.5 24h-4h-4l-45 -15q-1 -1 -20.5 -10.5t-22.5 -11.5 q-8 -3 -73.5 -41t-72.5 -41q-15 -10 -45 -25q-111 -44 -112 -45q-23 -7 -29 -14l-23 -23q-8 -8 -8 -14v-92q0 -2 -3.5 -11t-4.5 -10q0 -19 -16 -67q-3 -20 -17.5 -78t-19.5 -74q-1 -1 -3 -11.5t-3 -12.5q-8 -8 -8 -15q-1 -1 -4 -14t-3 -16q-2 -7 -11.5 -35.5l-17 -51 t-10.5 -26.5q-1 -1 -8 -14.5t-8 -14.5q-14 -28 -14 -37q0 -18 -15 -63q-1 0 -4.5 -5t-3.5 -7q-2 -4 -6.5 -18.5t-9.5 -31t-6 -20.5q-18 -44 -23 -76q-2 -6 -11.5 -42.5t-10.5 -39.5l-9 -36v-11q-1 -11 -1.5 -24t-0.5 -19t0.5 -19t1.5 -24v-10q0 -17 9 -53q0 -7 8 -23 q2 -3 5 -10.5t5.5 -13t3.5 -6.5l23 -23q1 0 5 -1.5t9.5 -3.5t7.5 -3q3 -1 22 -4t23 -4l-8 -7q-1 0 -12 -1t-15 -1q-6 0 -22.5 1t-17.5 1q-6 0 -29 15q-31 31 -37 39q-3 0 -18 22q0 6 -9 15q-1 8 -6 24t-9.5 29t-4.5 14v189q0 12 8 36q1 2 2.5 10t3 15t2.5 8q1 3 10.5 37 t10.5 37t9 26.5t9 26.5q5 37 21 76q0 1 4 11t4 11q42 149 53 166q0 2 2.5 16t3.5 15q0 5 17 39q0 1 3 14t3 15q1 3 6 22.5t10 38.5t6 23q8 24 8 28q7 21 7 47q14 56 14 74q0 1 1 11t1 12zM135 1018v-27q0 -4 6 -22l9 -17q4 -3 16 -15t14 -13q0 -2 37 -17l23 -6q3 0 16.5 -1 t15.5 -1v25q-1 1 -4.5 13t-3.5 15q-2 5 -8.5 24t-7.5 21q-2 6 -15 33q-1 0 -10.5 10t-11.5 13q-10 4 -14 6l-23 8l-8 2l-8 -2q-9 0 -17 -8q-6 -6 -6 -15v-26z" />
<glyph unicode="H" horiz-adv-x="1044" d="M-37 -102l2 4q1 2 8 23t7 24q0 4 8 28q2 2 6 10t4 9q3 1 7 6t7 10t4 6q33 41 54 58q3 5 80 74q3 2 29.5 28t29.5 27q19 19 29 24q1 2 19 15t19 16q1 2 8 10.5t12.5 16t6.5 10.5q3 14 16.5 95t16.5 97q14 63 20 105q13 26 13 39q2 7 16 65.5t18 69.5v20l-6 3q-1 0 -7.5 -3 t-8.5 -2q-3 -2 -36 -17t-36 -17q-2 2 -33 -13q-5 0 -22 -7l-16 -7q-23 -15 -52 -27q-6 -5 -30 -22.5t-27 -20.5q-1 -1 -9 -8t-9 -8q-8 -4 -19 -4q0 2 2 12t2 12q1 1 5 7.5t5 7.5q2 1 32 22t36 23q31 18 41 24q3 1 11.5 4.5t15.5 7t8 3.5q2 0 31.5 13.5t31.5 14.5q1 1 7 3.5 t10.5 4.5t5.5 3q33 11 33 16q6 4 20.5 12.5t25 15t11.5 7.5q22 22 57 72q1 1 14 17.5t15 18.5q1 0 13.5 11t17.5 12q1 1 10 4t10 4h2l4 -2q1 -1 5.5 -5t5.5 -5l8 -6q0 -3 -1 -19.5t-1 -19.5q-1 -4 -3 -13.5t-3.5 -17t-1.5 -8.5q0 -5 -17 -39q-26 -52 -26 -64q0 -6 -18.5 -78 t-18.5 -75q0 -10 -17 -78q-7 -28 -17.5 -84.5t-8.5 -58.5l4 -27q2 -2 4 -2l10 2q3 -1 13 5t12 9q4 3 20 13t17 10q2 3 22.5 27t26.5 28q2 2 13.5 11.5t22 19.5t13.5 14q9 9 18 27q1 1 8 7.5t13 12.5t8 9q2 6 56 112t57 107q1 1 14 13t14 13t21 11q12 4 24 4q6 -2 8 -2l9 -4 q7 -8 4 -11q1 -4 -1.5 -14t-4.5 -12q-5 -9 -7 -11l-6 -16q-1 -3 -12.5 -24.5t-23.5 -43t-13 -22.5q0 -3 -17.5 -56.5t-17.5 -56.5t-7 -23t-9 -24v-8q-1 -6 -4 -20.5t-5.5 -26.5t-2.5 -14q-10 -19 -13 -33q-3 0 -8.5 -26t-5.5 -30q-12 -36 -16 -73q-15 -45 -15 -58 q-3 -5 -7.5 -28.5t-4.5 -28.5l-2 -18q-2 -18 -2 -23l-4 -41v-74q2 -14 2 -96q0 -3 1 -13.5t1 -12.5q0 -3 14 -31q0 -4 13 -17h10l10 -4q10 5 16 11q10 4 38 22.5t32 22.5q3 3 12.5 17t12.5 22l24 32q0 1 8 17q1 2 10.5 22t10.5 25l12 26q0 1 1 15t1 18q6 18 6 33q0 1 -3 8.5 t-3 9.5q-1 1 -1.5 3l-1 4t-1.5 2q-20 10 -26 10q-2 2 -37 2l-6 8q0 1 1 5t1 5v6q1 0 6 1.5t10.5 3t7.5 0.5q14 0 39 -15q6 -6 12 -6q2 -6 4 -8q1 0 2.5 -3.5t3.5 -7.5t3 -5q0 -4 2 -12t2 -9q-4 -33 -6 -39q0 -6 -1 -16.5t-2 -18.5l-1 -8q0 -2 -5 -15t-8 -16q-4 -22 -22 -57 q-1 -1 -5 -9t-4 -9q-3 -4 -19 -26t-19 -26q0 -2 -7 -9.5t-10 -8.5q-2 -3 -8 -8.5t-11 -10.5t-5 -6q-2 -2 -15 -9.5t-14 -8.5q-37 -18 -80 -13t-68 33l-22 19q-1 0 -21 29q0 1 -2.5 9.5t-6.5 22t-5 17.5q0 12 -8 24q-8 24 -8 47q-6 12 -6 31q-6 9 -3.5 84.5t9.5 106.5 q4 6 11 31t7 26q0 4 8 27.5t13 31.5q2 5 22 62q0 2 3.5 11.5t6.5 12.5q0 7 2 11v10q-3 -1 -19 -15.5t-17 -15.5q-10 -10 -31 -24q-2 -4 -33 -35q-2 -2 -9 -9.5t-12.5 -13t-7.5 -6.5q-1 -3 -16 -20.5t-16 -18.5t-5 -8.5t-9 -17t-7 -13.5l-6.5 -13t-5.5 -13q0 -3 -5 -19.5 t-5 -19.5q-12 -59 -27 -103q0 -2 -4.5 -11t-5.5 -9q0 -3 -4.5 -12t-5.5 -9q0 -3 -7.5 -27.5t-7.5 -27.5q-1 -3 -5 -17.5t-5 -17.5q-2 -2 -7 -11.5t-5 -10.5t-5.5 -12t-11 -23t-6.5 -14q-2 0 -28 -46q-36 -57 -39 -57q-5 -6 -7 -6q-1 -1 -9 -8.5t-15 -14t-8 -8.5l-11 -8 q-6 0 -26 -7t-23 -7q-5 0 -25 -4l-20 -4q-12 0 -18 2l-21 2q-1 1 -14 6.5t-16 7.5q-8 4 -13 4q-12 12 -12 18q-4 3 -12 14.5t-10 16.5q0 3 -4.5 15t-6.5 14q-1 2 -2 15t-2 31.5t-2 25.5v2zM-6 -100l-4 -31q0 -17 4 -29q1 -3 5.5 -13.5t8.5 -19t6 -10.5q4 -12 25 -33 q2 0 10 -3.5t8 -4.5q21 0 27 -4h20q11 1 37 19t31 26q1 1 10.5 18t12.5 21q13 25 20 55q5 20 12 41q3 6 11.5 42.5t9.5 39.5q0 4 5.5 39t13 79t9.5 61q0 1 1.5 10t1.5 10h-7q-2 0 -8.5 -3t-7.5 -3q-3 -1 -21 -14.5t-22 -14.5q-3 -6 -37 -33q-5 -6 -39 -37t-39 -36 q-3 -4 -13.5 -14t-19 -18t-8.5 -9q-3 -7 -20.5 -28.5t-18.5 -22.5q0 -1 -22 -56l-1 -10q-1 -10 -1 -14z" />
<glyph unicode="I" horiz-adv-x="817" d="M117 18q4 8 4 23q5 22 20 51q8 0 21 19q2 1 8 6t11 8.5t7 3.5h13q1 0 5 -1t5 -1q10 -10 10 -18q0 -2 -3.5 -5.5t-4.5 -3.5q-12 -4 -14 -4q-2 -1 -14.5 -9t-14.5 -9q-4 -13 -8 -17q-1 -1 -3.5 -5.5t-4.5 -8t-2 -4.5q-1 -1 -2 -7.5t-2.5 -14.5t-2.5 -11q-6 -24 -6 -33 q0 -14 4 -26l7 -12q3 -5 13 -20t11 -17q27 -17 35 -23l22 -10h9l6 -2q2 1 16.5 5t16.5 5q48 36 51 39q20 25 28 31q1 3 21 33q1 0 4.5 6.5t8 14.5t7.5 11l9 21q1 2 5 12.5t7.5 20t3.5 12.5l10 18q2 6 8.5 21t11.5 26t5 13q16 64 20 82q1 4 21 70t39.5 131t21.5 73 q13 76 25 117q17 83 22 94q0 9 17 51q0 4 6 19.5t8 17.5v16l-6 2q-1 0 -29 -7t-66.5 -17t-56.5 -14q-5 0 -36 -9t-35 -12q-56 -14 -80 -14l-24 -8t-32 -10.5t-16 -6.5q-8 -2 -30 -11.5t-27 -14.5q-69 -49 -76 -60q-1 0 -25 -24q0 -2 -3.5 -10.5t-4.5 -8.5q0 -4 -4.5 -18 t-7.5 -15q-2 0 -13 -3t-12 -3q0 3 3 24t3 23q1 2 7.5 15.5t7.5 15.5t9 13.5t9 13.5q8 7 54 39.5t51 35.5q1 0 5.5 3t10 6t8.5 4q21 0 33 8q2 1 16.5 4.5t32 8t25.5 7.5q15 5 68.5 19t56.5 16q2 -1 39 8q5 2 33 6.5t32 4.5q6 2 47 16t47 16q14 13 39 56q11 11 23 35 q3 3 20 15t23 15q1 1 16 5t17 5h12q2 -1 6 -2t7 -2t3 -2q2 0 8 -6q-5 -10 -16 -43q-18 -36 -23 -51q-13 -27 -14 -27l-14 -37q-2 -12 -14 -72.5t-15 -68.5q-3 -15 -12 -61t-10 -49q-5 -22 -17 -45q-10 -17 -10 -19q-1 -2 -8 -29.5t-8 -29.5q-1 -1 -4.5 -10t-6.5 -16.5 t-4 -8.5q-1 -4 -31.5 -90t-31.5 -90q-15 -30 -15 -37q-1 -1 -5.5 -10t-4.5 -11q0 -6 -14 -34q-7 -25 -12 -27q-1 -2 -9.5 -15.5t-9.5 -15.5q-12 -18 -12 -20q-8 -16 -19 -27q-15 -30 -20 -35q-18 -18 -18 -22q-10 -20 -23 -33q0 -6 -8 -14q-2 -1 -6 -5.5t-8 -9.5t-5 -6 t-61 -53l-8 -4q-24 -12 -27 -13q-1 -1 -7 -3t-7 -3q-3 0 -17 -1l-14 -1q-1 0 -10.5 2t-11.5 2l-23 4q-2 0 -9 3.5t-16 9t-12 6.5q-12 12 -16 20q-21 21 -33 45q0 1 -6 13q-1 4 -3 16l-3.5 21t-1.5 10l2 10q2 10 2 14z" />
<glyph unicode="J" horiz-adv-x="937" d="M102 33l2 33q0 2 9 38q2 6 5.5 21t6.5 27t4 14q3 14 14.5 49t14.5 39q36 71 39 76q4 12 14 22q6 8 68 70q28 14 30 14q1 0 8 1t11 1q2 0 10.5 -1t9.5 -1q15 0 43 -14l5 -5q6 -5 11 -10t7 -8q1 -1 3.5 -5t5.5 -9.5t5 -7.5q3 -4 9 -13.5t10.5 -17t5.5 -8.5q6 -13 14 -51 q1 -4 4 -23.5t4 -23.5h14h15q38 8 39 8q0 1 3 3.5t7 5.5t6 5q1 2 3 9t3 8q1 5 7.5 61t7.5 68q1 6 8 56.5t8 55.5t10 84.5t10 87.5q1 4 6 24.5t5 22.5q1 6 10 56.5t10 56.5v18v19q-6 -3 -32 -11.5t-35 -9.5q-92 -32 -97 -32q-2 0 -23 -2.5t-24 -2.5q-2 -1 -51 -18 q-2 0 -12 -3.5t-11 -4.5q-21 0 -69 -12q-2 -1 -12.5 -4t-23.5 -7.5t-17 -5.5q-4 -2 -22.5 -8.5t-20.5 -7.5q-8 -1 -31.5 -13t-30.5 -16q-1 -2 -9 -8t-17.5 -13t-12.5 -10l-20 -20q-15 -15 -39 -55h-4h-4l-9 8v12v10q0 8 9 17q2 5 20 24.5t27 24.5q0 2 8 10q5 5 19 16 t25.5 19.5t12.5 9.5q1 0 8.5 3.5t17 7.5t13.5 6q8 4 23 4q26 7 112 34q2 0 16.5 2.5t16.5 2.5q66 22 74 24q3 1 30.5 7t30.5 7q3 0 16 5t29 10.5t23 7.5q5 2 19 7.5t25.5 9.5t12.5 6q42 17 64 30q2 0 5 2.5t3 3.5q1 3 14.5 28t14.5 28q3 3 8.5 12.5t9 17t4.5 7.5 q34 34 37 36q29 19 47 23h8h8q5 -12 5 -16v-7v-8q0 -3 -4.5 -21t-9.5 -39.5t-7 -29.5q-3 -9 -24.5 -84.5t-22.5 -79.5q-2 -11 -7 -87.5t-5 -80.5q-2 -17 -6 -54t-7.5 -66t-3.5 -31q-2 -6 -9 -38.5t-7 -37.5q-4 -16 -4 -51v-45q2 -2 4 -2q1 1 8 4t8 4q25 25 37 31q9 0 17 8 q1 0 3 1t3 1q0 -10 -2 -10q-2 -13 -4 -17q-1 -1 -8.5 -11t-8.5 -11q-2 -1 -13.5 -14t-14.5 -15q-3 -3 -19.5 -15t-19.5 -14q-2 -3 -13 -16.5t-12 -15.5t-6 -29.5t-6 -30.5q-4 -11 -23.5 -70t-21.5 -65l-9 -14q-8 -14 -10 -15q0 -3 -9 -20t-11 -19q-1 -2 -11.5 -22.5 t-11.5 -22.5t-7 -12t-7 -12q-3 -3 -16 -20t-15 -19q-3 -2 -16 -15t-15 -14q-3 -2 -20 -14t-30.5 -21t-16.5 -10q-9 0 -68 -22q-27 -9 -30 -9h-48h-51q-5 0 -14 9q-7 9 -31 31.5t-30 27.5q-5 5 -21 37q0 1 -8 33q0 19 -8 43q-1 6 -3 19t-4 23.5t-2 12.5q-2 23 -2 33zM129 35 v-43q0 -32 6 -68q0 -12 6 -30q10 -10 17 -31q2 -1 9 -12l7 -11q2 -4 37 -39q6 -6 14 -6h41h35q12 0 68 25q10 0 16 6q2 2 14.5 11t14.5 11q3 2 16 14.5t16 14.5q1 4 10 16.5t11 14.5q17 26 22 45q14 33 31 92q2 5 11 46t12 50q0 23 8 47q0 2 1 14.5t1 14.5h-10 q-30 -6 -39 -6q-14 -7 -21 -14q-1 -1 -2.5 -4t-3 -7.5t-2.5 -5.5q-8 -16 -8 -30q-21 -70 -21 -84q-1 -1 -4.5 -7t-7.5 -13t-6 -9q0 -2 -5.5 -11t-8.5 -10q-3 -3 -8 -11.5t-9.5 -15t-5.5 -7.5q-3 0 -22 -13q-1 -1 -8 -4.5t-13.5 -7t-9.5 -4.5q-16 -8 -23 -8h-6h-8q-6 0 -22 8 l-15 8l-8 8q0 1 -8 39v4v4q1 2 2.5 11t3 17t2.5 9q2 5 14.5 22.5t16.5 20.5q12 14 90 92v70v72q0 15 -8 39q0 1 -3.5 8t-3.5 8q-2 1 -12 11.5t-12 11.5h-4h-4q-1 -1 -11 -6.5t-19.5 -10.5t-12.5 -6q-11 -3 -23 -16q-4 -2 -12 -10t-17 -18t-10 -11q-6 -13 -8 -15 q-1 -1 -7 -11t-7 -11q-28 -56 -29 -60q-1 -1 -4.5 -10.5t-3.5 -11.5q0 -7 -16 -39q-2 -5 -8.5 -34.5t-6.5 -33.5q0 -2 -3 -15t-3 -15v-39zM276 12l3 -20q0 -2 8 -10h14h14q15 15 15 18q10 10 24 45q0 13 8 21q0 1 3.5 24t3.5 31v8h-15q-3 0 -23.5 -21t-29.5 -34 q-17 -26 -22 -45q-3 -11 -3 -17z" />
<glyph unicode="K" horiz-adv-x="927" d="M535 340h-7q-16 -8 -24 -8q-4 -1 -16 -9t-13 -8q-3 0 -8.5 -5.5t-5.5 -8.5q-3 -3 -9 -14.5t-6 -14.5q-36 -108 -38 -112q-1 -3 -21.5 -41t-24.5 -51q-1 -3 -11 -19.5t-11 -19.5q-5 -3 -31 -37q0 -2 -3.5 -5t-4.5 -3q-1 -1 -18 -21.5t-19 -21.5q-1 -1 -20.5 -18.5 t-26.5 -20.5q-1 0 -5 -3.5t-8.5 -7t-6.5 -4.5q-24 -16 -31 -16q-1 -1 -9 -2.5t-17 -3t-11 -2.5h-12h-13q-2 1 -14 4t-14 4q-5 1 -21 8t-18 8q-1 0 -2.5 2l-3 4t-2.5 3q-9 9 -9 12v45v47q0 2 4 10.5t5 9.5l8 17q1 2 8 9t8 9q7 0 15 4h8h8q8 -8 8 -14q-2 -1 -17 -14.5 t-18 -14.5q0 -1 -2 -8t-2 -8v-37v-31q9 -18 15 -24q0 -1 3 -3.5t5 -2.5h33h32q12 0 33 14q2 3 24 26t27 29q2 0 8 8.5t7 12.5q3 4 12.5 19.5t11.5 17.5l5 10t6.5 13.5t3.5 6.5q2 4 8 23t13 41t9 29q6 12 6 28q3 12 13 67t12 62q0 37 14 121q15 109 15 113l8 28q1 4 6.5 56 t7.5 65q0 36 8 76v4v4l-14 -8q-10 -6 -54 -47l-44 -41q-12 -6 -31 -25q-3 -4 -38 -34.5t-44 -40.5q-2 -2 -12 -10.5t-12 -10.5q-42 -49 -54 -61q0 -2 -8 -16.5t-12 -20.5q-14 -21 -19 -31q0 -14 -4 -22q0 -15 -8 -31q0 -1 -3.5 -4.5t-4.5 -3.5h-4h-4q-2 0 -5.5 3.5t-3.5 4.5 v14v17q0 12 9 30q1 1 6 10.5t10.5 20t7.5 14.5q9 18 23 39q4 4 12 15t8 14q15 14 62 61t59 60l23 12q4 3 30.5 28.5t60 58t46.5 44.5q8 6 31 29q0 1 3 6t6.5 11t4.5 7t16 31q1 3 25 54.5t26 58.5q23 38 23 43q2 4 12 17t11 15q0 1 3 2l7.5 2.5t5.5 2.5h14h15q2 0 5 -3t3 -4 q2 -8 2 -12q0 -2 -1 -6.5t-1 -5.5q-12 -73 -17 -90q0 -5 -5.5 -31t-6.5 -29q-8 -24 -8 -39q-8 -24 -8 -51q-15 -120 -15 -151q-1 -2 -4 -18.5t-4 -18.5q0 -8 -3.5 -46.5t-4.5 -45.5q0 -5 -3.5 -31t-4.5 -29q-6 -54 -6 -69v-27q4 -2 6 -2q1 1 8 3t8 3q45 27 51 33q11 0 25 14 q4 4 16.5 16t26 26.5t16.5 17.5q50 67 121 182q2 2 11 18t10 21q4 3 20 29.5t19 35.5q1 1 3 5t3.5 6.5t1.5 3.5q1 1 4.5 10.5t7 17.5t4.5 9l8 8q4 2 6 2l7 -2q1 0 4.5 -3t3.5 -5q0 -1 1 -12t1 -13q0 -5 -1 -16l-1 -11q0 -3 -2.5 -15t-5.5 -13l-13 -37q-1 -2 -8 -13.5 t-8 -13.5q-7 -7 -29 -51q-3 -3 -15 -21t-15 -24l-11 -14q-10 -14 -14 -17q-2 -2 -15 -18t-14 -19q-1 -2 -6 -9t-9.5 -13.5t-4.5 -7.5q-13 -10 -68.5 -66.5t-62.5 -62.5q3 0 11.5 -6.5t8.5 -8.5q10 -7 27.5 -24.5t19.5 -20.5q0 -1 6.5 -15.5t13.5 -33t9 -27.5q1 -1 4.5 -10.5 t3.5 -11.5q4 -10 15.5 -45t11.5 -37q0 -5 4.5 -34.5t7.5 -39.5q0 -7 8 -47q0 -3 4.5 -27.5t4.5 -27.5q2 -9 6.5 -48t5.5 -42q8 -27 8 -31q1 -3 4.5 -25t3.5 -24q17 -51 17 -55q1 -3 7 -30t7 -30q0 -6 8 -22q1 -3 10.5 -29.5t10.5 -32.5q2 -4 6 -13t7 -16t3 -8 q2 -4 14.5 -26.5t14.5 -26.5q3 0 13 -3t11 -5h4h4q0 1 10 4.5t13 3.5q14 7 14 8q29 29 29 31q8 12 16 59q0 6 2 42.5t2 41.5q3 0 5 -2q1 0 4 -3t4 -3q1 -2 3 -21.5t3 -23.5v-14v-17q-1 -2 -3 -21.5t-3 -23.5q-8 -24 -8 -30q-9 -9 -9 -15q-6 -6 -6 -8q-28 -17 -33 -22 q-4 -2 -43 -15h-14h-18q-2 0 -18 3t-19 3q-1 1 -4 3t-6 3.5t-3 2.5q-3 1 -18 11t-16 11q-1 3 -20.5 23t-20.5 22q-5 5 -19 21l-14 16l-31 62q-4 8 -16 48.5t-12 41.5q-1 4 -5 30t-4 31q-8 56 -20 152q-2 12 -9.5 76t-7.5 75q-1 2 -4 22t-7 47t-5 36q0 39 -6 45q-6 12 -8 14 q0 15 -8 31q-1 1 -4.5 11t-4.5 11q0 3 -2.5 9t-3.5 6q0 2 -6 8q-8 0 -16 8h-8z" />
<glyph unicode="L" horiz-adv-x="604" d="M-180 -258v10q12 36 12 43q1 2 8 12.5t8 12.5q3 2 31 30q19 13 23 15q3 2 20.5 11.5t18.5 10.5q9 9 59 29q8 16 8 18q10 19 29 97q13 39 22 84q1 3 3 10t4 12t2 6q1 5 4 35t4 35q6 106 8 149q1 15 3 55.5t3.5 70.5t1.5 34q0 9 2 100.5t2 100.5q0 16 8 72q1 1 5 17t4 19 q1 4 8 48.5t8 48.5q0 3 12 38.5t19 51.5q4 22 20 61q0 7 8 15q24 48 29 53q10 10 16 22q2 3 8 11t10 13.5t5 6.5q21 21 23 25q2 0 14 8t16 12q12 6 23 17q6 6 16 6q12 6 29 6q1 0 11 1t13 1t13 -1l10 -1q1 0 10 -2.5t19.5 -5.5t13.5 -4q5 -2 24.5 -13t22.5 -12l37 -37 q8 -8 14 -31q2 -4 15 -43q8 -16 8 -32l8 -11h135q13 -8 17 -12l8 -6l2 -8h-123q-11 0 -33 -15q0 -4 -6 -16q-16 -78 -25 -106q0 -4 -11 -29.5t-17 -36.5q-1 -2 -4.5 -7l-7 -10t-3.5 -6q-2 -2 -8 -15.5t-6 -16.5q-4 -2 -17 -19t-14 -18q0 -1 -30 -23q-7 0 -15 -8 q-3 -1 -10.5 -3t-13 -3.5t-6.5 -1.5h-25h-21q-6 0 -22 16q-13 13 -16 19q-11 22 -15 28q-8 16 -8 21v27v28q0 5 8 29q8 16 15 37q3 5 9 17t7 13t14.5 15t26.5 27.5t18 17.5q4 2 25 16q25 15 29 17l14 14q0 3 1 23.5t1 23.5q0 6 -0.5 18.5t-0.5 22.5l-1 10q0 5 -5.5 22 t-8.5 21q-11 11 -23 19q-2 0 -8.5 3t-7.5 3h-25h-20q0 -1 -5 -4t-10 -6.5t-6 -6.5q-5 -2 -18.5 -14.5t-14.5 -13.5q0 -3 -14 -31q-1 -2 -5.5 -14.5t-9.5 -26.5t-7 -20q-1 -4 -4.5 -14.5t-7 -19t-3.5 -9.5q-8 -40 -14 -76q-8 -32 -8 -62q-1 -6 -4.5 -45.5t-4.5 -44.5v-37 q0 -4 -4 -35t-4 -32q0 -3 0.5 -87t0.5 -154.5t-1 -84.5q0 -7 -3.5 -45t-4.5 -45q0 -74 -6 -98q0 -21 -8 -53q0 -4 -6 -28t-9 -32q0 -1 -4 -12t-4 -12q-1 -4 -7.5 -31t-6.5 -29t-7 -22.5t-7 -22.5v-4v-4q0 -1 3 -4.5t5 -3.5q8 -2 12 -2l16 2q13 0 29 8q60 20 70 25 q12 3 104 51q11 3 23 16q5 4 30.5 28.5t30.5 28.5q2 2 15 19.5t14 19.5l18 9v-13v-10q-1 -1 -8.5 -15.5t-9.5 -17.5q-5 -5 -29 -37q-3 -2 -15.5 -13.5t-13.5 -14.5q-35 -28 -38 -31q-17 -10 -63.5 -33t-57.5 -26q-2 0 -62 -15q-4 -1 -36.5 -9t-36.5 -9q-5 0 -14 -2.5 t-9 -3.5q-2 0 -25 -23q-2 -4 -22.5 -33.5t-22.5 -33.5q-2 -6 -22.5 -29.5t-20.5 -24.5l-10 -6q-11 -6 -14 -6q-9 -7 -35.5 -22t-32.5 -17q-6 0 -22 -8t-31 -8h-8h-6q-9 0 -17 8l-14 14q-6 6 -6 15v14zM-152 -256v-16q13 -7 15 -7h6h2q3 1 22.5 12.5t22.5 12.5q6 4 8 6 q6 6 17.5 20.5t11.5 16.5q9 9 27 45q0 23 4 31h-4h-9q-2 -1 -13 -3t-13 -3q-3 -3 -15 -10t-14 -7q-37 -37 -45 -47q-1 0 -14 -20l-9 -17v-14zM324 836v-21q1 -1 4 -10t4 -10q0 -2 6.5 -12t9.5 -13q4 -8 6 -8q13 -2 15 -2l16 2q6 0 14 8q1 0 7 10t8 15q2 1 9 14t7 14 q1 3 11 35t12 41q8 24 8 37v72q-21 -2 -23 -4q-2 0 -12.5 -7.5t-11.5 -7.5l-45 -45q0 -1 -7 -11t-8 -13q-13 -26 -14 -29q-14 -35 -16 -37v-18z" />
<glyph unicode="M" horiz-adv-x="1243" d="M485 -100l2 18q0 4 5.5 22.5t7.5 22.5v8l2 9q0 4 1 36t1 39q-2 2 -2.5 23.5t0.5 30.5q0 2 -1 22.5t-1 22.5q0 5 1 45.5t1 44.5q0 27 -4 39q4 8 4 22q0 45 -2 53q0 60 -4 76q1 4 0.5 13t-1.5 21.5t-1 14.5q0 7 -1.5 27t-3 36t-0.5 17q-4 12 -4 27h-4h-4q-5 -5 -10 -15 q-21 -35 -39 -71q-1 -1 -3 -6.5t-4 -9.5t-3 -5q-1 -2 -9.5 -18.5t-9.5 -18.5q-12 -20 -12 -22q-1 -5 -25 -43.5t-30 -46.5l-14 -24q-14 -23 -15 -27q-1 -1 -9 -14.5t-9 -14.5t-9.5 -17.5t-9.5 -17.5q-3 -3 -14.5 -21.5t-11.5 -21.5q-10 -10 -41 -72q-22 -33 -37 -53 q-3 -4 -12.5 -17.5t-15.5 -22t-7 -9.5q-2 -2 -28 -22t-33 -27q-1 0 -7.5 -3t-7.5 -3q-16 2 -20 4l-17 2q-1 0 -4 2t-6.5 4.5t-5.5 3.5q-2 3 -7.5 10t-6.5 7q-4 12 -4 16l-5 22q5 0 5 52q6 42 6 55q6 13 14 43q2 2 12 31l19 49q3 2 10.5 13.5t16.5 24.5t12 17q36 45 45 57 q2 3 19 18t26 21q1 3 6.5 8t7.5 5q3 3 17 10.5t16 9.5h4h2l8 -8l-2 -4v-6q0 -1 -1.5 -3.5t-3.5 -5t-3 -4.5q-8 -6 -8 -8q-4 -3 -22 -23t-21 -22q-26 -35 -29 -35q-2 -6 -19.5 -36.5t-19.5 -36.5q-8 -27 -10 -37q-27 -78 -27 -86q0 -7 -6 -49l-4 -50q-1 -1 0.5 -14t3.5 -16 l4 -4l2 2q2 0 12 9t13 13q4 2 35 33l18 18l7 15q8 14 12 16q32 48 36 64q11 14 58 92q8 15 69 123.5t74 132.5q3 3 16 27.5t15 29.5q18 36 18 37q3 2 11 13t8 14q5 6 17 28.5t13 28.5q2 7 10 45.5t15.5 72t11.5 42.5q0 3 2.5 12t5 20t3.5 15q0 3 4.5 13t7.5 13q1 1 5 12.5 t5 12.5q2 2 8 14q3 3 12 13t16.5 18t8.5 8q0 2 9.5 7t15.5 6l14 6q3 0 7.5 -8t4.5 -11q-9 -55 -18 -170q-6 -30 -6 -104q0 -3 -0.5 -19t-0.5 -28t1 -15q8 -32 8 -61q1 -3 2 -23.5t2 -23.5q0 -35 2 -39l-2 -8q0 -1 2 -10.5t2 -10.5v-55q4 -16 4 -92q0 -13 -2 -15q0 -1 3 -3.5 t5 -2.5l4 -2h5q8 4 16 4q6 13 6 17q3 1 10 11.5t15 23.5t8 14q0 2 3.5 8t7.5 13t5 8q1 0 37 49q2 1 9 9.5t15 18.5t11 13q3 0 13 10.5t14 15.5q33 33 34 35q15 15 17 19q10 10 10 14q0 1 8.5 20t9.5 25q1 2 12.5 23.5t12.5 23.5q3 12 14.5 34t14.5 25q7 7 26 22.5t23 16.5 l8 2l6 -4l8 -8q0 -23 4 -39q-2 -14 -2 -16l-4 -21q-1 -5 -13 -51t-13 -51q-1 -7 -13.5 -105.5t-15.5 -111.5q-6 -58 -31 -203l-4 -36q-4 -37 -4 -48q-10 -63 -10 -78q-2 -8 -2 -78q0 -3 2 -18.5t2 -17.5q0 -11 6 -17q21 21 33 25q5 0 16 22q11 11 19 27q20 27 20 35 q6 11 12 37q1 2 7.5 24.5t7.5 28.5q0 4 3 18t6.5 29t4.5 18q2 8 6.5 28t8 35.5t3.5 18.5q1 5 4.5 33.5t4.5 32.5l8 8l12 -16q-4 -25 -4 -33q-4 -20 -4 -49q-22 -89 -35 -148q-14 -49 -14 -61q-1 -1 -4.5 -9t-3.5 -10q-3 -3 -9 -18.5t-6 -17.5q-1 -1 -7.5 -11t-15.5 -22 t-14 -17q-8 -16 -16 -20q-2 -3 -14 -16t-13 -15q-1 -1 -3 -2t-3.5 -2t-1.5 -2l-14 -4q-1 0 -9 1t-10 1q-1 0 -6 1t-6 1q-4 0 -16 7t-13 11q-3 1 -9.5 10t-8.5 13q-13 26 -14 29q-1 0 -3.5 5t-2.5 7q0 4 -2.5 19t-6 32t-4.5 21q-10 35 -10 53l1 17q0 16 0.5 37t0.5 32 q6 81 6 96q2 21 39 207q1 6 4 34.5t4 33.5q-1 0 -3 1t-3 1q-1 -1 -12.5 -9t-13.5 -10q-4 -6 -19 -18.5t-18 -14.5q-4 -12 -35 -51q-24 -40 -27 -43q-4 -4 -17 -37t-13 -34q-1 -2 -11.5 -18.5t-11.5 -18.5q0 -3 -2.5 -11.5t-5.5 -9.5q-2 -6 -16 -30.5t-15 -26.5 q-5 -7 -21 -36.5t-16 -33.5q-8 -16 -22 -51q-13 -26 -13 -35q-10 -10 -10 -18v-21q-1 -2 -6 -14t-6 -14q-11 -22 -21 -37q-2 -5 -8.5 -16.5t-9.5 -12.5q-12 -4 -14 -6h-4l-5 2q-2 0 -3.5 3.5t-0.5 4.5q-2 15 0 19z" />
<glyph unicode="N" horiz-adv-x="954" d="M541 -264l2 16q0 3 3.5 19.5t4.5 19.5q8 48 8 59v64v66q-6 41 -8 61q-6 25 -16 113q0 9 -3.5 29t-5.5 22q0 21 -6 33q-1 3 -4 18.5t-4 17.5q0 4 -3.5 30t-4.5 30q-6 42 -6 53q-1 6 -6.5 32.5t-10 50t-6.5 28.5l-4 2l-4 -2q-1 0 -3.5 -5.5t-2.5 -7.5q-3 -6 -23.5 -57 t-23.5 -57q0 -1 -3 -7.5t-3 -7.5q-1 -2 -8.5 -18.5t-8.5 -18.5q-2 -7 -61 -137q-3 -9 -19.5 -45t-17.5 -39q-7 -21 -14 -28q-2 -4 -15.5 -23.5t-15.5 -23.5q-3 -3 -19.5 -23t-17.5 -20t-6 -3.5l-10 -7t-7 -4.5q-8 -8 -22 -8q-19 -2 -27 -2l-18 2q-2 0 -14 6.5t-15 9.5l-8 7 q-4 3 -10 10l-12 14l-5 6q0 2 -2.5 10t-5.5 17l-4 12q-8 16 -8 29q-8 32 -8 51v8v8q8 64 8 74q0 15 8 39q12 60 12 61q2 2 5.5 11t3.5 12q5 9 16.5 39t13.5 37q1 2 12 21.5t13 21.5q1 2 6 10t9 14t5 7t6 4t11 7t8 5q3 2 12.5 7.5t17 9.5t7.5 5h8h6q6 -6 8 -6q8 -8 8 -16 q7 -14 7 -23v-4v-4q0 -11 -6.5 -34t-8.5 -25q-1 -2 -11 -19.5t-11 -19.5q-6 -28 -53 -160q-9 -27 -9 -29l-1 -10q0 -9 -1 -23.5t-2 -30.5t-1.5 -31.5t-0.5 -24.5v-4v-5q0 -37 6 -67q8 -8 9 -8h4h4q8 0 16 8q6 7 23 23.5t30 29t13 14.5q4 4 69 138q2 2 37 82q1 4 7 17 t11 23.5t5 12.5q35 88 45 121q1 2 4 11t4 11q2 6 7.5 24.5t10 33.5t4.5 18q2 7 6 21.5t7.5 25.5t3.5 12l2 217q6 21 8 29q1 5 7.5 24t6.5 21q1 3 15 31q1 1 8 7t8 7q22 15 31 15q8 2 12 2q8 -2 10 -2q1 -4 4 -13.5t7 -20t4 -11.5v-13v-18q0 -3 -3.5 -11t-5.5 -10 q0 -5 -1 -33t-1 -34t-0.5 -29t-1 -43.5t-0.5 -21.5q0 -2 2 -12.5t4 -24t3 -19.5q0 -2 4 -18.5t4 -18.5q0 -3 4 -29.5t4 -29.5q0 -4 5.5 -41t10 -70.5t4.5 -40.5q1 -10 5 -70.5t4 -72.5q6 -55 10 -59l6 -9l6 15q4 16 24 89.5t21 76.5q5 17 40 148.5t38 139.5q0 6 16 46 q3 8 12 34t16.5 46.5t8.5 23.5q28 70 31 76q0 8 8 16q22 44 29 51q0 1 4 8.5t4 8.5q35 62 37 67q2 2 8.5 12t7.5 11q4 5 20 23t29.5 33.5t16.5 19.5q17 17 39 28q4 8 22 8q21 3 27 3q4 0 15 -1.5t12 -1.5q10 0 22 -8q5 0 17 -6t14 -8q3 -1 14 -12.5t14 -16.5q1 -1 8 -14 t9 -16q0 -2 3 -12t3 -11q0 -5 3.5 -26.5t4.5 -24.5q0 -15 8 -47h15h14q2 1 15.5 4t15.5 4q6 6 16 6q5 4 33 23.5t33 23.5h18v-8l-8 -14q-15 -15 -19 -17q-24 -24 -36 -30q-1 -1 -13.5 -7t-15.5 -8q-2 0 -11.5 -3t-11.5 -3q-24 -16 -30 -16l-23 -23l-8 -16q0 -2 -6 -22.5 t-6 -22.5q-31 -51 -39 -76q-1 -1 -11.5 -13.5t-11.5 -15.5q-1 -1 -6.5 -6t-10 -9.5t-5.5 -6.5q-2 -1 -12.5 -8.5t-12.5 -8.5q-1 -1 -10.5 -4t-11.5 -4q-18 -6 -43 -6h-19h-14q-17 4 -23 6q-12 6 -14 8q-6 6 -6 9l-8 14q-2 23 -2 31l2 22q15 30 22 37q3 7 23 28t30 27 q2 1 27.5 20.5t32.5 24.5q2 1 19.5 11.5t19.5 11.5q0 1 3 4t3 4t1.5 6.5t3.5 12.5t3 10q8 40 8 47v47v49q0 2 -3.5 8t-4.5 6q-1 1 -2.5 3l-3 4t-2.5 2l-14 8h-25h-21q-3 0 -11.5 -3t-10.5 -5q-10 -9 -45.5 -44.5t-44.5 -46.5q-2 0 -17 -22q-8 -10 -22 -39q-55 -106 -74 -149 q-18 -30 -26 -54q0 -4 -19 -78.5t-41.5 -160.5t-27.5 -109q-2 -7 -29 -103.5t-35 -123.5q-4 -8 -4 -31l-4 -21q-4 -21 -4 -24q-1 -2 -8.5 -29.5t-8.5 -29.5q-8 -24 -8 -47q0 -1 -10 -42.5t-12 -46.5q0 -3 -4 -26t-5 -27q0 -7 -7.5 -41.5t-12.5 -48.5q-7 -21 -8 -22 q-2 -5 -12 -25t-11 -23l-6 -6l-16 6q-2 11 -2 15zM989 737v-10q4 -8 23 -8q14 0 22 8l45 45q1 1 7.5 11.5t7.5 11.5q14 21 22 45q1 1 3 6t4 11t3 7v4v2q-7 7 -10 7l-14 -7q-10 -4 -37 -30q-6 -5 -61 -60q-1 -1 -4.5 -7t-6.5 -12t-4 -9v-15z" />
<glyph unicode="O" horiz-adv-x="827" d="M463 997h20q36 -7 43 -14l90 -90q7 -7 19 -31q6 -18 6 -24l14 -50q1 -5 2.5 -25.5t3.5 -44t3 -30.5v-47v-49q-1 -5 -4.5 -41.5t-4.5 -42.5q0 -2 -5.5 -30t-10 -53.5t-4.5 -31.5q-1 -5 -0.5 -12.5t1.5 -18t1 -12.5h10q25 0 37 6q45 15 55 15q2 2 25 2q0 -13 -4 -17 q-1 -1 -6 -7t-6 -7t-7.5 -4t-14.5 -6t-9 -4q-3 -2 -12 -6t-16.5 -7t-8.5 -4q-5 -1 -32 -8t-32 -8q0 -6 -8 -14q0 -13 -12 -37q-4 -8 -26.5 -53.5t-26.5 -53.5q-12 -12 -23 -39q-1 -1 -8 -10t-8 -10q-1 -2 -14.5 -18.5t-14.5 -18.5t-11 -15.5t-11 -15.5q-25 -25 -31 -37 q0 -1 -3 -4.5t-5 -3.5q-3 -3 -19 -16t-18 -15q-14 -7 -23 -16q-33 -20 -45 -20h-18h-19q-8 0 -32 6q-27 9 -37 14q-33 22 -45 31l-4 3l-7.5 7.5t-7 7.5t-4.5 6q-7 7 -14 21q-3 5 -26.5 51t-28.5 53q0 7 -9 25q0 11 -12 59q-1 4 -3 13.5t-3.5 17t-1.5 8.5v225q0 1 1.5 8.5 t3.5 17t3 13.5q17 68 21 82q2 4 12.5 36.5t13.5 39.5l4 23q1 1 8 13t9 17q4 7 13 23.5t16 28.5t8 14q1 1 7.5 8.5t8.5 9.5q1 1 31 21q32 24 36 24h31q13 15 15 21q1 1 4 9t6 14.5t4 7.5q14 28 22 36q24 32 31 39q2 1 8 6t13 11t10 8q8 0 14 6q42 14 53 14h19zM166 311v-98 q0 -26 14 -107q0 -4 7.5 -25.5t9.5 -25.5q0 -1 3 -15.5t3 -16.5t4 -10.5t4 -10.5q0 -10 6 -16q2 -2 8.5 -11t7.5 -10t7.5 -8t7.5 -8q2 -2 12.5 -8t11.5 -7h17h20q1 1 17 7t20 8q20 10 23 16q2 2 11.5 10.5t17.5 16t10 10.5q3 6 32.5 43.5t42.5 52.5q1 2 7.5 12.5t7.5 12.5 q2 4 8.5 16t12.5 23t7 12q3 7 12.5 25.5t17.5 34t9 18.5q6 6 6 29v12v10q0 2 -2.5 5t-3.5 3q-65 19 -90 31q-2 0 -8 3.5t-6 4.5q-2 0 -7 3.5t-11 7t-7 4.5q-12 6 -14 6q-32 32 -53 47l-7 6q-10 10 -24 31q-2 2 -5 7.5t-5.5 9.5t-3.5 5l-14 28t-20 41l-11 21q0 1 -4.5 12 t-7.5 20.5t-3 12.5q-1 4 -5 27t-5 27q0 6 -1 37.5t-1 37.5h-4q-9 -24 -15 -36q0 -2 -3.5 -13t-4.5 -12t-7.5 -18t-6.5 -19q0 -1 -2.5 -13.5t-6.5 -31.5t-5 -25q-3 -9 -10 -39t-7 -34q-6 -12 -6 -54q-8 -16 -8 -36v-99zM375 797q0 -9 0.5 -28t0.5 -35l1 -15q0 -13 8 -45 q1 -3 7 -31t7 -31q0 -3 4 -19.5t5 -19.5l14 -28q1 -3 11 -26.5t11 -26.5q15 -38 23 -46q31 -39 45 -53l8 -6q2 -1 11.5 -8t11.5 -8q6 -6 22 -6h10h13q2 0 5 2.5t3 3.5q6 6 6 30q6 18 6 39q8 16 8 29q9 18 9 47q10 30 10 51v111v110q-1 2 -5 14.5t-5 14.5q0 3 -3.5 11 t-5.5 10q-9 27 -14 32q0 2 -4.5 8t-10.5 13.5t-7 9.5q-12 12 -15 12q-33 33 -45 39q-2 1 -15.5 8.5t-15.5 8.5h-10h-12q-7 0 -23 -8q-9 -9 -16 -9q-12 -6 -20 -14q-1 -1 -3 -2.5l-4 -3t-2 -2.5q-1 -2 -7 -14.5t-7 -14.5q-8 -16 -8 -24q0 -5 -1 -39.5t-1 -40.5z" />
<glyph unicode="P" d="M29 117v22l8 56q0 12 8 36q1 2 4 15.5t4 15.5q2 9 7 27t9.5 32.5t4.5 16.5q40 81 47 90q8 16 29 37q49 49 53 55q1 0 8 4t13 7t9 4h15h16q13 -7 15 -9q12 -6 22 -16q3 -2 8.5 -7t5.5 -7q2 -2 5.5 -11t3.5 -12q2 -16 2 -22l-2 -23q0 -2 -2 -5t-4 -6.5t-3 -4.5q-2 0 -14 -6 h-4h-4q-6 6 -14 6l-7 8v61l-8 21q-6 2 -8 2q-1 0 -4 -1t-4 -1q-11 -4 -15 -6q-10 -4 -22 -15l-37 -37q-6 -6 -23 -32.5t-22 -36.5q-20 -30 -25 -45q-3 -6 -15 -45t-15 -45q-17 -60 -17 -68v-84v-98q0 -12 9 -39q4 -7 18.5 -29.5t19.5 -27.5q4 -6 17 -18.5t14 -12.5h21h24 q17 0 23 6q6 0 22 16q1 0 2.5 2l3 4t2.5 3q16 16 31 36q6 12 23 29q0 6 6 18q4 7 13 27.5t9 22.5q31 91 47 139q9 27 15 57q0 2 17.5 90t19.5 99q8 16 8 32q1 4 7 45.5t7 45.5q2 3 10.5 33.5t20.5 73t16 56.5q0 2 3 12t3 11t4.5 16t4.5 17t3 9.5t6.5 16.5t4.5 11 q5 10 16 32.5t20.5 43t10.5 22.5q1 1 6.5 9.5t12.5 19.5t10 16q1 1 10 13.5t10 15.5q3 5 11.5 14.5t15 16t6.5 7.5q4 6 20.5 22t35 34t20.5 20q11 11 22 15q6 3 20.5 10.5t25.5 13t12 6.5q8 4 26 4v-12q-14 -10 -55 -50.5t-51 -53.5q-20 -30 -62 -99q-1 -1 -8 -22 q-1 -6 -4 -19t-5.5 -23t-2.5 -11q-1 -3 -5 -20t-8.5 -36.5t-5.5 -21.5q-6 -27 -8 -29q0 -41 -6 -59q0 -19 -6 -37q0 -1 -4 -12.5t-4 -12.5q-1 -5 -11.5 -56t-11.5 -56q-6 -6 -6 -23q-16 -64 -16 -76q-1 -1 -4.5 -10.5t-3.5 -11.5q0 -8 -15 -53q-1 -1 -16 -31 q-42 -125 -43 -133q-1 -1 -4.5 -9t-3.5 -10q-2 -2 -12.5 -24.5t-12.5 -24.5q-2 -5 -14.5 -31.5t-14.5 -31.5q-14 -21 -22 -37q-3 -3 -14 -17.5t-20.5 -27t-12.5 -15.5q-2 -3 -21 -22t-22 -23q-1 -1 -9 -6.5t-14.5 -10t-9.5 -5.5q-21 -14 -43 -25q-2 0 -18 -3t-19 -3h-8h-8 l-29 6q-31 20 -33 25q-41 62 -43 67q-16 32 -16 47q0 2 -1.5 23t-3.5 50t-3 40v27zM602 440v11l3 13q3 12 3 17l8 21q1 1 4.5 6t7.5 10.5t7 7.5q18 27 20 31q1 2 9 8l8 6q2 0 12.5 8t22.5 17.5t16 11.5q2 1 12.5 8.5t12.5 8.5q6 4 20 12t16 8q7 4 52.5 26.5t52.5 26.5 q13 13 16 19q0 4 8 12q0 23 15 76q1 4 4 27t4 26v14v17q-1 4 -4 27t-4 26q-1 0 -4.5 5t-3.5 7q-2 2 -5.5 6t-6 7.5t-3.5 3.5h-4h-4q-8 -2 -35 -11t-31 -12q-2 0 -9 -3t-9 -3l-9 -7q-10 -7 -11 -9q-28 -21 -33 -21q-1 -2 -37 -47q-4 -6 -15 -21t-19.5 -26.5t-8.5 -13.5 q-3 -1 -13 -23t-12 -29l-8 -8l-2 -2l-4 2q-6 6 -6 8q-2 7 -2 9l2 4q0 3 3 17t3 16q0 9 14 30q1 1 8 10t9 11t10 15t10 15q5 5 18 22l13 17q41 41 45 43q13 13 25 17q8 8 12 8q7 2 24 7.5t30 9.5t15 5h23h23q1 -1 7.5 -3.5t13 -5.5t9.5 -5q1 -1 14 -14.5t15 -18.5 q3 -2 8.5 -9.5t5.5 -10.5q2 -2 9.5 -18.5t9.5 -18.5q0 -13 6 -31q0 -3 3.5 -22.5t4.5 -22.5q0 -21 6 -39h8h9q10 5 20 15q8 5 31 28.5t30 32.5h9v-8q0 -4 -4.5 -16t-4.5 -13q0 -10 -6 -16q-2 -3 -7.5 -10.5t-9.5 -13.5t-5 -7q-4 -3 -35 -26.5t-35 -26.5q-17 -17 -20 -23 q-2 0 -5 -6.5t-3 -9.5q-1 0 -3 -4.5t-4.5 -9.5t-3.5 -6q-4 -15 -24.5 -56t-26.5 -49q0 -3 -14.5 -23.5t-14.5 -23.5q-2 -2 -12 -18.5t-12 -18.5l-37 -37q-15 -15 -47 -39q-11 -11 -21 -14l-16 -8q-46 -23 -51 -23q-17 -2 -23 -2q-4 0 -13 1l-9 1q-1 0 -25 8q-1 1 -4 3 t-5.5 3.5t-2.5 2.5q-2 0 -10 6.5t-9 7.5q0 6 -8 14q0 19 -6 31v12zM633 440q0 -4 1 -16l1 -12q4 -11 6 -15q0 -2 6 -8t17 -6h16h12q1 0 8 4.5t16.5 10t14.5 8.5q1 1 7.5 4.5t11.5 6.5t6 3q8 8 12 16q29 29 29 37q2 2 8.5 12.5t14.5 23.5t11 17q3 9 21 45q3 5 12 26t10 28 q0 1 3.5 10t3.5 10h-11h-10q-9 0 -67 -29q-8 -8 -17 -8l-45 -30q-20 -10 -31 -21q-2 -2 -10 -11t-15.5 -16.5t-10.5 -9.5q-1 -2 -8.5 -12t-8.5 -12q-12 -24 -12 -31q-2 -19 -2 -25z" />
<glyph unicode="Q" horiz-adv-x="880" d="M315 -129h-36l-17 4q-17 4 -22 4q-10 5 -52 19q-18 6 -30 12q-3 1 -12 11t-11 13q-1 1 -8.5 12t-14 20.5t-8.5 13.5q-3 3 -15.5 29.5t-14.5 29.5q-9 27 -17 47q0 4 -5 32.5t-7 33.5q0 6 -8 30q0 7 -1 45.5t-1 46.5q0 12 1 51t1 40q1 11 10 77.5t10 79.5q0 2 35 96 q0 4 2 14t2 11q1 1 8 17.5t9 19.5q22 51 22 53q5 16 53 84q1 1 8 11.5t16 23t13 16.5l23 31q3 4 11.5 12.5t18.5 17.5l9 9q6 6 22 6q2 0 16 1t17 1q0 -25 -4 -33q-6 -16 -8 -22q0 -11 -6 -17q-1 0 -4 -4.5t-6.5 -9.5t-4.5 -6q-2 -3 -30 -59q-2 -2 -8.5 -13t-6.5 -12 q-2 -4 -12 -34t-12 -34q0 -4 -11.5 -28t-11.5 -25q-1 -2 -21 -82.5t-22 -97.5v-14q-8 -24 -8 -62q0 -29 -8 -53q-8 -80 -8 -90q0 -1 1.5 -15.5t3.5 -33.5t3 -27q14 -117 16 -119q0 -9 29 -92q0 -1 4 -8t4 -8l29 -29q16 -8 24 -8q19 -2 25 -2l20 2q1 0 7 6.5t8 9.5q6 6 6 29 q8 32 8 47q8 32 8 66q0 1 1 16.5t1 21.5q0 5 -0.5 14t-1 15.5t-0.5 7.5q0 31 -8 47q-1 2 -14.5 14.5t-14.5 14.5v4v4q0 2 2.5 5.5t3.5 3.5h4h5q3 0 8.5 -3.5t5.5 -5.5q12 -10 47 -45q0 -1 12.5 -26.5t16.5 -32.5q1 -1 4 -12t4 -13q6 -6 6 -30q1 -3 4.5 -18.5t3.5 -18.5 l8 -13q7 0 17 5q4 6 6 8q1 1 9.5 13.5t16.5 24.5t11 17q1 2 8 10t8 10q2 2 11.5 18.5t11.5 18.5q1 3 14 23.5t14 23.5q7 10 19 33t12 27q0 1 1 5.5t1 6.5q0 1 -1 6t-1 6t-8.5 9.5t-13.5 11.5q-3 2 -27 15.5t-27 15.5q-29 29 -37 39q-33 33 -45 51q-42 63 -45 69q-6 13 -8 13 q-2 3 -7.5 20.5t-6.5 18.5q0 1 -4 11.5t-7 20t-4 13.5q-8 16 -8 28q-8 38 -8 39q0 38 -8 70v18v21q8 39 8 49q8 38 8 39q0 2 7 21t8 24q3 14 16 39q8 18 37 76q1 3 10 12t21 20t14 13q8 8 31 14q35 14 45 14q29 2 41 2q3 0 20.5 -1t20.5 -1q8 0 16 -8q3 -2 25 -21t26 -22 l47 -47q9 -9 37 -74q8 -16 8 -39q2 -39 2 -55l-2 -55q0 -15 -8 -47q-1 -3 -8 -31t-8 -31q0 -2 -2 -19.5t-2 -19.5q-2 -10 -8.5 -34t-11.5 -42t-5 -20q-17 -52 -22 -59q-3 -8 -13.5 -37t-11.5 -31q-4 -12 -4 -37v-14v-10q1 -4 12.5 -16t16.5 -15q10 -7 47 -14l10 -1 q9 -1 14 -1l25 2q11 0 39 14q1 0 6 1t6 1q0 -2 -2 -12t-2 -11q0 -2 -3 -5t-5 -3l-13 -8q-12 -8 -26 -8h-41h-41q-2 0 -12 4t-11 4h-18h-18q-9 0 -17 -8q-1 0 -3.5 -3t-2.5 -5q-1 -1 -7.5 -11t-8.5 -12q0 -5 -9 -14q-17 -34 -45 -76q-10 -18 -39 -62t-34 -49q-1 -2 -26.5 -30 t-27.5 -33q0 -6 -8 -14q0 -2 -3.5 -12t-4.5 -11q0 -11 -6 -47q0 -2 -3.5 -24t-4.5 -25q0 -2 -3 -20t-3 -19v-25v-20q0 -13 6 -31q1 -1 4 -8t4 -8q1 0 7 -3t7 -3q5 -1 31 -8.5t31 -8.5v-12q-32 0 -62 6q-3 0 -14 5.5t-14 8.5q-2 2 -13 12t-20.5 19.5t-12.5 13.5q-1 1 -4 6 t-7 11t-5 8q0 2 -3.5 7t-4.5 5q0 15 -8 31q0 33 -6 45v16q0 3 -3.5 11t-5.5 10zM461 829v-12q0 -43 6 -67q0 -24 8 -48q0 -29 8 -53q6 -18 6 -39q1 -1 7.5 -21t7.5 -22q8 -16 8 -30q8 -16 8 -23q2 -2 11 -21.5t12 -23.5q2 -4 14 -26.5t14 -26.5q31 -41 31 -45q27 -27 33 -31 h4h2q2 10 21.5 68.5t21.5 68.5q2 6 10.5 29t15 43t7.5 24q3 15 22 93q1 8 9 40.5t8 34.5q4 16 4 66v18v13q-4 32 -4 61q-10 20 -25 45q-2 2 -7.5 12t-6.5 11q-72 72 -82 84q-3 0 -19.5 1t-19.5 1q-6 0 -22 -1l-15 -1q-2 0 -8 -3t-14 -8t-11 -6l-14 -14q-5 -5 -14 -23 q-1 -1 -3 -4.5t-4 -6.5t-2 -5q-6 -6 -6 -23q-11 -34 -16 -75q-6 -24 -6 -45v-9z" />
<glyph unicode="R" horiz-adv-x="1114" d="M655 563q-30 30 -47 37q-8 2 -12 2t-14 -1t-11 -1q-27 0 -51 -8q0 -2 -3.5 -12t-4.5 -11q-1 -4 -4 -45t-4 -45q0 -2 -4.5 -24t-9.5 -49.5l-7 -38.5q0 -2 -4 -16.5t-4 -16.5q-2 -5 -8 -44.5t-6 -45.5q-2 -3 -8.5 -33.5t-6.5 -34.5q-1 -1 -5 -19t-5 -20q0 -4 -8 -20 q-2 -8 -8.5 -23.5t-13 -29t-7.5 -15.5q-9 -18 -22 -31l-53 -53q-7 0 -23 -16q-2 -1 -14.5 -6t-14.5 -6t-7.5 -3t-10 -4t-6.5 -2h-27h-24q-2 0 -12 4t-11 5q-2 1 -8 3t-8 3l-23 14l-39 39q-1 2 -6 9t-9 12.5t-5 7.5q-4 6 -20 38.5t-19 36.5q-8 24 -8 31v174q0 1 3 11t7 23 t6 19q3 8 10 30.5t13 40.5t8 20q5 21 28 59q0 1 31 47q1 2 7.5 8t14.5 13t9 8q8 8 14 8q8 2 10 2l13 -2q6 0 17 -3t13 -5q4 -2 23 -21q0 -1 6.5 -11t9.5 -13l7 -15q1 -4 4 -26.5t4 -26.5v-39v-29q-11 -16 -15 -22l-8 -8q-12 -6 -16 -6q-2 -2 -4 -2l-4 2q0 1 -3 4t-7 6t-5 4 q-8 16 -8 22v121q-4 11 -6 15q-14 21 -14 24h-4h-5l-14 -8q-5 -5 -23 -29t-22 -32q-6 -11 -8 -15q-15 -30 -25 -55q-12 -36 -12 -37q-2 -3 -9 -21.5t-9 -21.5q0 -13 -9 -31l-4 -37v-63v-59q4 -23 4 -29q14 -35 19 -45q1 -4 4.5 -10.5t7.5 -13t4 -7.5q0 -2 7 -10.5t17 -20 t13 -14.5q16 -24 21 -24q8 0 30 -15q3 0 13 -3.5t10 -4.5h10h12q19 7 31 18q19 19 23 29q14 14 14 21q24 42 31 63q1 1 3.5 12t5.5 25t5 20q1 3 10 39q0 27 6 45q15 94 15 105v24q13 65 16 74q0 2 3 13t3 12q0 5 8 37q0 2 4.5 22.5t4.5 22.5q0 3 28 120q18 59 31 113 q11 43 37 113q4 10 17.5 42.5t13.5 33.5q0 2 30 47q15 20 23 28q1 1 10 8.5t10 8.5q4 1 23.5 10t23.5 10q11 0 17 -6v-2v-6q-1 -1 -4 -7.5t-4 -7.5q-8 -8 -17 -8q-12 -12 -12 -14q-2 -2 -7 -10.5t-11.5 -20t-8.5 -14.5q0 -4 -5 -19.5t-7 -17.5q-1 -3 -16 -63q-2 -6 -21 -82 q-1 -1 -4.5 -24t-3.5 -28q-8 -16 -8 -28q-8 -40 -8 -47v-33q3 0 11.5 -1.5t15.5 -2.5t9 0q3 0 15.5 5.5t15.5 8.5q10 6 52.5 39t45.5 35q10 9 36 35t32 34q13 26 25 46q4 4 4 22q0 1 0.5 9t1 18.5t0.5 15.5q0 3 -1 20.5t-1 20.5q0 12 -4 12l-17 17q-16 -3 -67 -23 q-12 -6 -17 -6l-90 -92h-2h-4l-8 8v4v4q1 2 6 8.5t9.5 13t4.5 7.5q1 2 9.5 13.5t15.5 21.5t8 12q2 1 15 14t16 15q8 8 12 8q7 2 24.5 7.5t31.5 9.5t16 5h24h25q23 -7 31 -16l6 -5q5 -4 10.5 -9t7.5 -8q1 -1 7 -10.5t7 -10.5l7 -16l1 -18q1 -17 1 -23l-2 -35q0 -4 -8 -24.5 t-13 -28.5q-18 -21 -24 -31q-28 -37 -31 -37q-8 -8 -29 -22q-4 -2 -38 -18.5t-38 -18.5q-1 -1 -10 -8.5t-10 -8.5l-8 -6q8 -6 28 -26t23 -27q2 -2 13 -15t12 -14q1 -3 6.5 -15.5t12.5 -27.5t9 -20q7 -7 17 -37q1 -3 4 -14t5.5 -20t2.5 -11q1 -2 5 -22.5t5 -22.5q0 -6 16 -54 q8 -49 13 -59q0 -4 4 -30.5t4 -28.5q12 -48 16 -76q0 -25 6 -31q0 -1 3.5 -11t3.5 -11q8 -24 8 -47q8 -24 8 -37q2 -5 11.5 -44t11.5 -44q0 -11 8 -27q13 -26 28 -66q5 -10 9 -14q5 -8 14.5 -25.5t16.5 -30t8 -13.5q6 -9 28 -31h17h14l31 31q1 1 10 13t16.5 24t9.5 16 q14 21 17 30q0 3 3 15t3 14l1 15q1 15 1 18q0 6 -1 21l-1 16q0 2 -3 18.5t-3 18.5q-13 26 -17 32q-2 2 -13.5 14t-14.5 15q-39 31 -62 45v4v2q0 1 3.5 3.5t5.5 2.5l4 2l2 -2q13 -5 47 -28q8 -10 51 -53q1 0 3.5 -7t6 -16.5t4.5 -13.5l9 -23q0 -1 0.5 -11t1 -23t0.5 -19 q0 -5 -0.5 -17.5t-1 -22.5t-0.5 -11q0 -22 -9 -31q0 -1 -6 -12t-8 -13q0 -1 -3 -7t-3 -7l-23 -37q-42 -42 -47 -45q-8 -8 -14 -8h-41h-43q-17 6 -23 8q-2 1 -10 7t-10 7q-6 4 -19 15.5t-23.5 20.5t-12.5 10q-25 37 -37 53q-13 20 -13 22q-5 7 -19 33.5t-15 28.5 q0 3 -5.5 22.5t-7.5 22.5q-1 1 -8 18.5t-8 18.5q-4 10 -12 53q0 2 -4 18.5t-4 18.5q0 1 -5 18t-8.5 31.5t-3.5 17.5q-8 24 -8 54q-2 10 -7 71.5t-7 71.5v16q0 3 -4 26.5t-5 27.5q0 35 -8 75q0 5 -8 29q-1 8 -14.5 49t-14.5 43z" />
<glyph unicode="S" horiz-adv-x="1161" d="M113 139h-4h-5q-3 -1 -45 -9t-45 -9h-4h-4l-16 8q-2 4 0 6l2 6q0 2 6.5 5.5t9.5 3.5q1 1 10.5 4t10.5 4q42 7 80 20q1 0 4.5 3t3.5 5q1 7 7.5 35.5t6.5 30.5q1 3 5 21.5t5 21.5q8 16 13 31q2 5 6.5 17t8 22t5.5 12q1 2 8 17.5t8 17.5q5 7 21 40t18 40q10 15 25 45 q5 5 28 33t27 32q2 0 8 6t13.5 12.5t9.5 8.5q26 13 41 16q2 1 13 5.5t20.5 9t11.5 4.5q9 6 23 6q23 0 47 -4l43 -7q23 0 32 -12q18 -5 56 -33q8 -4 29.5 -24t25.5 -25h4h4q11 0 17 6q3 0 29 24t38 38q7 8 19.5 20t25.5 25t24.5 24t20.5 19l8 8l9 14l16 164q0 2 2 8.5t4.5 14 l3.5 10.5q1 1 7.5 12.5t13 24t8.5 16.5q6 18 6 19q22 11 43 32l14 7q12 4 25 4h14q2 0 9 -1t8 -1q9 0 20 -11q29 -29 29 -32v-15l-2 -16q0 -1 -2.5 -6.5t-5.5 -12t-4 -8.5q0 -2 -4.5 -11.5t-4.5 -10.5q-34 -60 -37 -64q-12 -12 -16 -24q-2 -2 -14 -13t-13 -12q-1 -2 -4 -9 t-4 -9t-3 -23.5t-3 -25.5q0 -8 -2 -31.5t-2 -24.5q0 -6 -2 -67t-2 -66q-8 -165 -10 -174q0 -1 -1 -23.5t-1 -29.5q-7 -43 -9 -45q0 -1 -10 -51q0 -9 -10 -29q0 -1 -4 -11.5t-4 -11.5q-3 -4 -8 -17.5t-9.5 -27t-5.5 -14.5q-3 -10 -18 -41l-13 -19.5t-14 -19.5q0 -2 -7.5 -15 t-10.5 -14q-1 0 -18 -18.5t-39.5 -42.5t-34.5 -35q-3 -5 -11.5 -13.5t-15 -14.5t-6.5 -7q-23 -23 -47 -41q-28 -17 -51 -34q-4 4 -15 -7q-1 0 -29 -4t-36 -4q-16 -4 -37 -4q-1 1 -11 1.5t-22.5 1t-17.5 1.5l-45 4q-3 0 -17.5 5t-32.5 10.5t-24 7.5q-2 0 -11 4t-10 4 q-2 1 -8 5t-13 9.5t-9 6.5q-2 2 -17 11.5t-18 12.5q-2 2 -8 6.5t-10 8t-3 4.5q-19 15 -41 47q-1 1 -5.5 8t-9 14.5t-5.5 11.5q-1 1 -10 19.5t-11 21.5q-2 4 -9 23t-7 20q0 14 -12 50q4 12 -4 28zM147 123v-31q5 -18 5 -22q1 -4 9 -26t9 -26q2 -1 6 -8.5t8.5 -16.5l5.5 -11 q0 -3 21 -35q21 -21 33 -39q16 -16 18 -17q34 -23 47 -26q3 -1 17.5 -10.5t15.5 -10.5q5 0 53 -12q19 0 47 -4l43 -4q23 0 39 4q2 1 21 5.5t24 6.5q1 0 9 3t10 3q21 14 28 21q8 4 31.5 22t30.5 25q1 2 22 26t23 31q5 3 16.5 17t12.5 18q3 5 19.5 31t19.5 31q1 4 8 23.5 t8 23.5q22 51 22 55q1 3 4.5 22t6 34.5t2.5 19.5q0 2 2 22l4.5 45t3.5 37q12 87 12 115q1 10 5 101t5 102v8l-6 2q-33 -27 -41 -35q-2 -2 -20.5 -21.5t-20.5 -21.5q-8 -4 -51 -47q-16 -16 -16 -23q-2 -10 -2 -14v-16q21 -82 18 -92q1 -3 2 -31t2 -31q0 -1 1 -12.5t1.5 -20 t-0.5 -12.5q0 -19 -4 -43q0 -4 -1 -14t-2 -18t-1 -9q0 -11 -12 -27q-1 -2 -2 -11.5t-2 -10.5q-11 -11 -31 -51q-1 -1 -8 -13.5t-10 -13.5q-2 -4 -13 -20t-14 -17q0 -1 -6.5 -14t-7.5 -14q-25 -19 -25 -23l-12 2q-12 2 -15 2t-15 2t-13 2q-7 0 -15 8q-2 0 -3.5 3t-0.5 4 q-2 4 -2 6t1 5.5t1 4.5q0 2 9 20q2 2 6 10.5t8 16.5t6 8q23 46 27 62l10 20q8 46 14 62q0 9 10.5 80t16.5 104q0 27 4 35q-17 0 -21 -2q-1 0 -6.5 -4t-13 -8.5t-10.5 -6.5q-53 -36 -56 -41q-2 -2 -20 -14t-20 -14q-9 -5 -9 -7q-8 -3 -48.5 -31.5t-47.5 -35.5l-10 -4 q-2 -1 -19.5 -13.5t-19.5 -13.5q-10 -8 -50 -35t-48 -30q-4 -3 -34.5 -17t-35.5 -16q-6 0 -18 -12q0 -16 -5 -31zM158 231l2 -18l6 -10q5 3 23 9.5t22 6.5q4 4 80 49q6 3 41 29.5t41 32.5q7 3 41 24t41 27q2 2 14 10.5t21.5 15.5t11.5 9q10 6 44 31.5t46 35.5q7 4 20 14.5 t13 12.5q2 8 2 10v12q0 19 -6 31q3 7 -13 31q0 2 -2.5 5t-3.5 3q-4 8 -29 16q-2 2 -10.5 7.5t-9.5 5.5l-17.5 3.5t-23 4.5t-12.5 2q-29 0 -37 -2q-2 -1 -11.5 -3t-21 -4t-14.5 -3q-7 0 -15 -8q-7 -2 -27 -13t-22 -12l-8 -6q-9 -6 -10 -8q-17 -17 -21 -29q-15 -11 -26 -33 q-4 -6 -13 -19t-17 -26t-9 -14q-1 -3 -14.5 -33t-14.5 -33q-1 -5 -18.5 -42t-18.5 -40q-1 -1 -4.5 -9.5t-3.5 -10.5q-3 -4 -6.5 -20.5t-3.5 -20.5q0 -1 -3 -10t-3 -11zM1036 1024q-8 0 -14 -6q-1 -1 -5 -7t-5 -7q-1 -2 -3.5 -9t-5 -12.5t-2.5 -7.5q-1 -7 -6 -50.5t-6 -50.5 h19q1 0 4 3.5t4 3.5q1 1 4.5 7.5l7 13t4.5 9.5q3 5 10 17.5t12.5 22t6.5 10.5q0 1 2 9.5t2 10.5v25q0 1 -2 5t-2 5q-24 8 -25 8z" />
<glyph unicode="T" horiz-adv-x="602" d="M92 102v72l1 14q1 14 2 30.5t1 23.5q1 2 2.5 10.5t3 19.5t2.5 15q1 3 5 18.5t4 18.5q8 24 8 53q8 40 8 47q6 25 6 29q0 5 3.5 26.5t4.5 24.5q0 3 4 16.5t5 14.5q1 5 11 50t11 50q0 3 6 22.5t8 22.5q2 4 14.5 51.5t14.5 52.5q1 2 16.5 29.5t16.5 30.5q3 9 22 60.5t21 60.5 l2 4l-2 6l-6 6q-6 2 -32 7.5t-28 6.5h-37h-38q-70 -14 -84 -14q-18 -6 -48 -6q0 -4 -12 -10q-1 0 -2.5 -2l-3 -4t-2.5 -3q-5 -8 -34 -62.5t-34 -62.5q-15 -30 -24 -36q-1 -3 -4 -9.5t-5.5 -11.5t-2.5 -6q-43 -43 -64 -57q0 -3 -8 -10t-12 -9q-13 0 -29 -8h-8h-8q-16 8 -17 8 q-2 2 -11 13.5t-11 13.5q-7 8 -7 12q-8 24 -8 25v12v16q0 2 1.5 6t3.5 9.5t3 7.5q10 29 15 29q18 18 53 63l6 6q4 3 34.5 22.5t35.5 22.5q2 2 13.5 8t17.5 7q3 2 26 12t25 12q10 0 16 6l17 17q2 10 4 14q11 22 16 37l8 24v7v8q0 3 -3.5 15t-4.5 13q0 2 -1 13.5t-1 13.5 q6 0 10 -4q11 -4 21 -23q1 -1 3 -5.5t4 -10t3 -6.5v-18v-19q0 -11 -10 -31v-10v-12q6 -6 10 -6q21 0 45 6q42 14 51 14q35 2 45 2q8 0 31.5 -1t24.5 -1q2 0 18 -3t18 -3h25h20q2 2 15.5 22.5t15.5 22.5q2 4 29 31q21 14 22 14h13h12q4 -10 6 -14v-19v-20q-6 -12 -6 -45 q-2 -8 -2 -12l2 -11q0 -1 2 -3.5t4 -2.5q4 -3 22 -8.5t23 -5.5q9 0 59 -1t60 -1q17 0 67 1l50 1q19 0 49 6q6 0 21.5 3t17.5 5l45 15q24 12 30 14q2 1 18.5 10.5t20.5 11.5q3 3 12 9t11 6q7 7 32.5 29.5t26.5 23.5q7 7 31 39q0 1 11.5 17.5t21.5 31t12 18.5q3 6 16.5 21.5 t14.5 17.5q4 0 22 9h21h18q4 -7 6 -9q8 -16 9 -16v-6v-8q-1 -1 -2.5 -9t-3.5 -17t-3 -11q-6 -24 -6 -33q-2 -2 -6.5 -11t-10 -19.5t-7.5 -14.5q-1 -1 -7.5 -10.5t-7.5 -10.5q-8 -10 -45 -47q-4 -2 -29 -22t-32 -23q-1 -1 -11 -6.5t-22.5 -12.5t-17.5 -11q-1 -1 -5.5 -3 t-7.5 -4t-4 -2q-4 -1 -29.5 -7t-29.5 -7q-8 -1 -31 -4.5t-43 -6.5t-22 -3h-64h-67q-3 0 -27 4t-27 4h-104q-56 14 -60 14q-10 2 -12 2l-10 -2q-8 0 -16 -8q-3 0 -17 -14q0 -2 -14 -37q-1 -3 -7.5 -23.5t-7.5 -23.5q-1 -2 -7 -18.5t-7 -18.5q-8 -16 -8 -31q-1 -4 -11.5 -37 t-11.5 -37q-2 -7 -8.5 -30t-7.5 -25q0 -2 -3.5 -15t-4.5 -14q-1 -3 -7 -26.5t-7 -26.5q-3 -27 -37 -180q-1 -1 -3.5 -15t-2.5 -16q-2 -4 -9.5 -33t-9.5 -34q0 -31 -6 -37q-7 -69 -14 -90v-17q0 -5 -4 -24.5t-5 -22.5q0 -4 -8 -76v-2v-2l8 -36q1 -1 3 -3.5t3.5 -4t2.5 -1.5 q1 1 7 6.5t7 6.5q22 26 45 61q22 45 23 47t7 25.5t7 25.5q2 7 8 25.5t10.5 32.5t5.5 16q2 6 18.5 57.5t18.5 57.5q3 8 9 34t6 33q0 3 3 6t5 3q3 0 8.5 -3t5.5 -6q0 -1 1 -10.5t1 -11.5q0 -4 -1 -13l-1 -10q0 -9 -22 -75q-1 -7 -17.5 -55.5t-19.5 -57.5q-2 -4 -8.5 -26.5 t-6.5 -26.5q-7 -21 -8 -21q-6 -16 -23.5 -51t-21.5 -41q-3 -8 -21.5 -34.5t-25.5 -33.5q-2 -3 -7.5 -9.5t-6.5 -6.5h-60q-1 0 -5 5t-9.5 11.5t-7.5 8.5q-6 10 -8 12q-1 4 -4.5 14.5t-7.5 20.5t-5 12q0 4 -2 20t-2 17v65zM-188 791v-23q0 -2 3 -5t5 -3q2 1 14 8t14 8l31 31 q13 13 29 45q2 3 8.5 13t11 17t4.5 9q1 2 11 25t12 26l-12 2q-1 0 -5.5 -1t-5.5 -1q-37 -16 -53 -22l-14 -7q-19 -19 -25 -22q-11 -22 -14 -31q-1 -4 -7.5 -27t-6.5 -26v-16z" />
<glyph unicode="U" horiz-adv-x="854" d="M434 133l-10 -6q-6 -13 -34.5 -57.5t-37.5 -55.5q-1 -1 -7.5 -10.5t-8.5 -11.5q-6 -8 -27 -29q-9 -12 -73 -67q-3 -2 -14 -12t-13 -11q-1 0 -6.5 -2t-7.5 -2q-23 0 -29 2l-31 2q-1 1 -7 5t-7 5t-4.5 5.5t-7 8.5t-5.5 5q1 0 0 2.5t-3 7t-3 6.5q0 3 -3 22t-3 23l-6 31 q6 12 6 57q0 6 2 30t2 25q11 38 15 54q0 3 6 21.5t6 21.5q10 30 10 37q1 3 10.5 28t10.5 31q3 3 11 22.5t9 28.5q5 8 17.5 36.5t13.5 35.5q0 2 4.5 11.5t5.5 10.5q2 7 30 76.5t31 77.5q0 1 4.5 9t4.5 9q2 2 6.5 16t5.5 15q1 3 20.5 54t20.5 57q6 27 6 35q0 2 1 16.5t1 17.5 q-4 8 -14 13q-13 0 -21 4q-3 0 -13 1t-11 1q-2 -1 -19.5 -5t-19.5 -5q-20 -10 -25 -15q-3 -1 -17 -13t-16 -13q-24 -24 -24 -29q-10 -10 -37 -55q0 -5 -20 -35q-1 -2 -3.5 -8t-5 -11t-2.5 -6q0 -2 -5 -30.5t-7 -34.5q0 -1 -1 -13t-1 -14q-4 -16 -4 -27q8 -23 4 -30 q6 -6 18 -41q-2 0 -4 -2.5t-2 -3.5h-4l-4 2q-18 18 -22 26q0 6 -11 39q6 24 6 66l3 24t4 28t2 13q0 11 10 31q6 11 17.5 37.5t11.5 30.5q14 14 26 34q30 38 37 41q1 2 15.5 14t15.5 13l11 6q11 7 15 8q26 6 47 17q23 2 29 4h4h4q3 -2 16.5 -6.5t14.5 -5.5t10 -7t11 -8 q9 -18 24 -33q4 -4 14 -34q3 -5 7 -23t4 -20q0 -8 -6 -50l-5 -57q0 -1 -3 -13.5t-7 -29.5t-6 -24q-1 -6 -4 -20.5t-5.5 -26.5t-2.5 -13q-1 -4 -15.5 -40t-15.5 -40q-1 -2 -6 -18.5t-6 -18.5q-1 -1 -5.5 -9.5t-9 -16t-4.5 -8.5q-1 -4 -11 -34t-11 -34q0 -3 -13.5 -29.5 t-13.5 -29.5q-4 -4 -14 -41.5t-10 -44.5q0 -3 -13 -29q0 -2 -5.5 -20.5t-6.5 -24.5q-9 -42 -12 -53q-1 -7 -8 -35t-7 -31q0 -4 -1 -21.5t-1 -21.5q1 0 4 -1.5t5.5 -2.5t3.5 0q3 0 24 14q8 4 10 6q5 5 19.5 18t26 23.5t12.5 12.5q3 6 16.5 22t18.5 19l49 79q49 78 57 95 q5 5 16.5 27.5t12.5 29.5q0 1 2.5 8t5.5 16t4 11q0 3 6 27.5t6 27.5q3 4 8 21t5 20q0 9 10 29q4 7 12 29.5t8 23.5q33 78 50 107q2 5 14 30.5t14 30.5q2 2 14.5 22.5t14.5 22.5q3 6 18 32t17 30q3 1 9.5 9t8.5 9q1 1 13 10.5t14 11.5q1 0 5.5 3.5t6.5 3.5h4h4l8 -9v-12 q0 -10 -4 -14q0 -1 -5 -10.5t-5 -10.5t-6 -42.5t-8 -47.5q-8 -24 -33 -74q0 -24 -10 -49q-5 -20 -19 -90q-2 -3 -6 -22t-4 -23q-2 -8 -18 -88q0 -4 -8.5 -37.5t-8.5 -38.5q-2 -31 -4 -43q0 -45 -4 -53q-9 -174 -16 -225v-90q0 -19 6 -25q0 -8 6 -14q1 0 3.5 3t2.5 5 q3 0 13.5 10t13.5 15q1 2 8 10t8 10t13.5 18.5t13.5 18.5q1 1 3 4t4 5.5t3 2.5q0 10 18 37l11 23q0 1 1 5.5t1 6.5t1 9.5t1 8.5q-1 6 -1 32t1 36q-4 12 -4 45l-4 31q-1 1 -7.5 9.5t-12.5 18t-7 13.5q-1 2 -7.5 8.5t-6.5 7.5q-2 2 -2 14l18 -2q27 -27 35 -41q0 -10 10 -30 q0 -3 2 -13l2 -10l1 -12q0 -13 0.5 -28t0.5 -23v-66q0 -1 -1 -11.5t-1 -13.5q0 -4 -1 -13l-1 -9q0 -13 -18 -43q-1 -1 -14 -20t-15 -23q-2 -3 -13 -17.5t-14 -15.5q-18 -27 -24 -31q-40 -32 -41 -32q-15 2 -19 2q-2 0 -9.5 1t-8.5 1q-3 0 -23 10q-8 4 -20 16q-21 21 -21 27 q-17 35 -24 61q-3 11 -10.5 55.5t-8.5 61.5q-1 12 -6 83.5t-6 84.5z" />
<glyph unicode="V" horiz-adv-x="722" d="M186 -45q0 3 1 14l1 11q2 15 8.5 93.5t6.5 92.5q8 108 8 182q6 6 6 29v14q8 32 8 70q1 13 4.5 89t3.5 91q1 8 4 62.5t3 64.5q8 116 8 160v16v12q0 38 -8 62q0 15 -7 22q0 2 -3.5 5.5t-4.5 3.5q-12 2 -18 2l-19 -2q-4 0 -22 -9q-1 -1 -12 -6.5t-13 -7.5t-10 -11t-10 -11 q-1 -2 -8.5 -11.5t-8.5 -11.5q-8 -10 -28 -61q-4 -5 -11.5 -21t-7.5 -18v-181h-4q0 3 -8 11l-16 112v17v20q0 9 3 29.5t5 23.5q1 2 6.5 15.5t13 30.5t9.5 22q22 33 26 37q0 1 21 22q18 18 28 23q31 19 47 24h13h10q6 0 22 -8q15 -7 15 -10q7 -4 22 -19t17 -18q4 -4 22 -67 q17 -69 29 -166q3 -6 10 -76q6 -75 6 -96v-213q6 -6 8 -6h11h12q1 0 23 22q21 28 38 45q1 4 17.5 27t19.5 26q1 1 20 27.5t23 32.5q3 4 27 33.5t27 33.5l22 29q3 5 17.5 28.5t27.5 44.5t17 27q2 6 23 44.5t22 39.5q3 3 23.5 37t23.5 37q4 8 4 14q1 3 8 33t8 37q8 40 8 53 q2 29 2 37l-2 37q0 1 -1.5 8.5t-3.5 17t-3 13.5q0 1 -4 15t-4 16t-1 15t-1 15q8 0 10 -2q2 0 5 -3.5t3 -4.5q13 -52 13 -65q8 -24 8 -48l1 -12q1 -12 1 -16q0 -5 -1 -19l-1 -14q-4 -33 -8 -43q0 -12 -5.5 -42t-7.5 -34q-6 -10 -8 -14q-49 -81 -53 -92q-4 -6 -31 -60 q-17 -34 -28 -45q-21 -32 -29 -55q-4 -4 -15.5 -20t-11.5 -17q-1 -4 -16 -24.5t-21 -26.5q-1 -2 -14 -18.5t-14 -18.5q-2 -3 -8 -11t-10 -13.5t-5 -6.5t-6.5 -10.5t-10.5 -18t-5 -10.5q-1 -2 -7.5 -11t-7.5 -11q-60 -80 -61 -82q0 -1 -3 -7t-6.5 -13.5t-4.5 -10.5 q-3 -6 -12 -26t-17 -36.5t-10 -19.5q-19 -57 -31 -75q0 -2 -11 -40t-12 -44q0 -2 -2.5 -11.5t-3.5 -9.5q0 -2 -4 -17t-4 -16q-2 -7 -11.5 -36t-10.5 -31q-15 -30 -15 -31l-8 -20q-1 -1 -4 -4.5t-4 -4.5q-8 -8 -15 -8h-16h-14q-15 15 -15 17q-2 8 -2 14z" />
<glyph unicode="W" d="M166 -127q0 3 3 27.5t3 27.5q1 3 4 33t4 33q0 6 3.5 32t4.5 29q0 7 4 49.5t5 49.5q0 6 3 38t3 37t3.5 27t4.5 25q0 21 6 75q0 5 4 42.5t4 41.5q0 3 4 33.5t4 34.5q7 56 7 92q8 124 8 150l1 45q1 45 1 61q0 7 -1 52t-1 53l-8 8q-16 8 -23 8l-37 -16l-14 -9 q-12 -10 -53 -51q-2 -2 -11 -19.5t-10 -25.5l-18 -39q0 -3 -3 -11.5t-5 -10.5q0 -2 -4 -16t-5 -15q0 -6 -4 -6q-2 0 -5 2.5t-3 3.5q-8 8 -8 16v15q0 6 8 30q0 2 4 11.5t4 11.5q1 2 10 24t11 29l8 12l14 25q1 1 9 8t15 13.5t9 9.5l21 14l47 23q24 8 28 8q1 0 5 -1.5t10 -3.5 t8 -3q3 -1 10 -4.5t13.5 -7t7.5 -3.5l22 -30q29 -48 29 -60l16 -53q6 -24 6 -53l10 -107v-96l-10 -221q0 -60 -6 -90v-7q6 -6 6 -8h10l5 6l10 10t8 7q2 3 14 19.5t15 19.5l37 43l47 53l22 45q6 12 6 25q2 5 8.5 40t6.5 41q11 45 18 62q0 9 12 45l9 14l36 37l9 2l8 -2 q8 -4 8 -14v-195q0 -23 6 -92q0 -6 3.5 -34.5t4.5 -32.5q0 -19 9 -91q0 -8 3.5 -53.5t4.5 -52.5q0 -15 8 -31l12 17l25 28l59 146l17 28l20 54q3 6 25 62t30 73q12 54 19 61q1 1 6.5 16t5.5 17l10 49q6 36 6 55q3 27 3 37l-3 37q0 3 -6 39q0 1 -3 14t-3 15q0 3 -1 16t-1 14 q6 0 8 -2q1 0 3.5 -2.5t2.5 -3.5l17 -67q8 -16 8 -45q2 -23 2 -31q0 -4 -1 -17t-1 -14q0 -28 -8 -62t-20.5 -73t-14.5 -45q-11 -28 -29.5 -78t-32.5 -87.5t-22 -53.5l-20 -53l-17 -43l-55 -121q0 -15 -4 -19l-62 -180l-14 -29q-6 -10 -18.5 -27.5t-14.5 -17.5h-20l-17 166 l-6 60q-6 18 -6 47q-2 3 -5 25.5t-3 31.5q-2 14 -6 46.5t-7 57t-3 27.5q0 27 -9 90h-6q-2 0 -19.5 -18t-25.5 -27l-31 -37l-22 -32q-25 -35 -53 -91l-17 -36l-43 -93q-1 -2 -4 -25t-4 -26q-2 -3 -8 -22.5t-6 -22.5q-1 -4 -4.5 -27t-3.5 -28q-7 -21 -7 -37l-10 -12 q0 -5 -14 -47q0 -9 -8 -17q0 -1 -2.5 -3.5t-4.5 -2.5h-61l-6 6v76z" />
<glyph unicode="X" horiz-adv-x="980" d="M348 276q-6 -4 -21.5 -17t-32.5 -28t-20 -18q-1 -1 -5.5 -3.5t-10.5 -5.5t-8 -5q-1 -1 -10 -8t-16.5 -12t-10.5 -5q-24 -12 -27 -12q-4 -4 -16 -8t-16 -4q-1 0 -10.5 -1t-21.5 -1.5t-18 -0.5q-43 0 -49 -2q0 1 -6.5 6t-7.5 7q-1 0 -3.5 2t-2.5 4q0 1 -2 6.5t-2 7.5h30 q12 -6 33 -6q17 -2 23 0l20 2q3 -1 16 1.5t15 4.5q15 5 33 17q53 35 55 39q4 3 27 22.5t28 24.5q1 2 21 19t22 20l8 24q9 103 9 156q0 8 2.5 34t5.5 29q0 11 2 66t2 61l-1 33q-1 33 -1 43q-2 15 -2.5 40t0.5 28q0 6 -10 36q0 1 -3.5 7t-3.5 8q-4 6 -12 19t-13.5 23t-6.5 11 q0 1 -3 3.5t-5 2.5q-6 6 -15 6q-45 9 -47 9q-39 0 -63 -3q-6 1 -34.5 -0.5t-29.5 -1.5q-1 -1 -10.5 -3.5t-11.5 -4.5q-15 0 -17 -2v19q0 1 3 3.5t5 2.5q8 8 15 8l20 10q5 -1 33 0t33 0q14 2 57 2q33 0 45 -8q13 0 41 -14q1 -1 7 -3t7 -3q16 -12 46 -27q2 -1 11 -11.5 t11 -11.5q1 -2 8.5 -11.5t9.5 -12.5q0 -2 3 -8.5t4 -6.5q6 -11 18 -46.5t14 -43.5q0 -1 3.5 -15t7.5 -32.5t6 -25.5q0 -5 2 -16t4 -19.5t2 -9.5q2 -6 2 -62q0 -3 3.5 -26t6.5 -31q6 -24 6 -49h9q6 2 8 2q3 2 15 14t13 16q3 3 18 30t17 32q0 1 11.5 13t13.5 18q5 9 17.5 25.5 t22 28.5t9.5 13q36 45 96 105q2 0 13.5 9.5t25.5 21t19 14.5q12 4 24 16q2 1 5 3.5t5.5 4.5t3.5 2q9 -2 11 -2q6 2 16 2q1 0 12 -3t15 -3l14 -8q3 -2 9 -7.5t10 -9.5t6 -4q2 -10 2 -12t-1 -7.5t-1 -6.5q-7 -6 -9 -8l-12 -4l-45 36h-8q-1 0 -5 -1t-5 -1q-19 -6 -45 -26 q-3 -2 -14.5 -11t-12.5 -12q-24 -21 -77 -76t-56 -61q-8 -11 -41 -67.5t-37 -65.5q-9 -7 -61 -76q-3 -3 -9 -15t-6 -16q0 -21 -12 -75q-1 -5 -3 -30.5t-3 -29.5q0 -8 -1 -50t-1.5 -71.5t0.5 -52.5v-61q0 -52 4 -60q0 -57 10 -157q8 -8 8 -56q3 -3 6 -14t3 -14 q2 -2 9.5 -15.5t8.5 -15.5q2 -1 7.5 -7.5t6.5 -6.5q23 12 31 16q1 1 10 7.5t10 8.5q3 1 15.5 14t15.5 17q35 46 35 47q3 7 22 36t21 32q1 1 4 10.5t4 11.5q6 18 6 49q2 6 17 66q0 6 2 22l2 17q-2 12 -2 16v13q-1 3 -3 26.5t-3 28.5q-1 7 -9.5 34t-9.5 31q-1 1 -5 8.5t-5 8.5 q-1 0 -5.5 5.5t-6.5 6.5l-31 23q-2 2 -2 12v12q1 1 7 4t7 4q9 0 17 -8l22 -22q11 -14 25 -43q0 -4 16 -76q1 -4 3 -16t3.5 -20.5t1.5 -10.5q2 -21 2 -25v-28q0 -2 -3 -15t-3 -14q-1 -3 -2 -12t-2.5 -16.5t-3.5 -10.5q0 -1 -1.5 -12t-2.5 -21t0 -12q-8 -16 -8 -39 q0 -6 -12 -28.5t-19 -30.5q-2 -4 -21 -31.5t-20 -30.5q-1 -1 -6 -12t-6 -12q-5 -3 -17.5 -16t-13.5 -17q-5 -3 -17 -12l-22 -16.5t-12 -8.5q-2 1 -6.5 0.5t-11.5 -1.5t-9 -1q-3 0 -15 1t-13 1q-4 1 -19 7.5t-34 15t-23 10.5q0 2 -9.5 14t-15.5 18q-23 34 -28 50q0 7 -11 24 q-1 5 -7.5 31t-6.5 29q-1 3 -3 15.5t-4 23t-3 12.5q-1 10 -6.5 94.5t-6.5 93.5q-10 155 -12 182z" />
<glyph unicode="Y" horiz-adv-x="905" d="M35 -330q1 5 3 16t3.5 19.5t1.5 9.5t25 58q10 10 10 12q3 3 20 37l6 4q5 4 9 8t4 6q3 3 20.5 23.5t20.5 23.5q0 1 4.5 6t11 11.5t8.5 9.5q2 1 10.5 8.5t15.5 14t9 6.5q4 4 18.5 15.5t24.5 20t12 11.5q15 13 90.5 69.5t83.5 63.5q1 4 9.5 28.5t9.5 28.5q2 6 21.5 61.5 t21.5 61.5q0 1 1 9t1 12q4 8 4 16q0 2 -2.5 6t-3.5 4q-2 0 -16 -14q-15 -15 -31 -27q0 -2 -8 -10t-9 -8q-9 -7 -24.5 -23.5t-27 -30t-11.5 -14.5q-23 -12 -70 -49q-2 -1 -14.5 -6t-28.5 -11.5t-24 -9.5q-2 -1 -22.5 -7t-22.5 -7h-4l-5 2q-8 2 -23.5 8t-27 11.5t-12.5 5.5 q-2 0 -13 14t-14 21q-2 2 -9 17t-9 17q0 11 -4 15q-6 33 -15 71v37l9 45q8 40 8 45q0 1 3 11.5t6.5 23.5t4.5 19q2 3 5.5 12.5t7 17.5t4.5 9q4 13 30.5 79t28.5 68q1 0 9.5 13.5t18.5 31.5t15 29q1 2 14.5 21.5t14.5 21.5l10 14q0 1 3 4.5t5 3.5q32 16 33 17q12 4 20 4h11 q8 -4 10 -4v-39v-2l-2 -2q-1 -3 -3.5 -12t-4.5 -16.5t-2 -8.5q-3 0 -7 -5.5t-4 -7.5q-12 -24 -12 -26q-3 0 -7.5 -10t-4.5 -15l-7 -18q-6 -17 -8 -19q-2 -7 -29 -70.5t-30 -66.5l-10 -35q-7 -28 -27 -98q-1 0 -2 -9.5t-2.5 -22t-3.5 -17.5l-4 -47l-1 -19q-1 -20 -1 -26 q1 -2 2 -15t2 -16q0 -1 1 -12t1 -13l4 -16l8 -8h8q7 0 9 -2q2 1 12 3.5t19.5 5.5t13.5 5q9 1 28 11.5t21 13.5q7 2 37 24t32 23q12 9 56 53t84 92q1 1 14 18.5t16 24.5q4 7 16.5 25.5t16.5 21.5q0 2 4 14.5t4 14.5q1 3 16.5 27.5t16.5 27.5q2 2 28.5 69.5t26.5 70.5 q3 2 17 26t16 25q4 11 25 43q1 3 8.5 14t17.5 25t13 18l4 4q3 5 7 9t7 6q2 2 12.5 10t12.5 10q0 4 18 4h4h4q0 -1 2.5 -5t1.5 -5v-16l-4 -13q-18 -54 -39 -96q-18 -54 -18 -55q-1 -1 -5.5 -11t-4.5 -12q-1 -3 -15.5 -38.5t-28.5 -69.5t-14 -35q-17 -51 -20 -82 q-3 -11 -14.5 -56t-12.5 -47l-2 -12q-2 -13 -2 -18q-4 -8 -4 -29q0 -1 2.5 -5t1.5 -5h4h4q3 2 16.5 13t24.5 20t15 12q2 4 16 18q29 36 31 43q2 5 12.5 22.5t11.5 18.5q3 10 8 45.5t5 44.5q1 -1 6.5 -8.5t7.5 -9.5q0 -2 1.5 -5.5t2.5 -6t0 -2.5l-1 -10q-1 -10 -1 -13 q-2 -3 -3.5 -13t-2.5 -11q-3 -3 -7.5 -19t-4.5 -22q-1 -2 -12 -20t-13 -23q0 -1 -7 -13t-11 -16l-37 -37q-3 -6 -22.5 -28t-24.5 -25l-47 -47q-5 0 -13 -15q0 -2 -3.5 -10.5t-4.5 -9.5q0 -3 -7.5 -25.5t-10.5 -25.5q-1 -4 -11.5 -36t-11.5 -36q-5 -6 -18 -43 q-11 -22 -11 -29q-1 -5 -6.5 -18.5t-5.5 -15.5q-5 -17 -29 -94t-26 -85q-1 0 -10 -18q0 -6 -8 -34t-11 -34l-14 -32q-15 -31 -19 -37q-19 -19 -30 -41q-2 -3 -18.5 -20.5t-20.5 -20.5q-1 -1 -4 -6.5t-4 -6.5q-34 -34 -37 -40q-3 -1 -21 -15t-22 -16q-1 0 -9.5 -4t-16 -7.5 t-9.5 -5.5q-1 0 -8 -2t-8 -2q-30 -10 -46 -10q-1 0 -8 2t-10 2q-2 0 -10.5 2t-9.5 2q-2 0 -14.5 6t-14.5 7q-4 0 -12 8l-9 8q-12 36 -14 41q-1 2 -3 9.5t-3 8.5q-1 2 -4 22.5t-4 22.5q0 1 -2 9.5t-2 9.5q-2 6 -1.5 26.5t3.5 24.5q0 32 6 53zM61 -354q-8 -32 -8 -62l1 -14 q1 -14 1 -19q0 -2 1 -11.5t1 -10.5q2 -4 5.5 -16t7 -22t4.5 -11l18 -27q17 -2 25 -4l26 -6q3 0 19 8q3 2 13 6.5t11 5.5t20 20.5t25 22.5q39 49 41 50q0 1 4.5 10t9.5 21t7 18q2 2 4.5 8.5t5 11.5t4.5 6l12 37q4 10 20.5 75.5t16.5 66.5q19 57 19 61q2 4 7 24.5t10 42.5 t5 23q3 8 11 38t8 36l2 8l2 8q-1 0 -25 -12q-89 -63 -112 -82q-5 -5 -29.5 -24.5t-34.5 -26.5q-1 -1 -9.5 -8.5t-16 -14.5t-9.5 -10q-4 -2 -18 -16q-56 -72 -60 -76q0 -3 -8 -19t-12 -22q-2 -4 -5.5 -11.5t-6 -13t-2.5 -6.5t-2.5 -13t-5 -27.5t-3.5 -22.5z" />
<glyph unicode="Z" horiz-adv-x="722" d="M-90 -92q1 3 3 11t3.5 13.5t1.5 6.5q1 2 11.5 26t11.5 29q1 2 6 11t6 11q4 3 16 15.5t25.5 27.5t17.5 19q5 6 16.5 17t14.5 11q8 8 44 30.5t48 27.5q25 4 31 4q2 2 10.5 2.5t13.5 -0.5q11 2 32.5 2.5t23.5 -0.5q8 0 41 -4.5t43 -7.5q6 4 8 6q2 8 4 12q1 2 2 7.5t2 10 t2 5.5q0 3 2 17.5t4.5 33t3.5 24.5q0 18 9 54q-1 0 -1 11.5t1 16.5q0 5 -1 15l-1 10q-12 25 -13 25q0 2 -2 2h-4q-2 -1 -24.5 -5.5t-24.5 -5.5q-3 0 -20.5 -2t-20.5 -2h-4l-2 2q-2 1 -6.5 6t-5.5 5l-5 16q3 2 23 14.5t23 14.5q2 0 21.5 5t21.5 5q2 1 9 5t12.5 7.5t6.5 5.5 q35 35 43 51q7 7 19 30.5t14 31.5l49 180l-8 4q-18 -6 -27 -12q-3 -1 -31.5 -18t-31.5 -19q-2 0 -8 -2.5t-12 -4.5t-7 -1q-32 -11 -35 -14q-3 -1 -30.5 -14.5t-32.5 -14.5q-4 -4 -22 -15.5t-23 -13.5q-1 -1 -10 -7.5t-11 -8.5q-11 -11 -55 -66q-18 -18 -25 -32l-20 -50 q-6 2 -8 2l-6 2q-2 2 -3.5 9t-0.5 10q4 14 4 16l6 19q1 3 4 8.5t6.5 12t3.5 7.5q5 7 31.5 36.5t38.5 37.5q4 8 31 35q1 0 6 4t11.5 9t8.5 7q3 0 10 7l21 10.5t27.5 13t13.5 6.5q3 1 31 11t30 10q13 7 79.5 46t78.5 46q2 5 13 19.5t12 15.5l34 45q3 4 20 19t19 18 q24 12 37 12q0 2 2 0h4q1 0 3.5 -4t2.5 -6q-4 -15 -6 -19l-4 -16q-1 -1 -4 -8.5t-6 -13.5t-4 -7l-19 -35q0 -11 -6 -53v-37q-8 -67 -14 -84q0 -5 -12 -41l-11 -39q0 -2 -12 -26q-17 -22 -27 -41q-23 -23 -32 -29q-3 -4 -24 -21.5t-27 -21.5q-1 -3 -29 -31l-2 -2v-4 q-2 -2 6 -10q0 -2 7.5 -11t8.5 -9q3 -2 9 -13.5t6 -15.5q2 0 10 -25q2 -4 5 -14.5t5.5 -19t3.5 -9.5q6 -18 6 -57q0 -2 2 -22t2 -23q0 -27 -2 -35q0 -31 -2 -37q0 -1 -1 -13t-1.5 -20.5t0.5 -11.5q9 -18 27 -45q4 -7 14.5 -34t12.5 -35q-7 -5 -9 -7q-4 2 -6 2q-2 2 -8 2 q-1 1 -6.5 5t-11 8.5t-7.5 7.5q-1 1 -5 6t-8 9.5t-5 4.5l-8 2q-1 0 -4 1.5t-4 1.5q-1 -1 -9 -20t-10 -23q-10 -37 -12 -39q0 -11 -16 -43q-14 -35 -19 -35q0 -2 -4.5 -8.5t-5.5 -6.5q0 -1 -7 -13t-7 -13q-3 -3 -9 -12t-6 -11q-43 -54 -45 -55q-5 -6 -21 -22t-22 -21 q-3 -2 -15 -13t-14 -12q-5 -3 -45 -26.5t-49 -26.5q-21 -11 -35 -14q-2 -1 -15 -4t-15 -4q-38 -6 -51 -2q-7 2 -11 4l-16 4q-2 0 -10 4.5t-9 7.5q-2 1 -13.5 11t-14.5 12l-17 18q-4 8 -14.5 38t-11.5 42q-1 3 -5 24.5t-5 24.5v31q1 5 4 30t4 29q4 23 6 29zM-70 -109l-6 -24 q-8 -32 -8 -82q1 -1 3.5 -9.5t6 -20t4.5 -15.5q2 -4 5.5 -16.5t7 -23t4.5 -11.5q1 -4 9 -17l7 -12q1 -1 12.5 -10.5t12.5 -11.5q22 -7 28 -7l23 -6q28 0 53 10q1 1 11.5 7.5t23 14.5t16.5 11q16 8 31 23q0 3 5.5 10.5t8.5 9.5q28 42 37 51q14 28 19 43l84 320q-6 1 -23.5 4 t-36 6t-22.5 4h-33q-3 0 -23.5 -1t-23.5 -1q-14 -2 -16 -2q-2 -1 -12 -4t-11 -4q-3 -1 -9.5 -4.5t-13.5 -7t-8 -4.5q-1 -3 -13.5 -12t-16.5 -11l-9 -6q-2 -3 -19.5 -18t-19.5 -17q-3 -4 -11.5 -11.5t-14.5 -13.5t-6 -8q-2 0 -4 -3.5t-5 -9t-4 -7.5q-5 -16 -16 -27 q-6 -15 -18 -51q-4 -4 -9 -25z" />
<glyph unicode="[" horiz-adv-x="808" d="M203 424v72q0 185 8 317q0 9 6 90q1 5 2.5 24.5t3 36t2.5 19.5q0 36 8 68q7 63 7 79v148q0 13 8 53q1 2 3.5 12t5.5 19.5t5 13.5q2 1 14.5 3t14.5 3q4 0 53 7q5 0 30 3.5t29 4.5q11 0 43 16h9h6l8 -8q0 -8 -8 -16q-20 -13 -51 -21h-37q-2 -1 -18 -4t-19 -4q-1 -1 -7 -4 t-7 -4q0 -2 -1.5 -14.5t-1.5 -14.5q0 -5 1 -17l2 -12q0 -29 8 -53q0 -34 6 -94v-8q0 -8 4 -78.5t4 -77.5v-84v-78q0 -5 -4 -35l-4 -30v-107q0 -3 -3 -36.5t-3 -37.5v-14v-22q0 -11 3 -117t3 -119q0 -17 -3 -154.5t-3 -168.5q0 -4 -4 -38.5t-4 -37.5q-3 -15 -3 -162 q0 -101 3 -104l14 -9h110q2 0 5.5 -5.5t3.5 -8.5q0 -5 -9 -14q-6 -1 -44 -4.5t-44 -4.5l-28 -6h-31q-1 0 -11.5 -4t-11.5 -4q-12 -2 -16 -2l-12 2q-4 2 -13 10.5t-10 12.5q-8 16 -8 45v59q-6 36 -6 139v258q0 14 -4 127t-4 125v70z" />
<glyph unicode="\" horiz-adv-x="481" d="M14 1264q0 4 1 13l1 9q0 8 4 8q1 -1 8.5 -8t8.5 -8q19 -37 20 -43q0 -2 4 -12t5 -11q1 -4 14.5 -39t15.5 -43q0 -2 5.5 -15t11 -27.5t6.5 -16.5q35 -105 45 -125q1 -2 20 -59q38 -102 54 -156q1 -7 21 -74t22 -73q11 -39 141 -420q2 -11 14 -61.5t15 -57.5q0 -2 3.5 -13 t4.5 -12q2 -6 22 -86q0 -18 6 -24q1 -2 4.5 -14.5t4.5 -14.5q6 -30 6 -45v-22v-21q0 -1 -3 -3.5t-7 -6t-5 -4.5q-1 -2 -11 -9l-11 -8h-4h-2q-6 0 -15 9q-2 0 -5 3.5t-3 4.5q-8 8 -14 37q-14 42 -14 45q-2 4 -31 102q-19 68 -29 111q-1 2 -8 29.5t-8 29.5t-7.5 25.5 t-7.5 25.5q-1 4 -32 127.5t-33 139.5q-1 2 -7 25.5t-7 25.5q-1 3 -8.5 30.5t-8.5 30.5q-3 5 -14.5 52.5t-13.5 58.5q-1 3 -8.5 28.5t-8.5 28.5q-6 6 -6 25q-34 99 -68 213q-1 3 -6 26t-6 25q-34 84 -37 104q-1 2 -4.5 13.5t-7 24t-4.5 14.5q-1 3 -10.5 32.5t-10.5 32.5 q-2 19 -2 23z" />
<glyph unicode="]" horiz-adv-x="808" d="M600 424v-70q0 -12 -4 -125t-4 -127q0 -2 0.5 -68t0.5 -122.5t-1 -67.5q0 -12 -3.5 -71.5t-4.5 -67.5v-59q0 -7 -3.5 -24.5t-5.5 -20.5q-2 -5 -9 -13.5t-11 -9.5q-10 -2 -14 -2q-2 0 -9 1t-8 1q-20 8 -22 8h-29q-2 0 -15 2.5t-14 3.5q-7 1 -45 4.5t-45 4.5q-6 6 -6 14 q0 3 2.5 8.5t3.5 5.5h111l16 9q2 2 2 104q0 152 -2 162q0 3 -4 37.5t-4 38.5q-8 228 -8 323q0 13 4 119t4 117v22v14q0 4 -4 37.5t-4 36.5v107l-3 30q-3 30 -3 35v78v84q0 7 3 77.5t3 78.5v8q8 80 8 94q8 24 8 53l1 12q1 12 1 17q0 2 -1 14.5t-1 14.5q-1 1 -8 4t-8 4 q-2 1 -18 4t-19 4h-37q-27 9 -51 21q-8 8 -8 16l8 8h8h6q2 -1 13 -5t20.5 -7.5t11.5 -3.5q4 -1 29.5 -4.5t30.5 -3.5q42 -7 51 -7q3 -1 15 -3t14 -3q3 -6 16 -45q8 -40 8 -53v-148q0 -25 6 -79q6 -24 6 -68q1 -3 2.5 -19.5t3.5 -36t3 -24.5q1 -12 3 -34l3.5 -38.5t1.5 -17.5 q8 -132 8 -317v-72z" />
<glyph unicode="^" horiz-adv-x="407" d="M170 1346l-23 -23q-15 -15 -20 -29q-3 -4 -45 -67q-1 -1 -12 -11t-13 -12q0 -1 -5 -3.5t-7 -2.5q-1 0 -4 -1t-4 -1l-8 2q-2 0 -5.5 2.5t-3.5 3.5q-2 4 -2 33q9 -2 11 -2q8 -8 16 -8q2 -2 4 -2l4 2q1 1 6 6.5t7 7.5q1 2 11.5 15t12.5 16l21 31.5t22 35.5q5 10 23 37 q2 2 7.5 15t6.5 14q1 2 7 28.5t7 28.5q8 24 9 25l20 20q2 2 16 9h4h5q0 -3 6 -9q0 -4 8 -12q9 -37 14 -37q0 -3 3.5 -17.5t4.5 -15.5q0 -2 3 -10.5t4 -9.5q0 -3 3.5 -18.5t4.5 -18.5q1 -12 28 -119q3 -2 5 -2l4 2q4 6 6 8q1 1 8 10.5t8 10.5t3 4t3 4h4h4q7 -7 7 -8v-4v-2 q-17 -41 -29 -60l-14 -14q-2 -2 -14.5 -5t-16.5 -3q-1 0 -3.5 -1t-4.5 -1l-6 2q-3 0 -14.5 5.5t-14.5 8.5q-2 0 -5 3t-3 5q-2 4 -16 23t-15 22q-8 16 -20 46q-1 1 -4.5 9t-7.5 17t-5 10t-3 3.5t-3 3.5z" />
<glyph unicode="_" horiz-adv-x="983" d="M186 33l4 8q3 4 13 10t12 6l539 -8q2 0 11.5 -6.5t12.5 -9.5l4 -15h-166q-23 -1 -158 -4.5t-161 -3.5q-1 0 -21 1t-26 1h-47q-2 0 -7.5 5t-5.5 8q-4 6 -4 8z" />
<glyph unicode="`" horiz-adv-x="339" d="M18 1458q0 17 2 21q1 1 8.5 4t8.5 4l20 8h27h18l16 -14q16 -14 21 -19q2 -2 15.5 -14t15.5 -14q7 -7 31 -37q1 -2 5 -7.5t9 -12.5t6 -9q27 -43 37 -53q28 -46 37 -74q1 -2 7.5 -24t8.5 -27v-4v-2l-8 -8l-4 -2l-4 2q-14 7 -29 22q-5 1 -33 20t-32 23q-45 30 -68 53 q-1 0 -2 2l-2 4t-2 3q-5 3 -19.5 20t-17.5 23q-4 3 -11.5 11.5t-14.5 16.5l-7 8q0 1 -2.5 5.5t-5.5 9.5t-4 8q-25 31 -25 37q-2 0 -2 16z" />
<glyph unicode="a" horiz-adv-x="733" d="M262 178q-1 -1 -8 -9t-8 -9q-1 -4 -16.5 -33t-16.5 -31q-1 -1 -25 -37l-20.5 -20.5t-22.5 -20.5q-4 -6 -24 -26q-6 -6 -19 -6q-1 0 -7 -0.5t-14 -1t-13 -0.5l-31 2q-10 0 -31 14q-1 1 -6 5t-6 5q-14 14 -14 21q-17 25 -17 28q-13 20 -20 54v75v74q0 1 2 8.5t4.5 16.5 t3.5 12l10 29q36 105 43 112q1 6 20.5 41t28.5 49q8 16 15 23q26 26 32 29q39 19 52 22q20 8 34 8q13 0 17 -8q5 -2 18.5 -14.5t14.5 -16.5q8 -8 8 -12v-37v-39q0 -27 -8 -51q0 -1 -3.5 -4.5t-5.5 -3.5q-3 2 -9.5 7.5t-6.5 6.5v4v5q0 5 3.5 30t4.5 29v24v21q0 1 -4 7t-4 9 q-2 1 -8.5 7t-7.5 6q-7 2 -9 2q-1 0 -5 -1t-5 -1q-6 0 -24 -9q-1 -1 -6.5 -4.5t-11 -8t-7.5 -7.5q-1 -2 -7.5 -10t-12 -16.5t-7.5 -12.5q-2 -2 -7 -19.5t-5 -25.5q-8 -21 -21.5 -68t-13.5 -51v-237q1 -3 3 -18.5t3 -18.5q0 -4 3.5 -23t5.5 -22t9 -8t11 -5q2 -2 6 -2l6 2 q4 0 15.5 9t23 20t13.5 12q1 2 6.5 11t10.5 16.5t7 9.5q1 2 9.5 19.5t9.5 19.5q3 4 16.5 33.5t15.5 34.5q1 2 25 73q2 5 17 37.5t18 36.5q1 5 10 30.5t19.5 52t11.5 30.5q20 61 24 61q7 9 23 23t20 14h9v-188q-9 -18 -9 -29q0 -58 -10 -170v-6v-2q7 -97 10 -107 q0 -4 4 -22.5t5 -18.5q0 -4 4 -32t4 -31q0 -4 6 -27t10 -30q8 -24 8 -25l8 -6h5h6q0 1 5 5t11 9t8 8q4 5 16 18t22 23.5t11 12.5q1 0 31.5 43t64.5 90.5t42 56.5q22 29 22 39q52 84 68 119h10q0 -2 -1 -15t-1 -16q0 -2 -3.5 -10.5t-4.5 -9.5q-3 -12 -17.5 -39t-17.5 -29 q-36 -54 -47 -76q-90 -126 -129 -178q-5 -6 -33 -37t-33 -37q-3 -4 -35 -14q-8 -2 -12 -2l-10 2q-20 4 -43 4q-1 0 -12 7.5t-15 8.5q-2 2 -8.5 9t-7.5 8t-16 31q-2 3 -5.5 11l-7 16t-4.5 9q-9 19 -16 58q-2 7 -6 23.5t-7.5 29t-3.5 14.5v17q-1 5 -2.5 29.5t-3.5 46t-4 26.5z " />
<glyph unicode="b" horiz-adv-x="634" d="M-6 498q2 12 6 38.5t7 46.5t3 21q1 2 4 14t7 29.5t6 26.5q2 5 5.5 18.5t6.5 24.5t4 12q1 3 11.5 31t11.5 31l16 32q13 33 33 66q3 4 10 16.5t13 22t9 12.5q2 3 25.5 29t30.5 32q4 6 25 20t24 17q2 2 14.5 9.5t14.5 9.5q8 0 24 8q5 2 47 2q16 0 29 -10q4 -1 12 -11.5 t10 -15.5q1 0 3 -9.5t2 -12.5q0 -16 -5 -41l-8 -43q-1 -1 -3.5 -8.5t-6 -19t-4.5 -15.5q0 -2 -6 -20t-6 -19q0 -7 -14 -46.5t-19 -47.5q-2 -5 -23.5 -51.5t-23.5 -51.5q-1 -2 -18 -40t-19 -42q-1 -3 -21.5 -38t-21.5 -38q-68 -117 -80 -133l-20 -41q-5 -16 -5 -20 q-2 -4 -2 -21q-2 -20 -2 -118q1 -2 5 -30t6 -36q1 -5 4 -30.5t4 -30.5q10 -40 10 -47t6 -19q0 -2 2.5 -5t3.5 -3q4 -2 6 -2l13 2q6 0 26 20q6 4 31.5 35t28.5 37q13 14 44 81.5t44 106.5q7 16 13.5 37t11.5 37t11 33t12 27t14 15.5t18.5 2t23.5 -15.5q6 -8 35 -31 q2 0 7.5 -3t6.5 -3l25 -2q1 0 16 1t17 1q8 2 16.5 6.5t13.5 8.5t5 5q9 5 32 30.5t29 29.5q4 -4 4 -6l2 -5l-2 -4q-7 -17 -53 -63q-1 -3 -21 -14t-26 -13q-43 -14 -84 8q-3 3 -8 5.5t-9 3.5t-4 0q0 8 -11 -15q-8 -14 -26 -55l-16 -33q-2 -11 -46.5 -88t-59.5 -94 q-4 -10 -29 -40t-35 -38q-20 -20 -29 -22l-24 -21l-16 -3q-16 -3 -19 -3q-4 0 -14 1.5t-18 3t-9 1.5q-8 0 -18 10q-3 4 -20.5 26t-20.5 26q-2 0 -6.5 10t-4.5 14l-4 14q-3 5 -14 51.5t-14 67.5q-6 6 -6 27q0 29 -5 74q-2 10 -2 41q0 10 3.5 56.5t3.5 51.5q0 9 14 111z M131 649q-1 -12 -4.5 -36.5t-6.5 -44.5t-3 -21q-3 -17 -8 -72t-5 -69q0 -17 5 -27q6 6 12 18q4 4 22.5 35t22.5 39q2 4 13.5 23t24.5 39.5t15 23.5q2 2 11 19t10 22q1 2 12 23.5t12 23.5q1 3 17 35t18 37q2 2 12 22q2 7 12.5 33t14.5 33q0 2 6 21t6 22q3 5 14.5 48t14.5 48 q2 6 2 8v9q0 7 3 20t3 14q0 3 -3.5 15.5t-6.5 13.5q-3 4 -13 9t-14 5q-6 2 -12 2l-19 -2q-1 0 -4 -1.5t-7.5 -3.5t-6.5 -3l-25 -14q-6 -3 -22 -19q-2 -2 -8.5 -9.5t-12.5 -14t-6 -8.5q-3 -2 -12 -16t-12 -17q0 -2 -2 -7t-4.5 -11.5t-3.5 -8.5q-5 -10 -16 -40t-11 -34 q-1 -7 -11.5 -43t-11.5 -40q0 -18 -12 -99z" />
<glyph unicode="c" horiz-adv-x="481" d="M-57 246v55l4 36q4 36 4 42q2 7 7 24t8.5 29.5t4.5 13.5q1 2 8 17.5t14 30.5t11 20q1 3 5.5 9.5t10.5 14t7 9.5q45 45 53 51q31 17 41 25q14 7 14 8q7 2 43 12t43 12h4h4q29 -7 33 -10q2 0 9 -2t8 -2q14 -14 16 -18q7 -14 18 -25q6 -12 6 -18q0 -1 1.5 -6t1.5 -7l-3 -10 l-6 -10q-8 0 -18 10l-6 6l-10 25l-9 18q0 1 -3 3.5t-5 2.5q-11 11 -16 11h-10h-15q-18 -9 -24 -11q-3 -2 -11 -5t-14.5 -5.5t-7.5 -3.5q-4 -3 -22 -18t-21 -17q-15 -16 -19 -26q-2 -7 -14 -115v-127v-100q0 -71 8 -111q0 -15 6 -51q1 -3 3 -11t4 -14t2 -8q1 -1 5 -8l8 -14 t5 -11l6 -8q6 -2 10 -2q1 0 4.5 1t4.5 1q10 5 43 28t41 31q2 0 51 50q54 65 65 84q6 7 23.5 33t36.5 55t24 36q24 48 25 52q1 1 8 11t8 11t2.5 3.5t3 4.5t2.5 2h11h6q0 -3 -3 -13.5t-3 -12.5q-3 -4 -17.5 -33t-17.5 -33q-1 -3 -12 -21.5t-13 -21.5q-7 -8 -35 -51t-32 -47 q-6 -12 -26 -38.5t-26 -31.5q-5 -6 -30.5 -32t-34.5 -33q-2 -3 -28.5 -22.5t-39.5 -26.5l-22 -19l-15 -1q-15 -1 -20 -1l-33 2q-1 1 -16.5 9t-20.5 10l-32 32q-3 3 -17 22t-16 21q-14 25 -14 33q-3 4 -10 21.5t-7 19.5q-1 2 -3.5 15t-5 27.5t-3.5 17.5q0 2 -4 21t-4 22v51z " />
<glyph unicode="d" horiz-adv-x="684" d="M373 213q-9 -27 -17 -35q-3 -7 -16.5 -31.5t-15.5 -27.5q-6 -8 -50 -74q-21 -28 -26 -33q-6 -8 -92 -94q-2 0 -12 -6.5t-13 -9.5l-16 -6q-1 0 -13 -1t-16 -1q-5 0 -18 1l-13 1q-2 1 -14 3.5t-22 5t-13 3.5q-49 49 -61 63q-2 2 -7.5 14.5t-5.5 16.5q-7 28 -12 53v39v41 q9 63 12 78q11 37 13 49q18 36 18 41q51 99 53 100q1 4 29 32.5t45 43.5q13 13 25 17l32 16q33 11 58 16h6h2q24 -6 35 -6q1 -1 12 -9t14 -9q1 -4 14.5 -16.5t18.5 -16.5q6 -6 6 -18q1 -1 3 -6t4.5 -11.5t3.5 -7.5q6 -24 6 -33q0 -2 -2.5 -5t-3.5 -3h-17h-18q-6 4 -8 8v15 q-15 51 -17 51q-3 3 -33 18q-10 2 -14 2q-2 0 -6.5 -1t-5.5 -1q-25 -14 -31 -18q-3 0 -14 -7.5t-13 -7.5q-2 -2 -8.5 -9.5t-7.5 -8.5q-1 -2 -8 -12.5t-8 -12.5q-8 -12 -19 -34q-12 -48 -16 -56q-1 -13 -9 -62.5t-8 -55.5l-1 -16q0 -16 -0.5 -35t-0.5 -27q0 -10 0.5 -31.5 t1 -39.5t0.5 -19q0 -36 9 -68q2 -2 5 -10.5t3 -11.5l10 -9l2 -2l4 2q5 2 26.5 12t24.5 11q23 23 43 33q3 3 12.5 13.5t17.5 19t11 10.5q4 4 23 32t20 29t6.5 8.5t11 14.5t7.5 8q1 3 4.5 9t6.5 10t3 5q15 23 27 52l20 49q-13 66 4 297.5t35 271.5q7 30 9 33q0 1 3 9t3 9 q2 2 6 12t4 13q3 15 33 65q12 25 26 43q1 4 7.5 14.5t15 22.5t10.5 15q14 14 23 32q6 3 20 17q12 12 33 26q3 1 10 4.5t13.5 7t7.5 3.5q2 2 26 2q27 0 27 -2q1 0 3 -4.5t5.5 -11.5l5.5 -11q1 0 2.5 -3t3 -6.5t2.5 -4.5q1 -2 6 -13.5t5 -13.5v-2v-6q-8 -46 -11 -49 q-9 -35 -43 -135q-1 -4 -23 -69.5t-26 -80.5t-25 -76.5t-22 -64.5q-4 -7 -18.5 -42.5t-16.5 -41.5q-1 -2 -2.5 -6.5t-3 -10.5t-2.5 -8q-8 -24 -8 -33q-10 -30 -10 -43v-41v-43q0 -1 -0.5 -12.5t-1 -23.5t0 -24.5t1.5 -16.5l2 -39q1 -4 3.5 -49.5t4.5 -51.5q0 -2 3.5 -21.5 t2.5 -21.5q2 -5 7 -41t5 -38q0 -4 7.5 -33t7.5 -33q1 -2 5.5 -18t9.5 -32t7 -20q1 -7 3 -16.5t3.5 -16t1.5 -8.5q20 -20 23 -18q16 -8 18 -8l4 2q12 6 25 6q6 6 12 18q29 48 29 54q8 16 8 26q8 40 8 45q0 21 -2 29l-2 27q-12 36 -12 41v6v4q0 2 2.5 5t3.5 3q4 4 6 4l2 -2 l23 -31v-47q4 -18 4 -67q-1 -4 -7 -39.5t-7 -40.5q-2 -4 -14 -22.5t-13 -24.5q-17 -15 -25 -19l-16 -10q-21 -4 -29 -4l-28 -4q-39 8 -43 12q-12 4 -49 41q-2 0 -10 13t-11 20q0 2 -7 18.5t-11 20.5q-1 1 -2.5 5t-3.5 9t-3 6q-24 57 -24 64q-4 6 -9.5 29t-10 49t-5.5 30 q-1 1 -3.5 18.5t-2.5 20.5q-3 9 -5 25.5t-2 28.5l-1 12zM498 639v-61l10 -15q6 4 8 8q3 5 12.5 24.5t10.5 25.5q11 22 53 127q2 12 31 98q10 21 18 59q3 16 12 48.5t16 57.5t7 27q2 23 2 31q0 1 -1 13t-1 16q0 1 -2 2.5t-4.5 3t-3.5 2.5q-6 6 -19 6h-2h-4q-12 0 -18 -6 q-26 -21 -41 -43q-7 -17 -11 -25q0 -11 -12 -59q-4 -6 -18.5 -48t-16.5 -52v-7q-16 -64 -16 -84q-10 -35 -10 -69v-80z" />
<glyph unicode="e" horiz-adv-x="464" d="M-94 184v54q0 1 4 15.5t9 33t7 26.5q0 2 2 8.5t5.5 15t3.5 9.5q5 25 16 47q4 11 19 42t18 36q2 3 14 18.5t14 18.5q4 7 20 23.5t17 17.5q2 3 25.5 20.5t28.5 22.5q5 2 14 6t15.5 7t8.5 3h23h23q2 0 18 -16q18 -45 18 -53q4 -4 4 -43t-4 -43q0 -3 -5 -14t-12 -26.5 t-9 -19.5q-1 -2 -17 -26.5t-20 -32.5q-16 -32 -21 -35q-2 -2 -12 -16t-10 -17q-61 -60 -68 -78v-28v-31q0 -25 6 -37q28 -56 31 -61l17 -17q1 0 8 -1t8 -1l10 2q12 3 40.5 17.5t35.5 21.5q2 1 13 10.5t24.5 21t19.5 15.5q22 22 43 50q7 13 39 51q2 2 13.5 18.5t13.5 18.5 q34 51 37 57q6 14 45.5 93.5t44.5 94.5h20v-30q0 -4 -3.5 -15t-6.5 -14q0 -8 -10 -18q-1 -4 -55 -111q-2 -3 -12.5 -20.5t-23.5 -38.5t-18 -29q-1 -2 -6.5 -10t-12 -18t-7.5 -11q-7 -7 -22 -26.5t-17 -22.5q-31 -31 -37 -39q-52 -52 -64 -60q-46 -23 -63 -40q-7 0 -24 -7.5 t-19 -9.5h-41h-35l-16 9q-16 8 -21 8q-1 1 -8.5 6.5t-13.5 11t-6 8.5q-1 1 -11.5 10.5t-18 17t-7.5 9.5q-2 1 -7.5 12.5t-12 25.5t-9.5 19l-10 29v55zM35 301l2 -25l18 -18l22.5 22.5t22.5 24.5q1 1 13.5 17.5t15.5 23.5q5 8 24.5 36.5t20.5 29.5q0 1 2.5 6t5.5 11.5t4 8.5 l7 23q0 1 1 21t1 26t-1 28t-1 25q-1 0 -7.5 8t-11 11t-8.5 -2q-33 -13 -37 -17q-43 -43 -55 -61q0 -4 -13 -17l-14 -49q-10 -50 -10 -88q0 -1 -1 -19.5t-1 -25.5z" />
<glyph unicode="f" horiz-adv-x="356" d="M-481 -352v4q1 8 3 27t3.5 33t1.5 16q11 46 24 118q10 40 19 58l7 20q7 19 9 21q1 3 17 35q2 1 12.5 19t13.5 21q0 3 7.5 14t9.5 13q1 2 7.5 7.5t6.5 6.5l18 9q15 10 25 10h21h22q30 -15 33 -19q5 -3 17.5 -15.5t15.5 -16.5q5 -7 14.5 -27t9.5 -22t-9.5 -25.5 t-14.5 -34.5q-7 -8 -9 -10h-8h-10q0 1 -2.5 4.5t-6.5 8.5t-5 7q-1 1 -5.5 7.5t-5.5 7.5q-6 18 -6 69q-8 8 -8 15q-2 3 -8 9t-11.5 11t-5.5 6q-14 -3 -53 -26q0 -1 -8 -9q-5 -6 -16 -23l-22 -34t-11 -18t-4 -9.5t-8 -18.5t-5 -13q-5 -10 -18 -49q-12 -60 -14 -68 q-1 -2 -5.5 -24t-5.5 -25q0 -2 -4 -17.5t-4 -17.5v-18v-23q0 -11 4 -57t4 -51q7 -37 11 -41q3 -9 16 -36t16 -32q2 -5 22 -24t30 -25l14 -8h35h33q14 0 26 8q5 0 49 33q3 2 13.5 11.5t11.5 12.5q4 6 25.5 38t25.5 38q1 2 12.5 22.5t12.5 26.5l3 11q3 11 3 16q3 5 7.5 19 t8 25.5t4.5 12.5q13 78 13 109q1 5 10 92v16q0 7 4 46.5t6 47.5v23q1 55 8.5 191.5t8.5 154.5q0 75 6 135q0 3 4 32t4 32v43h-8l-56 -58h-20v25q0 1 9.5 10.5t22.5 22t21 18.5q2 0 16 11t15 14l12 8l8 24q0 2 2 16.5t2 16.5q3 10 9.5 29.5t13 36.5t6.5 18q2 5 24 59.5 t25 67.5l33 66q1 2 8 13.5t15.5 25.5t11.5 20q19 39 24 41q20 30 25 35q6 6 22 21.5t30 28t14 13.5q9 7 34 20.5t35 14.5h14h19q2 -1 16 -4t17 -4l16 -8q2 -1 13.5 -9.5t13.5 -9.5t12 -11t12 -11q1 -1 4 -7.5t7.5 -15.5t5.5 -12q9 -27 16 -41q8 -24 8 -41l1 -14q1 -15 1 -21 q0 -5 -1 -20l-1 -15q0 -25 -8 -49q-31 -62 -43 -82q-2 -3 -20.5 -37.5t-20.5 -37.5l-16 -33q-1 -2 -8.5 -13.5t-8.5 -13.5q-3 -4 -9 -9l-12 -10l-5 -5h-6h-11q-6 6 -6 10q2 4 15.5 23.5t17.5 23.5q6 6 6 18q0 1 4 11t6 14q2 6 6 20.5t7.5 25.5t3.5 13q0 4 4 28.5t4 29.5 l1 11q1 12 1 17t-1 18l-1 13q0 2 -4 24.5t-4 24.5q-1 6 -8.5 55.5t-8.5 55.5q-1 2 -5 17t-5 16q0 4 -6 16l-10 8q-9 2 -13 2l-10 -2q-2 0 -26 -24q-8 -16 -25 -33q-33 -50 -35 -51q-2 -3 -8.5 -17.5t-7.5 -15.5q-1 -3 -11 -33.5t-19 -59t-11 -32.5q-1 -6 -20.5 -55.5 t-20.5 -53.5q-19 -76 -19 -94h9q2 0 18 16t25 27q1 1 4 7t6.5 11t5.5 5q0 3 7 19t9 18l9 6h4h4q8 -8 8 -15q0 -4 -8 -28t-17 -33q-1 -1 -14.5 -14t-26 -25.5t-16.5 -17.5q-2 -1 -13.5 -8.5t-13.5 -8.5l-8 -8q-8 -38 -16 -143q0 -7 -4 -67.5t-4 -74.5q6 -42 -15 -173 q-6 -31 -8 -29q-10 -60 -10 -101q0 -3 -2 -14.5t-4.5 -26t-3.5 -18.5q-22 -147 -23 -150q0 -1 -15.5 -51.5t-17.5 -66.5q-25 -62 -34 -99q-8 -23 -37 -67q0 -2 -2.5 -7t-6 -11t-4.5 -7q-51 -66 -51 -67q-5 -4 -37 -36t-39 -38q-9 -9 -24 -19q-2 0 -10 -4t-9 -4 q-3 -3 -32 -10q-30 -6 -43 -6q-25 4 -33 6q-3 3 -17 10q-24 16 -24 19q-2 1 -9 9.5t-15 18.5t-11 13q-1 3 -12.5 20.5t-12.5 20.5q0 4 -9.5 34t-14.5 39v11q0 8 -3.5 46.5t-4.5 45.5v2z" />
<glyph unicode="g" horiz-adv-x="661" d="M-168 -428v43q0 14 41 96q14 28 21 35q2 4 16 25q31 31 35 39l8 8q2 2 9 5t12.5 5.5t5.5 3.5l18 6q1 0 8.5 1t9.5 1l15 -4q3 0 9.5 -2t14.5 -4.5t11 -3.5q5 -2 17 -9t13 -10q6 -4 19 -16.5t14 -17.5q7 -14 14 -35q-2 -12 -2 -14v-11q-8 -12 -35 -30h-8l-6 2q-12 0 -20 8 q0 47 -4 67q0 3 -3 14t-4 11q-1 1 -6.5 9t-7.5 9q-18 2 -24 2h-27l-16 -6q0 -1 -7 -8.5t-16.5 -17.5t-13.5 -15q-1 -2 -29 -30q-4 -13 -27 -47q-1 -2 -9.5 -24.5t-8.5 -27.5q-2 -5 -6.5 -22t-5.5 -19q-2 -31 -2 -41q0 -4 -0.5 -14.5t-1 -19t-0.5 -9.5q0 -33 6 -57 q-1 -2 1 -10.5t5 -19t4 -15.5q9 -26 16 -33q2 -2 18 -22t21 -23l17 -8q31 0 39 -2l36 -2q1 1 17 5.5t18 6.5q2 4 22 21t21 18q3 3 19 27q1 1 5 7t5 7q2 5 9 19.5t12.5 26t5.5 13.5q6 6 20 56q2 3 4 11l3.5 14t2.5 7q4 4 13 58q3 13 9 43.5t10.5 54.5t6.5 27q0 10 6 44.5 t6 37.5q1 4 3.5 37.5t3.5 37.5q0 4 5 33.5t5 32.5q0 1 2 15t2 20v33q-33 -33 -51 -45q-1 -1 -19.5 -11t-21.5 -12q-4 -4 -20 -10t-19 -6h-35l-39 2q-1 0 -6.5 2t-13 4.5t-9.5 3.5q0 1 -6 5t-6 5q-1 2 -6 6l-6 4q-2 3 -9 10.5t-12.5 13.5t-5.5 7t-6 9t-12.5 17.5t-7.5 12.5 q0 6 -10.5 38.5t-10.5 33.5q-4 66 -4 80q4 28 4 73q0 3 9.5 41t11.5 41q0 14 20 64q2 3 23 29.5t22 31.5q33 33 35 37t14.5 16t24.5 22t12 11q1 1 5.5 4t11 8t10.5 9q0 2 3.5 5t4.5 3q2 2 27 14q22 11 34 14l25 9q39 2 49 2l45 -6q18 -6 31 -19q1 -1 18.5 -21t22.5 -24 q6 -14 6 -18q6 -12 6 -25q1 3 9.5 12.5t9.5 10.5q22 22 28 24q2 2 7.5 5t10.5 6t5 4q3 0 20 1t19 1q-1 -2 -2 -14.5t-2 -14.5q-29 -87 -33 -107q-8 -39 -12 -41q-2 -8 -11.5 -111t-9.5 -112q0 -2 -1 -16.5t-1 -16.5q-7 -29 -14 -90q-1 -4 -6.5 -37.5t-6.5 -37.5l-1 -16 q-1 -16 -1 -19q0 -2 -2.5 -13.5t-5.5 -25.5t-4 -17q0 -3 -5.5 -21.5t-6.5 -19.5q-1 -4 -6.5 -36.5t-6.5 -36.5q-10 -57 -22 -82q0 -3 -4 -14t-6 -13q0 -2 -8.5 -28.5t-8.5 -28.5q-1 -1 -3.5 -6t-5 -11.5t-3.5 -7.5q0 -2 -5 -17.5t-5 -17.5q-30 -53 -39 -79q-52 -78 -53 -80 q-1 -1 -25.5 -20.5t-32.5 -24.5q-4 -5 -25.5 -21.5t-23.5 -17.5t-17.5 -8.5t-17.5 -8.5q-24 -8 -37 -8l-17 1q-17 1 -23 1l-39 4q-3 0 -13.5 5t-13.5 8q-3 1 -13.5 8t-11.5 8q0 1 -10.5 17t-11.5 20q-1 2 -14.5 32t-14.5 35q-6 6 -6 41q0 6 -1 19t-2 23.5t-1 11.5q0 27 4 55 zM43 307q-6 -16 -13 -111t-1 -98q-1 -3 3.5 -21t10 -37.5t6.5 -23.5q0 -7 29 -36q14 -7 32 -3t31 15l25 20l11 6q11 7 22 15t14 12q13 21 55 72q3 4 9.5 14t11.5 18t6 9q1 3 19.5 113.5t19.5 113.5q1 2 9 24.5t9 24.5q2 3 7.5 17.5t7.5 17.5v2v6q-1 1 -2.5 13.5t-2.5 13.5 q1 2 -4.5 16t-5.5 15q-1 1 -4 9t-4 9q-3 6 -22 25q-2 1 -8.5 6t-8.5 6q-50 10 -67 10q-7 0 -19 -6q-49 -21 -94 -71t-66 -132q0 -2 -3.5 -19t-7.5 -37t-5 -28z" />
<glyph unicode="h" horiz-adv-x="661" d="M307 -80q0 10 0.5 31.5t0.5 38.5l1 18q0 14 6 68q1 4 3 16t3.5 22t2.5 13q11 32 16 74q5 15 18 67q22 86 25 107q1 3 4 22t4 21q8 48 8 59q2 17 2 21t-1 13l-1 9q-6 4 -8 6h-12h-12q-32 -16 -35 -18q-4 -1 -20 -13.5t-21 -17.5q-9 -10 -48 -49t-42 -43q-61 -74 -76 -100 q-3 -3 -17 -26.5t-18 -33.5q-1 -5 -7.5 -17.5t-8.5 -14.5q-1 -2 -11.5 -30l-13.5 -36q-8 -24 -8 -29q-1 -2 -5 -23.5t-5 -23.5q-2 -7 -16.5 -67.5t-16.5 -67.5v-10q-1 -1 -5 -8.5t-8 -14.5t-5 -10l-5 -6q-8 -8 -20 -8h-25h-24q-3 0 -10 5.5t-7 8.5v37v39q1 12 16.5 103 t16.5 100q1 3 5.5 27.5t4.5 29.5q12 74 15 82q1 3 5 18.5l8 31t5 19.5v9q0 12 10 32q-2 11 3 30.5t6 27.5q53 212 53 213q15 28 41 114l10 29v-2q7 10 23 59q2 1 18 33q4 9 18.5 32.5t16.5 25.5q3 7 22 26t27 25q5 4 24 13.5t25 10.5q15 2 19 2l22 -2l16 -8q3 0 11 -16 l8 -25v-26v-25q-8 -21 -8 -25q-8 -16 -11 -16q-8 -12 -57 -61q-12 -8 -76 -56q-1 -1 -8 -9t-8 -9q-6 -6 -6 -14q-1 -2 -5 -16.5t-5 -16.5q0 -21 -11 -43q-4 -49 -14 -117q0 -17 -8 -57q0 -1 -4 -15.5t-8.5 -32.5l-6.5 -26q-7 -27 -10.5 -42t-7.5 -35.5t-10 -47.5h16 q5 0 41 43q51 68 59 76q6 4 31.5 30t34.5 37q4 4 18.5 16t26 22t14.5 12l15 7.5t23.5 12t13.5 6.5h24h25q8 0 26 -18q17 -33 17 -35q6 -12 6 -31v-96v-96q0 -5 -3 -26.5t-3 -22.5q-1 -6 -3 -28.5t-4 -42t-3 -24.5q-7 -115 -7 -184q0 -1 -1 -44t-1 -58q0 -12 0.5 -35.5 t1.5 -42.5v-19q0 -26 7 -75q0 -1 2 -7.5t4.5 -15t3.5 -12.5q1 -6 5 -20t7.5 -25.5t3.5 -12.5l17 -34l6 -7q1 0 6.5 -1t7.5 -1l12 2q10 0 17 7l10 10q1 2 8 12t8 12q15 23 15 33q10 20 10 35q10 47 10 49v14v11q-12 50 -20 65v21h10q0 -1 4.5 -6t5.5 -7q0 -3 6 -11.5t8 -8.5 l9 -27v-41v-45q0 -2 -2 -9.5t-4 -17.5t-3 -14q-2 -1 -5 -11t-3 -13l-16 -41q-1 -4 -14.5 -16.5t-18.5 -16.5q-5 -5 -35 -20h-26h-33q-1 0 -31 10q-8 0 -18 10l-6 5q-7 6 -12.5 11t-6.5 7q-2 2 -18 26q-23 46 -23 49q0 1 -4.5 13t-8.5 23.5t-5 15.5q-1 6 -8.5 37.5t-8.5 37.5 q-6 36 -6 74l-1 38q-1 38 -1 50zM285 1016q-2 0 -8 -1t-7 -1q-2 0 -15.5 -8t-16.5 -9q-1 -2 -9.5 -9t-9.5 -9q-2 -2 -11.5 -23.5t-12.5 -25.5q-1 -5 -9 -27t-8 -24l-1 -12q-1 -12 -1 -17q0 -2 1 -14t1 -15q2 0 9.5 4.5t7.5 5.5q9 0 24 15q3 2 12 8.5t15.5 11.5t7.5 6 q3 2 18 17t17 16q23 46 24 49v23v20q-16 16 -18 17q-8 2 -10 2z" />
<glyph unicode="i" horiz-adv-x="503" d="M-45 203q4 32 4 63q-2 7 4.5 42.5t13.5 53.5q0 17 7 31q15 30 20 35q11 16 12 16q17 17 23 19q12 6 18 6q1 -1 17.5 -4t17.5 -4q1 -4 0 -29.5t0 -28.5q-13 -39 -24 -61q-3 -6 -7 -30t-4 -33q0 -6 -4 -59.5t-4 -59.5q-3 -5 -8.5 -36.5t-5.5 -37.5q-1 -1 0 -11.5t0 -13.5 q-2 -4 -2 -16q-5 -15 1.5 -35.5t17 -32.5t16.5 -8q2 2 16.5 13t17.5 12l27 18q6 5 36.5 35t39.5 41q0 1 8.5 10.5t19 21t13.5 15.5q35 49 100 127q21 21 41 51q9 10 53 67t58 73q2 5 20 27.5t19 23.5t5.5 6t8 8.5t4.5 3.5q8 4 29 4q0 -18 -4 -22q-5 0 -25 -33 q-8 -11 -73.5 -89.5t-78.5 -94.5q0 -1 -16 -17q-1 -1 -24 -31.5t-25 -35.5q-2 -1 -16.5 -18.5t-18.5 -22.5q-5 -7 -22 -28t-19 -23q-16 -16 -16 -17q-8 -8 -17 -26q-60 -60 -65 -66q-1 0 -8.5 -5t-15.5 -10.5t-11 -6.5l-27 -21q-4 -7 -14.5 -13t-28.5 -8t-39 11 q-1 1 -11.5 15t-12.5 16q-2 0 -9 11.5t-7 16.5q0 3 -6 19t-5 18q-4 8 -10 44.5t-6 45.5q2 4 2 68zM53 629l-2 12q0 2 6 8h11h14q4 -2 18 -16q4 -11 4 -15l2 -10q-1 -1 -7 -4t-7 -4q-1 0 -5 -1t-5 -1l-8 2q-5 2 -12 7.5t-7 8.5q-2 9 -2 13z" />
<glyph unicode="j" horiz-adv-x="198" d="M-442 -434v49q0 1 2 9t4.5 18.5t3.5 15.5l24 117q34 69 41 84q1 0 5 3.5t6 4.5t16 12t16 12l15 11h18h17q4 0 26 -11q3 -2 25 -24q0 -4 -3.5 -18t-6.5 -17q-8 -8 -15 -8q-2 0 -5 3t-3 5q0 6 -10 16q-1 2 -4 13t-4 12q-5 2 -7 2q-1 0 -5 -1t-5 -1q-5 0 -14.5 -2.5 t-9.5 -3.5q-3 -2 -10.5 -9.5l-16.5 -16.5l-8 -9q-31 -62 -33 -68q-1 -1 -4 -13t-7 -29.5t-5 -22.5q-10 -35 -17 -84q-10 -40 -10 -59v-7v-10q0 -3 4 -19.5t6 -19.5q1 -2 2.5 -8.5t3 -11.5t2.5 -6q3 -8 13 -27.5t12 -21.5q4 -6 33 -35q2 0 26 -8h25h25q28 10 51 14l10 8 q10 8 14 12q3 2 10 8t7 7q3 6 13.5 26t19.5 36.5t10 19.5t3.5 19t5.5 37t5 30q2 6 6 35.5t4 31.5v33q0 6 4.5 62.5t4.5 62.5v16q1 26 4.5 179.5t3.5 183.5v39q8 90 16 127q21 86 25 108q0 2 3.5 12t4.5 11q26 60 26 61l7 11q8 11 10 12l24 24q0 4 19 10h2h6l12 -16 q2 -14 2 -20l-2 -21q0 -64 -4 -76q-8 -116 -8 -125q-1 -41 -1 -183t1 -185q-8 -40 -8 -49q-5 -25 -12 -95v-16q0 -6 -5.5 -45t-7.5 -45q-1 -3 -5 -26t-5 -25q-23 -81 -25 -92l-7 -19q-8 -18 -9 -24q-5 -9 -15.5 -29t-18.5 -36t-9 -17t-12.5 -13t-23.5 -24.5t-26 -26.5 t-22 -20q-1 0 -3.5 -1.5t-6 -3.5t-6.5 -3l-51 -17q-15 -10 -33 -10h-29h-29q-3 0 -13 3.5t-13 6.5q-2 0 -12 7t-11 10l-10 8q-15 15 -25 35q-4 4 -13 23t-11 26q-10 30 -10 39v53zM20 782h35q1 -1 4 -2.5l6 -3t3 -2.5l2 -16l-2 -19q0 -7 -9 -10h-12h-12q-10 5 -10 19 q0 2 -2.5 17.5t-2.5 16.5z" />
<glyph unicode="k" horiz-adv-x="598" d="M219 326q-1 -2 -7.5 -9t-6.5 -8l-20 -24q-20 -24 -21 -29q-2 0 -6 -2.5t-4 -3.5q-22 -22 -25 -35q-2 -2 -9.5 -11.5t-8.5 -10.5q-4 -7 -16 -31t-22.5 -45.5t-13.5 -24.5q-1 -2 -6.5 -24t-7.5 -27q0 -2 -4 -20.5t-4 -20.5q0 -3 -5 -18t-5 -17v-16q-13 -39 -15 -43 q0 -1 -4 -12t-4 -13q-1 -2 -3.5 -5.5t-4.5 -6.5t-2 -4l-14 -6h-17h-12q-1 0 -7 5.5t-7 8.5v59v58q0 3 3 33.5t3 33.5q8 64 8 84v25q0 3 2 15.5t4.5 28.5t3.5 23q1 3 5 29.5t5 28.5q0 6 4 39t5 39q0 10 10.5 73t13.5 76q0 3 4 29t4 28q9 28 15 93q0 3 5 22t5 21l8 47 q1 3 10 94v4v4q-8 8 -10 8h-4h-4l-76 -67h-4h-6q-8 6 -8 8q2 5 8.5 17.5t9.5 15.5q2 4 14.5 16.5t18.5 15.5q30 30 51 44q23 23 23 26q1 1 6 7t6 7q0 2 4 17t4 16q5 23 41 146q6 12 6 24q6 14 29 60q13 25 22 30q11 11 27 19q24 16 33 16q24 2 30 2q5 0 14 -0.5t15.5 -1 t7.5 -0.5q17 -12 25 -16q6 -6 8 -6l16 -27v-27v-24q-12 -25 -16 -33q-3 -3 -8.5 -12t-11.5 -19t-7 -12q-15 -15 -24 -33l-6 -8q-7 -5 -35 -28l-27 -23q-17 -17 -41 -33l-8 -6q-3 -9 -24 -51q-1 -4 -11 -54v-106q0 -29 -8 -57q0 -3 -3 -26t-3 -26q0 -7 -18 -151 q-4 -56 -17 -133q0 -25 -6 -43q0 -2 -4 -37t-4 -45v-10v-7q0 -1 3 -4.5t5 -3.5l6 8q6 8 8 9q3 4 38 45t38 45q1 3 11.5 13t15.5 13q4 4 28.5 25.5t28.5 24.5q86 86 90 92q4 4 14 19t21.5 33t15.5 23q38 67 43 84q7 16 22.5 60.5t16.5 56.5l7 2l6 -2q4 -6 6 -8q2 -8 2 -10 q-2 -4 -2 -6q-1 -1 -4.5 -10.5t-8 -22.5t-6.5 -19q-3 -23 -24 -65q-6 -18 -47 -100q-4 -5 -16 -23.5t-22.5 -34t-13.5 -18.5q-10 -12 -45.5 -47t-46.5 -43q1 -1 11.5 -12t19.5 -20t12 -11q0 -2 8 -13t9 -14q3 -5 16.5 -34t15.5 -32l17 -51q8 -24 8 -32q0 -26 8 -58 q0 -2 4 -35t4 -41q1 -4 5.5 -42t5.5 -42q1 -13 4.5 -45.5t6.5 -59.5t3 -30q2 -5 13 -51t14 -55q7 -29 24 -68q17 -33 19 -33q0 -3 10 -12.5t14 -11.5q1 -3 10.5 -6.5t14.5 -3.5q2 0 8.5 3.5t7.5 6.5q2 2 17 15t18 16q1 1 6.5 12t7.5 14q0 2 4.5 9t4.5 8q1 2 5 16t5 16l8 49 q0 1 1 27t1 35q0 4 -1 28t-1 27q-6 23 -18 35q-2 3 -8 9.5t-9 6.5q0 5 8 13h4h5q21 -22 24 -29q1 -2 3 -5t3.5 -5.5t1.5 -3.5q11 -55 11 -62l1 -19q1 -19 1 -24l-2 -47q0 -1 -2.5 -11t-5 -22.5l-3.5 -17.5q0 -5 -4 -23l-4 -18q0 -3 -5.5 -16.5t-8.5 -16.5q-4 -9 -19 -16 q-4 -5 -14.5 -13.5t-18.5 -14.5l-8 -5q-20 -10 -43 -10h-20h-23q-10 0 -30 10q-25 6 -33 14q-6 4 -43 50q-12 18 -27 43q-4 8 -16.5 33.5t-21.5 45t-11 23.5q0 1 -1.5 10l-3.5 21l-3 18q-16 108 -19 123v27q0 103 -6 151v25q-8 72 -8 84q-22 106 -24 108zM276 1264h-24 q-12 -9 -14 -13q-1 0 -9.5 -7t-9.5 -7q-3 -7 -13 -28.5t-11 -22.5q0 -5 -8 -48t-9 -53q-4 -16 -4 -51h21q3 0 29 19.5t38 31.5q3 3 27 33q2 6 16 28l14 21q2 3 6.5 11.5t8 15t4.5 6.5v14v13q0 1 -4 8t-4 8t-4.5 4.5t-6.5 3.5q-1 3 -7.5 8t-8.5 5h-27z" />
<glyph unicode="l" horiz-adv-x="425" d="M-47 92q0 78 6 84q0 5 21 86q0 47 12 88q3 4 8.5 20.5t5.5 18.5t17 70q16 48 16 57q1 1 3 7t4.5 11t4.5 7q8 24 8 32l25 52q8 21 20 51.5t17.5 45t13.5 31.5t15 29l8 14q9 15 10 19q4 10 18 32t17 25q3 6 22.5 25.5t26.5 24.5q4 4 23.5 14t25.5 12q35 4 39 -4l10 -18 l6 -23v-55q-6 -17 -6 -23q-9 -18 -10 -18q-3 -4 -24.5 -29.5t-24.5 -29.5t-36 -31.5t-42 -34.5q-7 -14 -11 -30.5t-9 -24.5q-2 -6 -7.5 -18.5t-10.5 -22t-5 -11.5l-29 -81q-2 -5 -8 -37t-6 -33q-11 -34 -21.5 -115t-19.5 -173.5t-12 -112.5l16 -80q0 -1 3 -11t3 -14 q0 -3 4 -9.5t6 -6.5l17 -17q4 -2 6 -2l2 2q7 0 16 9q5 4 24.5 23t25.5 24l24 34l68 101q10 20 24 41q1 1 28.5 51t29.5 57l43 66l24 51h19v-16q-3 -3 -11 -27l-8 -14q-5 -10 -33 -60.5t-34 -58.5q-1 -4 -19 -36.5t-22 -37.5q-1 -1 -16.5 -24.5t-16.5 -26.5l-8 -16l-17 -25 q-23 -35 -26 -43l-25 -33q-9 -11 -41.5 -43t-42.5 -41l-47 -8h-35l-37 16q-1 2 -24 25q0 1 -3 9t-6.5 18.5t-4.5 15.5q0 3 -4 14t-5 11q-8 40 -8 49q0 1 -2.5 21t-5 44.5t-2.5 36.5zM324 924q-2 0 -8 -1t-7 -1q-2 0 -16.5 -7t-16.5 -8l-4 -4q-5 -4 -9 -8t-5 -6l-25 -51 q0 -1 -4.5 -13t-8 -22t-3.5 -12l-1 -14q-1 -14 -1 -19q2 -23 2 -29q2 0 9 4.5t7 5.5q15 8 21 19l31 24l28 35q17 33 21 51q2 13 2 19q0 4 -1 14l-1 10l-15 15z" />
<glyph unicode="m" horiz-adv-x="1003" d="M221 -223v37v39q0 3 4 31.5t4 31.5v27q1 2 5.5 24.5t5.5 24.5v10q0 5 6.5 51.5t7.5 57.5q1 6 3.5 18.5t4.5 22t2 10.5q1 3 11.5 41t13.5 49q1 4 12 42t12 42q17 51 17 59q0 13 10 33q0 1 4 12.5t4 12.5q0 4 -2 29t-2 30h-14q-37 -35 -51 -51l-25 -33q-2 -4 -9 -14.5 t-15 -22t-9 -12.5q-48 -79 -49 -86q-32 -42 -35 -49q-1 -3 -15.5 -20.5t-17.5 -20.5q-6 -5 -15 -19t-9 -16q-3 -4 -51 -100q-23 -35 -23 -41l-26 -47q-4 -10 -22 -41l-19 -31q-2 -1 -14.5 -11.5t-14.5 -11.5h-6h-6q-2 0 -11 9v28v29q0 7 11 29q4 21 25 93.5t22 78.5 q1 4 9 37.5t9 37.5q5 30 17 66q0 1 3 12.5t3 13.5q32 116 32 134q19 76 19 92l3.5 10.5t4.5 14t2 8.5q8 8 8 18l15 22q1 1 15 10t19 11h5h4q11 -7 18 -21q0 -25 6 -55v-31v-28q0 -2 -3 -17.5t-3 -17.5v-8q-13 -60 -27 -101q-3 -6 -18 -55.5t-16 -52.5v-14v-19q8 4 27.5 23.5 t23.5 27.5q1 1 7.5 11t8.5 12q1 3 51 86q7 11 66 100q41 41 59 56l17 10h14h10q2 -1 13 -12t14 -13q1 -3 8 -17.5t8 -17.5q0 -1 2 -10.5t4 -21.5t3 -17v-4v-4q-1 -9 -3 -31.5t-4 -40t-2 -20.5q-1 -2 -5 -21.5t-5 -21.5q0 -6 -3 -27t-3 -22q0 -2 1 -12.5t1 -12.5h14 q3 6 20.5 42t20.5 42q2 2 9 13.5t15 25t11 18.5q49 82 51 84q0 2 9 15t16 20q6 8 20 26.5t25 33.5t12 16q5 7 23.5 26t25.5 23h23h18q5 0 13 -8q0 -2 8 -18q4 -12 4 -23q1 -6 5 -35.5t5 -34.5v-20v-21q-1 -2 -5 -24.5t-5 -24.5q-2 -10 -7 -59.5t-5 -59.5q-1 0 -3.5 -5.5 t-5.5 -11.5t-4 -7q0 -5 -4 -23l-4 -18q-1 -3 -1 -15.5t0.5 -27.5t0.5 -16q0 -2 -3 -20.5t-3 -20.5q-1 -4 -1 -16.5t0.5 -25.5t0.5 -14q1 0 3 -1t3 -1q3 1 9 4t12.5 6.5t7.5 4.5q1 3 9.5 11.5t18.5 18t13 13.5q3 6 25.5 32t31.5 33q3 3 33 43q43 50 51 66q7 20 25 43 q14 21 41 75q4 5 25.5 43.5t25.5 47.5q1 3 4.5 9t6.5 11t3 6q5 4 18.5 17t16.5 18l8 -10v-13v-12l-8 -8q-1 -3 -12.5 -17.5t-12.5 -15.5q-3 -5 -10.5 -17t-13.5 -22t-8 -12q-1 -2 -9.5 -16.5t-9.5 -16.5q-7 -14 -47 -84q-14 -14 -18 -26q-5 -5 -27 -33.5t-23 -32.5l-34 -51 q-7 -7 -39.5 -46.5t-42.5 -53.5q-2 -4 -14 -14l-13 -11q-39 -31 -43 -31q-7 -4 -33 -10h-10h-4q-4 0 -15.5 4t-13.5 6q-2 1 -8 7t-13 14t-9 10q-6 6 -11 16l-8 27v37v39q0 1 4 25.5t4 31.5q11 44 19 84v8q1 2 8 29t8 29q1 10 16.5 63.5t18.5 61.5q0 9 14 51v4v6l-43 -43 q-30 -40 -49 -59q0 -1 -3 -6t-6.5 -10.5t-4.5 -8.5q-9 -9 -25 -41q-5 -8 -20 -33.5t-26.5 -45t-14.5 -23.5q-1 0 -3.5 -6.5t-2.5 -8.5q-9 -26 -19 -43q-1 -3 -12 -32.5t-12 -32.5q-42 -98 -49 -119q-29 -66 -35 -100q-16 -96 -25 -123q-1 -5 -8.5 -23.5t-7.5 -19.5 q-2 -5 -8 -12t-9 -7h-18h-14q-3 0 -10.5 7t-8.5 12z" />
<glyph unicode="n" horiz-adv-x="718" d="M319 90q0 7 0.5 24.5t1.5 32.5l1 15q0 3 4 34t4 40q0 11 10 36q6 22 16.5 48.5t14.5 39.5q0 3 8 26.5t8 25.5q12 50 33 114q-4 18 -25 29q-8 3 -8 0q-1 0 -13 -1t-14 -1q-10 -4 -14 -8q-20 -13 -27 -13q-3 -5 -26 -25t-25 -22q-1 0 -5.5 -5.5t-10.5 -13t-8 -9.5 q-9 -16 -51 -76.5t-66 -99.5q-32 -64 -35 -76q0 -1 -13 -20.5t-16 -22.5q-2 -3 -15 -34.5t-17 -39.5q-1 0 -4.5 -11t-3.5 -14q-31 -46 -37 -49q-1 -2 -6.5 -19t-6.5 -18l-32 -32q-1 0 -20 -2t-25 -2h-11h-8q-1 0 -7 2t-7 2q-3 0 -6.5 4t-3.5 6v12v17q2 3 10 45q0 1 3 14 t3 14t4 19t4 20q1 1 9.5 24.5t9.5 24.5q0 3 4 19t4 18q1 3 9 34t9 34q2 11 14.5 56.5t14.5 53.5q1 3 5 15.5t5 15.5q0 1 4 10.5t4 10.5q1 3 4.5 19t3.5 18q31 82 37 88q30 59 41 73q0 2 2.5 5t3.5 3q1 1 10.5 4.5t10.5 4.5h4h6q0 -1 2 -4.5t2 -4.5l8 -12q0 -5 1 -28.5 t1 -28.5q0 -6 -0.5 -19.5t-1 -24t-0.5 -11.5q0 -4 -6 -51t-6 -52q-2 -19 -3.5 -27t-2.5 -10t-4.5 -12t-7.5 -27v-6q-1 -1 -5.5 -14t-5.5 -14q-1 -5 -6 -38t-6 -38h2h4l6 8q1 0 3 3t4.5 6.5t3.5 4.5q18 36 18 37q16 32 35.5 63.5t49 75.5t40.5 60q1 1 5 6l8 10t6 6 q7 14 24 31q18 18 27 21q4 4 43 30l30 15q34 4 62 0l24 -7q15 -10 27 -22q0 -2 3.5 -11t4.5 -10q2 -6 4.5 -21t3.5 -17v-17v-20q-1 -6 -4 -44t-4 -44q-5 -9 -8 -33t-6 -35q0 -5 -8 -37q0 -1 -4 -13.5t-4 -14.5q-4 -12 -11 -54q-16 -124 -16 -125v-43v-45q0 -1 3 -4.5t5 -3.5 h8h11q1 1 11.5 8t14.5 8l14 16q14 16 19 21q4 5 20.5 26.5t29.5 38.5t15 21q4 4 18.5 30.5t16.5 31.5q62 93 78 125q2 3 25 52.5t28 57.5q0 1 3.5 5t5.5 4l8 2v-33q0 -2 -3.5 -11t-4.5 -10q-5 -12 -22 -43.5t-23 -38.5q-97 -167 -109 -192q0 -1 -12.5 -16t-14.5 -21 q-7 -7 -16 -25q-6 -5 -29 -31l-24 -26q-1 -1 -7.5 -8t-7.5 -8q-4 0 -26 -11q-10 -10 -19 -10h-26h-25q-2 0 -8.5 3.5t-7.5 6.5q-22 11 -25 21q-8 8 -8 14q-10 10 -10 21l-8 28l-1 14q-1 15 -1.5 32.5t-0.5 25.5z" />
<glyph unicode="o" horiz-adv-x="571" d="M-86 231v45q0 1 5 15.5t5 15.5q1 3 5 24t5 23q0 3 3.5 17t3.5 16q6 6 6 25q4 5 12.5 20t15 27.5t7.5 13.5q2 3 13 13.5t23 21.5t13 12q2 2 6.5 8t5.5 7q0 2 4 27.5t4 27.5q6 24 6 31q3 6 35 30q1 1 7 5.5t7 5.5q5 2 27.5 8.5t24.5 7.5q25 0 43 6h12h12q14 -4 84 -39 q13 -7 25 -24q25 -37 33 -62q10 -20 10 -31v-196q-2 -2 -6 -16t-4 -15v-10v-8q1 0 4.5 -3.5t5.5 -3.5q1 0 11.5 -3t12.5 -3q1 0 8.5 -0.5t17.5 -1t15 -0.5t24 1l19 1q7 3 43 6t54 11h26h25q3 0 5.5 -4.5t2.5 -6.5q-6 -6 -8 -6q-16 -8 -17 -8h-16q-21 -15 -90 -22 q-17 -2 -72.5 -2t-70.5 2q0 -1 -4 -3t-8 -4.5t-5 -3.5l-8 -8q-2 -3 -16.5 -27.5t-16.5 -27.5q-1 0 -5 -5.5l-8 -11t-5 -6.5q0 -4 -10.5 -19.5t-14.5 -19.5q-32 -48 -33 -49l-18 -18t-22 -19q-3 -2 -43 -32q-12 -6 -17 -6h-16h-19q-6 0 -30 3l-25 3q-1 1 -10 6t-19 10.5 t-14 7.5q-1 1 -9 7.5t-9 7.5q-4 4 -15 26q-5 4 -33 60q-7 21 -10 24q-1 3 -3.5 14.5t-4.5 20.5t-2 12v49zM31 254v-61q15 -61 20 -72q18 -62 23 -70q2 -2 18 -26q0 -2 2.5 -4.5t3.5 -2.5q4 0 11 -4t8 -4q3 0 33 15q4 1 13 8t11 10t17.5 16t17.5 15q10 18 16 22 q6 9 20.5 30.5t26 37.5t11.5 18q7 10 26 47v7v4q-1 0 -4 6t-4 6t-5 4t-5 4l-39 16q-1 0 -9 3.5t-10 3.5q-73 40 -75 41q-2 2 -13 8.5t-12 7.5q-2 2 -36 33.5t-40 38.5q-1 -1 -3 -5.5t-3 -5.5q-2 -2 -5 -10.5t-3 -11.5q-12 -30 -12 -47v-78zM125 608q0 -4 1 -14l1 -10 q0 -9 6 -33q15 -45 17 -49q8 -9 18 -37q4 -15 25 -47q1 -1 4 -6t7 -11t5 -8q17 -17 24 -31q2 0 10 -6.5t9 -7.5q0 -2 6.5 -6.5t14.5 -10t10 -7.5q3 -1 14 -8.5t12 -8.5q2 -1 6 -2t7.5 -2t3.5 -2h4h4q0 6 8 14q2 2 5 14.5t3 18.5l8 39q0 64 -8 156q0 8 -8 24q0 1 -4 8t-4 9 q-14 14 -19 24q-3 5 -16 18t-16 13q-2 1 -26.5 11t-31.5 12h-12h-12q-26 -13 -51 -17q-11 0 -17 -6q-1 0 -3.5 -4t-2.5 -6q-2 -17 -2 -21z" />
<glyph unicode="p" horiz-adv-x="624" d="M-434 -494q-1 8 -3.5 26.5t-4.5 33t-2 16.5q0 29 4 49q1 3 3 19t3 18q0 2 4 21t4 22q2 3 10 25.5t10 25.5q0 2 7 14t8 15q1 1 6 10t9.5 16.5t4.5 8.5q1 1 7.5 9t7.5 11q3 4 19.5 19.5t17.5 17.5q2 1 9 6.5t13 9.5t8 5q6 2 8 2h9l26 -4q12 -6 31 -25v-8v-6q0 -1 -3.5 -4.5 t-4.5 -3.5t-3.5 -2.5t-4.5 -2.5l-9 3q-1 0 -3 4.5t-4 9.5t-3 6q-1 3 -8.5 5.5t-9.5 0.5q-17 -8 -25 -10q-12 -6 -14 -10q-9 -3 -25 -19q-30 -41 -37 -45q0 -3 -5.5 -15t-6.5 -13q-4 -7 -17 -45.5t-14 -40.5q-4 -8 -4 -29q-4 -8 -4 -49v-68q0 -23 4 -43q6 -36 6 -41 q0 -11 13 -31q10 -20 20 -30l8 -8q7 0 27 4l25 2q1 0 11 4t13 4q2 2 5.5 4.5t6 4.5t2.5 3q53 67 60 72q1 4 9 20.5t9 18.5q1 1 23 45q10 20 10 35q1 2 10 28t11 33q0 4 5 22t5 21q3 10 9 39.5t7 30.5q1 5 8.5 41.5t8.5 44.5q0 2 3 31t3 38q1 6 4.5 38t3.5 40q4 19 6 23 q0 1 2 16t2 18q0 6 6 56t6 55q0 9 23 86q23 68 25 80q4 19 16 56.5t14 39.5q3 5 19 47.5t20 51.5q4 5 17.5 32.5t17.5 36.5q1 2 5 12t7.5 17t5.5 8q8 8 37 45t31 39q2 1 20 18t23 19q60 40 63 41q1 1 9.5 4t9.5 4v-12q-1 -1 -7.5 -9t-8.5 -10l-7 -6q-8 -7 -14.5 -13.5 t-7.5 -8.5q-2 -2 -12.5 -11.5t-17.5 -16.5t-7 -9q-2 -2 -5 -6.5t-5.5 -8.5t-3.5 -4q-2 -7 -20 -42t-21 -42q0 -1 -3 -6.5t-3 -7.5l-7 -27v-6v-2q7 7 28.5 24.5t27.5 20.5q9 9 45 33q4 3 17.5 7.5t15.5 4.5q20 0 40 -4t35 -4q8 0 25.5 -4t19.5 -6q5 -3 23 -20.5t24 -24.5 q17 -29 21 -39l14 -25l2 -22q2 -23 2 -29q1 -6 3 -19.5t4 -24t2 -11.5q0 -31 -7 -45q-1 -2 -11.5 -31.5t-12.5 -36.5q-2 -8 -12.5 -29.5t-14.5 -25.5q-1 -3 -11 -17.5t-22 -32.5l-16 -24q-2 -2 -10.5 -13.5t-9.5 -12.5q-3 -2 -16 -13.5t-17 -17.5q-8 -4 -23 -19 q-1 -3 -6.5 -6.5t-7.5 -3.5q-2 -1 -8 -3.5t-11 -4.5t-6 -2q-2 -2 -47 -8q-3 -1 -22.5 -3t-22.5 -3q-3 1 -15 12t-13 12q0 13 -13 39q-1 5 1 28l1 23q0 9 13 35q33 44 36 47q3 2 23.5 20t24.5 21q28 19 30 19q12 8 33 8v-13q-4 -6 -6 -8q-3 -1 -19.5 -14t-19.5 -16 q-42 -34 -45 -39q-5 -3 -17 -18.5t-12 -18.5q-1 -1 -6.5 -16.5t-7.5 -18.5q0 -2 -2 -14t-2 -13q0 -14 2 -18l2 -14q1 -3 7.5 -9t8.5 -6h25q2 0 15 2t14 2t9.5 5.5t10.5 7.5q4 2 13 13.5t10 12.5q7 10 55 109q2 3 10 22.5t10 22.5q0 3 2.5 10.5t6 16t4.5 10.5t6 20.5t6 20.5 q1 4 4 30t4 31q4 12 4 41q0 66 -2 78q0 10 -2 12l-2 10q0 3 -8 19q-4 2 -19.5 13.5t-17.5 12.5q-2 2 -13 4t-14 1h-20l-19 -5q-2 0 -12.5 -3.5t-13.5 -6.5q-2 -2 -15.5 -10t-15.5 -10q-1 -1 -10 -9.5t-12 -9.5q-1 -3 -14.5 -15.5t-16.5 -14.5l-25 -2q-1 0 -2.5 -2.5l-3 -5 t-2.5 -3.5q-2 -6 -22 -86l-7 -16q-4 -9 -12 -105q0 -2 -1 -21.5t-1 -21.5t-4 -35t-7.5 -64.5t-6.5 -45.5q-1 -6 -3 -23t-4 -30t-2 -15q-2 -7 -12.5 -62t-13.5 -67q0 -1 -3 -9t-3 -9q-3 -5 -12 -38t-11 -42q-13 -26 -33 -86q0 -3 -8.5 -20.5t-11.5 -22.5q-3 -7 -18 -37 t-32 -63.5t-18 -34.5q0 -3 -6 -18t-8 -17q-7 -21 -12 -26q-58 -77 -80 -103q0 -1 -5 -5t-11 -9t-7 -6q-2 0 -8.5 -5.5t-7.5 -5.5t-12 -6t-13 -6q-30 -10 -32 -10q-5 -2 -7 -2h-10l-39 2q-2 0 -8 4.5t-13 10.5t-9 7q-9 9 -9 15q-3 5 -9.5 22t-6.5 21q-6 53 -8 71z" />
<glyph unicode="q" horiz-adv-x="446" d="M55 -313q-2 20 -2 82q-1 7 1 36l1 29q1 1 23 94q2 12 14 60q0 3 5.5 25.5t6.5 25.5q8 34 9 35v8l-2 8q-83 -72 -95 -90q-8 -8 -18 -8q-13 0 -25 -4q-5 0 -15 1l-11 1q-37 12 -49 24q-6 0 -29 31q-2 4 -13.5 27.5t-13.5 27.5q-10 30 -10 35q-2 23 -4 31q0 4 1 16t1 13 q-1 4 1.5 22t2.5 19q2 8 8.5 28t7.5 21l52 104q30 50 32 53q2 2 10 12t17.5 22.5t13.5 17.5l5 6q4 5 16 16t22 20l11 9q5 9 26 20q6 6 17 6q6 4 63 23q17 0 21 2h20q3 -1 14 -2.5t19 -3t10 -2.5q8 -2 29 -23q1 -1 4 -20.5t4 -20.5q0 -1 2 -4.5t4.5 -8t3.5 -5.5q6 -6 10 -6 l3 -2q1 0 3 1t3 1q15 16 22 35q2 2 16 26t15 25q12 24 47 59q9 9 33 21q1 0 6 2t6 2q0 -15 -4 -23q-2 -2 -11 -17t-9 -16q-4 -5 -12.5 -17.5t-15 -22.5t-7.5 -11q-3 -11 -39 -93.5t-41 -94.5q-11 -17 -17 -45q-1 -2 -6 -28t-6 -28q-6 -13 -23.5 -77t-19.5 -76q-2 -4 -6 -23 t-8.5 -42t-5.5 -29v-9q-1 -1 -4.5 -17t-4.5 -17q0 -37 -12 -109q0 -2 -3 -17.5t-3 -17.5q-1 -17 -0.5 -45.5t1.5 -75.5t1 -61v-41q0 -5 1 -20l1 -15q1 -4 6.5 -57t7.5 -66q13 -65 13 -84q0 -8 10 -18l8 -6q6 6 25 6q4 2 16 14q8 4 27.5 17.5t21.5 15.5t23 25.5t24 29.5 q3 2 15.5 22.5t15.5 29.5q3 2 15.5 25.5t15.5 33.5q1 2 4 9t4 9q2 4 9 22t7 19q1 6 4 20t6 25.5t3 12.5v59q-6 30 -6 59q-1 4 -10 17t-9 14q-31 31 -35 33h-10h-8q-1 -1 -15 -14t-16 -15h-10q-2 0 -7.5 -1t-6.5 -1q-9 9 -9 10l-2 9v8q7 6 9 8q1 1 8 5t8 5q3 2 9.5 4t11.5 4 t6 3q12 2 14 2l18 -2q10 0 17 -7q16 -16 28 -24q11 -21 15 -25q1 -1 3 -4.5t4 -6.5t3 -3q0 -44 6 -74v-69q0 -2 -2.5 -15t-5.5 -29t-4 -24l-6 -23q-2 -5 -13 -30.5t-20.5 -47t-13.5 -28.5q0 -2 -6.5 -11t-10.5 -12l-22 -34q-18 -24 -39 -45q-1 -2 -11.5 -10.5t-11.5 -10.5 q-51 -22 -51 -27h-27q-10 -2 -32 -2q-15 5 -17 9q-21 14 -24 14q-1 1 -10 11.5t-11 12.5q0 2 -3 9t-3 8q-18 36 -23 41q-2 8 -8 25.5t-11 32t-5 16.5q-2 3 -5 16t-5.5 28t-3.5 17q0 1 -5.5 19t-5.5 20q-2 58 -2 76zM-45 143q0 -9 3 -39l3 -30q0 -9 12 -33q0 -2 6 -8.5 t9 -7.5q3 2 19.5 17t19.5 17q10 8 28.5 29t20.5 25q5 7 21 34t33.5 58t21.5 37q8 12 47 102q2 4 5 17t5.5 28t3.5 17l6 22q6 30 6 53t-2 31v35q-16 16 -18 16q-3 0 -27 8h-12h-10q-15 -10 -33 -10q-22 -11 -31 -20q-7 -4 -22.5 -18t-18.5 -19q-3 -1 -15.5 -21t-17.5 -30 q-7 -14 -14 -35q-7 -17 -23.5 -76t-19.5 -76q-8 -32 -8 -51q0 -52 2 -72z" />
<glyph unicode="r" horiz-adv-x="681" d="M131 145v48q0 25 8 49q8 40 8 43q5 8 19 49q0 3 16 35v8v8l-8 8q-1 0 -13 4t-14 4q-2 2 -16 9q-54 31 -57 34q-5 2 -28 21.5t-30 28.5q-2 2 -9.5 8.5t-8.5 7.5t-5 8t-5 8q-1 3 -4 18t-4 17v10v13q1 1 2.5 6t3 8.5t2.5 3.5q2 2 14 12.5t14 12.5q0 2 6 5t9 3q4 2 6 2l2 -2 q4 -1 13 -12t11 -15q3 -3 15 -23.5t12 -23.5q7 -14 25 -41q2 -3 6 -9.5t7 -11t3 -5.5q48 -58 51 -60q21 -12 25 -16q32 -16 33 -17l16 -16q1 -5 5 -38t5 -38v-41q8 -196 8 -211q1 -3 3.5 -28t3.5 -29t8.5 -29t9.5 -28q2 -2 4 -2l4 2q2 0 12 10t11 14q6 5 28.5 30.5 t24.5 27.5q1 1 12.5 16t12.5 16q2 4 16 22t18 19q1 3 6 12.5t10.5 19.5t6.5 11q1 2 9 13.5t9 13.5t12.5 17.5t12.5 17.5q81 101 113 147q3 5 26 35.5t25 34.5q1 2 7 13t7 13q2 1 6 4.5l8 7t5 3.5q8 0 16 -8q-13 -38 -25 -50q-2 -3 -21 -26.5t-22 -26.5q-4 -1 -13.5 -15.5 t-10.5 -15.5q-6 -8 -35.5 -42t-34.5 -41q-2 -3 -29 -41t-32 -43q-3 -13 -15 -25q-1 -2 -9 -17.5t-9 -17.5l-7 -12q-7 -11 -9 -12q-8 -12 -50 -68q-32 -40 -43 -51q-5 -6 -21.5 -22.5t-19.5 -18.5q-6 -6 -24 -6h-25h-26q-11 0 -17 6l-41 41q-11 11 -16 26q-8 16 -8 17 q-11 28 -19 59q-8 12 -8 47v47z" />
<glyph unicode="s" horiz-adv-x="372" d="M-252 -291v12q1 7 4.5 47t3.5 48v16q1 1 4.5 12.5t3.5 14.5q13 26 19 32q5 7 30.5 32.5t36.5 33.5q0 3 6.5 6.5t8.5 3.5h37h32q11 -6 15 -10l8 -8l1 -6q1 -6 1 -11l-2 -16q-4 -12 -8 -16h-12h-13q-1 1 -9 16t-9 16l-4 9h-6h-5q-1 0 -9 -3.5t-9 -5.5q-2 -1 -10 -7.5 t-18 -14.5t-13 -10l-8 -9q-1 -2 -5 -7.5t-8 -10.5t-4 -6q-3 -5 -9 -17.5t-10 -22.5t-5 -11q-8 -48 -8 -101q0 -1 8 -49q1 -1 2.5 -6t3 -11.5t2.5 -8.5q1 -1 2 -4.5l2 -7t2 -3.5q18 -23 35 -35q8 -8 18 -8h9h6q5 0 21.5 3.5t19.5 4.5q9 0 18 9q10 8 32.5 30t25.5 29 q2 0 5 5.5t3 8.5q23 62 28 86q0 4 3 29t4 29q0 3 4 26t4 25v94v96q-6 50 -8 70q-1 1 -4 25t-3 30q-1 7 -3.5 25.5t-4.5 33t-2 17.5q-2 23 -5.5 33.5t-4.5 21.5t0 47q0 2 4 21t4 22q0 2 6 34t11.5 62.5t7.5 35.5l3 15t3.5 17t1.5 8t4.5 13t8.5 23.5t5 15.5q0 6 6 18 q2 1 14 16.5t13 16.5l16 16q1 0 8.5 4.5t14.5 8t10 4.5q12 8 27 8q10 -4 16 -8l17 -17q0 -3 1 -14.5t1 -13.5q0 -6 -1 -18l-1 -11q0 -2 -8 -17.5t-9 -17.5q-5 -3 -26.5 -28t-24.5 -31q0 -9 -8 -17v-65v-68q3 -44 12 -65t15 -62q1 -2 5 -20.5t5 -20.5q6 -36 6 -59 q8 -64 8 -100v-31v-27q0 -27 -8 -51q0 -10 -6.5 -34.5t-9.5 -31.5q0 -1 -4.5 -14t-10.5 -29.5t-10 -23.5q-12 -40 -33 -82l-35 -70q-11 -21 -16 -24q-15 -20 -51 -49q-1 -3 -10.5 -9t-14.5 -8q-3 -2 -51 -26q-2 -2 -35 -2q-37 0 -39 2q-24 12 -33 18q-1 0 -8 6.5t-8 9.5 q-7 7 -16 25q-11 11 -11 16q-1 7 -8 35.5t-8 32.5v10zM174 686q-14 -2 -16 -2q-13 0 -19 -6q-2 -1 -7 -6.5t-10.5 -12.5t-6.5 -8q-7 -10 -9 -14q-10 -15 -10 -27v-41h10q3 0 26.5 22.5t33.5 35.5q0 2 4 11.5t4 12.5v35z" />
<glyph unicode="t" horiz-adv-x="458" d="M10 893q9 1 61 1t62 1q14 8 14 10q5 0 11 6l8 19q1 4 25.5 37.5t29.5 42.5q1 0 6 3t6 3l25 16q1 0 15 2t16 2q-2 -6 -4.5 -23.5t-1.5 -21.5q0 -1 -3.5 -12.5t-8.5 -25.5t-9 -19l-2 -14l-14 -29q18 1 68 -3t81 -1q3 0 36 0.5t62 2t64.5 10t54.5 22.5q24 18 40 13 q15 -5 -23 -28q-23 -15 -64 -33l-78 -12q-29 -1 -54 -2h-13q-10 1 -58 2q-7 1 -40.5 -2.5t-34.5 -3.5h-23l-10 -2q-8 0 -16 -8l-11 -10q-1 0 -4 -6.5t-4 -6.5q-17 -55 -39 -100q-2 -13 -16 -81t-21 -93q0 -5 -4 -35t-4 -31q-6 -29 -6 -47l-6 -47q0 -7 -3 -47.5t-3 -48.5 q0 -90 -2 -94q0 -65 10 -95q0 -12 4.5 -48t7.5 -40q-1 -4 5 -18t10 -18l8 -7q10 -2 12 -2q1 0 5 1t5 1q5 3 18.5 14t29 25t18.5 17l31 43q4 4 15.5 24t25 43.5t14.5 24.5q1 6 19.5 37.5t23.5 38.5l10 16l41 74q2 3 13.5 21.5t13.5 21.5l18 24q8 8 8 11h11q0 -1 -1.5 -9.5 t-1.5 -9.5l-10 -33q-9 -26 -8 -26l-35 -66q-3 -3 -10 -14.5t-15.5 -26t-11.5 -18.5l-53 -82l-24 -51q-8 -16 -19 -23q-9 -18 -24 -33q-36 -51 -43 -51q-1 -2 -13 -10.5t-14 -9.5q-4 -4 -27 -4q-22 -11 -32 -11h-41q-9 3 -33 15l-29 35l-20 26l-21 74q-1 3 -2.5 11.5t-3 14.5 t-2.5 7q0 6 -1.5 22t-2.5 29t0 16v99l2 76v-1l14 111q2 12 13 56.5t14 49.5q0 4 4 22t6 21q1 3 12.5 43t16.5 50q1 5 11.5 42.5t10.5 41.5l2 16q0 3 5.5 17t7.5 16q0 1 -4.5 4.5t-6.5 3.5q-3 0 -11.5 4t-10.5 4q-5 0 -16.5 1t-20.5 2t-10 1q-4 0 -29.5 1t-26.5 1 q-37 3 -86 -1.5t-79 -18.5q-14 -11 -33 -6q-22 4 8 26q45 14 121.5 24t101.5 7z" />
<glyph unicode="u" horiz-adv-x="727" d="M213 150q-15 -30 -16 -31q-33 -54 -84 -127q-1 -1 -8.5 -5t-8.5 -5q-15 -5 -35 -5q-4 0 -24 5q-1 1 -6 3.5t-8.5 4.5t-4.5 2q0 1 -32 33q-1 1 -4.5 7t-6.5 12t-4 9q-1 1 -4.5 9t-7.5 17.5t-6 12.5q-1 2 -5 14t-5 13q0 6 -2 27t-2 22l-1 15q-1 15 -1 20q0 6 1 23t1 18 q4 24 4 90q5 42 20 86q0 4 23 65q8 8 8 17q4 4 14 17.5t10 15.5l43 43q2 1 14.5 8t14.5 8q2 2 6 2l6 -2q3 0 11 -8v-6v-2q-17 -68 -17 -76q0 -2 -3 -21t-3 -20q-10 -20 -10 -27q-1 -13 -5 -87t-5 -87v-37v-30q1 -5 10 -95q0 -7 2 -20.5t4.5 -24t3.5 -10.5h6q1 0 10.5 14 t21 32.5t17.5 29.5q12 16 46 84.5t47 97.5q8 24 8 33q2 7 8 27.5t11 38t7 20.5q1 3 11.5 31t13.5 34q4 8 13.5 30.5t17.5 41t10 21.5q29 29 33 32l16 8q2 0 10 -6.5t9 -9.5v-2v-6q-9 -54 -9 -59q-1 -1 -5 -16t-5 -17q0 -4 -16 -152l-9 -90v-55v-55q2 -17 5 -57.5t4 -45.5 q0 -36 20 -53q11 -18 43 -2.5t55 45.5q1 1 16.5 23.5t16.5 25.5q41 57 109 156q4 8 40 63.5t44 67.5q5 12 17.5 33t21.5 36l10 15h12q0 -2 -3 -16.5t-3 -16.5q-1 -1 -10 -19.5t-12 -23.5q-22 -43 -66 -107q0 -2 -4 -10t-6 -10q-34 -50 -39 -64q-3 -1 -14 -21t-11 -22 q-2 -3 -15.5 -17.5t-14.5 -16.5q0 -4 -9.5 -18.5t-13.5 -18.5q-2 -2 -17 -24t-16 -23q-20 -34 -54 -61t-67 -31q-20 -7 -26 -7l-25 7q-29 4 -35 6q-10 0 -16 6q-3 2 -9.5 9t-13.5 14l-6 8q-10 10 -28 40q-1 4 -6 20t-12 45t-11 65z" />
<glyph unicode="v" horiz-adv-x="618" d="M80 -162q0 43 -8 135q-1 3 -5 24t-4 23q-1 3 -2.5 16.5t-3 30.5t-2.5 23q0 2 -3 36t-3 40q-10 40 -10 55q-1 2 -5 17.5t-5 17.5q-2 7 -7.5 42t-5.5 42q-3 8 -19 59t-17 58v22v19q0 2 6.5 8t9.5 8q2 2 12.5 9t11.5 9q2 0 10 3.5t9 3.5q12 6 24 10h5h4q0 -1 4 -5t4 -5 q10 -10 10 -15l3 -12q3 -11 3 -14q2 -6 9 -27.5t12 -37.5t6 -17q14 -72 33 -144q8 -20 8 -41q1 -5 5 -47t5 -47q0 -6 2.5 -19.5t3.5 -13.5h8q43 68 60 103q2 4 30 49.5t35 56.5q17 25 17 27q44 50 67 84q6 5 43 40.5t41 41.5q8 8 17 26q23 33 41 68q3 3 9.5 15.5t8.5 17.5 q14 42 14 55q0 1 4.5 10t9 19t7.5 14q0 2 3.5 10t4.5 9q1 0 3.5 -3.5t2.5 -5.5q2 -14 2 -20l-2 -12l-24 -84q-4 -18 -25 -52q-5 -10 -25 -43.5t-26 -40.5q-7 -14 -25 -32q-16 -16 -16 -17q-3 -1 -17 -11.5t-16 -12.5q-3 -4 -28.5 -33t-32.5 -35q-1 -3 -15 -24.5t-16 -26.5 q-4 -4 -14.5 -23t-22.5 -41.5t-14 -25.5q-5 -14 -23 -50t-39 -75.5t-22 -42.5q0 -2 -3.5 -9.5t-8 -18t-5.5 -13.5l-3 -9l-3.5 -10.5t-1.5 -5.5q-6 -18 -6 -61q-13 -39 -18 -49q-2 -2 -6 -10t-8 -15t-5 -8q0 -1 -14 -8q-6 -2 -10 -2l-9 2q-1 1 -7 4t-7 4q-2 0 -10 8z" />
<glyph unicode="w" horiz-adv-x="862" d="M250 193h-8q-2 0 -27.5 -39t-38.5 -62q-1 -2 -11 -28.5t-11 -28.5q-2 -3 -8 -14t-10.5 -19t-6.5 -10q-2 -5 -33 -43l-39 -47q-4 -4 -30 -4q-19 0 -27 4q-6 4 -6 6l-17 33q-2 2 -4.5 12t-5 22t-4.5 17v51v55q0 3 8 55t9 70q1 21 7.5 64.5t8.5 46.5q0 2 6 24t14 53t11 42 q0 1 6 19.5t8 21.5v6q15 60 18 69q0 1 7.5 19t9.5 22q1 1 3 7.5t4.5 12t4.5 7.5q1 0 3.5 3t4.5 3q7 7 31 19l12 8l19 -19q0 -1 3 -7t3 -7q-4 -24 -15.5 -101t-23 -160t-14.5 -100q-2 -21 -15.5 -138.5t-15.5 -137.5q4 1 10 8t6 10q2 0 27 33q1 2 9 20.5t9 20.5q6 6 18.5 29 t14.5 29q5 11 29.5 50t29.5 44q2 4 11 21.5t10 19.5q13 39 14 43q0 2 3.5 23.5t4.5 25.5q0 11 15 41q0 6 10 26q2 1 7 9l5 8q3 3 16.5 17.5t14.5 15.5q4 2 6 2l8 -2q1 0 4.5 -4.5t4.5 -4.5q6 -6 6 -18q-4 -16 -4 -90q0 -4 -2 -42t-2 -42l-3 -17v-51q3 -16 4 -58.5t-1 -47.5 q-1 -6 -1 -34.5t1 -33.5q0 -22 7 -85.5t11 -82.5q0 -2 2 -8.5t2 -7.5q0 -2 2.5 -5t3.5 -3q27 18 31 24l22 33q1 4 11 29.5t22.5 55.5t16.5 42l2 8q26 78 26 82q12 41 13 53q0 2 1.5 11.5t3.5 22.5t3 18q1 6 3 19t3.5 23t1.5 11l-1 8l-2 -3q-3 -6 -3 2v5q-12 13 5.5 39.5 t37.5 26.5q9 0 58 10t61 14q4 2 15.5 9.5t21.5 14.5t12 7q1 1 32 16t33 15q6 5 21 9t24 3q2 0 9.5 4t13.5 7t8 1q2 0 8 -6l11 -10q2 0 5.5 -5.5t2.5 -6.5q0 -1 -2.5 -1.5t-5 -1.5t-3.5 -2q-4 1 -26 -5.5t-45.5 -14t-26.5 -8.5q-2 -2 -26.5 -13.5t-26.5 -15.5q-3 0 -22 -10.5 t-23 -11.5q-3 -3 -28.5 -11t-26.5 -10q-2 1 -6.5 -1.5t-8.5 -5t-4 -1.5q-1 -2 -23.5 -4t-23.5 -4q-1 0 -3.5 -3.5l-5 -7t-3.5 -4.5q-1 -11 -23 -112q0 -12 -8 -43q-2 -10 -7 -30.5t-9 -36t-4 -17.5q-1 -7 -14.5 -42t-16.5 -42q-13 -52 -17 -58q0 -16 -10 -26l-22 -41 q-4 -3 -23.5 -21.5t-23.5 -21.5q-11 0 -27 -8h-21h-22l-14 8q-7 6 -23.5 25.5t-19.5 25.5q-3 3 -11 19t-8 22q-5 11 -12 51q0 38 -6 68q0 1 1 29t1 34q0 67 4 95z" />
<glyph unicode="x" horiz-adv-x="464" d="M82 141q-6 9 -10 9q-1 0 -8.5 -4.5t-8.5 -4.5q-10 -9 -37 -36t-30 -31q-34 -52 -47 -94q-1 0 -5 -10.5t-4 -12.5q-6 -12 -10 -16v-9q-16 -24 -16 -26h-8h-9q1 2 4.5 17.5t4.5 17.5q2 2 8 20t8 19q9 23 28.5 62t22.5 40q1 3 12.5 15t25 25.5t17.5 18.5q3 1 22.5 16.5 t20.5 16.5q2 0 5.5 3.5t3.5 4.5v31v27q0 5 -9 86q-3 14 -12.5 98.5t-9.5 99.5l-12 84v4v4q2 5 6.5 12t5.5 7q18 -6 22 -10q2 0 19 -17q21 -31 22 -35q2 -1 27 -38q1 -1 2.5 -5.5t3 -7.5t2.5 -4q3 -8 17.5 -51t17.5 -51q0 -1 3 -16t3 -17q0 -1 5.5 -15.5t9.5 -27t4 -14.5 q0 -5 3.5 -19.5t4.5 -15.5l6 -8q10 0 18 8q4 2 43 41q0 1 3.5 5.5t7.5 11t6 9.5q2 4 7.5 13.5t10 17.5t4.5 10q7 10 23.5 43t19.5 43q11 21 11 23q0 4 2.5 10t5.5 6q0 3 8 11v-17v-20q-1 -1 -7.5 -21t-8.5 -28q-2 -3 -17 -32t-18 -34q-3 -6 -21 -35t-20 -33q-3 -2 -29.5 -32 t-30.5 -33q-8 -8 -8 -17v-8v-10q23 -113 27 -123q1 -10 10.5 -49.5t22.5 -90t16 -61.5q0 -10 8 -26q3 -5 10 -21.5t7 -19.5q2 -4 8 -15.5t11 -21.5t7 -12q0 -10 25 -35q5 -10 14 -19l19 -8h32h33q1 0 9 4t10 4q1 1 7.5 9t8.5 10q16 16 16 24q0 1 4 12t4 13q9 45 9 49v68v69 q-1 2 -4.5 11.5t-4.5 11.5q0 4 -16 20q-1 0 -4.5 5.5t-3.5 7.5l-2 24q20 0 26 -6q1 0 4 -5t7.5 -12t5.5 -9q1 -1 2.5 -5.5l3.5 -10.5t4 -9q6 -24 6 -33v-69v-72q0 -17 -6 -35q-12 -12 -27 -49q-11 -22 -16 -27q-2 -1 -9 -7t-9 -7q0 -1 -3.5 -3l-7 -4t-4.5 -3l-24 -8h-35h-35 q-2 0 -11.5 3.5t-10.5 4.5q-2 2 -19 11.5t-24 12.5l-25 19q-11 8 -40 36.5t-36 36.5q-2 2 -8.5 12t-14.5 23t-12 19q-5 5 -30 55q-2 4 -13.5 25.5t-13.5 25.5q-3 9 -27 58q-18 80 -22 118z" />
<glyph unicode="y" horiz-adv-x="645" d="M-8 -383q0 20 16 68q9 27 19 47q4 3 15.5 21.5t14.5 27.5q21 21 33 39q10 15 76 92q3 3 22.5 26t22.5 27q7 15 10 15q2 11 14 78.5t13 78.5q0 5 2 26t2 25h-8q-3 -7 -18 -27t-21 -26q-29 -38 -39 -45q-1 -2 -4.5 -5.5t-8.5 -7.5t-6 -5q-4 -2 -19 -10t-17 -9q-1 0 -11 -3 t-14 -3h-4h-4q-25 10 -31 10q-20 10 -31 21q-4 4 -14 11t-12 7q-1 1 -10 17.5t-11 19.5q0 1 -3 8.5t-3 8.5l-6 36q-1 10 -3.5 31t-4.5 37t-2 18q6 6 6 62q8 32 8 72q1 1 4 10t6.5 20t5.5 15q1 4 11.5 33.5t11.5 33.5q0 11 14 39q1 7 10.5 35.5t10.5 30.5q1 3 11 23.5 t11 25.5q0 1 4.5 6t4.5 6q18 18 20 18q14 7 27 7h10l6 -2q6 -11 6 -13q-1 -4 -3 -25t-3 -24q0 -39 -4 -47q0 -6 -7 -35.5t-12 -38.5q0 -4 -5 -25.5t-5 -25.5l-35 -315q0 -13 5 -43l6 -23q0 -4 10 -14h4h4q1 1 7 5t7 5q3 2 16.5 5.5t14.5 4.5l17 17q2 2 10.5 11.5t9.5 10.5 q34 62 80 127q1 7 13.5 28.5t17.5 26.5q2 3 21 44.5t22 44.5q10 20 18 32q3 3 10 12.5t13 17.5t8 9q40 32 45 37q8 4 35 4q0 -1 -2 -12.5t-2 -13.5q-9 -19 -13 -21q0 -6 -22 -90q-15 -35 -15 -51q0 -28 -8 -60q0 -10 -2 -36t-2 -27q-2 -4 -1.5 -24.5t3.5 -26.5q6 6 10 8 q5 3 26 28.5t24 28.5l5 4q4 4 8 7.5t5 5.5q3 2 28 19.5t48.5 33.5t25.5 18q2 0 6 2t9 5t6 4q3 2 15 7.5t24.5 10.5t13.5 6q1 2 18 12l17 11l18 -15q-4 -2 -10.5 -10t-13.5 -16l-6 -9q-21 -14 -45 -22q-1 -1 -59.5 -40t-63.5 -44q-2 0 -14 -7.5t-13 -10.5l-70 -80 q-1 -2 -9 -15.5t-9 -17.5q-13 -104 -35 -242q0 -11 -10 -71t-10 -66q-2 -12 -8 -34t-9 -23q-5 -16 -26.5 -63.5t-28.5 -57.5q-3 -9 -18.5 -30t-20.5 -23q-10 -13 -61 -54q-6 -6 -37 -14q-8 -4 -27 -8t-24 -4q-6 -3 -33 10q-1 1 -8 9.5t-9 10.5q-1 3 -6 11.5t-9.5 15.5 t-4.5 8q0 9 -6 27v57q-2 20 -2 76zM23 -399q-5 -35 -5 -68v-41q6 -18 9 -18l24 -37q11 -2 17 -4l24 2q13 0 17 2q1 1 8 7t12.5 11.5t5.5 7.5q4 3 16.5 18t14.5 19q1 3 7 19t10.5 28.5t4.5 16.5q0 2 2.5 18t5 36t3.5 30q8 95 10 100q0 5 -1 46.5t-1 45.5q6 30 6 74h-8 q-1 0 -24 -28t-52.5 -66t-44.5 -60q-5 -5 -20 -28.5t-19 -34.5q-3 -3 -8.5 -12.5t-5.5 -12.5q0 -5 -4 -35.5t-4 -35.5z" />
<glyph unicode="z" horiz-adv-x="509" d="M-6 -461v27q0 11 10 31q14 28 14 34q1 2 9.5 13.5t9.5 13.5q1 0 18.5 15t24.5 18l16 8l25 8h16h17q2 0 6 -3.5t4 -4.5v-8v-10q-17 0 -35 -9q-2 -1 -13.5 -3t-13.5 -3t-5 -3t-5.5 -3.5t-3.5 -1.5q-4 -5 -22 -23t-19 -20q-2 -2 -10.5 -16.5t-9.5 -16.5t-3.5 -10.5t-4 -15 t-1.5 -9.5v-22v-19q5 -15 19 -43q1 0 10.5 -10.5t11.5 -13.5q3 -2 9 -5t12.5 -5.5t7.5 -3.5t7 -3.5t10.5 -4.5t5.5 -3h14h10q27 9 29 11l49 49l16 24l9 15q1 4 5 14.5t7 19t4 9.5q1 6 8 42t8 42q9 32 9 81v101v92q0 30 -9 61q-1 2 -2.5 12t-3 19t-2.5 10q0 1 -4.5 14t-11 30 t-8.5 24l-17 41q-2 2 -10.5 11.5t-15 16t-9.5 7.5q-1 0 -10.5 -2t-22 -4.5t-18.5 -3.5q-2 0 -20 -8t-19 -9q-24 -8 -37 -8h-22h-23q-10 5 -10 16q6 15 10 19l4 6q2 1 12 5t19 7.5t10 3.5q4 1 12 5t16 9t9 5q0 1 3 4t3 4q4 4 14 19t13 22q6 6 6 18q16 32 19 41q2 4 16 49.5 t16 49.5q29 69 35 77h-184q-12 0 -19 7q-4 6 -47 49q-8 8 -8 20q-3 3 -7.5 12t-4.5 11v43v41q0 6 12 24q0 3 7 13.5t10 13.5q12 14 14 16q3 1 11.5 5.5t14.5 8t7 3.5t6.5 1t7.5 1l14 -2q13 -5 15 -9q1 -1 3.5 -2.5t4.5 -3t2 -2.5q13 -26 16 -35q0 -6 3 -27t3 -22 q0 -3 -14 -59v-23v-28q0 -11 8 -15l15 -8h24h29q9 0 57 8q4 1 14 3t18 4t9 2q6 1 42 15t42 17q2 1 13 4t12 4h4h6l14 -14q2 -4 2 -6l-2 -4q-5 -17 -14 -25q-3 -1 -18.5 -13t-16.5 -13q-2 -2 -8.5 -7.5t-12 -10.5t-6.5 -5q0 -4 -3 -34.5t-3 -34.5q-2 -8 -10 -42l-8 -34 q-19 -29 -25 -41q-12 -23 -16 -23q-1 -1 -20.5 -25t-20.5 -28q-8 -8 -8 -14l8 -8q2 -2 28.5 -16.5t28.5 -16.5q3 -2 17 -17t18 -18q0 -1 10.5 -15.5t14.5 -17.5q1 -3 8.5 -14t7.5 -12q29 -49 41 -84q0 -1 8 -25l11 -33q2 -10 6 -31t7 -36.5t3 -16.5t0.5 -16.5t1 -34.5 t0.5 -29q0 -5 -1 -39t-1 -40q0 -1 -4 -11.5t-4 -11.5q-19 -48 -27 -61q-1 -3 -5 -10t-7.5 -13.5t-3.5 -7.5q-4 -12 -52 -68q-6 -6 -6 -8q-35 -35 -59 -51t-33 -25q-7 -5 -23.5 -14.5t-19.5 -9.5q-2 -1 -16 -4t-17 -4q-1 0 -6 -1.5t-6 -1.5l-12 3q-1 1 -12.5 4t-12.5 4 q-10 2 -37 16q-2 2 -20 19.5t-21 23.5q0 1 -3 7.5t-6.5 14t-4.5 9.5q-1 3 -3.5 11t-4.5 14.5t-2 7.5v26zM51 715q0 -6 2 -40.5t2 -39.5q0 -15 4 -19q7 4 11 11q10 20 10 32v15v10q0 2 -8.5 14t-12.5 13q-6 4 -8 4z" />
<glyph unicode="{" horiz-adv-x="933" d="M168 506l2 4q0 2 6 8q1 0 12 5t21 9.5t12 6.5q1 1 8.5 8t15 14.5l16.5 16.5t13 14q13 13 21 29q4 6 17 25l14 20q7 7 14 28q1 3 7 18.5t7 18.5l11 33t12 33q1 2 4 16t4 16q0 50 6 74q0 2 3.5 20t8 41.5t5.5 32.5q7 75 14 90q0 10 14 52q1 2 4 11.5t4 10.5q1 3 5 13 t9.5 22t6.5 16q7 19 16 29q14 25 43 68q4 2 45 43q9 9 37 30q7 5 32.5 23.5t27.5 19.5q5 0 14 9q32 16 39 16q1 0 20.5 2t20.5 2q0 -29 -4 -41l-14 -16q-14 -16 -19 -21q-5 -13 -74 -82q-10 -20 -12 -22q-22 -33 -31 -60q-1 -2 -7 -25.5t-7 -25.5q-24 -57 -29 -90 q-11 -22 -16 -37q-20 -40 -23 -43q0 -4 -6 -26t-8 -25q-8 -8 -8 -16q-16 -48 -21 -58q-1 -1 -4.5 -11.5t-3.5 -12.5q-2 -3 -5 -12l-5.5 -16.5t-3.5 -8.5q-1 -3 -8.5 -15.5t-16.5 -28t-12 -22.5q-2 -4 -12 -19.5t-11 -17.5q-47 -78 -59 -90q-3 -2 -19 -21.5t-18 -21.5 q-7 -6 -30 -28.5t-29 -30.5q2 -1 11 -7t11 -7q56 -56 66 -68q1 -2 7 -9.5t13.5 -16t9.5 -11.5q7 -14 15 -22q5 -10 17 -33.5t22.5 -45.5t11.5 -24q3 -9 22.5 -67t22.5 -66q1 -2 4 -25t4 -26q0 -33 6 -45q0 -5 4 -30.5t5 -26.5q1 -5 7 -45.5t7 -45.5q0 -41 8 -73q0 -6 3 -22 l3 -15q1 -6 14.5 -34.5t16.5 -33.5q1 -2 7 -18.5t7 -18.5q1 -1 2 -5t2 -6.5t2 -2.5q36 -42 62 -68q6 -6 29 -14q8 -4 30 -4l-2 -2q-8 -8 -14 -8q-10 -2 -14 -2l-17 2q-15 0 -43 14q-6 0 -14 8q-12 4 -23 15q-1 1 -23.5 20t-27.5 25q-4 1 -12 9.5t-10 12.5q-2 0 -11 11.5 t-12 17.5q-14 21 -14 22q-35 63 -45 88q-16 33 -23 66q-6 12 -6 45q-1 2 -8 33t-8 33q0 4 -5 28t-10 49t-6 29q-2 7 -8.5 35.5t-7.5 30.5t-7.5 28.5t-7.5 28.5q-1 5 -11 49t-11 49q-6 18 -6 29q-2 5 -11.5 29.5t-11.5 29.5q-1 2 -7.5 14.5t-6.5 14.5q-1 2 -11 15.5t-12 15.5 q-3 2 -7.5 6.5t-9.5 10.5l-5 5q-1 1 -9 4.5t-14.5 6.5t-7.5 4q-2 0 -4 2t-2 4q-2 2 -2 4z" />
<glyph unicode="|" horiz-adv-x="1163" d="M563 1303q0 2 2 7t3.5 8.5t0.5 4.5q6 6 9 6q1 -2 4 -6t5.5 -7.5t2.5 -4.5q0 -31 8 -47v-27q0 -58 4 -86q0 -2 1 -30.5t1 -30.5q0 -104 4 -136v-61q4 -58 4 -166q0 -5 -2 -75t-2 -79q0 -7 3.5 -212t2.5 -230q1 -6 -0.5 -34.5t-3.5 -56.5t-2 -30v-26q0 -3 -2 -44.5 t-2 -45.5v-25q0 -3 -1 -16t-1 -15q0 -5 -3 -24l-3 -19q-1 -1 -4 -10.5t-4 -11.5l-6 -21q-1 0 -9 -3t-10 -3q-2 -2 -13.5 -5.5t-12.5 -4.5l-2 2h-5q-10 10 -10 12l-6 8l-2 18q-2 17 -2 23v47q0 7 2 53t2 54q0 6 3 55t3 60q0 3 2 30.5t2 30.5v53q1 15 8.5 137.5t8.5 135.5 q0 3 1 27.5t1 27.5t2 30.5t2 30.5q0 89 6 113q0 3 2 32t2 32q0 20 2 22q-1 16 -1 52.5v69.5t0.5 65.5t0.5 35.5q0 44 4 56q-6 12 -6 110q0 1 1 25t1 28q-2 6 -2 70q4 17 6 21z" />
<glyph unicode="}" horiz-adv-x="933" d="M797 506v-4q0 -2 -2.5 -4t-3.5 -2q-1 -1 -8 -4t-15.5 -6.5t-9.5 -4.5q0 -2 -8.5 -10.5t-12.5 -11.5q-18 -27 -20 -31q0 -1 -8 -13t-9 -16q-16 -41 -20 -59q0 -5 -8 -29q-1 -5 -12.5 -49t-12.5 -49q-1 -2 -6 -28t-6 -29q-1 -2 -8 -30.5t-9 -35.5q-6 -36 -20 -106 q-1 -2 -8 -33t-8 -33q0 -4 -4 -23t-5 -22q-9 -43 -20 -66q-10 -25 -45 -88q0 -1 -14 -22q-3 -6 -12 -17.5t-11 -11.5q-2 -4 -10 -12.5t-12 -9.5q-12 -15 -52 -45q-12 -11 -22 -15q-8 -8 -15 -8q-35 -14 -45 -14q-10 -2 -14 -2q-2 0 -7.5 1t-6.5 1q-7 0 -15 8l-2 2q23 0 31 4 q29 10 29 14q36 36 59 68q1 0 8 14q1 2 7.5 18.5t7.5 18.5q3 5 16 33.5t14 34.5q2 2 4.5 16t2.5 21q8 32 8 73q1 5 7 45.5t7 45.5q1 1 4.5 26.5t3.5 30.5q6 12 6 45q1 3 4.5 26t4.5 25q3 12 22 69t21 64q45 89 53 103q6 6 14 22q2 4 16 19.5t15 17.5q15 18 65 68q14 7 21 14 q-4 7 -26.5 29.5t-30.5 29.5q-2 2 -18 21.5t-19 21.5q-15 15 -60 90q-1 2 -10.5 17t-11.5 20q-32 51 -37 66q-1 1 -3.5 8.5l-5.5 16.5t-5 12q0 2 -4 12.5t-5 11.5q-1 5 -11.5 31t-10.5 27q0 10 -6 16q-1 2 -7.5 25.5t-7.5 25.5q-1 1 -22 43q-9 27 -14 37q-15 53 -31 90 q-1 2 -7.5 25.5t-7.5 25.5q-10 30 -30 60q0 1 -3.5 5.5t-7 9.5t-4.5 7q-3 4 -36 40.5t-37 41.5q-2 3 -9.5 12.5t-13.5 16.5t-6 8q-8 24 -8 41q3 0 22.5 -2t22.5 -2q1 0 8 -3t16 -7t13 -6q2 -1 5 -3t5.5 -4t3.5 -2q2 -1 27 -19.5t32 -23.5q28 -21 37 -30q5 -4 24 -23t21 -20 q29 -44 43 -68q8 -8 15 -29q2 -5 12.5 -26.5t11.5 -24.5q0 -10 6 -22q15 -45 15 -52q1 -1 16 -90q1 -10 4 -32.5t5.5 -41t2.5 -20.5q1 -6 5 -37.5t4 -36.5q1 -2 4 -16t4 -16q10 -15 20 -66q1 -3 8.5 -18.5t8.5 -18.5t4.5 -9.5t6.5 -12t3 -6.5l13 -20q14 -19 18 -25 q2 -3 7 -10t8.5 -12.5t4.5 -6.5q4 -5 13 -14l16.5 -16.5t15 -14.5t8.5 -8q2 -2 12.5 -6.5t21.5 -9.5t12 -5q6 -6 6 -8v-4z" />
<glyph unicode="~" horiz-adv-x="391" d="M127 1331h-4h-4q-2 -2 -14.5 -14t-14.5 -14q-7 -14 -24 -31l-9 -8h-2h-2q-12 6 -16 14q-2 2 -2 4l2 4q0 1 8 17q3 4 11.5 19.5t9.5 16.5q2 2 17.5 18t18.5 19q6 6 17 6h20h25q6 0 12 -6l37 -37q28 -42 31 -45q2 -4 14 -16q2 -2 4 -2l4 2q3 3 15 16t14 15q1 1 10.5 21 t11.5 22q7 13 23 24h4h4q6 -6 6 -8v-12v-10q-3 -9 -17.5 -38.5t-19.5 -35.5q-6 -9 -28 -31q-21 -14 -31 -14q-1 0 -7.5 -1t-8.5 -1l-21 2q-4 0 -20 8q-2 1 -6 2t-7.5 2t-3.5 2q-2 1 -6.5 6t-8.5 10.5t-5 6.5q-12 12 -17 22q-14 21 -20 45z" />
<glyph unicode="&#xa1;" horiz-adv-x="765" d="M580 776l-5 -8l-8 -8q-1 0 -8 -1t-8 -1q-10 2 -12 2l-11 2q-2 2 -6.5 11.5t-5.5 10.5q6 11 6 15l4 16q0 1 4.5 4.5t6.5 3.5q1 -1 10.5 -2.5t11.5 -3.5l12 -4q2 -2 6.5 -12.5t4.5 -14.5q-2 -6 -2 -10zM449 514q0 -2 -1.5 -7.5t-1.5 -6.5q-3 -20 -45 -131l-6 -19 q-30 -90 -39 -108q0 -13 -28 -76q-3 -6 -9.5 -24t-11.5 -31.5t-8 -14.5q-2 -5 -29 -65t-30 -66q0 -4 -10.5 -26t-10.5 -23q-1 -1 -6.5 -7.5t-7.5 -8.5q-3 -7 -12 -19t-11 -12q-1 -1 -12 -7.5t-16 -8.5q-2 0 -13.5 -4t-11.5 -5q-2 -2 -15 -9t-16 -7q-4 2 -6 2l-6 2 q-2 12 -2 16q-1 6 -0.5 20.5t1 24t-0.5 13.5q0 1 1.5 6t3.5 12t3 10q0 4 2 16t2 13q5 7 20.5 49.5t16.5 44.5q0 1 2 8.5t2 8.5q21 42 35 63q10 21 56.5 99.5t50.5 85.5q4 13 38 55q6 12 25 31q3 1 14.5 22.5t14.5 30.5q4 4 16.5 27t15.5 34q3 5 25 43.5t27 44.5l8 4l6 -6 q3 -3 -16 -84q-2 -8 -4 -10z" />
<glyph unicode="&#xa2;" horiz-adv-x="362" d="M88 -29q-59 27 -68 104q-3 18 -4 72q1 1 1 13.5t1 15.5v29q0 13 15 65q0 1 2 8.5t4.5 16.5t3.5 12q2 3 6.5 15.5t5.5 13.5q0 1 25 51q1 0 7 9t14.5 21t13.5 17q18 27 22 35q19 19 19 23q5 2 22 16.5t19 15.5q1 0 10 5.5t12 5.5q1 1 9.5 4t9.5 4q2 0 12.5 3.5t11.5 4.5 q6 7 10.5 11t6.5 8l8 16q1 4 8.5 15.5t7.5 12.5q9 9 16 23q4 4 19 4q1 0 3.5 -4t2.5 -6q-11 -11 -27 -35q-1 0 -3.5 -6t-2.5 -8q-2 -6 -5 -9t-5 -16l2 -14q1 -1 10 -4.5t11 -3.5q2 -1 6.5 -5t5.5 -4q21 -19 19 -73.5t-23 -65.5l-10 8q17 66 0.5 99.5t-42.5 27.5t-42 -16 q-1 -1 -3 -2.5l-4 -3t-2 -2.5q-20 -20 -24 -35q-8 -8 -8 -12q-5 -5 -21 -37q-1 -2 -12.5 -29.5t-13.5 -34.5q-9 -18 -23.5 -54.5t-13.5 -39.5q-3 -4 -9 -24t-6 -25q0 -1 -1 -11t-2 -23t-1 -19q-2 -12 -2 -52q0 -45 2 -51q0 -9 12 -33q9 -12 13 -14q2 -4 11.5 -6t18.5 -1t9 5 q10 3 32 33q1 0 4.5 4t8.5 9.5t6 6.5q17 34 24 41q2 2 6.5 19t6.5 20q-1 0 0.5 4.5t3.5 9.5t2 7q2 2 5 7.5t5 6.5q2 -2 4 -2l4 2q0 -2 6 -8v-4v-4q-35 -123 -98 -162q-18 -9 -28 -19q-3 -2 -17.5 -6.5t-15.5 -5.5q-8 -16 -17.5 -34.5t-14 -28t-10 -18.5t-9.5 -13t-9 -6h-8 q0 2 3 18.5t3 18.5l5 14h1q0 -3 2 2q2 4 5 14q3 2 13 22t7 21z" />
<glyph unicode="&#xa3;" horiz-adv-x="768" d="M-86 -119l2 4q0 1 18 19q6 5 36 37t34 39q12 8 47 43q-1 1 0.5 4t3.5 6.5t2 5.5q1 2 18 23t19 24q1 1 2.5 3.5t3.5 4.5t4 2q0 4 14.5 32.5t16.5 33.5q11 33 23 49q4 6 17 42t15 40q2 3 4.5 12t5 16.5t3.5 8.5v4l2 4q-1 1 -2 3.5t-2 4.5t-2 2q-9 -2 -13 0l-12 2 q-14 -4 -20 -4q-25 -5 -39 -12q-3 -1 -17 -4t-16 -4q-2 0 -8.5 -4.5t-14 -9t-8.5 -5.5h-12q-1 0 -6 2t-6 2q1 1 5 6.5t5 6.5q4 6 18 20q3 2 25 10q5 1 24.5 9t22.5 8l7 1q7 1 12.5 1.5t9.5 -0.5q2 0 22 1t25 1q10 6 14 6q1 0 4 3t4 3q58 222 140 371q3 3 15.5 21.5t28.5 42 t21 30.5q1 1 9.5 10t9.5 10q9 8 30.5 24.5t40 30.5t19.5 15q2 1 35 12.5t44 14.5q2 0 14.5 1t14.5 1q1 0 17 -2t18 -2q174 -45 84 -248q-32 -57 -50.5 -87.5t-54 -75.5t-73.5 -77l-17 -12l-4 -2l-4 2l-4 8q-2 4 -2 6l2 2q3 1 16 21q35 39 63 73t44.5 55.5t31 45.5t19 33 t13.5 27.5t10 21.5q7 34 10 37q0 73 -12 108q-3 0 -11 8q-20 20 -42 25.5t-64 5.5q-19 -4 -25 -4q-9 0 -30 -14q-10 0 -21 -11q-40 -25 -74.5 -94.5t-55.5 -142.5t-49 -162t-52 -137l-2 -6q1 0 5 -1t6.5 -1.5t4.5 0.5q19 0 39 12q2 0 9 2.5t17.5 6.5t14.5 5q3 4 25 15.5 t30 13.5l13 -2v-8q0 -1 -23.5 -18t-36.5 -25q-4 -4 -14 -4q-2 0 -14 -6t-13 -7q-54 -18 -67 -18q-3 -2 -10 -7.5t-7 -6.5q-9 -13 -32.5 -62t-28.5 -63q-18 -27 -21 -33q-15 -31 -20 -31l-9 -10q-8 -10 -16 -19t-10 -10l-4 -6q-4 -5 -6 -6q-3 -6 -30.5 -37.5t-33.5 -36.5 q0 -1 -2 -7t-2 -7q6 -1 35.5 -5t57 -7.5t34.5 -3.5q1 0 17 -6.5t20 -8.5q2 -1 32 -15t34 -16q6 -3 39.5 -10.5t46.5 -9.5q0 -1 10 0.5t18 3.5q7 0 30.5 5.5t31.5 10.5q1 -1 4 0t7.5 2t6.5 1q2 2 7 4t8.5 3.5t3.5 2.5q20 10 43 33q3 0 22 28q1 4 15.5 35t15.5 35q2 2 4 7 t3.5 8t2.5 3q7 15 8 15q1 3 12 10.5t15 9.5q4 4 14 4h12q2 -2 13 -2q4 -4 4 -6q0 -1 2 -9t2 -9q0 -23 -14 -72q-20 -30 -23 -33q-3 -4 -18 -22t-17 -21q-4 -1 -25 -17.5t-22 -17.5q-2 -2 -26 -14q-2 -1 -13 -4t-21 -6t-12 -4q-8 0 -24 -4q-45 -9 -53 -9q-8 -2 -37 -2 q-19 0 -43 4q-6 0 -23 5l-16 4q-3 0 -31.5 9.5t-30.5 10.5q-4 0 -16 12q-33 16 -33 17q-2 2 -18.5 7.5t-20.5 8.5q-14 0 -26 4q-6 0 -18 1l-11 1q-3 1 -8.5 0.5t-14 -1.5t-10.5 -1q-2 -2 -13.5 -6.5t-16.5 -3.5q-12 -12 -23 -12q-20 -10 -31 -21q-10 -4 -39 -26.5t-34 -28.5 h-9l-8 2q-2 0 -6 3.5t-4 4.5q-2 2 0 4z" />
<glyph unicode="&#xa4;" horiz-adv-x="649" d="M285 -66h-4q-32 -16 -37 -16l-15 -1q-15 -1 -18 -1q-5 0 -20 1l-15 1q-8 0 -29 16q-1 1 -10 6.5t-10 6.5l-16 8h-15h-6q-2 -1 -7.5 -7.5t-10.5 -13.5t-6 -8q-4 -5 -16.5 -17.5t-22.5 -23t-11 -12.5q-2 -2 -32 -12q-1 0 -4.5 -1t-4.5 -1l-12 2q-2 0 -5 2.5t-3 3.5 q12 12 16 14q2 1 18.5 11.5t18.5 11.5q19 19 21 22q1 0 11 13t13 16q3 8 14.5 25t14.5 20q-13 29 -13.5 93t10.5 135.5t37.5 142.5t61.5 110q6 13 3 23.5t-7 13.5t-15 18.5t-20 38.5q-2 2 -7 15t-5 16q-2 4 -2 6l2 9q0 2 2.5 5t3.5 3h17h14l29 -29q0 -8 8 -16q12 -36 12 -45 q0 -1 3 -4t5 -3q5 2 37 23q4 3 14.5 7.5t20 8t10.5 4.5q1 0 9 2t19 4t17 3h2h4q2 -1 15.5 -4.5t15.5 -4.5q1 -1 7 -3t7 -3q16 -16 37 -30q8 9 22 30t28.5 31.5t45.5 20.5h15h16q0 -1 3 -7.5t3 -7.5t-3 -3t-3 -3q-1 -1 -11.5 -4.5t-12.5 -3.5q-26 -4 -43 -37q-7 -7 -23 -31 q-3 -3 -11.5 -17.5t-10.5 -19.5q5 -34 8 -64t0.5 -60t-3.5 -51t-10 -52t-12.5 -45t-18 -48.5t-19.5 -45t-24 -50.5t-24 -51q-2 -9 -6 -18t-4 -12t2 -19q0 -2 3.5 -12.5t4.5 -11.5q21 -42 21 -49l16 -37q0 -9 -8 -17q-19 10 -23 17q-3 1 -14 12.5t-14 15.5q-1 1 -7.5 10.5 t-7.5 10.5q-2 2 -11.5 12.5t-10.5 11.5h-4zM240 481q-40 -103 -60.5 -193t-23 -149.5t5.5 -103.5t22 -64.5t29 -23.5q8 -2 10 -2t8 1t7 1q4 0 28 16l8 8q2 3 14.5 18.5t14.5 18.5q1 2 7 10.5t7 10.5q41 49 87.5 213.5t17.5 253.5q-2 2 -8 13.5t-6 14.5q-1 1 -8.5 7.5 t-8.5 7.5q-2 2 -11.5 8.5t-10.5 7.5h-17h-20q-5 0 -21 -8q-1 -1 -8 -4t-8 -4q-2 -2 -11 -8t-10 -7q-10 -8 -22 -24t-12 -19z" />
<glyph unicode="&#xa5;" horiz-adv-x="585" d="M0 -123l2 4l33 33q2 2 10.5 12t9.5 11q0 1 4 7.5t8 14t5 10.5q2 5 11.5 25.5t10.5 23.5q4 17 22.5 74.5t22.5 75.5q1 2 17.5 51.5t17.5 56.5v37l-88 11q-8 0 -16 8q-1 0 -4 3t-3 5q0 1 3.5 4.5t5.5 3.5q25 0 37 -6q1 0 10 0.5t20.5 1t16.5 0.5q4 1 13 1.5t16 1t8 1.5 q4 0 8 4q1 1 3 8.5t4.5 16.5t4.5 12v14q-7 0 -12 5q-6 -2 -54 -2l-12 1q-12 1 -18 1q-5 0 -16 2l-11 2q-4 0 -18.5 5t-16.5 7q-2 0 -8.5 3.5t-7.5 6.5q-6 6 -6 8q-2 2 -2 9q2 0 15 -2.5t15 -2.5q2 -2 15 -7t16 -5q15 -4 21 -4q6 -2 22 -2q29 2 39 2q8 4 29 4q2 1 7.5 2 t9.5 2t5 2q9 6 11 6q3 2 11.5 23.5t8.5 32.5q-3 2 -10 9t-14.5 15t-8.5 9q-35 54 -50 153t-12.5 191t4.5 179v10.5t0.5 9t0.5 9.5l-23 23q-1 1 -9 6t-9 6q-2 0 -5 2.5t-3 3.5t4 5t6 4q12 -2 18 -4q5 0 15 -1l10 -2q1 -1 9 -4.5t11 -5.5l13 -10q6 -3 21.5 -23t17.5 -26 q0 -2 6 -14q1 -3 5 -19.5t5 -19.5q0 -19 4 -23q9 -45 7 -109t-8.5 -121t-3.5 -116t22 -94q5 7 35.5 61.5t39.5 73.5q26 48 44 80t49 79.5t63 79.5t63 46q42 14 56 14h16q13 0 21 -4q6 -6 6 -17q0 -1 -4 -3.5t-6 -2.5q-52 -4 -60 -6l-16 -4q-29 -21 -52.5 -43.5t-46 -55.5 t-33 -49.5t-36 -62.5t-31.5 -57q-4 -8 -24.5 -61t-22.5 -56q-10 -25 -10 -63q-1 -2 -4.5 -14.5t-6 -22.5t-2.5 -13q1 0 14 1t15 1q3 0 19.5 4.5t19.5 6.5q69 9 88.5 8t50.5 -12q7 -7 8 -7q0 -1 1.5 -3t1.5 -3q-24 0 -48 4q-1 0 -8 -0.5t-16 -1t-14 -0.5q-2 -1 -14.5 -2 t-14.5 -2t-11.5 -3t-11.5 -3q-3 -1 -13 -3t-17 -3.5t-9 -1.5q-6 -2 -17.5 -6t-20 -7t-9.5 -3t-10 -29q-4 -4 -4 -12v-11q0 -2 2.5 -5t3.5 -3l6 -2h8q25 0 33 4q11 -2 15 -2q2 0 7.5 -1t6.5 -1q4 -2 12 -10q2 -2 2 -12q-1 0 -12 1t-12 1t-14 -2t-17 -2q-21 -7 -25 -7 q-27 -9 -28 -10q-3 0 -7 -7.5t-4 -12.5q-14 -43 -30 -121q-8 -30 -8 -36l-1 -2q-4 -10 -14 -34q-1 0 -4.5 -9.5t-3.5 -12.5q-2 -4 -13 -21.5t-18.5 -30.5t-7.5 -16q-3 -5 -15.5 -23t-13.5 -20q-4 -4 -25.5 -26.5t-25.5 -26.5q-1 -1 -19.5 -16t-19.5 -17q-2 -1 -17.5 -5 t-17.5 -5h-4l-8 2q-7 7 -6 8q-2 2 -2 4z" />
<glyph unicode="&#xa6;" horiz-adv-x="458" d="M-35 -223v4q4 6 22 64.5t19 60.5q13 63 25 94q3 11 13.5 44t10.5 34q21 56 42.5 117t28 79t15.5 37t21 37q0 11 12 35q13 26 14 27q0 3 11 14q2 -2 4 -2h2q4 -8 4 -25q0 -1 -1.5 -10l-3.5 -21t-3 -16q-19 -70 -72 -287q-33 -115 -33 -120q-11 -53 -49 -172 q-9 -18 -12 -21l-12 -12l-5 -6q-4 -4 -26 -4l-4 2h-4q-2 2 -9 9.5t-8 8.5q-1 0 -1.5 5t-1 11.5t-1.5 8.5q2 2 2 4zM203 563q0 5 3 18l3 13q1 3 11.5 33t23.5 67.5t18 55.5q8 16 17 43q1 2 8 23.5t8 23.5q1 1 4.5 9.5t7 16t4.5 8.5t4.5 11t7 19t5.5 11q1 7 15 50t17 51 q24 47 29 69q0 8 25 41q8 13 10 13q0 1 3.5 3.5t7.5 5t5 3.5q1 -1 3 -8t3 -8l-2 -5v-4l-12 -18q-8 -16 -22 -72q-11 -57 -31 -123q-4 -10 -19.5 -74t-17.5 -77q-7 -7 -23 -70q-7 -17 -24 -86l-23 -78q-11 -21 -20 -26q-4 -4 -14 -4h-9l-8 2q-6 0 -12 12q-3 3 -6.5 12 t-3.5 11q2 22 4 28z" />
<glyph unicode="&#xa7;" horiz-adv-x="804" d="M27 -104q0 7 1 32.5t1 26.5q0 13 8 29q1 7 7.5 20.5t8.5 15.5q2 4 16 19t21 18q9 9 12 9h27h27q1 0 28 -9q9 0 17 -4q2 -2 10.5 -8.5t9.5 -7.5l45 -45q7 -7 29 -51q2 -4 11.5 -22.5t10.5 -20.5t4.5 -12.5t4.5 -12.5q6 -24 6 -43q0 -5 -6 -23l-9 -14q-8 -8 -14 -8h-14h-15 q-8 0 -16 8q-3 1 -8.5 7t-5.5 7q-10 19 -15 46q-8 16 -8 36q-8 24 -8 29q-2 7 -14.5 45t-14.5 45q-2 5 -13 16.5t-15 12.5q-1 0 -11 1t-12 1l-22 -2q-3 -1 -14 -12t-15 -17q-18 -26 -25 -45q0 -3 -2 -15t-2 -14l-1 -16q-1 -15 -1 -20q0 -4 0.5 -13t1 -16t0.5 -8 q6 -45 17.5 -86.5t31.5 -86.5t53 -73t74 -29q25 0 37 6q5 2 37 23l37 37q24 27 35 67.5t12.5 73t-6.5 82t-12.5 68t-14.5 57.5q0 11 -6 29q-39 112 -45 135q-8 8 -8 12q-6 6 -6 25q-1 1 -4 9t-6.5 17.5t-4.5 10.5q-5 10 -16 43q-6 18 -6 30l-1 12q-1 12 -1 17l2 29 q0 10 6 22q1 1 2.5 5.5t3 7.5t2.5 4q34 34 37 36q2 1 14.5 7.5t14.5 7.5t18 3t19 3h8h8q2 -1 14.5 -7t14.5 -7q16 -8 45 -37v10v12q-10 20 -15 45q-3 7 -19 44.5t-17 43.5q-1 1 -4.5 9t-7.5 17.5t-5 10.5q-6 6 -6 15q-20 40 -31 73l-6 18q-7 19 -13.5 37.5t-8.5 26.5 q-9 18 -9 21q-14 49 -14 53q-8 32 -8 53l-1 13q-1 13 -1 18t1 16l1 11q0 11 16 67q1 1 4 10t6 19.5t5 13.5q9 39 42.5 78t75.5 63q41 28 91.5 32.5t96.5 -13t81.5 -61.5t46.5 -105q25 -71 15.5 -160t-56.5 -149l-4 -4q-4 -5 -7.5 -8.5t-5.5 -4.5q-1 -1 -11 -8t-11 -8 q-2 0 -11.5 -3t-16.5 -4.5t-19.5 -3t-27 0t-30.5 6.5q-3 0 -13.5 4t-14.5 8q-1 0 -7 7t-8 10q-10 10 -22 28l-14 21q-21 32 -31 61q-9 29 -14 51q-2 4 -2 6l2 9q0 8 8 16q1 1 10.5 10t11.5 11q1 1 7.5 4t7.5 4h12h10q10 -9 14 -23q1 -5 43 -110q31 -62 37 -76q0 -1 2 -1.5 l4 -1t3 -1.5q23 -23 45 -8q3 2 10 7t12 8.5t6 4.5q33 42 50.5 107.5t11.5 130.5q0 11 -4 25t-11.5 31t-9.5 25q-1 2 -7.5 16t-12.5 27t-9 17q-2 2 -8.5 10.5t-7.5 9.5q-43 46 -117 49t-125 -32q-6 -5 -23 -22t-22 -23q-1 -1 -5 -9.5t-9.5 -20t-7.5 -15.5q-8 -16 -8 -23 q-1 -8 -8 -39.5t-7 -34.5l-1 -7q-1 -7 -1 -11l2 -18q0 -1 1.5 -9.5t3.5 -20t3 -16.5q7 -28 7 -36q0 -12 30 -66q2 -5 24 -52.5t28 -58.5q0 -8 8 -16q12 -36 37 -86q8 -31 14 -37q20 -59 22 -61q7 -21 7 -37v-43v-45q0 -2 -7 -37q-1 -3 -3 -10t-3.5 -12.5t-1.5 -6.5 q0 -2 -6.5 -15l-7.5 -15q-9 -18 -14 -23q-1 -1 -7.5 -7t-7.5 -7q-3 -2 -15.5 -12t-14.5 -11q-4 -4 -15.5 -9t-13.5 -5q-11 -1 -42 -1t-40 1q41 -98 82 -178q1 -2 7.5 -17t13 -32t8.5 -25q1 -2 4 -10.5t4 -10.5t2 -9.5t2 -13.5t2 -7q1 -4 4 -26t4 -25v-21v-16 q-11 -125 -96 -201q-1 0 -20 -13.5t-25 -15.5q-8 -8 -15 -8q-42 -14 -59 -14l-13 -1q-13 -1 -18 -1q-44 0 -80.5 26.5t-57.5 64t-35.5 79t-20 71t-4.5 41.5l-1 10q0 11 -0.5 23.5t-0.5 18.5zM287 375q0 -3 1 -15l1 -12q0 -10 6 -22q0 -7 8 -15q4 -12 14 -22q3 -4 14.5 -16 t16.5 -15q0 -1 5.5 -3.5t8.5 -2.5q2 -1 8 -3t10 -3.5t5 -1.5q10 -2 14 -2q2 0 8 1t7 1q6 0 14 8q2 0 16 14q1 1 7 14t8 15q6 12 6 22v15v16q-1 2 -3 14.5t-3 14.5q-8 8 -15 22q-21 21 -22 23q-2 1 -11.5 7t-11.5 7t-11 4t-11 4h-10h-13q-2 -1 -14 -4t-14 -4q-1 -1 -7.5 -4 t-7.5 -4t-4 -3t-4 -3l-14 -23q0 -1 -1 -11t-1 -13z" />
<glyph unicode="&#xa8;" horiz-adv-x="368" d="M27 1352l2 8q0 8 8 16q1 2 9 8l7 5h13h16q1 -1 7 -6.5t7 -6.5v-14v-16q0 -9 -6 -15l-16 -16q-1 0 -6.5 -1t-6.5 -1l-8 2q-1 0 -8 6.5t-8 9.5q-8 8 -8 15q-2 4 -2 6zM252 1331q0 2 -1 12.5t-1 12.5q0 4 1 15l1 11q0 9 6 15q3 4 12 13t11 9q8 2 10 2q1 0 6 -1t6 -1 q4 0 12.5 -9t10.5 -13q0 -1 1 -8t1 -9l-2 -20q-1 -3 -4 -9t-6.5 -12.5t-4.5 -7.5q-1 -2 -11 -9l-11 -7q-6 -2 -8 -2l-7 2q-8 0 -16 8q-1 0 -3.5 3t-2.5 5z" />
<glyph unicode="&#xa9;" horiz-adv-x="1191" d="M621 883h8q72 -9 73 -9q18 0 54 -12q1 -1 13 -4.5t15 -3.5l13 -8q49 -21 53 -21q6 -2 8 -2l8 2q1 1 21 14t22 15q1 0 3.5 1.5t6.5 3.5t5 3q30 12 37 12q25 5 59 5v-17q-5 -2 -34 -12t-34 -12q-15 -4 -57 -29q-2 -2 -2 -8t2 -6q5 0 20 -15q4 -4 30.5 -30t31.5 -31 q4 -3 12.5 -12.5t16.5 -18.5l8 -10q47 -74 63.5 -167.5t8 -178.5t-34.5 -172q-11 -22 -17 -31q-3 -7 -22 -39t-21 -35q-1 0 -5 -6t-9.5 -14t-7.5 -10q-7 -8 -21.5 -26t-26 -32.5t-12.5 -15.5q-3 -4 -31.5 -32t-35.5 -34q-8 -8 -29 -22q-3 -1 -18.5 -11.5t-18.5 -11.5 q-5 -3 -29.5 -14.5t-27.5 -13.5q-1 -1 -23.5 -10.5t-29.5 -12.5q-51 -17 -110.5 -23.5t-131.5 4t-129 42.5q-5 4 -21 14.5t-29 19t-16 11.5q-9 7 -33.5 30.5t-31.5 34.5q-13 13 -25 29q-22 33 -28 45q-13 13 -21 37q-21 35 -33 59q-1 2 -6 18.5t-6 18.5q-31 131 0 257.5 t82 209.5q4 11 29 45q3 2 18.5 20.5t18.5 20.5l45 45q28 28 43 37q4 3 13 11t15.5 14t7.5 6q5 2 23.5 15.5t21.5 14.5q1 1 14 6.5t29 12.5t23 10q4 1 19.5 7.5t17.5 6.5q18 6 31 6q2 0 24 2t50.5 4t41.5 3h9zM102 432q-27 -92 -18 -195.5t55 -187.5q2 -6 16 -28t15 -25 q1 -2 7 -10.5t7 -10.5q27 -43 45 -61l37 -37q15 -15 60 -45q61 -34 171.5 -37.5t145.5 17.5q1 0 8.5 3t16.5 6.5t12 4.5q5 2 17.5 7.5t22.5 9.5t11 5t10 6.5t17 10t10 4.5q8 0 16 8q3 2 18.5 14.5t18.5 14.5q52 52 58 61q3 3 25.5 29t27.5 29q2 4 37 53q25 35 45 65 q27 49 39 140t-1 197t-55 173q-18 30 -28 45l-54 54q-4 4 -20 12q-2 1 -8 3t-10 3.5t-5 1.5l-9 -8q-9 -8 -13 -12q-21 -32 -29 -37q-2 -2 -8.5 -13t-7.5 -12q-12 -18 -12 -28q-1 -3 -5 -18.5t-4 -18.5q-8 -16 -8 -29q-1 -3 -4.5 -23t-7 -37.5t-4.5 -21.5q-1 -2 -2 -11.5 t-2 -10.5q-9 -12 -33 -60l-4 -8h-8h-9q-2 0 -5 3t-3 5t3.5 12t4.5 11q1 3 4.5 22t4.5 21v24v21q-1 3 -4.5 18.5t-4.5 18.5q-1 1 -7.5 13.5t-8.5 14.5q-2 3 -6.5 13.5t-5.5 11.5t-8.5 4t-8.5 4h-12h-8q-2 -1 -15.5 -4t-15.5 -4q-1 -1 -7 -4t-7 -4q-12 -6 -23 -17 q-1 0 -3.5 -2t-2.5 -4q-1 0 -2.5 -3t-3 -6.5t-2.5 -4.5q-2 -5 -8 -19t-10.5 -23.5t-4.5 -10.5q-1 -2 -7 -29t-7 -29q-13 -39 -16 -45q-15 -45 -15 -59v-37q-6 -30 -6 -103q0 -2 -1 -31t-1 -36q0 -8 0.5 -22.5t0.5 -25.5l1 -12q0 -4 5.5 -27t9.5 -30q0 -10 6 -16 q1 -4 7.5 -9.5t8.5 -5.5l14 7q39 39 43 45q1 1 6.5 10.5t11 20t7.5 14.5q1 1 3 13.5t3 14.5l15 45q1 2 4 14.5t4 14.5q6 2 8 2l6 -2q6 -6 6 -14q-4 -23 -6 -29q-9 -36 -14 -51q-2 -6 -6 -17t-7.5 -19t-3.5 -9l-8 -13q-8 -13 -12 -16q-4 -5 -13 -16t-16 -19.5t-8 -9.5l-16 -8 q-16 -8 -21 -8q-1 0 -11.5 -1t-12.5 -1l-21 2q-6 0 -22 16q-3 1 -15 17t-14 20q-2 0 -5 3.5t-3 4.5q-3 5 -12.5 23.5t-10.5 19.5q-3 8 -8.5 34.5t-5.5 33.5l-1 15q0 15 -0.5 34t-0.5 29q0 8 0.5 26t0.5 34l1 15q10 48 14 68q1 2 2.5 9t3 13t2.5 7q7 20 9 22q6 16 31 67.5 t34 65.5q0 1 6.5 10.5t7.5 12.5q15 20 23 28q7 7 22 17q2 2 21 10t22 10q1 0 6 2t11 4t8 3t14.5 4t14.5 4h8h6q24 -8 31 -8q4 -3 14.5 -13.5t13.5 -15.5q3 -6 15.5 -36t13.5 -32h8q0 4 9 31q1 2 3.5 14.5t5 22.5t3.5 12q4 22 16 45l10.5 21t10.5 24q1 2 16 22.5t16 22.5 q1 1 2.5 4.5t2.5 7t2 3.5v2v4q-2 1 -21.5 11.5t-21.5 12.5q-12 6 -25 6q-30 6 -66 15q-5 1 -19 2.5t-25.5 3t-14.5 2.5h-37h-37q-4 -1 -33 -4t-34 -4q-1 -1 -7 -2.5t-13 -3t-9 -2.5q-21 -7 -22 -7q-17 -4 -60 -30q-15 -10 -37 -21q-3 -3 -19 -14.5t-18 -13.5 q-7 -8 -48 -49.5t-48 -49.5q-10 -10 -28 -37q-2 -3 -11.5 -18t-11.5 -18q-41 -82 -43 -88q-11 -22 -16 -37q-9 -18 -9 -23z" />
<glyph unicode="&#xaa;" horiz-adv-x="473" d="M213 879q-1 -1 -6 -6.5t-6 -6.5q-10 -15 -25 -45q-3 -6 -29 -45l-20 -20q-1 0 -6.5 -1t-7.5 -1l-17 2q-10 0 -14 4l-8 8q-1 2 -6 8.5t-8 11t-3 5.5q-1 4 -10.5 33t-9.5 32q0 1 -0.5 8.5t-1 17.5t-0.5 15q0 6 1 27l1 20q0 7 8 31q25 86 88 162q2 2 14 8q3 0 16 3l13 3 q13 -6 17 -6l8 -8q1 -3 10 -16.5t10 -14.5q8 -8 8 -14v-33v-33q0 -6 -8 -14q-6 -2 -8 -2l-6 2q-1 0 -3.5 2t-2.5 4v6v8q0 2 3 19t3 18q0 11 -6 23l-8 14q-2 2 -9 8.5t-8 7.5h-6h-6l-4 -4q-5 -3 -8.5 -6.5t-4.5 -5.5q-7 -6 -14 -29q-1 -1 -3 -13.5t-3 -14.5q-8 -40 -8 -45 q0 -1 -8 -119v-6v-2q0 -3 3.5 -18.5t4.5 -18.5v-6q7 -15 8 -15l4 -2q2 0 4.5 1t3.5 1l8 8q7 10 30.5 53t29.5 58l6 12q0 15 8 31q0 1 6 13.5t14 30t11 24.5q0 8 6 14q27 40 31 43q1 1 2 3t2 3.5t2 1.5q2 0 12 1t12 1q0 -2 -1 -16t-1 -15q-26 -208 -6 -331q0 -1 2 -7.5 t3.5 -13t4 -13t5.5 -10t6 -1.5q8 0 16 8q3 1 15.5 13.5t13.5 15.5q10 15 22 45q29 74 15 159q-6 6 -6 9q-9 0 -17 8q-6 6 -6 14q0 2 2.5 5t3.5 3q22 -11 31 -14q1 -1 3 -4t3 -4t4 -8.5t4 -8.5q4 -41 2 -73.5t-16 -85.5q-8 -24 -8 -25q-3 -4 -8 -15t-9.5 -20t-5.5 -10 l-29 -29q-3 -3 -11.5 -8.5t-10.5 -5.5q-33 -8 -37 -6q-3 0 -14.5 4.5t-14.5 7.5l-16 16q-14 14 -14 21q-10 21 -15 53q-8 24 -8 37q-8 40 -8 66z" />
<glyph unicode="&#xab;" horiz-adv-x="1292" d="M215 395l2 4q1 1 6.5 10t11 17t5.5 10q2 4 11 25.5t11 25.5t10 29.5t17 53t10 30.5q0 1 3 8t6.5 16t4.5 13q3 5 27 61.5t27 61.5q8 40 28 90q1 3 4 9t6.5 12.5t4.5 7.5q2 4 22 24q2 1 14.5 6t14.5 6h8h8q1 -1 7.5 -3t7.5 -3q6 -6 6 -14v-35v-31q0 -2 -6.5 -18.5 t-6.5 -17.5q-13 -39 -16 -45q-25 -58 -37 -74q-3 -6 -22.5 -35.5t-22.5 -32.5l-16 -28q-16 -29 -21 -39q0 -3 -6 -15t-8 -14q-1 -2 -13.5 -24t-15.5 -27q-15 -30 -22 -37q-2 -2 -8.5 -12t-6.5 -11t3 -7t3 -7q1 -2 6.5 -11t10 -16.5t6.5 -9.5q1 -4 14.5 -23t16.5 -22 q0 -2 10 -18.5t10 -18.5q21 -35 37 -59q1 -1 8 -11.5t8 -11.5q3 -5 22 -36.5t21 -36.5q0 -2 4 -8.5t5 -6.5q15 -30 22 -51q0 -8 8 -16v-9v-4l-8 -8q-6 -2 -8 -2l-8 2q-4 6 -6 8q-3 1 -9 10t-6 11q-1 3 -11 26.5t-11 26.5q-6 9 -23 43q-28 42 -51 88q-2 0 -5 3.5t-3 4.5 q-12 18 -29 52q-26 26 -31 36q0 1 -13.5 21t-14.5 24l-8 7q-8 7 -15 13.5t-8 8.5q-2 2 -2 4zM551 408v14q41 63 57 88q21 21 25 29q1 1 6.5 12t5.5 12q1 0 12 13t13 16q1 2 4 6.5t5.5 8.5t2.5 5q4 9 36.5 65.5t39.5 70.5q0 2 10.5 22.5t11.5 22.5q0 4 8 4h7h6q4 0 8 -4v-9 v-8q-2 -7 -11 -34t-10 -31q-6 -15 -53 -105q-2 -2 -10 -18.5t-10 -18.5q-17 -17 -45 -59q-29 -44 -29 -45q-4 -8 -25 -29q-14 -21 -14 -22v-4v-2q0 -2 5.5 -12t8.5 -11q42 -56 54 -68q3 -3 45 -59q4 -8 19 -28t18 -23q1 -2 6 -18.5t6 -18.5q0 -2 1 -13t1 -12q-12 0 -14 2 l-9 9q-10 15 -28 51q-1 2 -10 13t-17 22.5t-10 15.5q-29 29 -33 37q0 1 -4.5 8t-9.5 14t-6 9q-26 26 -74 82z" />
<glyph unicode="&#xac;" horiz-adv-x="1323" d="M1124 1225v2q18 55 29 96q0 2 3.5 12t4.5 11t2 7t2 13.5t2 9.5h-14h-14q-1 0 -11.5 -4t-11.5 -4q-32 -8 -37 -8q-108 -14 -147 -14l-12 -1q-13 -1 -27.5 -1.5t-20.5 -0.5q-10 0 -38 1.5t-29 1.5q-36 0 -111 6q-9 1 -92.5 8t-91.5 8h-14q-7 1 -78 7t-78 7h-94h-90 q-84 -14 -103 -14q-1 0 -10 -1t-12 -1l-15 2q-2 0 -5 3t-3 5q1 1 6 3t6 3q2 1 16 3.5t17 3.5q9 0 49 8h9q2 0 22 4t23 4h84h92q2 0 25.5 -1.5t55 -3.5t46.5 -3q100 -8 110 -8q4 -1 38.5 -4t41.5 -3q93 -6 119 -6q1 0 18.5 -0.5t38.5 -1t31 -0.5q12 0 48 1l36 1q21 0 57 6 q23 0 37 7h23q5 0 45 8q2 1 9 2.5t12.5 3t6.5 2.5t17.5 8t36 16t28.5 13q3 3 29 16q19 0 23 4h4h4l6 -4v-12v-12q-1 -4 -14.5 -37t-14.5 -37t-11 -37t-11 -37q-6 -6 -6 -22q-1 -2 -8.5 -30t-8.5 -30q-6 -12 -14 -20q-1 -1 -7 -4t-7 -4h-5h-4l-28 14q-2 0 -5.5 3.5t-3.5 4.5 q-6 6 -6 23v4z" />
<glyph unicode="&#xad;" horiz-adv-x="696" d="M186 362l2 7l15 14l295 -8q2 0 8.5 -5t7.5 -8l2 -12q-6 1 -25 1t-41.5 -0.5t-25.5 -0.5q-11 -1 -86.5 -4.5t-89.5 -3.5l-12 1q-12 1 -15 1h-24q-2 0 -5.5 4.5t-3.5 7.5q-2 4 -2 6z" />
<glyph unicode="&#xae;" horiz-adv-x="1124" d="M539 1090q127 9 246.5 -46t205.5 -170q11 -14 15 -20q2 -3 7.5 -13t9.5 -16.5t5 -7.5q1 -2 7 -18.5t7 -18.5q0 -7 9 -16q32 -89 34.5 -193.5t-18 -195.5t-51 -165.5t-64.5 -123.5q-1 -6 -12 -23t-16 -22q-24 -32 -29 -37l-45 -45q-44 -43 -66 -57q-4 -4 -16 -14l-12 -11 q-25 -17 -76 -37q-16 -8 -31 -8q-90 -37 -225 2.5t-203 104.5q-3 1 -22.5 20t-22.5 21q-94 97 -124.5 250.5t-6.5 312.5q22 117 81 240t140 196q3 3 19 16.5t18 14.5q78 39 88 43q1 0 5 1.5t10 3.5t8 3q4 1 25.5 7t25.5 7q2 1 15.5 4t15.5 4q35 7 43 7zM193 12 q78 -104 219 -149t262 0q32 16 57 31q43 25 45 28q9 7 49.5 47.5t53.5 55.5q18 18 30 36q189 313 142 609q-1 1 -4 12.5t-7 25.5t-6 19q-14 49 -14 53q-1 4 -6 13.5t-9.5 18.5t-9 17t-4.5 9q-86 125 -225 181.5t-264 41.5q-76 -19 -88 -23q-1 0 -23 -9t-29 -13 q-20 -5 -30 -15q-2 -2 -14.5 -11t-14.5 -11q-60 -51 -110.5 -135.5t-76.5 -154t-34 -118.5q-19 -168 -15 -231q7 -123 89 -267q17 -29 37 -61zM621 174q0 4 -1.5 31.5t-1.5 32.5q0 8 1.5 34t1.5 27q0 5 4 44.5t4 43.5v51v47q-6 15 -8 21q-1 1 -4.5 4t-4.5 4h-4h-2 q-1 -1 -10.5 -4.5t-11.5 -3.5q-2 -2 -15 -2v10q3 4 14 14.5t23.5 22.5t14.5 14q13 12 16 23q2 3 21.5 42.5t21.5 47.5q6 6 6 20l1 16q1 17 1 23q0 5 -1 16l-1 11l-6 8q-17 2 -23 2q-5 0 -17 -1l-11 -1q-9 0 -17 -8q-4 -3 -16 -11.5t-12 -9.5q-3 -3 -12 -15t-9 -13 q-2 -2 -8.5 -9t-7.5 -8l-10 -2q0 17 2 19q8 16 16 28q18 27 20 29q1 0 25 16q7 7 12 7q18 6 25 6h16h21q1 -1 9.5 -3t10.5 -3q10 0 25 -15q0 -10 12 -28q8 -24 8 -25v-16v-21q0 -4 -8 -20q-12 -24 -12 -29q-1 -2 -12.5 -19.5t-12.5 -19.5q-7 -9 -17.5 -29t-10.5 -22 q-2 -6 -2 -8l2 -8q6 -11 8 -13q1 -2 3.5 -11t5 -16.5t3.5 -9.5t3 -8l3.5 -10.5t1.5 -5.5q4 -26 7.5 -78.5t6 -121t3.5 -87.5v-22q0 -5 8 -29q0 -17 4 -17q1 0 6 2t11 4t8 3l8 8q4 4 12 20q1 1 4 8.5t4 8.5l17 43q0 1 0.5 11.5t1 24t0.5 19.5q0 4 -1 27.5t-1 27.5 q-1 1 -4.5 8.5t-4.5 8.5q-1 0 -11.5 12.5t-12.5 15.5q-2 2 -2 17q8 -2 10 -2q1 -1 8 -3t8 -3q13 -13 13 -17q1 0 2.5 -3t3 -6.5t2.5 -4.5q8 -24 8 -29v-61v-49q0 -1 -4 -14.5t-9 -30t-7 -23.5q-1 0 -2.5 -3t-3.5 -6.5t-3 -4.5q-14 -21 -16 -23q-54 -73 -119 14q-2 2 -6.5 12 t-5.5 11q-8 11 -16 45zM242 270q0 5 1 21l1 16q0 13 8 37q3 11 23 51t28 51q1 1 4 5t6 7t4 3q1 1 7.5 4t7.5 4h4h4q2 -1 14.5 -7t14.5 -7q1 -1 4 -4.5t4 -4.5q1 0 2.5 -3t3 -6.5t2.5 -4.5q6 -18 6 -22v-23v-20q0 -5 -6 -23q-7 -14 -8 -14l-8 -8q-9 -3 -13 -3l-8 3 q-7 3 -16.5 11t-9.5 11v66q-8 -4 -19 -15l-14 -28q-4 -8 -9.5 -25.5t-5.5 -19.5q0 -1 -0.5 -12.5t-1 -25t-0.5 -18.5q0 -6 1 -29t1 -26q0 -7 7 -14q1 -1 7 -8.5t7 -8.5q6 -6 16 -6q11 -2 15 -2q2 0 7.5 1t6.5 1q8 0 14 6q7 7 23 31q1 1 6.5 14t7.5 15q1 1 4.5 9l7 16t5.5 11 q0 11 6 23q1 2 4 15.5t4 15.5q1 24 3 161.5t3 161.5v13q-1 0 -7 2t-7 2q-7 -7 -37 -25q-10 -4 -33.5 -19t-26.5 -18q-24 -16 -36 -28q-11 -11 -23 -29q-6 -6 -6 -16q-8 -16 -8 -29l-4 -2l-2 2q-2 0 -5.5 3.5t-3.5 4.5q-2 12 -2 18q0 1 1 9.5t1 9.5q0 5 9 14q4 4 19.5 20.5 t29 30.5t16.5 17q2 1 42.5 26.5t45.5 30.5q7 4 23.5 21t21.5 24l37 74q8 16 14 22l23 23q1 1 4.5 2.5t6.5 3t3 2.5q1 0 8.5 1t8.5 1q0 -5 -1 -31.5t-1 -31.5q-2 -5 -8.5 -43.5t-6.5 -42.5q0 -5 4 -41.5t4 -40.5v-90q0 -76 -30 -162q-2 -5 -8 -24t-7 -21q-12 -36 -22 -51 q-2 -7 -15 -32.5t-14 -27.5t-10.5 -13.5t-11.5 -14.5q-6 -8 -29 -31q-2 -1 -13 -7t-20 -10.5t-12 -5.5q-1 0 -7.5 -1t-8.5 -1l-21 2q-5 0 -14 9q-18 12 -23 22q-1 0 -7.5 13t-6.5 16q-8 24 -8 30l-1 15q-1 16 -1 22z" />
<glyph unicode="&#xb0;" horiz-adv-x="626" d="M197 924l6 28q0 3 2.5 12t5.5 20t4 13q0 3 4 11t6 10q33 50 39 53q1 3 17 15.5t24 17.5q1 1 11.5 5.5t13.5 6.5q1 0 4.5 1.5t7 2.5t4.5 0q55 0 90 -43q16 -42 -0.5 -106t-55.5 -115t-81 -59q-3 0 -13 -1l-10 -1h-14l-14 2q-5 0 -15 10q-2 4 -12.5 17.5t-11.5 15.5 q-1 1 -3 7.5t-4 14.5t-3 10q-4 4 -4 25q0 19 2 27zM279 930q-7 -56 -7 -66q-1 -4 -0.5 -9.5t1.5 -14t1 -9.5q5 -6 7 -6l4 -4q2 2 4 2q28 0 57.5 37t45 83t21 88t-13.5 52q-24 18 -59 2q-33 -33 -51 -98q0 -1 -2 -11.5t-4.5 -24.5t-3.5 -21z" />
<glyph unicode="&#xb1;" horiz-adv-x="348" d="M57 78v4q1 1 8.5 7t8.5 7l8 15q0 4 8 28q0 25 6 37q0 27 6 45q0 9 17 68q0 12 8 28v13v10l-8 8h-99l-4 6q0 4 4 8q11 11 17 11h96q4 14 6 18q5 25 31 90q5 15 23 51q1 1 9.5 17.5t10.5 19.5q2 2 13 16t12 15q4 4 20 12q8 4 33 4q0 -1 -1 -5t-1 -5q-18 -36 -23 -51 q-14 -35 -14 -37q-1 -1 -2.5 -7.5t-3 -14t-2.5 -9.5q-6 -18 -6 -36v-7q-1 -1 -4.5 -11t-4.5 -11l-8 -14q0 -1 -1 -5t-1 -6l2 -6q6 -6 17 -6h90q0 -1 -1 -4t-1 -4q-8 -8 -9 -8q-2 0 -18 -3.5t-18 -3.5q-56 -14 -60 -14q-3 -1 -10.5 -10t-9.5 -12q-1 -2 -8.5 -22.5t-8.5 -22.5 q-7 -10 -28 -74q-1 -1 -5 -11t-4 -12q-2 -4 -7.5 -20t-6.5 -17q-3 -8 -11.5 -25.5t-10.5 -19.5q-34 -34 -37 -36l-4 -3l-4 3q-2 0 -5.5 3.5t-3.5 4.5v4zM18 -8l2 8q1 3 8 8.5t9 5.5l295 -8q2 0 8.5 -5.5t7.5 -8.5l2 -12h-92q-10 0 -90 -3.5t-86 -3.5q-1 0 -13 1t-14 1h-26 q-2 0 -5.5 4t-3.5 7q-2 4 -2 6z" />
<glyph unicode="&#xb2;" horiz-adv-x="413" d="M162 700q22 33 28 41l15 12q15 12 20 17t21 16.5t22 12.5q32 24 78 47q3 3 22.5 14.5t24.5 13.5q25 16 27 21q1 1 24.5 22.5t30.5 28.5q2 1 5.5 5t7 8.5t4.5 5.5q22 29 22 32q0 1 2 9.5t4.5 19t3.5 14.5q0 3 2 22t2 23q-1 2 -5 12.5t-5 12.5q-24 32 -62 40.5t-73 -9.5 q-4 -1 -16 -9t-27 -19t-18 -13q-2 -2 -9.5 -8.5t-13 -11.5t-6.5 -7q-30 -38 -43 -82q0 -1 1 -14t1 -16q0 -11 4 -15q9 -18 12 -18l8 -2q2 0 8 -1t7 -1q58 46 96 110q1 23 30 40q31 20 43 -6q2 -4 3 -9q0 -3 -1 -18.5t-1 -18.5q-8 -33 -10 -35q-5 -14 -39 -55q-1 0 -12 -11 t-13 -12l-18 -12q-3 -1 -10.5 -5t-15.5 -8.5t-9 -4.5q-5 -5 -15 -5q-28 0 -36 -2l-4 2h-3q-31 18 -42 43t-11 66q8 45 33 90q0 4 10 14q2 1 10.5 10t10.5 9q23 23 43 39q1 1 8 5t8 5q3 3 24 12.5t23 10.5q21 2 39 2.5t32 -2t24.5 -4.5t19.5 -8t14.5 -9.5t12 -11.5t8.5 -11.5 t7.5 -12.5t6.5 -11q7 -33 10 -52.5t0 -48.5t-16 -57q-4 -4 -12 -20q-2 -2 -9 -14t-8 -13q-3 -1 -12 -8.5t-19.5 -17t-13.5 -11.5q-8 -3 -33.5 -20.5t-27.5 -18.5q-2 -2 -21 -9.5t-20 -8.5q-4 -2 -37 -25.5t-41 -27.5h-2l2 -4q0 -5 16 -13q1 -3 19.5 -14.5t23.5 -13.5 q8 -1 21 2t22.5 6.5t25.5 10.5t21 9q0 -7 5 -12v-10l-2 -2q-1 -2 -6.5 -6.5t-11.5 -9t-7 -5.5q-2 0 -14 -4t-22 -6.5t-13 -1.5q-1 0 -8 -1t-9 -1l-20 6q-1 1 -5 6t-5 6q-5 3 -15.5 8t-18 8.5t-7.5 4.5q-1 0 -9 2t-12 2l-16 4q-1 0 -9 -5t-10 -5q-1 -1 -13 -13.5t-13 -13.5 q-12 -12 -19 -12h-8l-4 2q-3 0 -12 18z" />
<glyph unicode="&#xb3;" horiz-adv-x="413" d="M197 852q2 3 18.5 14.5t24.5 14.5q1 1 7 3t13.5 4t9.5 3q15 -4 21 -4q3 -1 10 -2t12 -2t6 -2q6 0 15 -9q16 -24 18 -26q0 -1 -1 -9t-1 -10q-4 -8 -4 -26q-4 -4 -12 -4q-11 -6 -15 -2q-1 0 -5 -1t-5 -1l-12 4q-1 0 -3.5 2.5t-2.5 3.5v33q2 20 2 22t-6 8h-4l-4 2 q-1 -1 -11.5 -2t-11.5 -2q-2 -1 -16 -5t-15 -5t-8 -7t-8 -7q-2 -1 -4 -3t-3.5 -4.5t-2.5 -3.5q0 -4 -6 -28l-3 -23q-1 -1 3.5 -14.5t7.5 -18.5q-1 -1 0.5 -4.5t3.5 -3.5q2 -1 8.5 -6t11.5 -8.5t6 -3.5q1 -1 12 -3.5t13 -4.5q5 0 16 -1l11 -1q3 1 23.5 6t23.5 6q3 2 20 14.5 t23 18.5q1 1 7.5 6t12 10t6.5 8q2 2 7.5 9.5t12.5 17.5t9 12q3 3 23 33q1 2 5 11t5 11t4 9t5.5 13t2.5 7q0 3 6 21q6 35 -26 57q-10 0 -19 6q-11 1 -27.5 -2.5t-25.5 -3.5q-51 -7 -64 -6l-4 6v8l4 6q7 6 9 8q3 5 26 17q6 3 36 24.5t34 24.5l4 5l8 8t6 5q-3 2 -35.5 13.5 t-35.5 13.5q-17 2 -21 4l-22 4q-2 -1 -9 -3t-11 -3t-9 -1.5t-7.5 2t-2.5 7.5q4 4 4 11q6 4 8 6q4 4 16 4q31 6 39 2q3 -2 46 -16t44 -15q11 -2 15 -4h14q2 1 12.5 4.5t22.5 7t14 4.5h21h16l12 -4q1 0 9 -8v-4l-5 -2q-2 -3 -8.5 -10.5t-7.5 -7.5q-5 -5 -26 -20.5t-25 -16.5 q-11 -11 -19 -23q-1 0 -4.5 -5t-3.5 -7q-4 -2 -4 -4v-8q81 -74 31 -209q-20 -43 -75 -81t-114 -44q-43 -6 -79.5 11.5t-57.5 57.5q-4 4 -7.5 18t0.5 41t22 52z" />
<glyph unicode="&#xb4;" horiz-adv-x="243" d="M201 1536h6q2 0 14 -12v-21v-16q0 -9 -14 -37q-2 -4 -12 -27t-11 -26q-8 -8 -8 -15q-2 -3 -10.5 -19t-9.5 -17q-8 -16 -23 -31q-3 -3 -19.5 -28.5t-17.5 -29.5l-30 -45q-18 -36 -21 -45h-20q0 73 4 105q0 5 8 37q0 2 7.5 27.5t8.5 31.5q0 2 2 10.5t2 10.5q0 7 9 16 q0 2 3.5 10.5t4.5 9.5q24 56 28 62q1 1 11.5 9t13.5 11q14 14 20 17q36 12 46 12h8z" />
<glyph unicode="&#xb5;" horiz-adv-x="649" d="M-311 -444v30q0 34 8 74q18 79 22 88q0 1 8 14.5t19 32.5t16 29q3 6 17 20q1 1 7 8.5t7 8.5q2 1 15.5 6t15.5 6h8h12q1 -1 8.5 -3t8.5 -3q2 -4 12 -14q6 -18 6 -43q-12 0 -18 6q-1 1 -8.5 10t-8.5 10l-8 8h-6h-6q-3 -3 -19.5 -18.5t-19.5 -18.5q0 -1 -4.5 -7.5 t-10.5 -15.5t-8 -13q-2 -3 -7.5 -15.5t-6.5 -13.5q-8 -17 -14 -45q-2 -5 -8 -27t-7 -24q-1 -4 -3 -13t-3.5 -16t-1.5 -8l-1 -11q0 -10 -0.5 -23t-0.5 -19q0 -5 0.5 -17.5t1 -23t0.5 -11.5q0 -11 8 -43q0 -10 7 -24q1 -1 2.5 -4t3 -5.5t2.5 -2.5q4 -7 15 -19t13 -12 q13 -2 19 -2q2 0 9.5 1t8.5 1q5 0 17 6q5 2 28 25q6 3 23 20q5 5 14 23q4 6 45 88q0 2 3.5 11.5t4.5 10.5q0 1 3.5 7t3.5 7q1 5 11 45.5t11 45.5q1 4 22 82t23 88q7 34 12 81q0 2 2 14.5t4 28t3 23.5q0 42 8 82q2 13 9 55t12.5 77.5t7.5 43.5q0 1 5.5 20.5t13.5 45.5t11 38 q0 17 6 23q33 76 37 88q1 1 6 7.5t10.5 13t8.5 8.5q2 4 9.5 13t10.5 9q8 8 17 8q1 0 14 1.5t16 1.5q0 -4 -1 -24.5t-1 -23.5q0 -11 -8 -43q-8 -16 -8 -30q0 -3 -3 -36.5t-3 -37.5q-6 -12 -6 -29q-17 -98 -17 -110q0 -1 -1 -15t-1 -18t1 -16t1 -13q0 -6 7 -40.5t10 -45.5 q1 -5 4 -19.5t5.5 -26.5t2.5 -15q0 -5 16 -29q7 -14 15 -22q1 -1 4 -5t6 -7t4 -3q8 -2 10 -2t7 1t6 1t7 3.5t13 7t10 4.5q1 1 29 22l8 8q7 7 14 21q1 1 7 11.5t12.5 23t9.5 18.5q13 19 37 66q55 98 59 118q19 56 23 66q8 25 14 59q8 32 8 37q1 7 3.5 45t3.5 45q1 2 8 10.5 t8 10.5q2 3 7.5 9.5t6.5 6.5q13 2 19 2q1 0 8.5 -1t9.5 -1q6 -24 6 -45q0 -35 -6 -65q-16 -78 -31 -119q-1 -1 -9 -22.5t-11 -28.5q-1 -3 -4.5 -9.5t-7 -13.5t-4.5 -8q-1 -2 -10.5 -18.5t-10.5 -18.5q-21 -42 -22 -43q-24 -42 -45 -70q-48 -60 -74 -86q-5 -6 -22 -23 t-23 -22q-11 -11 -21 -16l-16 -6q-1 0 -9 -1t-10 -1l-18 2q-8 0 -14 6l-31 31q0 2 -8 20t-12 23q-2 5 -9 20t-8 16h-6h-6q-1 -1 -3 -1.5t-3.5 -1t-1.5 -1.5q-1 -7 -8.5 -36t-8.5 -33q-3 -8 -7.5 -32t-4.5 -26q-1 -4 -16 -41t-15 -41q-6 -6 -6 -22q-3 -5 -21.5 -48.5 t-23.5 -53.5l-8 -15q-3 -6 -15.5 -38t-13.5 -38q-19 -38 -24 -43q-4 -4 -4 -22q-1 -1 -8.5 -11.5t-8.5 -11.5q-1 -2 -11 -18t-11 -18q-18 -24 -37 -43q-7 -11 -60 -46q-1 0 -12.5 -7.5t-15.5 -8.5q-12 -6 -23 -6h-4h-4q-11 0 -23 6q-14 7 -14 8l-37 37q-6 6 -14 37 q-2 5 -5 37t-3 45v29z" />
<glyph unicode="&#xb6;" horiz-adv-x="509" d="M-23 -61l3 2q0 2 12.5 21t15.5 22q22 38 37 61q12 24 12 29q9 27 25 59q28 70 37 88q0 9 8 17q17 51 20 57q2 7 12 35t11 32q1 3 7 30t7 30q0 9 17 43q1 10 12 41t16 41q-1 1 -4 8t-4 8q-1 0 -4 5l-6 10t-4 6q-6 6 -6 16q0 3 -1 23t-1 22q0 6 0.5 18t1 21t0.5 10 q0 13 6 37q3 12 14 45q6 19 31 60q0 1 6 10.5t8 11.5l82 82q1 1 10 7t19.5 12.5t13.5 9.5q4 2 20 8t17 6h27h26l6 -6v-8v-8q-2 -3 -15.5 -20t-26.5 -33t-17 -21q-10 -16 -51 -74q-13 -18 -23 -37q-2 -5 -18 -40.5t-19 -41.5q-4 -7 -21 -50t-22 -60q-5 -10 -14 -32 t-16.5 -41.5t-14.5 -38.5t-8 -21t-4 -11t-6 -19.5t-4 -12.5q-1 -3 -7 -27t-7 -27q-2 -7 -12 -35t-11 -30q-24 -48 -31 -76q-1 0 -3.5 -9t-2.5 -11q-7 -21 -30.5 -80t-28.5 -68q-6 -18 -17 -29q-5 -14 -28 -45q-18 -27 -21 -30q-2 -1 -16 -15l-4 -2l-4 2q-4 0 -4 8q-3 3 -3 5 zM111 -16q22 33 28 36q24 36 25 37q4 4 12 45q0 15 8 31q0 5 9 14q1 3 10 31.5t10 34.5q1 2 7.5 24t8.5 29q1 2 3 9t3.5 12.5t2.5 7.5q1 3 7 37t7 37q0 16 22 82q0 2 3 11.5t4 10.5q0 13 8 29q5 35 14 53q1 3 7 18.5t7 18.5q28 46 37 74q2 3 11.5 18t11.5 18q42 55 45 58 q1 1 7 8t7 8q2 2 12 9t11 8h6h8q1 -1 4 -4.5t4 -4.5v-4v-4q-1 -2 -11 -21.5t-11 -23.5q-1 -1 -7.5 -10t-7.5 -10q-5 -9 -17 -34t-22.5 -46t-13.5 -25q-1 -2 -7 -22t-7 -21q-25 -68 -29 -82q-20 -40 -31 -73q0 -1 -13 -43.5t-15 -53.5q-8 -16 -8 -30l-15 -29q-14 -28 -14 -39 q-9 -15 -23 -57q-13 -39 -16 -45q0 -13 -12 -37q-27 -54 -31 -58q-3 -6 -18.5 -21t-18.5 -15q-1 0 -3 -1.5t-3 -1.5l-8 3q-8 0 -8 4z" />
<glyph unicode="&#xb7;" horiz-adv-x="360" d="M135 383v12q0 1 7 7t10 8q1 1 7 4t7 4h4h4q16 -8 23 -8q0 -1 3 -7t3 -8q1 -3 3 -10t3.5 -12t1.5 -6q0 -9 -8 -17q-14 -14 -15 -14t-7 -1t-7 -1l-14 2q-3 0 -17 14q-8 8 -8 17v16z" />
<glyph unicode="&#xb8;" horiz-adv-x="665" d="M78 -377h-12q-2 -1 -11 -4t-10 -4q-12 -6 -29 -23l-14 -2q0 13 6 25q0 2 21 23q8 8 16 8h29h28q13 -6 17 -8l20 -15l45 -88q0 -1 7 -4.5t10 -3.5q4 -2 6 -2l6 2q8 0 16 8q1 1 4.5 3.5t6.5 5.5t4 5q5 5 14 23q1 2 8 14.5t8 14.5q0 2 3 14.5t4 13.5q1 4 11 41t11 41 q1 3 2.5 11.5t3 19t2.5 14.5v6v9q-1 5 -9 25l-7 20q-1 1 -3 4t-3 4h-8h-7l-16 -8q-31 -23 -37 -23l-51 -51h-4h-2q-2 1 -8 2t-11 2t-6 2q-1 0 -3.5 3t-2.5 5t-1 21t-1 22q0 5 0.5 16t1 19.5t0.5 9.5q0 25 6 37q1 11 9 60t8 51q1 1 7 8t7 8q2 2 12 6.5t11 5.5h10h10 q4 -4 8 -12v-18v-19q-8 -40 -8 -90q0 -4 1 -22t1 -21q1 0 4.5 -1t5.5 -1.5t4 0.5q12 6 45 17q1 0 6.5 -2t12.5 -4t10 -3q1 -1 7 -4t7 -4q12 -12 15 -12q4 -4 13 -17t9 -14q15 -30 15 -37q8 -24 8 -30v-35v-31q0 -1 -4 -12.5t-7 -21t-4 -11.5t-4 -15t-4 -14q-8 -16 -14 -22 q-3 -3 -16.5 -17.5t-26 -26.5t-16.5 -16q-6 -6 -15 -6l-14 -1q-14 -1 -19 -1q-6 0 -19 1l-13 1q-11 0 -17 6q-2 1 -5 4t-5.5 6.5t-3.5 4.5q-5 10 -23 37q-15 30 -20 45l-8 8q-23 7 -29 14h-12z" />
<glyph unicode="&#xb9;" horiz-adv-x="258" d="M207 713q0 3 3 12t3 10q0 23 53 133q2 7 14 37.5t13 34.5v12h-4q-2 1 -11 -0.5t-18 -3.5t-10 -2q-19 0 -31 6q-3 0 -13.5 2t-12.5 2q-1 0 -5 4t-4 5q-3 3 2 14q2 0 21 -3t24 -3q11 0 23 4q2 2 18 2q4 4 25 18q0 2 7 10t11 11q25 33 27 33q4 3 22.5 33t22.5 34q0 3 16 19 q9 2 13 2l8 -6q0 -3 6 -15q0 -2 -2 -4v-4l-12 -35q-17 -26 -27 -55q-2 -9 -13.5 -41t-15.5 -37q-2 -10 -34.5 -88t-34.5 -100q-15 -45 -15 -52q-3 -2 -5.5 -7t-4 -9t-2.5 -4q-1 -1 -5.5 -3.5t-8 -4.5t-4.5 -2t-7 -1t-8 -1l-16 6q-12 12 -10 16q0 15 2 21z" />
<glyph unicode="&#xba;" horiz-adv-x="292" d="M184 836q8 61 30 114t36.5 73.5t25.5 31.5q7 4 9 6q1 1 6 3t11 4t7 3q4 4 15 4q12 4 26 4q45 0 74 -26q6 -6 6 -19q9 -46 -3.5 -100t-35.5 -96.5t-45.5 -73.5t-36.5 -39q-59 -31 -94.5 11t-30.5 100zM250 831q-15 -74 5 -86q10 -6 28 0q57 35 102 123t21 172 q-16 13 -33 7t-31 -17t-27.5 -31.5t-22.5 -37t-16 -33.5q-4 -18 -14 -37q0 -1 -2.5 -13t-5.5 -26.5t-4 -20.5z" />
<glyph unicode="&#xbb;" horiz-adv-x="1058" d="M512 422v-14q-6 -7 -37.5 -41.5t-36.5 -40.5q-9 -18 -22 -31q-1 -2 -14.5 -18.5t-14.5 -18.5q-34 -43 -37 -51q-9 -18 -31 -51l-6 -9q-2 -2 -18 -2q0 1 1 12t1 13q1 2 8 18.5t8 18.5q0 1 14.5 21.5t22.5 29.5q2 5 43 59q8 8 53 68q2 2 8.5 12t6.5 11v2v4q0 1 -7 10t-8 12 q-22 22 -22 29q-1 2 -7.5 11.5t-14.5 20.5t-9 13q-2 3 -21.5 29.5t-21.5 29.5q-7 7 -22 37q-50 96 -52 105q-1 4 -11.5 31t-12.5 34v8v9q4 4 8 4h8h8q7 -2 7 -4q1 -3 22 -45q7 -14 38.5 -71t35.5 -65q8 -8 14 -20q2 -3 12 -16t11 -13q1 -1 7 -12t7 -12q6 -12 23 -29z M846 395l-2 -4l-29 -29q-1 -4 -13.5 -23t-15.5 -22q-1 -1 -14.5 -17.5t-13.5 -18.5q-5 -10 -33 -52l-6 -8q-34 -67 -51 -88q-1 -1 -6.5 -11t-10.5 -19.5t-6 -12.5t-11 -26.5t-11 -26.5q0 -6 -15 -21l-6 -8q-6 -2 -8 -2l-8 2l-8 8v4v9q8 8 8 16q7 21 22 51q6 13 6 15 q33 55 45 73q1 1 8.5 11.5t8.5 11.5q16 24 37 59q1 2 10 18.5t10 18.5q3 3 15.5 22t13.5 23q2 2 7 9.5t10.5 16.5t6.5 11q9 9 9 14q0 6 -17 23q-3 3 -11.5 17.5t-8.5 19.5q-3 4 -10 15t-14.5 22.5t-8.5 13.5q-1 1 -3.5 7t-5 13.5t-3.5 8.5q-30 60 -37 67q-3 3 -22.5 32.5 t-22.5 35.5q-12 16 -37 74q-3 6 -16 45q-1 1 -4 9t-6.5 17t-4.5 10v31v35q0 6 8 14q0 1 3.5 2l7 2t4.5 2h8h8q2 -1 14.5 -6t14.5 -6q16 -16 20 -24q0 -1 8 -13t9 -16q20 -50 28 -90q3 -5 27 -61.5t27 -61.5q12 -30 12 -37q36 -108 37 -113q2 -4 12 -25.5t12 -25.5 q1 -2 10.5 -18.5t10.5 -18.5z" />
</font>
</defs>
</svg>
