<?xml version="1.0" standalone="no"?>
<!DOCTYPE svg PUBLIC "-//W3C//DTD SVG 1.1//EN" "http://www.w3.org/Graphics/SVG/1.1/DTD/svg11.dtd" >
<svg xmlns="http://www.w3.org/2000/svg" xmlns:xlink="http://www.w3.org/1999/xlink" version="1.1">
<metadata></metadata>
<defs>
<font id="tall_abbey_serif_regularRg" horiz-adv-x="651" >
<font-face units-per-em="2048" ascent="1536" descent="-512" />
<missing-glyph horiz-adv-x="409" />
<glyph horiz-adv-x="0" />
<glyph horiz-adv-x="682" />
<glyph unicode=" "  horiz-adv-x="409" />
<glyph unicode="&#x09;" horiz-adv-x="409" />
<glyph unicode="&#xa0;" horiz-adv-x="409" />
<glyph unicode="!" horiz-adv-x="274" d="M104 43q-3 28 23 41q17 10 29 -2q8 -5 12 -21v-6q-2 -8 -10 -24q-9 -9 -15 -11h-12q-10 0 -17.5 7t-9.5 16zM104 764q0 36 1 106t1 105v12q3 15 15 21q18 9 37 6q9 -3 14 -13v-26q0 -128 -2 -191v-159v-275v-94q0 -8 -7 -14t-16 -6h-18q-1 0 -3 1t-3 1q-4 0 -9.5 5.5 t-7.5 10.5v27q0 81 -1 242t-1 241z" />
<glyph unicode="&#x22;" horiz-adv-x="464" d="M102 891q14 42 39 100q2 5 8 12.5t7 8.5q1 4 9 6t13 0q12 -4 12 -14v-13q0 -2 -1 -6t-1 -6q-34 -82 -36 -86q-3 -6 -9 -12q-4 -8 -14 -11q-2 0 -6 1t-6 1q-13 4 -13 15q-2 0 -2 4zM272 879q13 58 43 125q1 2 3.5 5t3.5 5q6 6 21 4.5t19 -8.5v-6v-7q-5 -12 -18 -49 q-9 -30 -22 -57q-1 -2 -3.5 -5t-3.5 -5q-9 -18 -32 -15q-14 4 -11 13z" />
<glyph unicode="#" d="M102 788q2 4 2 13q2 10 15 14q2 0 33 5.5t47 6.5q6 1 11 7.5t5 11.5v26v43q0 2 1 7.5t1 7.5q3 14 19 10q18 -7 20 -22q1 -2 2 -6.5t2 -6.5q8 -27 8 -61v-8q2 -5 7.5 -10t11.5 -5q37 -3 75 0q4 0 10 5.5t7 11.5q3 43 -2 75q0 7 4 19t16 8q7 0 11 -4q12 -4 12 -12 q12 -60 14 -82q0 -6 6.5 -10.5t12.5 -4.5q10 0 29 1t28 1q3 0 9 -1t9 -1q12 -3 17 -10t2.5 -17.5t-12.5 -13.5q-4 -1 -12.5 -3t-12.5 -3q-11 -1 -32.5 -2t-31.5 -2q-14 0 -18 -16q0 -1 -1 -3t-1 -3q-3 -37 0 -76q0 -5 6 -10.5t12 -5.5q4 0 12.5 1t12.5 1q53 0 63 -2 q13 0 17 -17q0 -17 -12 -20q-23 -9 -31 -9q-36 -4 -57 -4q-15 -5 -15 -18v-25q0 -48 -2 -57q0 -7 -6 -10q-6 -7 -17 -5t-16 11q-6 18 -6 24q-1 10 -2 31t-2 31q0 6 -6 11t-12 5q-41 3 -82 0q-3 0 -8 -4.5t-5 -7.5q-2 -6 -2 -18q3 -34 0 -64q0 -4 -4 -12q-4 -6 -13 -7t-15 3 q-4 4 -5 4q-12 27 -12 57v25q-3 22 -26 22h-58q-8 0 -12 -2q-10 0 -16 8t-3 19q0 2 3.5 6.5t3.5 5.5l4 4q31 8 49 10q15 3 33 3q15 4 20 16v74q-1 6 -6 11t-10 5q-8 2 -27 2q-37 0 -57 2q-5 0 -10 5t-5 11zM262 674q0 -5 5.5 -11t11.5 -6q4 -2 12 -2h31v-2h26q2 0 6 1t6 1 q7 0 14 6.5t7 12.5q3 42 0 84q0 6 -7 12t-16 6h-75q-6 0 -13.5 -6.5t-7.5 -13.5q-6 -41 0 -82z" />
<glyph unicode="$" horiz-adv-x="581" d="M104 815q1 3 2.5 10.5t2.5 10.5q6 25 24 65q1 2 3 5t3 5q4 6 12.5 18.5t12.5 18.5q34 42 78 53q2 0 12 5q12 6 12 20v31v12q0 11 10 14q10 6 19 0q6 -3 8 -10q1 -4 2 -12t2 -12q0 -5 1 -15.5t1 -15.5q0 -10 13 -14q24 -9 45 -21q8 -6 14 -14q6 -9 0 -19q-7 -13 -19 -10 q-8 4 -24 8q-3 1 -6 1t-7 -0.5t-6 -0.5q-1 -2 -4 -6t-4 -6v-55q0 -29 1 -86t1 -86q0 -9 2 -13q4 -16 5 -32.5t1 -37.5t1 -32q0 -17 2 -25q0 -9 6 -18q1 -1 13 -16.5t19 -22.5q57 -75 70 -98q13 -18 23 -45q9 -30 20 -80q4 -25 4 -72q0 -68 -35 -127q-3 -4 -9 -13.5t-9 -13.5 q-13 -18 -37 -32q-14 -5 -45 -23q-10 -7 -10 -16q-2 -9 -4 -27.5t-4 -27.5q-2 -6 -7.5 -11.5t-11.5 -5.5q-4 -2 -12 -2q-4 0 -12 4q-5 0 -9 8q-2 4 -2 13q-1 7 -1 22.5t-1 22.5q-6 12 -12 12q-14 4 -39 4q-47 3 -78 39q-12 9 -16 27q0 4 4 4q0 4 4 4t6 -2q13 -12 56 -33 q50 -10 61 -10q8 0 14 12v6v33v76q0 1 -2 33.5t-4 48.5q-2 10 -2 32q-2 49 -2 146v6v28.5t-0.5 21.5t-0.5 14.5t-2 12t-3.5 9t-6.5 11t-9.5 11.5t-14 18t-18.5 23q-7 9 -25 30t-28 34q-26 34 -35 51q-9 19 -11 25q-6 33 -2 100zM172 809q3 -54 29 -111q2 -2 6 -10 q15 -21 33 -39q8 -4 12 -2q2 2 6 10v19v121h2v45v88q0 3 -1 9t-1 9q-4 8 -10 6q-22 -3 -35 -22q-24 -35 -35 -68q-9 -27 -6 -55zM324 393q0 -94 2 -141q0 -60 6 -82q0 -9 1 -27.5t1 -27.5v-58q0 -6 8 -10q1 0 3 1t3 1q12 6 23 21q19 22 26 57q6 20 9 43q3 19 0 39 q-3 29 -9 55q-9 46 -14 66q-13 28 -31 59q-2 6 -10 14q-2 3 -5 5t-5 0q-2 0 -3.5 -1.5t-2.5 -4t-2 -3.5v-6z" />
<glyph unicode="%" horiz-adv-x="782" d="M102 33q0 6 4 18q5 12 15 29q19 39 59 113q5 8 14.5 24.5t14.5 24.5q34 51 49 82q24 48 33 63q13 25 14 27q15 23 29.5 49t31.5 57.5t27 48.5q4 13 19 35q39 64 65 129q14 39 47 92q12 20 27 49q28 67 76 134q6 6 10 8q9 9 22 0q17 -13 7 -29l-11 -22q-6 -11 -18.5 -33.5 t-18.5 -34.5q-12 -24 -14 -29q-1 -4 -41 -86q-47 -97 -53 -114q-8 -13 -43 -86q-15 -31 -39 -74q-8 -14 -24.5 -43.5t-24.5 -44.5q-9 -21 -21 -39q-33 -58 -51 -105q-21 -52 -51 -102q-61 -96 -92 -151q-2 -4 -4.5 -7.5t-5.5 -7.5t-4 -6q-2 -2 -19 -8q-9 -1 -17 5t-10 15 q-2 6 -2 19zM117 879q0 10 4 26q3 19 18 31q12 12 27 18q12 9 29 9h14q29 3 49 -21q2 -2 4.5 -5.5t3.5 -4.5q17 -38 17 -55q4 -50 4 -62v-72q0 -29 4 -43l6 -30q4 -37 -8 -56q-7 -18 -17 -28q-10 -13 -24 -19q-3 -1 -9.5 -3t-9.5 -3q-30 -10 -53 4q-5 3 -14 9t-11 8 t-7.5 5.5t-6.5 6.5t-3.5 6.5t-3.5 9.5l-2 12t-3 17q-6 24 -6 49q-5 85 -2 191zM170 754q0 -11 4 -27q1 -7 2 -21.5t2 -21.5q0 -17 4 -45q3 -16 17 -27q4 -4 10 -4q10 -3 20.5 5t12.5 18t2 26v43v2q0 13 -1 40t-1 42q-4 15 -9 95v24q-2 6 -7 11.5t-11 5.5q-11 2 -21.5 -5.5 t-11.5 -17.5q-14 -67 -12 -113v-30zM500 135q-3 62 0 121q1 16 2 47t2 47q6 19 18 35q30 34 68 31q16 0 24 -2q30 -7 41 -29q18 -27 21 -59q4 -36 4 -58v-145q0 -6 -1 -17t-1 -16q0 -21 -16 -61q-17 -35 -60 -45h-12q-5 2 -15.5 5t-15.5 5q-23 16 -31 31q-22 47 -28 110z M549 221q0 -67 4 -102q0 -28 14 -68q2 -7 13 -14q2 -4 10 -4q23 0 33 16q18 45 18 74v102q0 46 -2 61t-12 58q0 4 -4 12q0 1 -1 3t-1 3q-10 9 -25.5 10t-22.5 -5q-15 -9 -18 -25q-1 -2 -6 -39v-82z" />
<glyph unicode="&#x26;" horiz-adv-x="708" d="M106 80q-6 41 3 133q0 8 2 12q4 12 8 37.5t8 38.5q11 46 20 74q13 49 19 67q19 59 33 95q23 62 28 79q0 9 2 13q-7 28 -32 88q-23 53 -25 65q-2 8 -8.5 29.5t-7.5 32.5q0 6 -4 18q-5 15 -5 21q-3 48 13 100q12 37 49 55l22 11q22 7 37 -5q22 -11 43 -26q17 -14 23 -31 q2 -6 6 -18.5t6 -18.5q0 -5 0.5 -13.5t0.5 -16t-1 -13.5q0 -6 -1 -17t-1 -16l-6 -24q0 -27 -4 -39q-1 -3 -7.5 -25.5t-11.5 -33.5q-11 -31 -26 -80q-5 -16 2 -37q16 -50 39 -107q50 -123 59 -147q4 -10 12.5 -29.5t12.5 -29.5q8 -18 24.5 -55t24.5 -56q2 -4 8 -10q4 2 6 2 q4 0 4 4q56 61 66 76q20 29 35 39q4 3 11.5 1t10.5 -8q3 -13 0 -22q-4 -8 -8 -12q-9 -13 -27 -35q-15 -17 -38.5 -51t-28.5 -41q-4 -13 0 -19q2 -6 7 -17.5t7 -17.5q16 -26 33 -69q1 -2 2 -6.5t2 -6.5q2 -8 -3.5 -15t-12.5 -7q-6 -2 -19 -2q-14 0 -22 12q-3 5 -9.5 16.5 t-9.5 16.5q-14 29 -26 45q-7 7 -17 0q-38 -35 -80 -64q-10 -8 -30 -20q-12 -6 -25 -6q-29 -2 -84 -2q-16 0 -31 6q-4 2 -14 5t-14 5q-10 4 -27 21q-17 24 -23 51zM170 145q0 -14 2 -24q3 -28 23 -51q8 -8 10 -9q28 -16 47 -16q16 0 24 -2q28 0 50 16q10 6 32 22.5t35 24.5 q11 8 17 19q4 4 4 16q0 5 -4 13q-8 21 -23.5 58.5t-19.5 47.5q-29 69 -43 119q-6 23 -15 47.5t-21 55.5t-18 46q-4 4 -4 7q-1 0 -3 1t-3 1q-8 4 -8 -7q-31 -104 -33 -122q-4 -9 -7.5 -28.5t-4.5 -21.5q-20 -74 -25 -110q0 -21 -6 -39q-6 -27 -6 -64zM195 934q5 -42 8 -49 q16 -48 33 -109q2 -12 10 -31q1 -2 4 -5t4 -5l8 8q6 9 6 19q9 57 15 74q1 4 2 12.5t2 13.5q0 11 4 47q-1 8 -6 39q-4 12 -9 17q-12 12 -20 16q-15 11 -29 8q-13 0 -16 -8q-16 -22 -16 -47z" />
<glyph unicode="'" horiz-adv-x="366" d="M102 1122v13q3 11 17 49q7 21 47 123q3 7 41 86q1 2 10 16q6 9 17 11.5t22 -3.5q2 -2 4.5 -8.5t1.5 -7.5v-6q-1 -3 -3 -9.5t-3 -9.5t-13.5 -31.5t-17.5 -44.5q-6 -15 -17 -40t-15 -35q-14 -33 -46 -99q-1 -2 -10 -16q-4 -4 -18 -4q-5 0 -10.5 5t-6.5 11z" />
<glyph unicode="(" horiz-adv-x="376" d="M106 207q-5 83 3 280q0 21 2 31q3 16 8 64q5 58 8 69q1 6 2 18.5t2 18.5q0 7 1 20t1 19q5 18 10.5 52t8.5 48q4 16 4 25q2 22 10 57l3 15t4 18.5t5 15.5q2 7 4 21.5t4 21.5q2 6 5.5 18.5t5.5 18.5q2 10 7 33.5t7 36.5q2 1 5 4t5 4q9 0 15 2q3 -1 10.5 -2t11.5 -2 q6 0 11 -6t5 -12q0 -29 -6 -43q-2 -8 -6 -24.5t-6 -24.5q-8 -34 -10 -58q0 -7 -4.5 -19.5t-5.5 -17.5q-2 -13 -9 -47t-8 -53q0 -1 -6 -25q-1 -5 -2 -15t-2 -15q-4 -46 -10 -70q-2 -8 -2 -25q-3 -32 -9 -63q-2 -8 -4 -25.5t-2 -19.5q-4 -68 -8 -100q-2 -13 -2.5 -35t-1.5 -29 q0 -94 2 -141q0 -33 4 -51q1 -5 2 -15.5t2 -15.5q0 -12 1 -35t1 -35q5 -47 8 -57q3 -9 3 -19q1 -17 16 -94q13 -66 20 -94q3 -8 8.5 -26.5t8.5 -26.5q5 -18 -15 -33q-4 -4 -6 -4q-1 0 -3 -1t-3 -1q-6 -3 -16 0t-13 8q-2 3 -5 8t-5 8q-6 13 -13 40t-9 34q-16 62 -17 74 q-9 38 -12 76q0 12 -2 18q-5 19 -10 88q0 23 -2 33q-5 22 -9 82z" />
<glyph unicode=")" horiz-adv-x="368" d="M104 -233q8 48 15 67q2 8 4 25t4 24q4 14 8 40t6 36q4 11 8.5 34.5t8.5 33.5q1 12 3 24.5t5 27.5t4 23q2 10 3 22t1.5 26t1.5 22q1 7 1 20t1 24t4 20v18q6 189 6 192v121q-1 17 -2 51t-2 50q0 22 -2 32q-6 24 -10 70q0 21 -2 31q-3 10 -8 57q-4 55 -12 82v12 q-4 35 -11 56q-2 7 -6 27t-8 30v12q0 9 2 13q18 27 55 24q8 0 15 -10t10 -23q16 -54 18 -80q0 -13 5 -34t6 -29q5 -48 8 -64q3 -27 6 -57q5 -69 8 -82q1 -3 1 -9t1 -9q1 -28 3 -83t3 -83v-57q0 -107 -2 -160q-5 -89 -10 -113q-1 -6 -2 -19.5t-2 -19.5t-3 -18.5t-3 -18.5 q-4 -12 -4 -18q-1 -8 -3.5 -25.5t-3.5 -25.5q-1 -7 -4 -21.5t-4 -21.5q-4 -35 -10 -49q-1 -19 -8.5 -53t-9.5 -48q-5 -30 -15 -69q-2 -9 -6 -28t-6 -28q-3 -11 -10 -22q-6 -12 -21 -12q-6 0 -18 4q-6 2 -12 10t-5 14v15z" />
<glyph unicode="*" horiz-adv-x="587" d="M106 958q10 19 31 19q3 -1 9.5 -2t9.5 -2q42 -19 57 -27q20 -9 43 -12q8 -4 8 6q1 17 -4 109q0 7 10 14l4 4q12 4 19 4q7 3 10 -6q8 -16 12 -55q1 -7 1.5 -29t2.5 -35q0 -3 6 -6t9 -2h6q2 1 6 2t6 2q37 15 90 29q3 1 10 2t11 2q14 0 18 -12q4 -17 2 -27q0 -14 -14 -18 q-8 -4 -82 -31l-18 -6q-2 -1 -5.5 -4.5t-5.5 -4.5q-5 -5 -2 -12q4 -10 9 -16q29 -57 38 -80q6 -10 0 -19q-6 -17 -26 -24q-11 -4 -19 4q-2 3 -6 8t-6 8l-31 62q-2 2 -7.5 11.5t-10.5 14.5q-8 -3 -14 -12q-6 -12 -18.5 -36.5t-18.5 -37.5q-8 -15 -25 -36q-14 -14 -28 -5 q-1 0 -17 11q-3 1 -4.5 8t0.5 8q0 4 2 6q25 39 66 123q4 8 -7 19q-1 0 -2 1t-2 1q-50 20 -59 24q-16 10 -51 23q-4 2 -10 8q-9 12 -3 24z" />
<glyph unicode="+" horiz-adv-x="655" d="M104 512q1 3 3.5 9t3.5 9q3 5 10 9q36 8 82 8q29 -2 84 -2q5 0 10.5 5t5.5 11q0 2 1 6t1 6v19q-1 10 -2 30t-2 31q0 7 -0.5 23t-0.5 29.5t1 25.5q3 10 12 14q7 2 19 -2q1 -1 3 -2t3 -2q12 -46 12 -67q2 -35 2 -103q0 -2 1 -6t1 -6q2 -3 7 -7.5t8 -4.5q1 0 3 -1t3 -1 q55 0 82 6q35 5 75 2q9 -2 15.5 -11t3.5 -18q-6 -14 -21 -14q-7 -2 -15.5 -3t-18.5 -1.5t-15 -1.5q-17 0 -48 -1t-48 -1q-6 0 -18 -4q-10 -3 -13 -13q-2 -12 -2 -32q3 -67 0 -134q0 -19 -20 -16l-6 2q-1 1 -5.5 4.5t-5.5 5.5q-14 40 -14 74q2 29 2 88q0 19 -18 23q-1 0 -3 1 t-3 1h-21q-32 -6 -133 -6q-4 0 -12 4q-3 0 -6.5 5.5t-2.5 8.5z" />
<glyph unicode="," horiz-adv-x="290" d="M102 -78q0 4 2 6q6 18 17.5 53.5t17.5 53.5q4 9 15 11.5t18 -3.5l8 -8q9 -12 6 -25q-4 -13 -13 -38.5t-13 -39.5q-6 -15 -17 -26q-4 -6 -13 -7.5t-13 3.5q-6 3 -11 8q-1 2 -2 6t-2 6z" />
<glyph unicode="-" d="M104 502q-2 15 7 28q25 14 61 17q45 0 70 -2q123 -3 221 2q47 4 69 0q10 -3 15 -12q3 -9 -2 -19q-2 -4 -10 -8q-106 -12 -158 -12q-137 0 -205 -2q-8 0 -25 1t-26 1q-5 -2 -17 6z" />
<glyph unicode="." horiz-adv-x="258" d="M104 27q-7 17 7 28q8 12 24 4q10 -5 12 -12q1 -1 3 -2t2 -2q1 -2 2 -7t2 -7q-7 -14 -9 -17q-18 -21 -36 4q-3 3 -7 11z" />
<glyph unicode="/" horiz-adv-x="851" d="M104 55q7 24 15 43q13 27 28 78q11 26 19 47q14 33 45 98.5t45 98.5q1 4 10 22q31 51 62 125q63 146 125 264q31 56 75 162q12 34 52 117q27 65 38 88q7 15 22.5 41t21.5 37q6 12 24 41.5t27 46.5q7 11 22 4q4 -3 13 -16q0 -2 2 -4v-9q-14 -38 -37 -79q-1 -3 -8 -17 q-6 -17 -20.5 -48t-16.5 -34q-9 -19 -34 -70t-36 -79q-3 -8 -10 -23.5t-10 -23.5q-20 -52 -91 -203q-45 -92 -65 -139q-4 -10 -13.5 -32t-13.5 -32q-5 -12 -14 -33t-14 -32q-4 -7 -13 -30t-16 -34q-4 -9 -15.5 -31.5t-18 -39t-11.5 -33.5q-10 -22 -31.5 -73.5t-34.5 -78.5 q-12 -26 -59 -113q-6 -10 -18 -26q-2 -5 -9 -8q-5 -5 -12 -2q-9 3 -20 14q-8 8 -5 16z" />
<glyph unicode="0" horiz-adv-x="733" d="M104 754q3 127 25 235q5 22 14 72q1 5 3.5 14.5t3.5 14.5q17 110 59 204q27 64 67 101q22 22 56 37q19 8 47 8h4q35 0 78 -17q31 -16 51 -41q28 -45 37 -67q35 -77 51 -178q4 -27 8 -41q24 -141 21 -238v-90v-166q-1 -12 -2 -34t-2 -33q-2 -10 -2 -29q0 -3 -1 -8.5 t-1 -8.5q0 -4 -1.5 -12t-1.5 -12q-3 -84 -16 -156q-8 -57 -39 -135q-2 -5 -7 -16.5t-7 -16.5q-1 -2 -4 -9.5t-4 -12.5q-40 -84 -113 -123q-1 -1 -4 -3t-4 -3l-2 -2h-78l-2 2h-2q-71 23 -123 108q-47 79 -66 178q-9 53 -20 150l-2 16q-11 107 -16 185q0 17 -3 32q-4 63 -2 95 zM197 666q-4 -91 4 -158q4 -28 8 -80q3 -27 6 -51q0 -13 4 -29q1 -5 4 -16.5t4 -16.5q2 -12 6.5 -33t6.5 -32q5 -31 18 -53q16 -36 45 -97q12 -25 41 -47q17 -10 29 -10q4 -1 11.5 -2t10.5 -2h8q32 0 56 24q41 41 61 105q5 18 15.5 55t15.5 56q8 24 10 34q22 73 19 125v11 q0 6 2 8q0 32 4 90q5 79 4 88q0 18 1 48t1 44v115q0 60 -12 170l-2 10q-1 9 -3.5 24.5t-3.5 20.5q-12 68 -26 100q-5 11 -8 21q-9 33 -35 88q-3 7 -9.5 21.5t-9.5 21.5q-1 4 -10 22q-25 39 -63 50q-6 2 -15 2q-14 0 -26 -9q-43 -30 -64 -73q-30 -54 -53 -137 q-35 -108 -41 -224q-2 -40 -10 -145q-4 -31 -4 -80v-41v-18z" />
<glyph unicode="1" horiz-adv-x="559" d="M102 20q0 7 2 7l2 4h5q12 2 39 2q10 2 32 2h37q21 0 25 22q1 7 2 23t2 24v84q2 31 2 95q0 8 1 23t1 22q0 5 1 14t1 14v41q2 59 2 176q0 29 1 89t1 90v84q0 14 1 43t1 43v20q0 57 4 84q0 23 2 33v14v35q0 2 2 42t4 60q2 12 2 35q-2 2 -2 8q0 8 -6 11q-4 4 -10 4 q-4 0 -12 -4l-25 -25l-2 -4l-37 -37l-2 -2q-4 -3 -11 -9t-11 -9q-4 -7 -15 -7l-2 -2q-7 0 -12 9q-8 18 -4 41q2 6 6 14l18 18q3 4 5 4q2 2 9.5 11t12.5 12q16 18 55 57q34 30 60 51q4 3 22 21h2q2 0 2 2h2l11 4l2 -10v-14q-2 -61 -2 -371q0 -57 2 -84q0 -100 2 -135v-2v-35 v-39q-4 -147 -8 -184v-27v-6v-51q0 -13 -1 -37t-1 -35q0 -41 -5 -231v-19q0 -3 -1 -8.5t-1 -7.5v-4v-43q0 -35 33 -35q25 0 37 -2h33q16 0 24 -2q6 0 13 -11v-2v-2q3 -3 -2 -8l-2 -2l-5 -2h-10q-25 0 -35 -2h-10q-94 0 -139 -4q-23 -2 -66 -2h-18h-2h-19h-14q-13 0 -22 6 q-9 9 -9 18z" />
<glyph unicode="2" horiz-adv-x="641" d="M104 16q-3 35 9 62q3 8 10 25.5t10 25.5h2q1 4 4 12.5t4 12.5q36 80 56 141q6 21 12 39q29 70 76 209q6 18 19.5 55.5t19.5 56.5q43 115 71 219q33 125 52 248q9 76 6 162q0 25 -2 33q-3 19 -15.5 30t-31.5 13h-17q-69 0 -117 -51q-12 -14 -20 -39q-6 -15 -23 -15h-4h-4 v5v-5h-4q-7 0 -14 7q-4 8 -4 16q3 19 12 37q17 30 49 55q59 37 102 47q21 6 44 6q29 0 53 -8q28 -10 39 -33q17 -24 24 -61q15 -80 2 -166q-1 -6 -14 -72q-22 -81 -23 -84q-28 -104 -38 -137q-15 -50 -17 -59q-1 -3 -2 -9t-2 -8q-11 -52 -41 -145q-3 -9 -9 -28.5t-9 -28.5 q-16 -43 -39 -113q-26 -85 -58 -170q-6 -19 -17 -57.5t-17 -57.5q-2 -7 -6.5 -22.5t-6.5 -22.5q-2 -4 -2 -10q0 -2 -2 -4q0 -6 6 -12q9 -9 11 -9h4h14h106h5h129h2q12 0 20 -2q5 0 8 -6q14 -52 11 -69q-3 -14 -17 -17h-6q-18 -6 -39 -6t-62 -1t-61 -1q-16 -2 -47 -2h-82h-69 q-23 0 -37 2q-9 0 -13 12z" />
<glyph unicode="3" horiz-adv-x="575" d="M106 43q-6 13 0 25q3 6 13 6h4q15 -10 18 -11v-2q5 0 9 -4q25 -14 49 -20q6 -2 20 -2q35 0 55 26q10 13 25 35q18 39 37 80q1 4 3 12.5t3 12.5l2 12q6 27 14 74q2 10 2 30v15q0 10 2 14q0 19 3 31q4 27 4 76q0 43 6 90q4 14 4 41v2v65v49q0 55 -6 84q0 4 -1 14t-1 15v6 q-3 80 -47 164q-10 23 -35 41q-8 4 -10 8l-5 2l2 6q0 1 1.5 4t1.5 5q31 54 34 129q2 25 2 69q0 5 -1 16.5t-1 16.5q0 19 -8 47q-7 24 -24 41q-24 27 -52 27q-2 0 -7.5 1t-8.5 1h-12q-4 -2 -13 -2h-8h-6h-2h-4l-2 4q-2 0 -2 4l-2 2l2 4q4 8 6 8v2h2q36 19 68 19q26 0 53 -15 l12 -6l12 -6q38 -20 54 -65q24 -82 18 -158q-3 -44 -24 -84q-1 -3 -4.5 -8t-4.5 -6q-3 -5 -8 -15.5t-8 -15.5q-7 -13 2 -25q12 -16 20 -24q54 -63 72 -144q13 -55 21 -104v-8q9 -64 12 -129l2 -13q9 -148 -12 -256q0 -3 -1 -9t-1 -9q-3 -60 -29 -137q-30 -94 -92 -156 q-30 -30 -58 -41q-4 -2 -11 -6t-11 -6q-1 0 -3 -1t-3 -1l-2 -2h-53h-3q-1 1 -4.5 2t-5.5 2q-8 2 -24 10q-32 11 -50 41z" />
<glyph unicode="4" horiz-adv-x="733" d="M104 391q0 2 1 4t2 5.5t2 5.5q10 41 14 51q23 58 39 104q18 55 26 76q1 5 4.5 12.5t4.5 9.5q3 7 8 21.5t8 21.5q8 24 23.5 72.5t23.5 71.5q2 6 6 18.5t6 18.5q16 58 39 112q2 5 6 15.5t5 13.5l6 18q13 37 37 108t36 105q3 9 7 17q19 54 28 88q0 4 4 16q0 2 1 5t1 5 q6 23 15.5 31t29.5 8q13 0 21 -2h4v-2l4 -4v-4q2 -4 2 -10v-10q2 -16 2 -50v-266q0 -77 -1 -213.5t-1 -187.5v-111v-73v-37q0 -20 7.5 -27.5t29.5 -7.5h8h8h15l30 -6q13 0 13 -6q3 -3 0 -17q0 -7 -11 -10q-5 -1 -14.5 -2t-13.5 -2t-11 -2t-10 -2h-6q-2 0 -6 -1t-6 -1 q-33 -8 -35 -37v-12q0 -3 -3 -35t-3 -49q3 -44 0 -84v-41v-9q0 -42 6 -65v-8v-6q3 -23 -12 -35l-2 -2h-47v8v18q-1 45 -2 136t-2 135q0 40 -7 61q-7 13 -18 16q-30 5 -33 5q-115 0 -170 -2h-37h-14h-16h-2q-18 0 -41 10q-5 2 -7.5 7t-1.5 9zM197 434q0 -11 6 -20 q5 -7 16 -11h4q10 -2 27 -2h6q23 1 125 11h22q2 0 6.5 1t6.5 1q0 2 2 2q25 6 28 35v41v223v69h3v7v20q-3 23 0 43q4 37 4 111v16q0 88 4 131v18q0 7 -2 9v2q0 4 -5 9t-10 5h-2q-6 0 -12 -6q0 -1 -1 -3t-1 -3q-11 -15 -16 -27l-15 -45t-18 -59q-15 -43 -21 -66 q-22 -76 -32 -106l-5 -17q-18 -52 -45 -141q-39 -125 -41 -133l-2 -2q-4 -15 -13 -46.5t-13 -47.5q-1 -3 -3 -9.5t-3 -9.5z" />
<glyph unicode="5" horiz-adv-x="567" d="M102 72q0 10 9 14h8h8l2 -2q8 -12 14 -18q20 -33 66 -39q6 -2 22 -2h19h6q2 0 4 2h4l4 -15l-4 -2q-23 -9 -26 -10q-16 -4 -23 -4q-12 0 -20 2q-37 7 -66 25q-27 24 -27 49zM109 1094v247v23q0 13 4 33q0 10 12 14q50 10 61 10h2q8 2 27 2q25 0 53 -4q14 -2 47 -2 q12 -2 35 -2h33h25h18h2l2 -16h-4q-4 0 -6 -2q-21 0 -53 -4q-9 -1 -47 -4t-58 -3h-6h-2q-31 0 -45 -2q-10 0 -17.5 -7.5t-9.5 -18.5v-15v-20q-4 -136 -4 -205v-41q4 -25 27 -28h22q12 -2 37 -2t62 -13q58 -19 82 -69q12 -21 20 -54q25 -104 29 -172v-2v-8q8 -37 8 -115v-20 q0 -52 -6 -86q0 -4 -1 -12t-1 -11v-2q-10 -79 -11 -104l-2 -4q-4 -83 -16 -142q-20 -106 -88 -180q-24 -24 -47 -33l-19 -6l-6 15l2 2q4 0 4 2q35 17 54 53q19 42 24 72q0 1 6 35t7 51q0 16 2 22v2q8 122 8 189v14v10q7 50 4 105q-1 0 -0.5 36t0.5 37v41v45q-1 4 -2 13.5 t-2 13.5q0 19 -2 29q-2 38 -19 104q-19 68 -86 92q-25 11 -53 11h-2h-14q-21 0 -31 2q-21 0 -31 2q-17 3 -20 18q-8 40 -8 64z" />
<glyph unicode="6" horiz-adv-x="653" d="M106 526q-8 98 3 201v6q2 8 2 23q0 24 8 78q4 28 4 40q3 26 10 58q3 15 6 33q10 73 45 165q26 69 80 144q10 13 31 38.5t31 37.5q3 3 8 10t8 10q20 26 43 39q9 6 16 6q14 0 17 -22q3 -13 -6 -25q-3 -3 -11 -10.5t-12 -11.5q-29 -25 -82 -91q-8 -8 -10 -12 q-36 -41 -55 -104q-38 -131 -49 -230q-16 -176 -5 -377q0 -24 7 -55q0 -10 4 -22v-6q8 -19 24 -19q1 0 3 1t3 1q36 11 99 19q18 4 65 4h35h4q40 0 78 -35q14 -11 20 -33q0 -1 1 -3t1 -3q2 -6 7 -21.5t6 -23.5q4 -32 4 -49q2 -6 2 -17v-2q-4 -113 -33 -172q-9 -23 -24 -49 q-16 -25 -48 -35q-34 -12 -63 -12q-3 0 -10 1t-11 1q-61 8 -92 27l-4 2q-19 14 -20 16q-53 53 -70 98q-34 88 -45 158q-23 149 -25 223zM219 342q6 -30 12 -57v-2q4 -12 10 -36.5t7 -29.5q5 -21 24 -76q15 -35 62 -78q8 -6 28 -16q16 -4 25 -4q15 0 27 6q10 2 28 17 q32 27 41 38q43 46 43 107v22v9v6v10v21q2 33 -18 79q-10 23 -31 41q-46 37 -102 37q-17 0 -23 -2q-48 -5 -94 -31q-6 -3 -27 -18q-19 -19 -12 -43z" />
<glyph unicode="7" horiz-adv-x="624" d="M104 1403v2q-2 9 5 16q6 6 12 6q12 3 31 3q3 0 9.5 1t10.5 1q35 0 145 -9h15h14h16h121q3 0 10 -1t13 -1q13 -3 16 -20q0 -3 -1 -9.5t-1 -9.5q-10 -67 -35 -192l-10 -51q-6 -26 -13 -57t-15 -68.5t-13 -59.5q-2 -10 -7 -33.5t-7 -37.5q-3 -14 -8.5 -40.5t-8.5 -39.5 q-2 -10 -7 -31t-7 -31q-6 -24 -12 -51q-7 -34 -21 -90q-19 -91 -26 -121q-6 -29 -35 -143l-2 -12q-4 -17 -14.5 -54.5t-19.5 -72.5t-17 -66q-8 -33 -31 -100q-6 -21 -13 -26.5t-30 -6.5h-8q-9 0 -21 4q-8 5 -8 10v17q5 18 14 61q4 15 11 41t8 31v2q6 21 16 61.5t13 53.5 q10 49 34 147q1 3 29 131q9 35 18 72q2 8 7.5 27t7.5 30q24 94 35 148q1 4 4 14.5t4 17.5q9 35 20 99q5 27 35 141q15 47 21 72q4 18 13.5 51t12.5 45v2q8 18 15 47q8 25 10 35q2 14 -4 26q-11 11 -23 11h-24h-5q-5 0 -15 1t-15 1h-4h-84h-4h-70q-14 -2 -45 -2h-12h-39l-2 2 q-3 0 -9 6z" />
<glyph unicode="8" horiz-adv-x="698" d="M104 377q-2 39 9 104q0 4 1 14t1 15q1 4 2 12.5t2 12.5q2 4 2 10q15 96 53 170q41 84 86 149l12 18t11 19q9 15 0 33q-8 8 -13 18q-32 43 -71 123q-28 55 -37 117q-9 93 49 166q28 38 84 57q19 8 45 8q33 0 55 -14q36 -22 54 -47q62 -73 47 -199q0 -8 -4 -24 q0 -1 -1.5 -3t-1.5 -3q-8 -41 -40 -78l-33 -33q-15 -18 0 -37q23 -31 28 -37q39 -49 62 -104l6 -13q28 -72 35 -94q14 -44 24 -88q9 -47 15 -90q11 -83 8 -149q-2 -12 -2 -37v-19q-6 -86 -27 -157q-15 -47 -43 -95q-39 -66 -100 -92q-9 -3 -35 -16l-12 -6h-2h-51l-3 2 q-20 12 -57 22q-27 6 -47 29q-39 42 -57 80q-40 81 -49 170v16q-5 57 -5 70zM143 422q2 -8 2 -29q1 -11 2.5 -33t2.5 -32q13 -114 69 -205q14 -29 43 -51q13 -13 31 -13h2q68 3 111 37l2 2q5 4 15 12.5t15 12.5q45 42 62 100q26 106 12 211q-8 68 -31 154q-13 51 -37 104 q-32 71 -100 164h-2q-2 3 -5 8t-5 8q-7 7 -10 7q-2 2 -9 2q-4 0 -6 -2q-9 -6 -16 -13l-4 -8q-33 -55 -37 -63q-45 -82 -90 -224q-9 -21 -13 -55q0 -10 -1 -31.5t-1 -33.5q0 -5 -1 -14t-1 -13v-2zM240 1182q3 -57 45 -88q62 -49 67 -52l13 -10q4 -2 12 -2t12 4q2 0 2 2 q2 1 5 3t5 3q15 15 41 54q7 7 13 16q2 2 6 10v4q18 35 18 91q2 29 -14 73q-3 12 -10 19q-30 38 -66 59q-18 12 -39 12q-24 0 -41 -14q-41 -24 -57 -74q-17 -60 -12 -110z" />
<glyph unicode="9" horiz-adv-x="657" d="M104 1159q-9 74 31 158q22 52 72 82q25 17 76 24h16q37 0 74 -16q1 -1 4 -2t4 -2q41 -18 57 -41l6 -6q11 -11 17 -23q44 -83 59 -155q16 -111 17 -127q0 -9 4 -33q0 -15 4 -43v-2q4 -17 8 -55q3 -37 0 -74q0 -9 -2 -13v-14q0 -21 -4 -67q0 -22 -4 -58v-4q0 -4 -1 -11 t-1 -11l-2 -15q0 -18 -2 -26q-9 -137 -41 -224q-5 -24 -17 -55q-6 -23 -18 -63q-23 -68 -70 -146q-39 -67 -94 -108q-11 -7 -37 -29l-2 -2q-4 -2 -10 -8l-4 -2h-11l-4 12q-2 6 -5 18.5t-5 18.5q-6 17 8 31q39 29 82 79q16 20 25 29q60 66 94 166q25 77 37 190q6 61 6 187v2 v92q0 15 -2 23v2q-4 64 -8 94q0 9 -4 29q-4 18 -25 18h-4q-6 0 -22 -4q-36 -11 -82 -17l-2 -2q-12 -2 -33 -2q-68 0 -129 52q-11 11 -17 20q-17 25 -28 66q-1 7 -11 67zM160 1112q3 -31 16 -63q26 -54 86 -60h19q7 0 20.5 1t20.5 1q60 6 106 49q17 17 14 33q-2 8 -2 23 q-5 35 -6 41q-9 67 -37 135q-25 63 -80 90q-21 12 -41 12q-32 0 -55 -26q-37 -40 -49 -103q-12 -58 -12 -102v-6v-25z" />
<glyph unicode=":" horiz-adv-x="253" d="M104 731q4 20 11 29q1 1 3 2t3 2q11 8 20 -4q9 -9 9 -17v-12q0 -10 -9 -22q-9 -9 -14 -9h-6q-7 3 -13 14t-4 17zM111 213q0 8 2 12q3 13 12 19q4 3 11.5 1.5t8.5 -7.5q9 -21 -2 -41q-3 -7 -8 -9q-4 -3 -11.5 -1t-8.5 8q-4 6 -4 18z" />
<glyph unicode=";" horiz-adv-x="294" d="M102 199q12 55 31 102q3 8 10.5 25.5t10.5 25.5q3 13 20 13q15 -4 19 -17v-12v-6q-22 -83 -43 -133q-3 -12 -17 -19q-6 -3 -16 0q-1 1 -3 2t-3 2q-9 6 -9 17zM129 715q-7 25 6 41q2 4 10 8q4 2 17 2h12q11 -4 14 -12q6 -26 -12 -47q-1 0 -3 -1t-3 -1q-13 -10 -29 -3 q-9 3 -12 13z" />
<glyph unicode="&#x3c;" horiz-adv-x="473" d="M102 717q0 8 2 12q6 9 15 12q27 15 57 25q66 25 121 57q6 3 17.5 8.5t17.5 8.5q2 1 6 2t6 2q5 2 12.5 -2t8.5 -8q2 -2 2 -7q4 -12 4 -18q0 -13 -13 -23q-49 -29 -84 -41q-54 -23 -63 -28q-4 0 -6 -2q-1 -2 -4 -5t-4 -5q-4 -7 4 -11q138 -91 143 -94l8 -8q3 -5 1 -12.5 t-7 -10.5q-12 -4 -18 -2q-21 9 -39 21q-12 8 -34 23.5t-34 23.5q-24 14 -53 35q-42 23 -55 32q-7 2 -11 15z" />
<glyph unicode="=" d="M104 514l5 10q5 9 8 11q28 14 55 14h70q94 -5 227 2q53 0 63 -2q13 0 17 -17q0 -14 -12 -20q-3 -1 -9.5 -2t-9.5 -2q-44 -8 -100 -8q-94 -2 -285 -2q-12 0 -18 2q-5 0 -8.5 5t-2.5 9zM104 676q0 9 7 16q4 8 8 8q44 17 74 15q10 -1 29 -1t28 -1q109 -3 196 2h82 q13 0 17 -8q6 -6 2 -19q0 -8 -6 -8q-34 -11 -76 -14q-39 -2 -119 -2q-145 0 -217 -2q-6 0 -18 4q-7 4 -7 10z" />
<glyph unicode="&#x3e;" horiz-adv-x="475" d="M104 805q-3 19 13 35q4 4 16 4l12 -4q6 -3 17.5 -9.5t17.5 -9.5q59 -35 121 -55q21 -6 41 -16t23 -13q6 -4 7.5 -14t-3.5 -14q-1 -1 -3.5 -4t-4 -4.5t-3.5 -2.5q-13 -8 -38 -24t-37 -23q-32 -19 -80 -51q-30 -23 -56 -33h-12q-5 0 -10 7.5t-4 11.5q1 1 3 5t3 5q2 2 7 6 t7 6q26 16 71 45t58 37q13 9 9 17q-2 5 -9 8q-62 28 -82 35q-50 24 -73 38q-8 8 -11 17z" />
<glyph unicode="?" horiz-adv-x="452" d="M104 872q1 9 6.5 33t6.5 37q16 65 69 94q21 14 41 17q11 0 27 4q25 3 45 -17q18 -15 29 -49q12 -56 16 -80q6 -46 6 -90q-2 -47 -6 -145q0 -13 -2 -19q-4 -11 -7.5 -32.5t-4.5 -24.5q-12 -39 -29 -61q-3 -4 -9 -13.5t-9 -13.5q-1 -8 -4.5 -21t-4.5 -18q-2 -8 -2 -24 l-3 -45t-3 -44q0 -36 -10 -81q-2 -9 -10 -17q-15 -8 -25 -10q-6 -2 -11 2t-5 10q-3 53 4 115q3 13 8 82q0 23 2 33q0 12 6 24q3 4 8.5 13.5t8.5 13.5q19 27 39 94q1 4 2 12.5t2 12.5q6 14 10 63q0 111 -2 164q0 14 -2 20q-2 10 -6 31t-6 31q-3 16 -15 28q-14 14 -35 11 q-37 -9 -63 -41q-5 -5 -10 -15q-15 -34 -15 -55v-33q-3 -19 -12 -34q-8 -11 -16 -3q-7 3 -7 11q-2 5 -2 30zM205 32q-3 15 6 25q15 18 33 4q12 -10 12 -25t-12 -24q-8 -4 -13 -4q-5 -3 -10 2q-13 7 -16 22z" />
<glyph unicode="@" horiz-adv-x="1134" d="M106 520q3 44 15 88q17 68 39 127q23 69 57 113q12 16 16 20q43 64 129 113q8 4 26 12.5t26 12.5l18 6q11 2 35.5 9.5t38.5 8.5q32 11 69 8h13q43 0 63 -2q9 -2 28 -6t28 -6q17 -7 51 -14q30 -6 59 -19q24 -11 41 -16q40 -17 62 -37q6 -5 36 -35q15 -15 23 -31 q16 -32 18 -38q20 -50 21 -62q8 -28 12 -82q3 -51 -4 -115q-2 -11 -7 -36t-7 -39q-15 -45 -21 -60q-26 -64 -82 -137q-4 -6 -16 -18q-29 -25 -57 -25q-21 0 -33 -2q-34 0 -72 23q-3 2 -10 7t-10 7q-13 9 -25 0q-30 -25 -45 -35q-31 -18 -66 -24q-20 -2 -59 -9q-4 1 -21 4.5 t-26 4.5q-32 3 -61 32q-23 22 -35 45q-7 14 -8 17q-2 5 -5.5 15t-5.5 15q0 2 -1 6.5t-1 6.5q0 11 -5 41t-3 47q1 14 4 44t4 44q0 9 3.5 25t4.5 20q6 38 41 98q14 19 35 37q22 17 33 23q29 20 72 20q52 -3 110 -29q17 -7 29 -14q12 -5 20 6q2 2 6.5 7.5t6.5 7.5q5 5 18 2 q17 -10 14 -27q0 -12 -2 -18q0 -5 -2 -15.5t-2 -15.5q-4 -20 -4 -27q-4 -122 -2 -184q0 -15 1 -45t1 -45q3 -27 15 -47q15 -28 43 -37q14 -6 32 -2q23 7 39 20q30 27 43 56q6 13 20.5 37t20.5 36q3 11 10.5 37t10.5 41q6 15 6 31q4 44 10 69q6 48 -2 91q-4 20 -4 30 q-1 13 -16 62q-23 61 -80 106q-27 19 -49 29q-20 8 -66 24q-2 1 -6 2.5t-6 2.5q-12 2 -25.5 5t-29.5 7t-25 6q-13 4 -43 8q-1 0 -45 0.5t-45 -0.5q-26 -4 -37 -8q-4 -1 -12.5 -3t-12.5 -3q-42 -10 -94 -39q-35 -18 -63 -43q-59 -53 -103 -137q-21 -43 -45 -125q-2 -7 -7 -27 t-7 -31q-8 -52 -10 -75q-7 -54 2 -101q1 -3 6 -32q0 -25 6 -37q2 -7 4.5 -19.5t5.5 -23t8 -19.5q24 -68 80 -121q7 -6 21.5 -18t21.5 -18q44 -31 72 -41q29 -10 37 -11q10 0 26 -4q25 -8 74 -8q69 0 102 8q6 1 19.5 3t24 4t18.5 6q41 7 127 45q2 1 16.5 8.5t22.5 11.5 q12 4 18 4q12 3 23 -8q7 -13 -2 -25q-2 -4 -8 -10q-57 -35 -134 -61q-16 -6 -48 -13.5t-38 -9.5q-5 -1 -15 -2t-15 -2q-12 -1 -35.5 -3t-34.5 -3q-47 -6 -88 2q-28 4 -88 16q-24 7 -43 15q-28 12 -76 47l-8 8q-36 31 -48 44.5t-40 55.5q-16 27 -29 64q-5 13 -9 27t-8 32 t-7 27q-2 6 -2 18q-10 94 -5 166zM420 453q1 -4 6 -76q3 -25 12 -49q21 -46 68 -64q2 0 6 -1t6 -1q35 0 51 4q9 4 31 8q10 4 16 9q32 19 50 49q6 9 6 18q0 17 -2 25q0 86 6 127q6 93 6 96t1 16t1 21v20q0 14 -6 23q-11 16 -27 29q-6 4 -18.5 12t-18.5 12q-37 19 -67 6 q-2 -1 -6 -2t-6 -2q-13 -2 -33 -18q-18 -22 -23 -31q-31 -49 -41 -92q-9 -26 -12 -55q-5 -66 -6 -70q-4 -7 0 -14z" />
<glyph unicode="A" horiz-adv-x="825" d="M16 0q-2 9 7 18t24 13l2 2q34 8 47 18q14 8 17 21q1 6 4 17t4 17l2 11q1 3 2 10t2 10q2 16 10 43q8 30 21 94q0 3 1 8.5t1 8.5q1 8 4 22t4 19q20 75 33 149q2 9 5 28t5 28q3 16 8 47t8 47q6 40 25 135q3 16 18 94q4 25 9 41v4v6q11 46 32 154q12 65 27 129q7 31 20 102 q3 23 9 43q4 12 -7 23q-7 10 -18 10q-5 0 -14.5 1t-14.5 1h-18h-2q-5 0 -14.5 1t-14.5 1q-8 4 -8 13q-3 9 0 20q0 4 8 8h2q1 0 3 1t3 1q124 13 127 13h13h10q25 -3 31 -25q2 -6 5 -20.5t5 -20.5q18 -100 35 -166q3 -14 8 -42t8 -42q1 -7 3 -21.5t3 -21.5q4 -17 11.5 -52.5 t11.5 -53.5q4 -31 16 -93q4 -20 6 -32q18 -85 21 -121q3 -44 12 -72q12 -72 16 -110q1 -5 2 -14t2 -13q2 -11 6.5 -38.5t6.5 -43.5q1 -6 4 -21t4 -24q12 -66 12 -72q10 -64 23 -108q13 -46 20 -109q5 -32 16 -44t44 -15q14 0 22 -2q15 -4 15 -17q0 -16 -13 -20 q-20 -4 -30 -4q-20 -2 -62 -2h-18h-6h-21h-2h-21h-30q-4 0 -13.5 1t-13.5 1q-14 4 -14 20q3 15 14 19q3 0 9 1t8 1h16q6 2 16 2q3 0 8.5 1t8.5 1h2q6 1 11 7t5 11q4 22 -2 39q-1 2 -2 7t-2 8q-7 21 -10 39q-4 19 -12.5 55t-12.5 55q-8 43 -14 59q-3 18 -6 33q-9 25 -33 25 h-10h-15q-33 0 -49 -2q-59 -6 -102 -6q-7 0 -22.5 1t-22.5 1h-8h-25q-18 -4 -25 -25v-4q-4 -15 -8 -41q-8 -58 -33 -172q-2 -7 -5 -23.5t-5 -23.5q-1 -3 -2 -10.5t-2 -10.5q0 -18 19 -22h12q4 -1 10.5 -2t9.5 -2q10 0 19 -6q8 -5 8 -19q0 -11 -10 -14l-2 -2q-5 0 -7 -2 q-12 0 -18 -2q-36 -4 -49 -4h-43h-86h-2h-29q-3 0 -9 1t-9 1q-1 0 -2 1t-2 1q-4 0 -7.5 3.5t-3.5 6.5zM293 449q0 -6 5 -13.5t11 -7.5q2 0 4 -2h19q12 -2 39 -2h22h23h6v2h18h25h33q26 0 47 6q29 3 26 35q-1 4 -2 10.5t-2 9.5q0 2 -1 6.5t-1 6.5q-4 20 -6 28v2q-1 8 -4 21.5 t-5 25t-3 21.5q-11 82 -43 236q-21 102 -41 239q-8 57 -14 80q0 9 -5 29q0 4 -4 8q0 2 -2 2q-3 6 -6 6q-5 0 -8 -8q-2 -2 -2 -4q-1 -2 -2 -7t-2 -8q-12 -120 -27 -184l-4 -14q-16 -69 -18 -109q0 -6 -2 -8v-6q-18 -84 -35 -201q-1 -5 -2 -15.5t-2 -15.5q-7 -41 -17 -79 q-2 -10 -6 -32t-6 -32l-4 -12q0 -8 -2 -12v-2z" />
<glyph unicode="B" horiz-adv-x="770" d="M102 1415q0 15 9 15l4 2q20 4 30 4q27 2 78 2h4h29h31h10h4q32 0 82 -11q10 0 14 -2q55 -10 78 -55q7 -12 14 -29q24 -64 33 -127q2 -13 2 -26q0 -64 -37 -125q-11 -19 -28 -33l-4 -4q-2 -2 -8 -6.5t-9 -7.5q0 -1 -1 -3.5t-1 -4.5q1 -1 2.5 -4.5t3.5 -4.5q7 -7 25 -14 q66 -29 115 -111l18 -36q7 -17 14 -29q28 -51 41 -152q1 -11 4.5 -35.5t4.5 -37.5v-2q2 -18 2 -52q2 -30 2 -61.5t-2 -63.5q0 -45 -9 -86l-6 -30q-14 -65 -18 -76q-9 -24 -39 -82q-34 -55 -98 -96q-14 -11 -33 -17q-68 -22 -111 -22h-8h-10q-29 0 -43 -2h-25h-6v-2h-8 q-40 4 -66 4h-30h-9h-4v2h-2q-6 3 -6 14q0 2 2 4.5t2 3.5l2 2h4q2 0 6.5 1t6.5 1h12h2q4 1 11.5 2.5t11.5 2.5q15 6 18 22q0 4 1 13t1 14q-1 169 -2 519.5t-2 524.5q0 27 -2 39v27q-2 27 -2 82q-2 23 -2 63v2q0 6 -1 20t-1 21q-4 19 -23 25q-3 1 -10.5 2t-11.5 2h-4 q-13 0 -19 2q-14 0 -22 2h-2l-2 2q-3 0 -7 8zM289 1335l2 -53q1 -30 2 -89.5t2 -88.5q0 -6 1 -23t1 -26q0 -13 4 -17q2 -7 12 -12q6 -2 17 -2q12 0 18 2q6 1 18.5 4t18.5 4l8 4q54 12 78 62q17 34 17 70q0 14 -3 28q-7 29 -14 80q-4 38 -27.5 63.5t-60.5 34.5q-5 1 -16 2 t-15 2h-6h-2h-4q-33 0 -41 -10q-10 -10 -10 -35zM299 178q0 -57 2 -84q0 -6 1 -17t1 -16q0 -2 1 -7t1 -7v-4q4 -18 23 -18q20 0 30 2h2h19q26 3 47 12q8 5 16 8q3 1 8.5 4t8.5 4q48 25 78 68q24 29 49 84q9 17 12 41q2 8 2 24q8 62 8 97v188v16q0 28 -6 58q-12 78 -12 102 q0 31 -17 58q-37 48 -88 122q-31 42 -84 54q-2 0 -7 1t-7 1q-3 1 -8 3t-8 3q-28 4 -39 4h-2q-14 0 -22.5 -8t-8.5 -21v-32v-330v-86v-8q2 -8 2 -27v-14v-68v-82q-2 -41 -2 -125z" />
<glyph unicode="C" horiz-adv-x="647" d="M102 664v26v64v2q0 100 2 151q3 89 27 191q2 10 23 86q2 11 16 65q8 34 29 70q2 2 14 20l4 7q40 66 121 84q6 0 10 2q2 0 8 1t9 1q2 2 4 2q3 0 8.5 1t7.5 1h4q12 -2 86 -17q29 -6 49 -32q8 -8 8 -23q0 -2 -4 -10q-8 -4 -10 -4h-2q-12 4 -20 8q-2 2 -4 2q-28 14 -66 14 q-34 0 -64 -12q-77 -27 -104 -111q-8 -23 -12 -51q-2 -8 -6 -20q0 -3 -1 -10t-1 -11q-2 -11 -9 -28q-16 -66 -16 -129q0 -64 -6 -119q-4 -31 -4 -90v-7v-194v-59v-23q4 -48 8 -74q3 -40 6 -78q11 -96 12 -106q1 -11 29 -135l4 -13q6 -27 29 -51q26 -26 55 -26h4q7 0 20 1 t19 1q50 6 86 37q31 25 45 38q2 1 6 3.5t6 3.5l5 2l4 -2l2 -2l2 -2v-3q0 -14 -4 -22q-12 -27 -43 -49q-67 -45 -144 -45q-17 0 -49 4q-1 0 -4 1t-4 1q-2 1 -7 2t-7 2q-27 0 -64 29q-12 10 -22 26q-26 51 -39 95q-26 108 -31 167q-4 20 -4 31q-4 16 -4 23q-15 102 -15 237 q0 9 -1 28t-1 28z" />
<glyph unicode="D" horiz-adv-x="780" d="M104 4q0 10 11 14q2 1 8 2.5t8 2.5q9 0 25 4q22 4 22 28q2 8 2 27v106q0 197 -2 295q0 4 -2 6v17q-5 69 -5 155q0 43 1 91v98q6 98 6 293q-2 43 -2 129q0 23 -4 69q0 5 -1 14.5t-1 14.5q-4 18 -23 21h-14q-10 0 -16 2q-9 0 -13 12q-3 22 17 25q40 8 72 8h8h51h33h4 q30 0 80 -8q31 -5 57 -25l2 -2q86 -74 88 -76q32 -28 51 -67q36 -74 64 -166q21 -85 24 -107q13 -67 13 -86t2 -27q8 -65 8 -165v-25v-49q0 -45 -6 -86q-3 -21 -6 -45q0 -2 -3 -17.5t-4 -23.5q-2 -13 -7 -43t-7 -47q-4 -15 -8 -41q-10 -64 -55 -148q-2 -3 -6.5 -9t-6.5 -9 q-77 -93 -145 -127h-2q-61 -43 -166 -47q-16 -2 -45 -2q-26 0 -66 -4h-6q-4 0 -20 4h-4q-11 0 -11 14zM254 1321q0 -101 2 -152q0 -52 2 -77v-23q0 -29 2 -43q0 -14 1 -43t1 -43q0 -30 -1 -90t-1 -88q0 -12 -1 -34t-1 -32v-26q-4 -56 -4 -132q0 -50 2 -108q0 -37 2 -55 q0 -13 1 -37t1 -37q0 -80 2 -119v-80q0 -35 2 -51q0 -20 25 -20h2q43 0 82 28q3 2 9 7.5t9 7.5q3 3 10.5 9t10.5 9q75 51 135 133q36 51 47 103q1 6 4 18.5t4 18.5q29 123 31 180v4v6q2 4 2 14q0 6 1 19.5t1 19.5v43v19v12v29v16q0 50 -10 121q-4 33 -14 92t-13 82 q-14 74 -33 139q-1 3 -5.5 14.5t-6.5 16.5q-17 32 -43 65q-44 53 -98 95q-29 23 -84 39q-24 4 -33 4q-3 0 -10.5 -1t-10.5 -1q-22 -4 -22 -25v-47z" />
<glyph unicode="E" horiz-adv-x="702" d="M104 1391q-3 14 2 22l3 4l2 2h2q14 5 34 8q58 5 66 5h16q70 -2 207 -2h33q15 0 23 2t22 2q13 0 41 -4q6 0 12 -3q14 0 21 -14l6 -18q4 -46 4 -78q0 -24 -2 -41q0 -6 -6 -12q-11 -7 -21 -7q-6 0 -12 3l-4 4h-2v2q-6 15 -6 30q-1 4 -2 14t-2 15v21q-3 20 -25 24h-12h-12 q-40 -6 -82 -6t-82 6h-15h-14h-4q-18 0 -25 -22v-2q0 -2 -1 -6.5t-1 -6.5q0 -17 -1 -53.5t-1 -56.5q-2 -39 -2 -111q0 -6 1 -17.5t1 -17.5v-6q4 -14 19 -18h4q4 -2 14 -2q135 0 201 2h6h14q19 0 23 18q0 6 2 10q0 9 2 13q0 7 12 10h6q16 0 23 -17v-2q0 -1 1 -3t1 -3v-8v-10 q2 -33 2 -105q0 -8 -2 -12v-4q-4 -8 -8 -8l-2 -2h-2h-13h-12h-2l-4 4v2l-2 2v10v13h-2q0 12 -2 18q-3 13 -17 16q-4 2 -10 2h-2q-4 2 -12 2h-4q-25 -4 -86 -4h-43h-41h-19q-14 0 -24 -2q-8 0 -15 -7t-8 -17v-19v-342v-57h-2v-6v-45v-119q0 -6 -1 -18.5t-1 -18.5 q0 -4 -1 -12.5t-1 -12.5v-67q-2 -6 -2 -16v-3q0 -52 2 -79q0 -34 6 -68v-10q4 -25 29 -25q10 -2 26 -2h154h23q18 0 28 2q8 0 15 7t8 16q0 16 2 24v23q0 19 8 24q7 7 27 7h4h2l2 -2q0 -1 2 -3h2v-4v-2q2 -2 2 -8v-110q0 -5 -2 -7v-2q0 -11 -14 -18q-4 -2 -13 -2 q-8 -2 -22 -2q-101 0 -150 2h-39h-28h-41h-23h-12q-24 0 -64 4q-8 0 -26 1t-27 1q-4 0 -6 2q-12 2 -12 10v25v4l4 2q2 2 4 2l2 2h2q28 4 34.5 12.5t6.5 34.5v8v2q2 18 2 54v75q0 261 -2 390q0 13 -1 41t-1 41q-2 16 -2 47q-2 23 -2 63v191q-2 98 -2 303q0 6 -1 19t-1 20v6 q-2 6 -7.5 12t-11.5 6q-4 2 -12 2q-2 0 -7 1t-7 1q-13 4 -13 15z" />
<glyph unicode="F" horiz-adv-x="714" d="M104 1391q-3 16 9 20q30 10 61 10h16h60h4q43 0 68 4q73 5 86 5h16h88q14 0 29 -3q29 0 53 -6q9 -3 12 -16q4 -47 6 -86q0 -10 -6 -16q-4 -7 -16 -7h-2q-6 0 -8 2q-3 0 -6 3t-3 6q-4 12 -4 20v19v18q-3 26 -30 29h-19h-4h-39h-2q-21 -1 -64.5 -2t-64.5 -2q-10 0 -45 -5 q-2 0 -5 -1t-5 -1q-7 -1 -13 -8.5t-6 -13.5v-33q2 -16 2 -51q0 -20 1 -59t1 -58q0 -45 2 -65q0 -33 7 -42.5t34 -9.5h9h51q65 0 90 -2h18h25h4q20 0 27 21q0 8 2 12q0 10 2 14q4 15 22 15h6q7 -3 9 -8q4 -8 4 -15q0 -21 1 -58.5t1 -55.5q0 -15 -15 -17h-8h-6h-2q-1 1 -3 2 t-3 2v2q-1 1 -6 11v4q-6 16 -12.5 21t-22.5 5h-8q-15 0 -21 -2q-31 -4 -88 -4h-26h-13h-4q-29 0 -43 -2q-28 0 -31 -26v-39v-35q0 -106 5 -180q1 -22 2 -66.5t2 -67.5v-69v-391v-9v-18q1 -14 3 -21t9.5 -12t21.5 -6q17 0 23 -2q2 0 6 -4q9 -15 6 -31q-4 -8 -8 -10 q-12 -4 -14 -4q-24 -4 -33 -4h-141q-15 0 -23 2q-6 0 -6 8q-2 4 -2 16q0 17 4.5 23t20.5 6q6 2 16 2l2 2q6 0 11 6.5t5 12.5v2q0 2 1 6t1 6q-2 18 -2 59v2q0 53 -2 80v74q0 20 -1 62t-1 63q0 7 -1 22.5t-1 22.5q-2 10 -2 29v6q-2 18 -2 57q-4 258 -4 363v55q3 89 3 143 q0 27 -1 45v99v55q0 25 -2 37q0 9 -6.5 15.5t-15.5 6.5q-13 0 -17 -2h-16h-2q-11 6 -11 13z" />
<glyph unicode="G" horiz-adv-x="737" d="M102 590v166q0 88 17 209v4q0 3 1 9t1 9q7 27 23 83.5t22 80.5q1 3 3 10t3 10q7 17 10 33q8 39 41 101q11 21 37 51q14 16 47 49q41 33 84 33q3 0 11 -1t12 -1q42 -5 71 -25q15 -10 39 -22q49 -25 66 -70q5 -8 8 -16q3 -3 8 -13q10 -27 10 -41q3 -13 -10 -22q0 -2 -2 -2 q-26 -11 -29 -11q-13 0 -24 27l-4 8q-39 76 -119 103q-18 6 -43 6q-56 0 -86 -37q-13 -16 -16 -31l-13 -39q-18 -49 -30 -102q-3 -13 -9.5 -37.5t-9.5 -36.5q-3 -16 -10 -46.5t-10 -45.5q-17 -96 -17 -146v-10q2 -35 2 -104v-53v-6q0 -21 2 -31q5 -34 5 -78q2 -14 2 -41 l2 -14q9 -130 16 -189v-4q0 -2 1 -7t1 -7q37 -118 37 -119q2 -6 10 -18q30 -46 88 -76q16 -8 41 -12q35 -6 64 -9h2q8 -2 22 -2q29 0 58 13q11 7 14 16q10 23 10 51q0 8 1 30.5t1 35.5v6v127q0 4 -1 13t-1 13v7q-4 16 -18 16q-12 2 -33 2h-23h-45q-17 3 -24 8q-10 3 -10 13 q0 8 8 12q9 6 14 6q68 6 109 6q22 0 32 -2q19 0 27 -4q23 -7 29 -31v-12q2 -12 2 -35q4 -58 4 -84q0 -193 2 -287v-26q0 -13 -4 -45q0 -13 -15 -17h-26q-19 0 -27 2q-5 0 -10 9q-6 18 -6 43l-2 59h-6h-2h-5q-38 -10 -77 -10q-29 0 -41 2h-2h-19q-51 0 -98 35 q-70 52 -107 116q-34 62 -43 105q-2 6 -5 18.5t-5 18.5q-9 41 -18 84q-4 32 -4 53q0 64 -9 111q-2 18 -2 55z" />
<glyph unicode="H" horiz-adv-x="798" d="M102 1401q0 21 19 24q35 9 57 11h41q39 0 64 -2q2 0 4.5 -1t3.5 -1q10 -5 10 -11q2 -6 2 -22q0 -5 -6 -8q-11 -7 -16 -7q-22 -6 -25 -28q0 -15 -2 -21q-1 -9 -2 -26.5t-2 -26.5v-156v-28q0 -23 2 -33q0 -13 16 -16q10 -5 15 -5h18h25h26q17 2 105 7h32q6 0 18.5 1t18.5 1 q22 4 25 24v19v243q0 19 -2 25q-4 11 -12 14q-12 4 -17 4q-2 0 -5.5 1t-4.5 1q-8 3 -12 15v16q3 12 10 12q3 3 8 3q55 10 107 10q5 0 15 -1t15 -1q3 0 10.5 -1t10.5 -1q11 -4 14 -13q4 -9 0 -18q-3 -7 -10 -10q-3 0 -8.5 -1t-7.5 -1q-7 0 -11 -2h-4q-4 0 -14 -5 q-9 -3 -12 -12q-5 -15 -5 -20v-64v-112v-2q0 -12 1 -37t1 -39v-23q0 -51 3 -100q2 -18 1.5 -35.5t-1.5 -34.5v-18v-43q-3 -27 -3 -58q-2 -119 -2 -368q0 -14 5 -72q0 -27 2 -39q0 -13 1 -37t1 -36v-76v-58q0 -22 2 -32q0 -6 6 -12.5t12 -8.5q3 0 9.5 -1t9.5 -1l-2 -4l2 4 q3 -1 9 -2t9 -2q6 0 10 -5t4 -11q0 -14 -10 -21h-4l-8 -4q-17 0 -49 -4q-69 -6 -70 -6q-12 0 -18 2q-15 0 -21 2q-7 2 -10 12q0 2 -1 6t-1 6q0 14 3.5 18.5t16.5 8.5q2 0 4 2q7 0 11 2q7 7 10 15q1 2 2 7t2 7q0 90 2 133q4 114 4 176q-2 20 -2 60q0 10 -1 31.5t-1 33.5 q0 37 -1 111.5t-1 111.5v2q0 21 -1 64t-1 65q0 66 -2 101q0 21 -23 28q-21 7 -37 7h-10q-44 -5 -106 -5h-60q-6 -1 -18.5 -2t-18.5 -2q-11 -3 -18 -16q-2 -6 -2 -14q-2 -4 -2 -11q-2 -12 -2 -36q-2 -8 -2 -25q0 -131 4 -172q2 -10 2 -35v-2q0 -14 1 -47t1 -51v-6 q1 -14 2 -42.5t2 -43.5q4 -23 4 -68q0 -33 -1 -98.5t-1 -96.5v-114q0 -29 2 -41q0 -25 25 -25h10q6 0 8 -2q8 0 13.5 -5.5t5.5 -12.5v-13q-3 -18 -19 -18l-4 -2q-60 -6 -63 -6h-39h-33h-25q-12 0 -16 2q-13 0 -18 18q0 13 2 19q0 9 10 12q8 4 14 4q13 0 22 9t11 24 q2 14 2 37q0 75 -2 112v50v10q-2 12 -2 39v18v125v81q0 131 -4 318q-8 205 -8 433q0 23 -4 51q0 14 -15 18q-6 2 -14 2q-4 0 -6 2q-7 0 -11 8q-4 12 -4 17z" />
<glyph unicode="I" horiz-adv-x="409" d="M102 -4v24v5l2 4h5q38 9 38 57q0 50 3 100q0 31 2 45v5q0 9 1 26.5t1 26.5q2 37 2 129q2 23 2 69v54v47v49v2q1 18 2 54.5t2 54.5q3 26 3 55t-3 61q-1 23 -1 43q0 34 3 62q2 14 2 45v90v2v88v74v78q0 20 -2 28q-4 12 -14 15q-4 2 -17 2q-2 0 -5 1t-5 1q-21 3 -21 26 q0 18 17 21q33 6 102 10h6h6q19 0 29 4h2h33l2 -4q8 -16 8 -29q0 -11 -10 -14q-2 -1 -7 -2t-7 -2q-5 0 -9 -2q-13 -3 -18 -9t-8 -20q-2 -21 -2 -119v-6q0 -37 2 -55v-117q2 -109 2 -311q-2 -219 -2 -549q0 -8 -1 -25t-1 -26q-2 -10 -2 -31q-2 -20 -2 -65q0 -16 14 -19 q2 -1 7 -3t7 -3q3 -1 8.5 -3t8.5 -3q6 0 6 -8q0 -3 1 -9.5t1 -9.5q0 -11 -14 -16q-2 0 -2 -2h-7q-21 0 -57 -4q-40 -4 -65 -4h-19q-3 0 -10 1t-10 1h-2l-3 2q0 1 -1 2t-1 2l-2 2v2z" />
<glyph unicode="J" horiz-adv-x="638" d="M104 84q-3 21 17 31q2 2 8 2q9 0 12 -6q1 -2 4.5 -9.5t4.5 -11.5q1 -2 2 -5t2 -5q0 -4 4 -12q9 -24 37 -33q2 0 7 -1t7 -1q12 -2 35 -2q36 0 63 8q18 3 29 20q15 19 26 66v10q1 9 2.5 26.5t2.5 26.5q4 78 4 121q1 74 1 147.5t-1 145.5v103v8h2v137v362q0 72 6 109v20v5 q3 27 -6 36q-7 9 -35 9h-4q-13 0 -17 2q-18 0 -18 20q0 22 20 25q58 8 82 8q5 0 16.5 -1t16.5 -1h4q10 -2 31 -2q15 0 35 4h2h2h4q12 0 18 -6q8 -12 5 -29q-6 -6 -7 -6v-2h-2q-3 -1 -9 -2t-9 -2q-8 0 -12 -2q-21 -3 -21 -25q-2 -10 -2 -26q-4 -82 -8 -226q-2 -47 -2 -147 q0 -145 -2 -217q0 -8 -1 -23.5t-1 -23.5q-2 -29 -2 -86v-349v-6v-24v-31q0 -46 -21 -111q-12 -45 -55 -69q-43 -26 -84 -31q-35 -4 -53 -8h-19q-56 0 -100 47q-15 18 -21 43z" />
<glyph unicode="K" horiz-adv-x="866" d="M104 2q-3 8 0 16q0 8 7 11l18 6q6 0 8 2q18 4 22.5 10t6.5 27q0 6 1 22t1 25v6v287q0 46 -2 71v72v49q2 16 2 47v56v2q-2 18 -2 57q0 36 1 107t1 106v6v80q8 88 8 195v63v37q-3 28 -29 31q-2 0 -7.5 1t-8.5 1q-2 0 -6 1t-6 1h-4v2q-4 0 -4 4v2q-6 32 12 47l4 2h43 q12 -4 37 -4h4h18q9 0 28 -1t28 -1q13 0 19 -5.5t7 -23.5v-6v-2l-2 -2l-2 -4l-2 -2h-2q-3 0 -8.5 -1t-7.5 -1q-3 0 -8 -1t-7 -1q-18 -4 -18 -23v-39v-65v-35q-2 -8 -2 -25q0 -19 -1 -53.5t-1 -50.5v-2q0 -6 2 -8v-2q0 -6 6 -10.5t12 -4.5q4 0 4 2q1 0 2.5 1t2.5 1q6 3 12 9 q7 7 22 19t17 13q93 87 94 88q27 27 51 48q31 26 39 38q13 13 21 19l6 6q2 2 7 6t7 6q3 2 16 15q9 9 9 16t-9 16q-1 0 -2 1t-2 1q-1 1 -4 4.5t-4 4.5q-6 6 -6 18q0 13 12 17l6 2q24 4 35 4q72 0 109 2h2q8 0 20 -4q2 0 4 -2h2v-2q6 -19 0 -31q-7 -10 -16 -13q-21 -3 -45 -6 q-25 0 -45 -20q-14 -16 -51 -53q-29 -27 -84 -82h-2l-49 -49q-2 -2 -6 -5.5t-6.5 -6t-4.5 -5.5q-4 -6 -4 -18q0 -3 1 -9.5t1 -9.5q2 -2 2 -4q2 -12 10 -41q3 -14 9.5 -44t9.5 -44q4 -15 8 -49q3 -44 18 -100q4 -15 11 -41t8 -31t3 -15.5t3 -15.5q2 -13 7 -34t7 -29 q19 -88 33 -144q7 -29 20.5 -83t18.5 -76q3 -14 10.5 -42.5t10.5 -43.5q6 -18 6 -31q6 -37 22 -107q2 -7 5 -23.5t5 -23.5q1 -6 3.5 -15t3.5 -11q6 -26 30 -29q3 0 10 -1t11 -1q16 -4 24 -4q13 -3 19 -16q4 -16 4 -23q0 -4 -3.5 -8t-6.5 -4q-2 -2 -4 -2h-5l-10 -2h-61 q-50 0 -70 2q-2 2 -8 2q-27 5 -23 32q3 23 17 31q1 0 2 1t2 1q13 11 10 31q-4 26 -8 37q-2 18 -10 53q-4 15 -8 49q-1 5 -3.5 16.5t-3.5 16.5q-2 10 -5 30.5t-5 30.5l-2 7q-4 20 -6 28q-2 12 -12 70q-15 57 -19 90q-20 91 -33 139q-44 157 -61 223q-2 9 -6 29t-6 29v2 q0 2 -1 7.5t-1 8.5q-5 31 -27 107q0 6 -4 14q-3 10 -18 10h-7l-4 -4q-10 -3 -20 -10q-6 -5 -19.5 -16.5t-19.5 -16.5q-17 -10 -29 -22q-16 -13 -16 -33v-16v-21v-57v-4v-158q0 -77 -8 -299v-43v-270q0 -27 2 -37q0 -20 20 -27q6 0 8 -2q9 0 17 -4q5 0 8 -6q6 -7 6.5 -21 t-4.5 -20q-6 -6 -10 -6h-4q-10 -2 -27 -2h-14q-32 4 -56 4q-33 0 -51 -2h-6h-16q-11 4 -11 14z" />
<glyph unicode="L" horiz-adv-x="712" d="M102 1432v2q0 8 13 12q4 0 13.5 1t16.5 1h2q21 0 31 -2h2q15 0 23 -2q6 0 19 -1t20 -1h4h6q23 0 35 -2q12 0 18 -2q13 0 17 -2q8 -3 12 -11q3 -13 0 -20q-7 -10 -17 -10q-2 -1 -7 -2t-7 -2q-2 0 -22 -5q-14 -3 -17 -16q0 -5 -1 -12.5t-1 -11.5v-144q-2 -131 -2 -229.5 t2 -165.5q6 -168 10 -510v-41q0 -47 4 -133q0 -9 1.5 -26t1.5 -25q0 -15 2 -21q3 -13 16 -16q16 -4 29 -4q22 0 58 -1t52 -1h41q10 1 30 2t30 2q9 0 16.5 6.5t7.5 15.5q2 8 2 25q0 4 1 13t1 13q0 6 4.5 10.5t10.5 4.5h6h16v-2h2l6 -6v-2v-2q0 -68 -6 -103q0 -12 -14 -12h-21 h-6h-153l-56 2v-2h-39q-21 0 -68 -1t-71 -1h-8h-33q-13 3 -18 18v13q0 11 10 14q2 0 6 1t6 1q15 0 21 2q13 3 16 16q4 16 4 25q0 73 2 108q3 69 3 114q0 23 -1 40q0 27 -2 39v20v25q-2 18 -2 53q-2 45 -2 135v2q0 25 -1 78t-1 80q0 10 -1 31t-1 31l-2 8q-3 57 -3 106 q0 63 5 113v2q0 3 1 8.5t1 7.5v60q0 102 -2 153q-2 8 -2 25q-2 14 -2 39q-2 8 -9 14t-14 6q-6 0 -8 2h-10q-10 0 -16 2q-1 0 -3.5 1t-3.5 1l-2 3v4q-2 12 -2 39z" />
<glyph unicode="M" horiz-adv-x="815" d="M104 25q1 1 3.5 5t5.5 7q4 4 8 6h2q29 16 29 51q0 97 2 148q0 37 2 57q3 22 3 45.5t-3 48.5q0 9 -1 29.5t-1 30.5v20q-1 46 -2 141t-2 142q0 115 2 172v2v84v69v138q0 6 1 17t1 17q0 15 2 21v14q0 7 1 22.5t1 22.5q0 22 -4.5 27.5t-26.5 11.5q-24 9 -18 33q0 1 1 3.5 t1 4.5q8 12 16 12q3 3 10 3h2q6 2 19 2q6 1 18.5 2t18.5 2h14q19 0 43 -4q26 -6 35 -25l4 -6q35 -68 47 -96q19 -40 84 -201q0 -4 4 -8q0 -1 1 -2t1 -2q4 -9 14 -9t13 7q1 2 2 5t2 5q15 22 22 39q35 79 47 121q5 16 45 108q1 3 4.5 9t4.5 9q7 17 18 31q10 13 25 13h65 q9 -3 12 -13q3 -13 0 -22q0 -9 -8 -13q-2 -1 -5 -2t-5 -2q-4 0 -12 -4q-13 -6 -13 -18q-2 -12 -2 -39v-43q0 -59 -2 -90q-8 -150 -8 -453v-113v-227v-123v-166v-22q3 -26 25 -29q2 0 6 -1t6 -1q6 0 10 -2q15 0 19 -18q0 -13 -2 -17q0 -4 -2 -6l-2 -2h-2q-6 -2 -15 -2 q-15 -4 -49 -8h-27q-33 0 -51 2q-16 0 -16 20v23q3 5 8 8q2 1 6 2t6 2t7.5 2t7.5 2q18 7 18 27v20v2v54v2v82v145v533q0 84 6 178q5 53 5 109q0 42 -3 85q0 9 -8 13h-2q-8 0 -12 -9q-1 -2 -4 -7t-4 -7q0 -3 -3 -6l-8 -21q-4 -9 -12 -27.5t-12 -27.5q-3 -7 -9.5 -21.5 t-9.5 -21.5q-29 -70 -55 -115q0 -4 -4 -8l-4 -8q-15 -24 -43 -27h-2q-22 0 -31 19q-25 43 -41 96q-17 42 -22 51l-3 4q-49 100 -57 125q-5 9 -8 11v2q-2 4 -8 4q-10 0 -10 -6q0 -4 -1.5 -11t-1.5 -10v-76v-10q0 -39 -1 -117.5t-1 -117.5v-185v-67v-9v-6v-94v-2v-217 q0 -34 1 -101t1 -100v-4q0 -14 1.5 -39t1.5 -37v-20q4 -22 20 -25q28 -9 23 -45v-8l-3 -2q0 -2 -6 -8h-2h-2q-8 -2 -26 -2q-23 -2 -68 -2l-29 -2h-2h-4h-2q-18 0 -26 8q-8 11 -5 29z" />
<glyph unicode="N" horiz-adv-x="837" d="M104 1399q-3 19 17 22q24 6 41 6q9 3 18 3q24 0 51 6h17q14 0 22 -2q17 -3 23 -19q1 -2 10 -29v-6q30 -102 35 -123q35 -140 49 -210q31 -144 66 -269q4 -16 12 -47.5t12 -46.5q2 -7 5 -21.5t5 -21.5q2 -6 5.5 -18.5t5.5 -18.5q3 -14 10 -42t10 -42q4 -14 14 -61 q2 -20 17 -68q34 -105 41 -155q6 -24 8 -29q0 -2 1 -5.5t1 -4.5q4 -7 10 -7h2q6 0 9 7v2q0 2 1 6.5t1 7.5v6q0 13 1 38t1 38q0 55 1 164t1 162l2 127v81v27q-1 57 -2 174t-2 176q0 19 -4 51v27q-3 15 -3 29t-2 22v4q0 19 -2 29q-4 18 -18 21q-3 1 -9 2t-9 2q-11 0 -15 2 q-4 0 -8 4q-8 8 -2 22q4 12 10 15q18 6 35 6q3 0 96 6h4h2q11 0 15 -2h2q15 -4 18 -21q0 -10 -2 -16q0 -11 -12 -14q-12 -4 -21 -4q-2 0 -5 -1t-5 -1q-18 -3 -24 -23q-4 -12 -4 -23v-28v-4v-164v-385q2 -105 2 -209t-2 -207v-80q0 -63 -7 -106q-2 -14 -2 -47q0 -17 -2 -27 q0 -28 27 -37q11 -3 14 -8q9 -18 4 -31q0 -2 -6 -8q-8 -4 -14 -4q-28 -4 -35 -4h-16h-60h-8q-6 2 -22 2q-13 4 -17 8t-4 21q3 11 14 14l12 4t15 4q5 2 9 9.5t3 13.5t-4 21t-4 24l-2 4q-3 14 -9 43t-9 43q-1 8 -4.5 19.5t-4.5 15.5q-3 9 -9 27.5t-9 27.5q-5 21 -29 94 q-4 18 -8 29q-29 97 -35 149q-1 3 -3 9.5t-3 9.5v4q-5 17 -14 50.5t-14 51.5q-1 4 -4.5 11.5t-4.5 11.5l4 2l-4 -2q-1 3 -2 8.5t-2 7.5q-2 6 -6 19.5t-6 19.5l-6 18q-22 79 -39 164q-15 56 -17 64v2q-4 16 -8 24q0 6 -6 9h-2q-10 0 -10 -13v-80v-127q0 -73 -12 -135 q-2 -10 -2 -28q-3 -12 -3 -23v-10l-2 -516v-6v-17q0 -29 29 -41h4q19 -6 21 -10q2 -6 2 -25q0 -10 -11 -14l-2 -2h-6q-54 -10 -159 -14h-9q-2 2 -4 2q-5 0 -8.5 4t-3.5 8q0 17 2 23q0 9 10 12q5 0 13 4q4 0 12 4q13 3 16 19q0 4 1 12.5t1 13.5v72v2q2 35 2 106q1 9 2 27 t2 27v20v8q2 2 2 11q0 35 3 73q3 72 3 122q0 25 -1 44q-2 109 -2 328v2q0 124 -3 250v92q0 8 1.5 25t1.5 26q0 28 -9 37q-9 6 -22 6q-11 0 -17 -2q-14 0 -22 -2q-5 0 -9.5 4t-4.5 8q-5 15 -5 21z" />
<glyph unicode="O" horiz-adv-x="739" d="M104 659q-1 42 -1 79q0 62 3 110q3 30 3 63v21l2 14v82q0 31 10 76q7 24 23 80.5t26 87.5q11 40 37 69q2 3 6 9.5t6 9.5q1 1 3 4t3 4q1 2 4 6t4 6q1 1 3.5 3t3.5 3q35 50 100 50q2 0 7 -1t7 -1q11 0 15 -2q2 0 6.5 -1t7.5 -1q58 -6 102 -62q58 -73 84 -151 q26 -81 45 -158q4 -16 4 -31l5 -27q8 -86 10 -129q2 -16 2 -47v-20v-27v-10h-2v-6v-12q2 -8 2 -25q1 -12 1 -26q0 -28 -3 -64q-2 -8 -2 -27q-2 -6 -2 -14q-8 -75 -15 -105q-8 -48 -10 -67q-1 -5 -2 -14.5t-2 -14.5v-10q-2 -6 -2 -16q-5 -16 -14 -62q-18 -82 -29 -112v-3 q0 -2 -2 -2q-12 -44 -17.5 -57.5t-27.5 -50.5q-38 -66 -115 -86q-2 0 -7 -1t-7 -1t-7 1t-7 1q-56 12 -97 53q-6 4 -14 16q-1 2 -4 6.5t-4 6.5q-41 76 -51 100q-9 26 -29 66q-3 11 -10 22q-13 32 -19 60q-3 21 -8 32q-18 50 -18 115q0 81 -7 188zM174 582q0 -132 41 -260 q2 -5 5 -15.5t5 -15.5q18 -69 74 -195q7 -19 27 -47q16 -29 55 -29q27 0 43 19l4 4l12 12q34 47 43 68q46 93 60 188q5 25 6 29q15 90 20 106q21 76 21 152q0 5 1 14.5t1 14.5v8q1 24 4 64.5t4 48.5v24q1 29 1 56q0 118 -21 206q-12 44 -21 84q-1 7 -4 22.5t-4 22.5 q-9 43 -27 84q-27 56 -55 82q-50 47 -104 66q-2 0 -6.5 1t-6.5 1q-7 0 -22 -11q-33 -26 -51 -59q-46 -79 -58 -178q-1 -10 -4 -35.5t-4 -40.5q-1 -8 -4 -23.5t-4 -19.5q-15 -118 -15 -145v-15q-2 -2 -2 -8q-1 -5 -2 -16.5t-2 -16.5v-2q-6 -75 -6 -79q-4 -53 -4 -166z" />
<glyph unicode="P" horiz-adv-x="667" d="M102 4v23q3 10 15 16q1 0 4.5 1t5.5 1q1 1 3 2t3 2q22 7 25 31v16v2v58v2v149v125v86v6q0 113 6 168q2 16 2 49v17v108q2 70 2 209q0 16 6 115v160v2q0 2 -4 14q-3 13 -16 16q-11 0 -17 2h-12q-19 3 -19 23v12q3 11 11 11q46 4 73 6h27h6h8h17h31v2h18h27h30q29 0 82 -11 q3 0 9.5 -1t9.5 -1q37 -6 61 -36q33 -39 39 -78q1 -4 2 -12.5t2 -12.5q4 -16 4 -24q1 -11 1 -23q0 -45 -15 -104q-4 -21 -29 -54q-33 -39 -86 -61q-53 -18 -110 -21q-8 -1 -22 -2t-21 -2q-14 -3 -17 -16q-4 -20 -4 -25q-2 -33 -2 -88q-3 -140 -3 -267t3 -243v-155v-2 q0 -55 2 -82v-37q0 -9 7 -16.5t18 -8.5q10 0 16 -2q17 0 25 -2q11 0 16 -14v-23q-3 -17 -18 -20q-3 0 -10.5 -1t-10.5 -1q-59 -2 -129 -6q-8 -2 -20 -2q-15 0 -39 4q-13 3 -13 16zM260 1346q0 -47 4 -72q4 -41 4 -121v-18q0 -38 -2 -58q0 -4 1 -11t1 -11q4 -15 19 -19h2 q4 -2 12 -2h8q65 0 144 43q3 2 9 7.5t9 7.5q34 37 37 92q3 26 0 51v31v6q0 32 -19 78q-12 30 -45 43q-10 2 -26 6q-32 4 -51 4q-24 0 -60 -4h-20q-11 -2 -19 -11.5t-8 -21.5v-20z" />
<glyph unicode="Q" horiz-adv-x="741" d="M104 635q-1 23 -1 48q0 66 6 144q2 51 2 129q0 58 18 111v4q3 4 8 25q5 33 37 106l6 12v3q18 37 23 49q9 26 41 80q1 3 4 8t4 8q11 16 27 29q1 1 3 2t3 2q20 15 26 18q47 23 68 23q22 0 76 -31q29 -16 49 -49q39 -68 53 -121q3 -15 6 -27q8 -29 10 -39q2 -9 6.5 -27.5 t6.5 -27.5q12 -52 16 -84q1 -4 2 -11.5t2 -10.5q1 -9 3 -28t3 -28q0 -7 1 -15t2.5 -17.5t2.5 -14.5q1 -2 3.5 -11t3.5 -15q12 -79 12 -144q0 -25 -2 -47v-12v-8v-6v-17v-35v-18q0 -38 -6 -98q0 -4 -1 -11t-1 -10q-3 -31 -9 -67q-5 -50 -20 -99q-3 -7 -8 -28q-14 -49 -29 -84 q0 -5 -2 -5v-2q-6 -18 4 -34q1 -2 4 -6.5t4 -6.5q4 -4 4 -8q30 -41 62 -106q2 -4 2 -13v-4v-4h-2v-2l-4 -2h-12q-3 -1 -11 -2t-12 -2q-2 -2 -8 -2q-20 0 -31 20q-5 8 -17 28.5t-20 31.5q-3 6 -12 6q-6 0 -12 -6q-37 -41 -56 -53l-4 -3q-12 -8 -18 -10q-41 -14 -76 -14 q-5 0 -15 1t-14 1q-43 8 -69 41h-2q-13 18 -47 61q-7 11 -13 25q-3 6 -12 33q-19 63 -49 172q-9 38 -12 80q0 22 -5 125q0 17 -1 50t-1 50zM174 829q0 -90 12 -254l2 -2q0 -10 5 -55q3 -38 6 -65q1 -10 4 -31t4 -31q12 -72 16 -106q2 -35 21 -105q13 -45 51 -100 q3 -6 18 -21l6 -6q19 -16 35 -16q13 0 25 6q44 19 88 59q11 9 14 23.5t-4 26.5q-3 5 -9 16t-9 16l-2 4q-2 3 -6.5 9.5t-6.5 9.5l-6 12q-20 35 -22 39q-21 43 -43 74q-13 17 -25 37q-10 13 -12 22l-2 4l2 2q0 1 1 2t1 2q19 15 35 15q15 0 28 -13q17 -17 25 -30q2 -3 21 -37 t30 -55l2 -2q21 -38 35 -54q4 -4 10 -4q12 0 15 10l2 7q1 3 3 10t3 10q16 74 26 113l2 14q2 9 6.5 26.5t6.5 26.5q15 82 15 155q0 21 -1 42q-3 125 -18 268q-1 15 -15 82l-2 2q-8 31 -10 51q-1 6 -3 17.5t-3 17.5q-1 5 -3 16.5t-3 16.5q-10 69 -47 164q-19 53 -58 102 q-20 20 -28 25q-13 10 -29 10q-10 0 -16 -2q-30 -9 -50 -39q-22 -43 -36 -80q-1 -3 -4.5 -10t-4.5 -10v-2q-17 -37 -32 -82q-15 -42 -33 -107q-1 -6 -4 -15.5t-4 -12.5q-13 -44 -21 -115q-2 -29 -2 -88q0 -9 -2 -15z" />
<glyph unicode="R" horiz-adv-x="878" d="M104 1386v5q-3 13 2 18q3 8 15 8q4 2 12 2q143 11 197 11h4q63 0 94 6h6q10 0 12 -2q49 -16 86 -48q37 -34 48 -77q11 -39 11 -75q0 -28 -7 -54q-1 -5 -3 -15.5t-3 -15.5q-5 -15 -5 -19q-9 -39 -43 -63q-12 -8 -14 -10t-6 -5t-6 -5q-18 -14 -15 -33q1 -3 2 -7.5t2 -7 t1 -4.5q31 -118 51 -229q2 -20 10 -51l2 -8l12 -48v-2q15 -56 17 -71q7 -26 10 -49q10 -74 31 -172q1 -5 3 -15.5t3 -15.5t2 -14.5t2 -14.5q2 -6 5 -20.5t5 -20.5q1 -5 3 -15.5t3 -15.5q13 -80 13 -83q3 -49 16 -74q6 -18 25 -21h16q10 0 16 -2q9 0 21 -4q11 -6 14 -18 t-2 -21q0 -6 -8 -10q-12 -4 -21 -4h-8q-14 -2 -47 -2q-31 0 -45 2q-28 4 -43 4h-20h-2q-5 0 -13.5 1t-11.5 1q-8 0 -8 8q-2 6 -2 21q0 13 14 16q4 0 12 1t11 1h16h14q9 0 17 8q4 8 4 17q-2 6 -5 20.5t-5 20.5v2q-1 6 -3.5 18.5t-3.5 18.5q-4 16 -4 20q-8 37 -10 51 q-2 32 -14 86v11q-14 63 -17 86q-13 71 -32 147q-8 36 -21 80q-4 16 -12 48.5t-12 49.5q-2 10 -12.5 60.5t-16.5 76.5q-1 12 -12 66q-2 13 -11 55q-7 23 -28 23h-2q-10 -1 -111 -10q-20 0 -20 -25q-3 -15 -3 -31v-6v-78v-2v-182q0 -14 -1 -38t-1 -36q-5 -47 -5 -107 q0 -45 3 -96v-6q7 -89 7 -157q-3 -43 -3 -88q0 -6 1.5 -18.5t1.5 -18.5v-29q0 -15 6.5 -22.5t23.5 -8.5h13h16q18 -5 18 -22q3 -8 0 -19q0 -3 -3.5 -7.5t-6.5 -4.5h-2q-3 0 -9 -1t-9 -1q-24 -4 -39 -4q-7 0 -11 2h-32q-37 0 -60 -2q-3 0 -10 -1t-10 -1q-17 0 -41 4 q-12 3 -12 14v8q0 24 20 27q4 2 16 2q16 4 25 4q21 7 21 27q2 10 2 37v96l-2 8v107v30q0 5 0.5 16t0.5 20.5t-1 17.5q-3 38 -3 79t3 84q2 25 1.5 49t-1.5 48v2v26v9v6v116v3v290q2 41 2 127v2q0 38 2 56v6v6q0 42 -11 51q-8 10 -32 10q-2 0 -8.5 -1t-8.5 -1h-4q-4 0 -11.5 1 t-10.5 1l-5 2zM270 1341q4 -62 4 -84q2 -8 2 -24v-43v-2v-94q0 -3 5 -33q0 -15 16 -19q3 0 10.5 -1t11.5 -1h7q28 4 104 19q47 9 84 61q2 3 5 11.5t5 11.5q13 51 13 102v19q-3 64 -54 112q-31 31 -67 31h-6q-15 -1 -43.5 -3t-42.5 -3q-10 -2 -29 -2q-1 0 -3 -1t-3 -1 q-14 -7 -17 -19q-2 -12 -2 -37z" />
<glyph unicode="S" horiz-adv-x="653" d="M102 20v3h2v4q1 1 2.5 4t2.5 4q0 1 1 3t1 3q3 4 8 12.5t8 12.5q28 38 70 108q1 1 3 4t3 4l2 2l2 2h4l2 2l2 -2q6 -2 14 -6q15 -11 15 -14q3 -7 -6 -19q-1 -3 -4.5 -9t-4.5 -9h-2q-13 -25 -14 -27q-5 -10 2 -24q22 -25 55 -43q8 -4 13 -4q10 -2 32 -2q52 0 91 26 q10 5 18 17q30 41 39 80q12 61 12 117q0 40 -6 77q-5 40 -6 47v2q-4 20 -4 33l-2 4q0 14 -6 29q-26 85 -62 143q-12 17 -27 43q-63 98 -112 184q-7 14 -14 21l-3 4q-37 51 -65 115q-8 13 -12 37q-9 50 -9 98q0 75 23 143v4q1 2 2 5.5t2 5.5q15 62 88 139q37 32 88 35h6h4h7 h6h4q19 0 39 -17q2 -1 5 -4t5 -4q12 -8 16 -8q9 0 19 10q1 1 3 2t3 2q10 10 12 11q2 2 8 2q5 0 7 -2q15 -6 24 -21q4 -8 0 -12q-1 -1 -2 -3t-2 -3q-14 -12 -45 -52q-18 -24 -20 -26q-13 -16 -29 -29v-2h-6q-9 0 -11 2q-4 2 -10 8q-13 13 -4 25q8 12 10 16q2 3 6.5 9.5 t6.5 9.5q10 16 -6 28q-12 9 -27 9h-4q-62 -6 -107 -48q-44 -41 -47 -86q0 -8 -1 -24t-1 -23v-2q0 -14 -2 -20q0 -44 10 -99q8 -34 21 -61q31 -68 41 -92q22 -44 28 -53q6 -10 18.5 -31t18.5 -31q6 -13 29 -49q4 -7 16 -26.5t19 -28.5v-2q3 -5 9 -14.5t9 -14.5l4 -6 q46 -74 54 -94q16 -35 38 -121q10 -30 13 -57l2 -5q2 -8 2 -22v-25q0 -64 -12 -143q-6 -44 -39 -111q-1 -2 -21 -37q-27 -52 -84 -61q-45 -10 -80 -10h-10q-61 3 -94 39l-10 10h-2q-4 4 -13 4q-4 0 -12 -4l-2 -4q-6 -4 -14 -12q-14 -17 -33 -17q-8 0 -10 2h-2h-2q-7 7 -7 10 z" />
<glyph unicode="T" horiz-adv-x="737" d="M104 1296q2 14 2 80q0 16 3 31q3 17 20 20h2h6q110 9 160 9q24 0 74 -4q35 -2 94 -2h41h2h41h14h4h21q4 0 11 1t11 1q16 0 19 -19q1 -6 3 -19.5t3 -19.5v-82q0 -14 -14 -14q-4 0 -12 1t-11 1q-6 0 -6 2l-6 4l2 4l-2 2q0 21 -2 31q0 17 -2 25q0 16 -2 22q-4 18 -21 21h-4 q-4 2 -10 2h-2q-66 0 -101 -2q-12 0 -18 -2q-16 -3 -16 -19q-5 -35 -5 -41q0 -133 -2 -196v-13v-51v-100q0 -9 -1 -27t-1 -27t-1 -28t-1 -29v-96v-27v-8h-2v-6q0 -65 2 -100v-228v-164v-2v-108v-43q4 -16 17 -19q3 -1 9 -2t9 -2q7 0 19 -4q9 -3 12 -14q2 -4 2 -12 q0 -21 -6 -27q-2 -7 -25 -10q-4 0 -11 -1t-11 -1q-43 0 -115 -7h-10q-18 0 -27 9q-7 10 -4 37q2 10 12 16q3 1 10.5 4t10.5 4q24 6 24 33v29q2 31 2 90q-2 47 -2 161q0 557 -2 797q0 49 -4 139v2q-1 8 -2 27.5t-2 28.5q0 14 -2 20q-2 7 -12 12q-3 5 -10 5q-14 2 -41 2 q-18 0 -54 -4q-4 0 -10 -3q-16 -6 -16 -22q-2 -10 -2 -31v-20q0 -21 -2 -31v-2v-2q-1 0 -2 -1t-2 -1l-3 -2q-6 -2 -16 -2q-12 0 -18 2q-2 0 -4.5 2.5t-2.5 5.5v2q-4 8 -2 12z" />
<glyph unicode="U" horiz-adv-x="782" d="M104 1405q6 25 27 31h4q2 2 4 2q4 0 12.5 1t12.5 1q18 2 51 2h10h17q7 0 21.5 -1t21.5 -1h14h2q14 0 18 -2q15 -4 15 -15q2 -6 2 -20q0 -10 -12 -14q-12 -3 -25 -3q-2 -2 -6 -2h-10q-3 -1 -9.5 -2t-9.5 -2q-10 0 -14 -12q-2 -4 -2 -20v-68q0 -23 -6 -170q-2 -18 -2 -47 v-178q0 -59 4 -94q2 -16 2 -52v-6q2 -14 2 -43v-49q0 -6 1 -18.5t1 -18.5q0 -5 1 -16.5t1 -16.5q0 -14 1 -49t1 -57q0 -70 2 -103v-2v-55q0 -22 6 -43q2 -9 6 -27.5t6 -27.5q5 -11 9 -29q0 -4 2 -4q0 -11 6 -20q24 -55 57 -91q21 -24 51 -24q19 0 39 10q22 13 35 35 q32 56 39 90q1 5 3 15.5t3 15.5q17 63 25 112q1 11 3 32.5t3 33.5v70q0 93 6 188q3 86 3 149q0 32 -1 58v16q-2 10 -2 35v23q-2 17 -1.5 33.5t1.5 33.5q4 57 4 168v17v147q0 5 -1 14.5t-1 14.5v4q-3 14 -20 18q-2 0 -5 -1t-4 -1h-10h-4q-4 1 -10.5 2t-9.5 2q-6 0 -9 6v19 l-2 4q0 17 21 24q5 5 10 5q74 8 104 8q19 0 29 -2q3 0 10 -1t11 -1q12 -4 12 -15v-12q0 -19 -16 -23q-4 -2 -11 -2q-3 -1 -8.5 -2t-7.5 -2q-20 -7 -23 -24q0 -4 -1 -12.5t-1 -12.5v-45v-18q0 -37 -4 -107q-1 -14 -2 -42.5t-2 -43.5v-14v-31q0 -36 -4 -106q-2 -12 -2 -37v-10 v-234v-8v-154q0 -111 -8 -170q-9 -68 -21 -131q-6 -29 -18 -55q-2 -4 -6 -13.5t-6 -13.5q-4 -10 -15 -32q-20 -48 -71 -66q-11 -4 -33 -8h-10q-38 0 -88 12q-15 3 -35 19q-27 21 -56 63q-7 11 -10 25q-2 4 -5 14t-5 14q-2 6 -11.5 41t-13.5 53q-6 35 -6 60q-1 17 -2 51 t-2 51q-1 22 -2 67.5t-2 67.5q-2 16 -2 45q0 64 -4 95q-2 16 -2 51v12v207v193v2q0 123 2 182q0 8 -1 19t-1 14q0 19 -21 26q-2 1 -7 2t-7 2q-2 0 -6 1t-6 1q-16 8 -13 23z" />
<glyph unicode="V" horiz-adv-x="958" d="M102 1378q0 11 4 31q3 20 25 23h12h4q6 2 19 2q6 0 18.5 1t18.5 1q12 2 37 2q23 0 63 -4q8 0 16 -4q10 -3 13 -13q3 -15 0 -37q0 -8 -6 -8q-12 -4 -17 -4q-24 -3 -28 -10q-6 -7 -2 -29q15 -83 34 -176q25 -126 41 -199q10 -45 19 -75q13 -48 18 -91q3 -13 8 -51 q14 -79 17 -102q2 -19 5 -40.5t7 -48t6 -40.5q1 -4 2 -13t2 -14t17 -78q1 -7 4 -21.5t4 -21.5q3 -18 10 -50.5t10 -45.5q4 -27 6 -39q2 -10 11 -10q2 0 4 2q2 0 4 2.5t2 3.5q4 16 4 23q2 7 5 23.5t5 23.5v2q1 7 4 24t4 27q1 3 2.5 10.5t2.5 10.5q4 16 4 24q4 16 4 27 q4 15 8 41q1 5 3 14t3 14q12 58 14 90q0 4 5 19q0 2 1 6t1 6q18 101 30 172q3 19 7 40.5t9.5 47t8.5 39.5v2q2 7 5 23.5t5 23.5q3 17 19 84q11 51 22 84q19 82 21 97q12 60 16 96q4 20 4 31q7 23 -18 30q-2 0 -6.5 1t-6.5 1q-2 1 -7 2t-7 2q-20 3 -16 25q0 8 6 20 q3 10 16 13h23h20h14h9h6h12h12h17h2q16 0 24 -2q27 -3 29 -31q0 -12 -8 -16q-4 -1 -12.5 -3.5t-12.5 -3.5q-8 0 -12 -2q-13 -3 -16 -16q-5 -9 -9 -31q-4 -12 -4 -20q-1 -5 -3 -14.5t-3 -14.5q-11 -41 -26 -110q-4 -17 -12.5 -52t-12.5 -53q-17 -63 -25 -115q-1 -8 -4 -23.5 t-4 -23.5q-7 -29 -10 -51q-25 -123 -29 -147q-2 -8 -5 -24.5t-5 -24.5q-16 -96 -18 -111q-3 -18 -9.5 -56.5t-9.5 -56.5v-2q-4 -13 -8 -43l-4 -20q-27 -155 -33 -211q-9 -80 -24 -150q-1 -5 -4 -8t-5.5 -4.5t-5.5 -2.5t-4 -1q-16 -4 -35 -4q-10 0 -30 4q-10 3 -13 12 q0 5 -4 17l-2 14q-12 56 -16 90q-1 5 -6 35q0 13 -4 33q-4 24 -9 39q0 2 -1 7t-1 7q-1 2 -2 7t-2 7q-6 42 -6 45q-1 8 -4 22t-4 19l-2 4q-22 93 -49 254l-4 17q-15 103 -43 213q-2 5 -13 55q-1 4 -3 12.5t-3 12.5l-10 51q-3 15 -8 42t-8 42q-2 7 -5.5 21.5t-5.5 21.5 q-4 30 -16 82q-3 21 -6 39q-2 7 -5 23.5t-5 23.5q-7 33 -15 61q-1 2 -2 7t-2 7q-3 14 -18 17q-3 1 -11 2t-12 2q-3 0 -9 1t-9 1q-13 3 -13 16z" />
<glyph unicode="W" horiz-adv-x="974" d="M102 1405v8q3 16 15 19q18 6 43 6h2h22h43h9h16h18q13 0 33 -4q9 0 12 -9q4 -4 4 -18q-4 -12 -12 -12q-8 -2 -20 -2q-4 -2 -17 -2q-8 -2 -14 -9t-6 -14q-2 -2 -2 -4q2 -12 2 -39q0 -57 4 -86q25 -211 25 -375q0 -26 4 -80q1 -16 2 -47.5t2 -46.5v-24v-15q6 -71 6 -73 q0 -1 1 -4.5t1 -4.5q0 -61 6 -116l6 -123q0 -26 4 -84q0 -6 1 -19.5t1 -19.5q0 -7 1 -21.5t1 -21.5v-12q0 -6 3.5 -9.5t7.5 -3.5h2q8 4 10 6l2 9l12 36q18 67 70 189q6 14 39 61l4 9q8 4 10 4q5 0 12 -7q6 -9 11 -14l6 -12q2 -3 6 -10.5t6 -10.5q38 -55 57 -123 q7 -24 28 -67.5t22 -46.5q4 -8 12 -8h2q10 0 12 6q2 8 6 28q0 24 4 64q0 8 5 70q0 17 4 53q0 4 1 12t1 12v4q0 1 1 4.5t1 4.5q0 9 1 26.5t1 26.5q4 35 8 113q2 19 5 57t5 57v2q1 6 2 19.5t2 19.5v12q2 6 2 21q2 52 13 156q1 9 3 27.5t3 27.5q4 62 10 94q0 1 6 68v12 q1 10 3 31.5t3 31.5q9 83 9 115v6v23q-3 23 -25 26q-2 1 -8 2.5t-8 2.5q-4 0 -12.5 1t-12.5 1h-2l-2 2q-4 4 -4 10v20q0 5 8 9q16 4 20 4q20 1 61.5 2t63.5 2q14 0 31 -10q7 -3 11 -13t1 -18q-3 -13 -16 -13q-6 -2 -23 -2q-2 0 -6 -1t-6 -1q-23 0 -26 -20q0 -2 -4 -17.5 t-5 -23.5v-27q0 -12 -2 -18q0 -10 -1 -30t-1 -29l-2 -11v-10q-2 -4 -2 -12q-1 -16 -3 -47t-3 -47v-5q-1 -12 -2 -34t-2 -33v-6q0 -11 -2 -17q-6 -23 -6 -69q0 -5 -1 -15.5t-1 -15.5q-1 -10 -2 -30.5t-2 -30.5q-1 -22 -11 -123q-12 -98 -12 -160q-1 -9 -2 -27.5t-2 -27.5 q0 -5 -1 -14t-1 -13q-2 -18 -2 -47q0 -13 -2 -19q0 -41 -6 -81q0 -5 -1 -15t-1 -14v-12v-13q-5 -61 -6 -65q-3 -15 -3 -31q-2 -4 -2 -12q0 -9 -1 -29.5t-1 -30.5l-2 -2q0 -25 -4 -75v-13q-3 -8 -10 -12h-2h-2q-4 0 -8 4h-2l-4 8q-14 21 -21 35q-5 8 -14 31l-47 94 q-42 86 -84 188q-6 13 -15 13q-2 0 -4 -2q-7 0 -12 -11q-8 -16 -10 -24q-1 -2 -2 -5.5t-2 -4.5q-9 -17 -11 -27q-4 -10 -12 -29.5t-12 -29.5q-36 -76 -58 -166q-3 -15 -18 -54v-2q-4 -12 -16 -14q-10 -4 -29 -4h-12q-19 5 -23 18q-1 7 -12 68q-3 21 -14 152q0 7 -1.5 20 t-1.5 20q-10 103 -10 224q0 71 -8 131q0 4 -1 15t-1 16q0 49 -8 139q0 4 -1 11t-1 11q-4 46 -8 142h4h-4q0 41 -2 59v6q0 15 -3 27q-10 54 -14 164q-1 8 -2 24.5t-2 24.5q0 4 -1 12t-1 12q0 5 -1 14t-1 13v2q0 6 -1 18.5t-1 18.5q-3 21 -23 24q-2 0 -6 1t-6 1q-3 1 -9 2.5 t-9 2.5q-11 0 -11 14z" />
<glyph unicode="X" horiz-adv-x="980" d="M102 1405q0 2 1 6t1 6q3 12 13 15q24 4 35 4q25 2 73 2h6q27 0 39 -2q35 -6 74 -6h4h4h19q20 0 20 -21q0 -3 -1 -8.5t-1 -7.5q-8 -19 -22 -19h-23h-12q-7 0 -15 -8q-4 -4 -4 -12q2 -2 2 -4q0 -11 2 -15q5 -17 11.5 -36.5t14 -42.5t11.5 -35l8 -21q10 -36 29 -74 q26 -50 53 -120q19 -49 27 -66q14 -33 21 -45q4 -8 12 -8q6 0 12 6q1 2 4 7t4 7l17 51q3 8 8 25t8 25q8 20 12 28v4q28 61 36.5 83t27.5 87q6 18 17.5 55t17.5 56l6 25q1 2 2 6t2 6v2q0 10 -4 14q-2 4 -10 8h-19q-8 2 -22 2q-7 2 -13 7.5t-6 11.5q-2 9 2.5 17.5t11.5 9.5 l3 2q30 6 32 6h4q11 0 34 1t36 1h27q18 -2 49 -10q6 0 12 -3q6 -2 11 -9.5t5 -16.5q-5 -18 -18 -21q-12 -4 -20 -4h-9h-8h-10h-6q-23 0 -33 -24v-4q-4 -8 -4 -15q-32 -124 -96 -286l-6 -13q-4 -10 -13.5 -32.5t-13.5 -36.5q-5 -15 -35 -93q-8 -24 -14 -36l-2 -7q-1 -2 -3 -7 t-3 -7q-6 -21 0 -41q2 -6 6 -18.5t6 -18.5q3 -9 9 -27.5t9 -27.5q4 -13 11.5 -40t11.5 -40q2 -8 12 -53q8 -23 10 -37q4 -12 19 -60.5t24 -74.5q19 -54 23 -70q3 -7 8 -23t8 -24q13 -39 21 -57q20 -41 26 -76q4 -18 9 -29q1 -2 2 -5.5t2 -4.5v-2q12 -27 20.5 -32t40.5 -5h8 q23 0 33 -2q7 0 11 -1t7.5 -6.5t2.5 -16.5v-9q0 -10 -13 -14h-2q-4 0 -12 -1t-12 -1q-28 0 -86 -1t-86 -1h-13h-16q-23 3 -23 24q1 3 2 9.5t2 9.5q4 8 11 10h2h2q1 0 6 1t8 2t6.5 3.5t5.5 5.5q7 10 -2 29q-21 58 -39 117l-2 10q-13 46 -34 109v2q-2 7 -17 47v2q0 2 -1 5 t-1 5q-9 38 -31 98q-9 31 -14 43q-2 7 -6 22.5t-6 22.5q-3 12 -6 21q-2 2 -2 4q-4 18 -17 18q-9 0 -14 -16v-4q-29 -100 -31 -109l-2 -2q-3 -10 -8 -30.5t-8 -30.5q-1 -2 -2 -6t-2 -6q-14 -31 -45 -123q-5 -19 -23 -72l-2 -2q-4 -12 -4 -16q-4 -22 -23 -70q-4 -8 -4 -14 q0 -1 -1 -2t-1 -2q-5 -15 2 -25q3 -6 21 -12q8 0 12 -2q3 0 10 -1t11 -1q20 -7 26 -27q4 -12 2 -18q-6 -19 -20 -19q-6 -1 -20 -2t-21 -2h-35h-25h-24h-6h-27q-54 4 -86 4q-10 3 -10 12q0 19 2 27q2 10 12 16q25 5 27 5h16q6 0 10 2h15q30 2 37.5 7t17.5 34q1 2 2 5t2 5 q30 82 53 157q3 14 17 50q2 4 5 14t5 14q1 5 4 14.5t4 14.5q27 75 35 102q25 82 29 99q5 20 32 104q12 24 3 49q-2 4 -13 31t-16 41q-6 17 -17.5 47.5t-15.5 42.5q-12 30 -35.5 92.5t-36.5 93.5q-7 19 -20.5 56.5t-20.5 56.5q-26 77 -45 125v4q-4 4 -4 8q-8 41 -57 47 q-8 2 -25 2q-4 1 -13 2.5t-13 2.5q-15 0 -15 16z" />
<glyph unicode="Y" horiz-adv-x="649" d="M16 1423q3 10 13 15h2h6q12 2 35 2q70 0 133 -13q4 0 16 -4l6 -6v-2q7 -18 4 -33q0 -1 -1 -3t-1 -3l-2 -2h-4h-6q-21 -4 -24 -10q-3 -5 4 -25q50 -103 59 -122q39 -80 80 -142q2 -4 6 -8v-2q2 0 2 -2q6 -6 14 -6q7 0 13 6q19 25 30 57q6 12 9 21l2 2q44 113 57 155 q2 8 10 29q4 8 4 12q5 13 5.5 19t-3.5 9.5t-16 10.5q-2 2 -4 2q-1 0 -2 1t-2 1q-6 3 -6 11q0 22 2 34v5l4 2q2 2 4 2q20 4 24 4h25h14h2h15h2h12h2h14h21q8 0 20 -4q12 -3 15 -13v-22q0 -6 -4.5 -10.5t-10.5 -4.5q-5 -1 -14.5 -2t-13.5 -2h-4q-16 0 -27 -18q-3 -8 -8 -27 q-36 -105 -72 -174q-1 -1 -2 -4t-2 -4q-31 -86 -67 -156q-17 -38 -17 -73v-11q0 -13 1 -39t1 -40v-17q1 -26 1 -51q0 -49 -5 -90q-2 -20 -2 -62v-2q0 -2 -1 -7t-1 -7v-27q0 -69 -6 -139q-2 -14 -2 -43v-8q0 -163 6 -295q0 -3 1 -9t1 -9q3 -14 16 -17q3 -1 8 -2t7 -2 q6 0 18 -4q8 -3 14 -12q4 -15 -2 -23q-3 -6 -6 -6l-2 -2l-7.5 -2.5t-8.5 -2.5t-8 -1l-4 -2q-74 -8 -115 -8h-23h-4q-4 2 -12 2q-23 0 -23 24v17q5 20 19 20q4 2 10 2q2 1 6 2t6 2q17 3 17 17q4 20 4 28q0 164 -2 244v2v197v235v105v18v45q2 22 -12 47l-7 6q-3 7 -16 29 q-36 53 -82 154q-20 39 -45 94l-2 2q-21 42 -31 65q-9 22 -30 25q-27 3 -41 8h-2l-3 2q-2 2 -2 6q-5 13 -2 39z" />
<glyph unicode="Z" horiz-adv-x="700" d="M102 20v29v27v33q0 32 19 81q14 34 22 62l2 4q0 1 1 3t1 3t1.5 3t1.5 3q15 28 30 84q7 26 15 41l8 25q6 17 17.5 49.5t17.5 48.5q5 16 15 47.5t15 46.5l6 19q4 12 5 14v4q26 108 67 230q26 75 47 149q26 87 29 98q4 12 11 34t11 34q4 17 29 100q2 16 10 43q1 1 2 4t2 4 q4 17 -4 31q-6 8 -28 8h-54h-36h-25h-12h-33h-4h-37h-51q-22 0 -32 -8t-11 -33q0 -16 -2 -24v-27q0 -8 -13 -12q-3 0 -8 -1t-8 -1q-8 0 -16 4q-9 4 -9 8q-2 2 -2 8q0 60 9 113q4 14 8 21q7 14 18 14h19h18q33 -4 100 -4q58 0 113 6q20 2 70 2q55 0 80 -2q6 0 26 -4l4 -2 q18 -3 21 -23q3 -22 3 -39.5t-3 -31.5l-2 -11q-4 -17 -23 -82q-3 -7 -8 -23t-8 -24q-42 -128 -43 -133q-9 -36 -45 -131l-4 -16q-37 -97 -56 -166q-10 -33 -29.5 -102t-29.5 -101q-4 -14 -33 -90q-30 -81 -45 -131q-11 -44 -45 -139q-4 -11 -12 -35t-12 -35q-5 -10 -5 -12 q-1 -2 -8 -23q-3 -14 2 -22t19 -11h2h6h24h3h26q103 0 152 4q18 3 37 3q10 0 16 2h12h31q25 4 25 28v29v31q1 3 2 10t2 10q4 8 8 10q14 7 24 7h7q10 0 14 -13v-4v-8v-7q0 -22 4 -83q0 -13 2 -17v-32q-4 -17 -20 -17q-8 -2 -31 -2h-47h-51h-37q-57 0 -86 -4q-14 -2 -41 -2 h-119h-10h-6q-25 0 -37 6q-7 2 -11 10z" />
<glyph unicode="[" horiz-adv-x="471" d="M102 1292v97q0 13 15 24q16 8 24 8q4 2 13 2h18q21 -1 123 4q5 1 15.5 3.5t15.5 3.5q16 0 20 -21q0 -8 -2 -12v-6q-6 -3 -12 -9q-56 -4 -86 -10q-11 -2 -32.5 -2t-31.5 -2q-8 0 -14 -12v-6v-27q8 -47 8 -106q2 -176 2 -531q0 -9 -1 -28t-1 -29v-121q1 -14 2 -44t2 -44 q0 -63 6 -96q1 -5 1 -15.5t1 -15.5q1 -27 2.5 -83t2.5 -83q0 -12 2 -18q1 -11 4 -30.5t4 -27.5l10 -10q67 0 100 2q27 0 39 -2q8 -2 12 -9t3 -16q0 -3 -4 -7.5t-7 -4.5q-9 -2 -30.5 -3.5t-32.5 -4.5q-14 0 -39 -1t-37 -1h-39q-19 0 -37 12q-7 8 -10 15q0 2 -1 6t-1 6v20 q-1 38 -2 114.5t-2 115.5q0 50 -6 75q-2 10 -2 31q-4 193 -4 574q0 136 -2 204q-1 7 -1 22.5t-1 23.5q0 12 -3 24q-4 32 -4 51z" />
<glyph unicode="\" horiz-adv-x="851" d="M102 1339v9l2 4q9 13 13 16q15 7 22 -4q9 -17 27 -46.5t24 -41.5q5 -10 20.5 -36.5t22.5 -41.5q18 -37 39 -88q40 -83 52 -117q44 -106 75 -162q62 -118 125 -264q31 -74 62 -125q9 -18 10 -22q14 -33 44.5 -98.5t45.5 -98.5q8 -21 19 -47q15 -51 28 -78q8 -19 15 -43 q3 -8 -5 -16q-11 -11 -20 -14q-7 -3 -12 2q-7 3 -9 8q-12 16 -18 26q-47 87 -59 113q-13 27 -34.5 78.5t-31.5 73.5q-5 17 -11.5 33.5t-18 39t-15.5 31.5q-7 11 -16 34t-13 30q-5 11 -14 32t-14 33q-4 10 -13.5 32t-13.5 32q-20 47 -65 139q-71 151 -91 203q-3 8 -10 23.5 t-10 23.5q-11 28 -36 79t-34 70q-2 3 -16.5 34t-20.5 48q-7 14 -8 17q-23 41 -37 79z" />
<glyph unicode="]" horiz-adv-x="471" d="M102 1427v7q6 12 13 12q12 4 39 4q20 0 62.5 1t64.5 1q24 0 36 -2q9 -1 16 -10.5t9 -18.5v-24q0 -37 2 -111.5t2 -111.5q0 -17 2 -25q6 -29 6 -82q0 -137 2 -205q1 -65 1 -194t1 -195q0 -88 2 -133v-18q7 -34 7 -84q0 -41 2 -64h-2q2 -33 2 -100v-15q0 -7 -8.5 -14.5 t-16.5 -9.5q-16 -4 -27 -4q-7 0 -21.5 1t-21.5 1q-18 0 -26 -2q-49 -11 -107 -8q-13 0 -16 16v6q0 17 14 21q16 4 25 4q78 4 115 8q2 0 6 1t6 1q7 0 12 14v12q-1 11 -1 31.5t-1 37.5t-4 32q-2 10 -2 33q-2 174 -2 522q0 19 1 59.5t1 61.5q0 40 -2 63q0 26 -1 77t-1 75 q-2 18 -2 51q-1 4 -1 13.5t-1 13.5q-6 27 -6 81q-1 21 -3.5 63t-3.5 64q0 9 -2 13q-6 9 -14 12h-12q-8 -1 -43 -1t-53 -3q-15 -5 -37 6q-8 6 -11 16z" />
<glyph unicode="^" horiz-adv-x="440" d="M102 791q4 16 21 51q32 69 61 147q7 20 23 31q5 5 10 2q8 -4 10 -8q13 -13 17 -19q3 -6 12 -21.5t12 -23.5q39 -81 66 -143q10 -23 -12 -39q-15 -9 -31 0q-9 6 -17 18q-17 34 -26 64q-9 21 -19 41q-4 8 -6 10q-6 6 -10 8q-1 -2 -4 -5t-4 -5q-2 -4 -16.5 -37t-20.5 -51 q-8 -19 -16 -33q-4 -7 -9 -10q-7 -8 -19 -7.5t-18 11.5q-4 4 -4 19z" />
<glyph unicode="_" d="M102 -117q4 15 15 21q45 12 88 12q29 0 43 -2q102 -3 184 2q55 0 84 2q2 0 6 -1t6 -1q12 0 17.5 -10t-0.5 -21q-4 -4 -4 -6q-40 -12 -82 -12q-26 0 -79.5 -1t-80.5 -1h-158h-26q-4 0 -8.5 6t-4.5 12z" />
<glyph unicode="`" horiz-adv-x="296" d="M102 997v7v6q4 7 19.5 8.5t21.5 -4.5q1 -2 3.5 -5t3.5 -5q30 -67 43 -125q3 -9 -11 -13q-23 -3 -32 15q-1 2 -3.5 5t-3.5 5q-13 27 -22 57q-9 25 -19 49z" />
<glyph unicode="a" horiz-adv-x="571" d="M72 231v11q0 35 10 92l2 6q8 57 53 123q23 33 58 47q12 6 14 6q50 8 74 8q15 0 39 -4q74 -12 110 -12q2 0 5 -1t5 -1l4 -4l3 -2v-2q6 -20 -7 -29q-4 -4 -6 -4l-2 -2q-12 -12 -12 -25v-37q0 -104 2 -151q0 -53 4 -84q2 -16 2 -49q0 -4 1 -12t1 -11v-12v-21q3 -17 14 -22 q2 -1 5.5 -3t5.5 -3q1 -1 3 -2t3 -2q6 -4 6 -15q0 -4 -6 -10v-2h-2q-27 -8 -55 -8q-17 0 -25 2q-15 4 -19 10q-5 10 -18 10q-6 0 -8 -2q-31 -16 -68 -16q-45 0 -90 22q-3 2 -9 6.5t-9 6.5l-4 2q-55 36 -66 86l-2 2q-16 60 -16 100v8zM155 244l1 -58v-20q0 -34 24 -78 q20 -36 70 -49q6 -2 16 -2q40 0 56 37q3 12 6 18q15 65 18 115q0 4 2 6q0 23 2 35q6 30 6 59v39v16v9v6v12v66q-4 32 -32 32h-35h-25q-31 0 -49 -24l-2 -2q-19 -23 -27 -41q-27 -68 -30 -117q-2 0 -1 -59z" />
<glyph unicode="b" horiz-adv-x="616" d="M102 1217q0 15 13 18q12 6 24 6q10 2 35 2h25q15 0 18 -18q2 -14 2 -45q2 -78 2 -236v-70v-79v-232q0 -29 2 -41q0 -7 5.5 -12.5t11.5 -5.5q4 0 6 2q31 10 92 10h27h20q32 0 55 -20q37 -30 56 -84q10 -23 10 -50q1 -6 2 -19t2 -19q2 -33 2 -57.5t-2 -39.5q0 -6 -1 -18.5 t-1 -18.5q-4 -38 -8 -59q-7 -26 -27 -65q-13 -22 -20 -27q-12 -9 -45 -31q-20 -10 -37 -10h-4h-23q-35 0 -55 6h-2q-1 0 -5 1t-6 1q-24 4 -30 4q-13 0 -33 -4q-18 -6 -43 -6q-6 0 -19 1t-18 1q-10 0 -14 8q-4 6 -3.5 16t5.5 15q2 1 5 3t5 3q1 1 4 3t4 3q14 11 17 29v22v9 q0 9 1 28t1 29l-2 45v391q0 8 -1 25.5t-1 25.5q0 4 -1 11.5t-1 11.5v25q-1 8 -2.5 24.5t-2.5 24.5v252l-2 2v96v10v35q0 13 -4 25q-5 10 -14 16q-1 1 -10 6h-4q-11 3 -11 21zM219 160q0 -12 1 -34t1 -32q2 -8 2 -22q0 -17 17 -27q24 -18 57 -18h2q40 3 74 14q29 10 41 37 q11 22 14 31q20 64 23 135q-2 6 -2 20q-13 106 -13 107q-2 10 -20 65q-10 23 -29 39q-23 23 -47 23q-2 0 -2 -2h-19h-18q-21 0 -47 -13q-33 -16 -33 -46v-7v-6v-2v-74q0 -30 -1 -93t-1 -95z" />
<glyph unicode="c" horiz-adv-x="448" d="M111 133q-6 43 -6 83q0 56 12 106l2 10q9 40 18 78q21 72 96 102l7 2q4 1 12 4t12 4q8 2 25 2q23 0 41 -12l8 -8l8 -12h-16h-4q-8 4 -25 4q-29 0 -65 -31q-10 -13 -13 -23q-6 -10 -10 -30q-1 -4 -2 -11.5t-2 -11.5q-22 -129 -23 -141v-39v-16q-1 -14 -1 -26q0 -35 8 -63 q9 -44 51 -61q12 -6 26 -6q16 0 31 6l18 6q2 1 5.5 2t5.5 2l10 4l2 -12q0 -2 -1 -4.5t-1 -3.5q-6 -15 -21 -21l-13 -6.5t-13 -5.5q-14 -4 -43 -4q-38 0 -66 14q-24 9 -39 33q-28 37 -34 86z" />
<glyph unicode="d" horiz-adv-x="618" d="M104 238v10q-1 15 -1 29q0 50 16 96l2 8q5 19 16 49q29 69 96 90q18 6 35 6h15h24q40 0 60 -6q2 -2 4 -2h2q6 0 12 5.5t8 11.5v4v24q1 36 1 76t-0.5 89t-0.5 75v74v55v151q0 12 -4 74q0 22 4 68h2q0 6 8 10q32 4 50 4q26 0 53 -6h4l2 -2q0 -1 1 -3t1 -3q7 -20 -10 -27 l-8 -4q-2 -1 -5.5 -2t-5.5 -2q-13 -6 -16 -23v-32v-193v-35q0 -2 1 -6t1 -6v-41q4 -58 4 -86v-139v-56v-6v-20q-2 -21 -3 -44.5t-1.5 -51.5t-1.5 -43v-54q0 -34 -1 -96.5t-1 -91.5q0 -44 2 -64v-20q0 -19 16 -29q5 0 9 -4l12 -6q9 -3 6 -18q0 -8 -10 -11q-12 -4 -17 -4 q-8 0 -30.5 -1t-34.5 -1h-6q-7 0 -27 4q-4 2 -14 2q-11 0 -17 -2q-7 -1 -21.5 -4t-21.5 -4q-24 -4 -34 -4q-41 0 -78 18q-46 22 -66 70q-27 78 -29 127q0 17 -2 23zM162 281q0 -62 10 -121q5 -38 31 -82q13 -22 39 -31q33 -10 65 -10q19 0 27 2q12 0 28 8q28 12 31 45v14 q2 16 2 50v75v31v6h-2v31q2 25 1.5 50t-1.5 50v31v8q-4 29 -26 37q-47 21 -91 21h-4q-18 0 -34 -13q-25 -19 -35 -45q-17 -41 -29 -80q-8 -21 -12 -77z" />
<glyph unicode="e" horiz-adv-x="552" d="M115 328q4 12 6 20q1 4 4 15t4 18q3 14 23 53q23 46 90 74q7 4 34 12q20 4 31 4q25 0 41 -8q1 -1 4 -2t4 -2q5 -1 12 -4t9 -4q37 -24 37 -64q0 -38 -21 -65q-17 -28 -43 -51q-65 -53 -125 -72q-4 0 -6 -2q-7 0 -16 -6q-12 -8 -15 -19q-2 -12 -2 -37q3 -56 43 -108 q16 -22 43 -37q32 -14 52 -14q16 0 28 6q35 11 51 24q3 3 21 15l27 18l-15 -29q-4 -4 -8 -12q-56 -53 -121 -53h-2h-6h-12h-4h-4h-7h-6q-32 0 -71 25q-42 28 -60 69q-31 73 -31 147q0 44 11 89zM201 328q0 -11 4 -15t10 -4h4q37 8 86 35q26 19 41 41q13 22 10 47v2v6 q-3 23 -20 31q-15 6 -33 6q-36 0 -59 -33q-34 -52 -43 -116z" />
<glyph unicode="f" horiz-adv-x="399" d="M96 487v2q6 12 19 15q4 2 12 2q4 2 10 2q21 7 21 24q2 14 2 41v74v125q0 38 1 123t1 133q2 12 2 37q2 10 2 27q2 26 14 61q8 28 35.5 50t58.5 22h9q37 0 57 -11q30 -12 51 -36l2 -4l-12 -11l-2 2l-6 6q-1 1 -3 3.5t-3 3.5q-23 20 -52 20q-3 0 -10.5 -1t-11.5 -1 q-11 -4 -19 -12q-27 -24 -30 -66q-2 -6 -2 -18q-6 -34 -6 -68q-3 -82 -3 -168v-53l-2 -8v-66v-166q0 -25 2 -41q0 -9 7.5 -15.5t17.5 -6.5q2 0 7 -1t7 -1q15 0 21 -2q13 0 16 -10q5 -8 2 -15q-3 -6 -8 -6q-20 -4 -27 -4q-4 -2 -12 -2h-12q-25 -4 -25 -27q-3 -30 0 -51 q0 -21 2 -31q0 -7 1 -21.5t1 -21.5q0 -24 1 -74.5t1 -76.5v-68q0 -22 3 -37q0 -18 16 -28q1 -1 4.5 -2t5.5 -2t6 -4.5t6 -4.5h2v-2q7 -11 3 -20l-3 -2l-2 -2h-2l-2 -2h-4l-7.5 -2.5t-8.5 -2.5t-8 -1q-18 0 -52 -1t-49 -1q-6 0 -18 4h-2q-10 3 -10 14q0 17 12 20q7 2 16 11 q11 7 11 14q4 24 4 33v57v68v37q2 10 2 30q1 25 2 78t2 76q0 3 -1 9t-1 9q-4 16 -17 19q-3 1 -9 2t-9 2q-2 0 -6.5 1t-7.5 1q-1 1 -4.5 3t-4.5 3h-2v2q-5 9 -2 12z" />
<glyph unicode="g" horiz-adv-x="573" d="M103 277.5q0 24.5 1 46.5q6 97 76 161q28 25 74 37q6 2 16 2q11 0 19 -2q13 -2 35 -10q12 -4 32 -4q17 0 25 2q15 6 33 6q6 0 18 -1t17 -1l2 -2q8 0 10 -2q6 -3 6 -6h2v-2q7 -20 -8 -29q-2 0 -4 -2q-2 -1 -6.5 -3t-6.5 -3q-8 -8 -8 -16q-1 -7 -2 -21t-2 -20v-74v-2v-105 q-1 -79 -6 -377q-1 -19 -3 -56.5t-3 -55.5l-2 -2v-23q-3 -36 -33 -86q-8 -12 -12 -16q-50 -35 -90 -35q-23 0 -50 10q-33 17 -47 33q-7 7 -14 21v2q-4 4 0 8v2l2 2h6q6 0 8 -2q1 -1 6.5 -5.5t6.5 -6.5q2 -1 8 -7l10 -10q21 -18 53 -18h7q23 0 38 18q13 13 19 31q14 46 14 88 q2 25 2 76v32v11l-2 4v14v78q0 14 -2 20v5q0 6 -6 11t-12 5q-13 0 -23 2h-24h-50q-75 3 -104 72q-23 45 -23 86q-2 6 -2 20q0 15 -0.5 45t-0.5 54.5zM152 166q6 -48 26 -82q28 -45 80 -45h4q36 0 74 18q16 6 16 25q0 6 1 18.5t1 18.5v100v41v119v43q0 14 -2 22q0 26 -24 33 q-29 10 -58 10q-59 0 -94 -69q-18 -40 -24 -94q-4 -37 -4 -76.5t4 -81.5z" />
<glyph unicode="h" horiz-adv-x="620" d="M102 1219q2 12 17 16h53h37q12 0 16 -16q4 -32 4 -45q0 -28 1 -83t1 -83q2 -31 2 -93q0 -20 3 -41v-18v-6h2v-8q2 -59 2 -115q0 -85 -4 -164v-10q-3 -23 0 -47q4 -17 20 -17q4 0 4 3q8 0 16 4q3 1 9.5 3t9.5 3q18 6 35 6q28 0 76 -23q2 -1 6.5 -4.5t5.5 -5.5 q41 -51 45 -90q1 -4 2 -10.5t2 -9.5q0 -5 1 -15.5t1 -15.5q4 -46 4 -72q5 -46 5 -87q0 -18 -1 -34v-55q0 -2 1 -6t1 -6q0 -26 19 -37q4 -2 12 -10q9 -9 6 -21q-2 -7 -16 -10q-2 -2 -13 -2q-9 0 -35 -1t-42 -1q-14 0 -17 10q-6 12 4 25l4 4q23 10 23 43q0 92 -4 139 q-4 74 -4 115v8q-4 45 -10 65q-6 17 -25 33q-27 17 -51 17q-16 0 -37 -7q-27 -9 -47 -32q-15 -20 -15 -33v-2v-2q-2 -18 -2 -53q-4 -86 -4 -127q-1 -10 -1 -22q0 -26 3 -64q0 -27 2 -39q0 -19 21 -35q2 0 8 -6q8 -6 4 -19q0 -4 -3.5 -8t-6.5 -4q-2 -2 -4 -2q-2 -1 -6 -2 t-6 -2h-103q-6 0 -14 4q-10 0 -13 10q0 7 5 12v2l4 3q29 12 26 45v27q0 59 6 155q1 7 2.5 23.5t2.5 23.5q4 64 4 156q0 61 -2 135q-2 20 -2 69v414q0 21 2 33v4v22v37q0 16 -17 23l-18 6q-17 2 -17 23z" />
<glyph unicode="i" horiz-adv-x="382" d="M104 496q2 21 25 26q16 2 43 2h10q12 0 20.5 -9t10.5 -21q3 -29 8 -109v-20v-3q1 -8 1.5 -22t1.5 -25.5t3 -21.5q2 -14 2 -41v-14v-45h-4h4v-19v-10v-4v-10v-68q0 -13 2 -19q0 -17 21 -24h6q1 0 2 -1t2 -1q23 -7 17 -27q0 -8 -9 -12q-4 0 -8 -2q-16 -4 -26 -4h-27h-45h-2 h-19q-1 0 -4 1t-4 1h-4q-19 3 -16 22q2 9 8 15q2 1 6 2t6 2l4 2q16 6 19 22q2 12 2 33v43v4q-5 208 -8 248q-2 10 -2 33v22q-3 23 -23 29q-8 4 -12 4q-14 7 -11 21zM141 735q0 23 17 43q12 15 28 15q9 0 15 -2q22 -6 28 -31q6 -32 -16 -58q-13 -16 -37 -16q-10 0 -18 8 q-17 17 -17 41z" />
<glyph unicode="j" horiz-adv-x="305" d="M-51 -350l12 10l2 -2l4 -4q17 -20 37 -29q2 -3 19 -8q6 -2 18 -2q30 0 49 25q15 18 21 43q10 42 10 73v244q0 14 1 43t1 43v6h-2v322v6v12q3 34 -31 43q-12 2 -12 19q0 9 5 16.5t11 9.5h2l4 2h2h56h16h2q4 0 8 -2h2q8 -5 11 -14q0 -3 1 -10.5t1 -10.5v-32v-41 q0 -27 2 -41v-19v-12q2 -10 2 -29v-147v-8v-23q-6 -35 -6 -104v-27q0 -35 -2 -51q0 -115 -2 -174q0 -32 -7 -72q-5 -47 -34 -84q-30 -35 -72 -35q-3 0 -11 -1t-12 -1q-12 0 -18 2q-61 3 -88 62zM119 723q0 23 24 35q6 2 15 2q15 0 26 -9.5t13 -23.5v-10l2 -6h-2v-4 q-1 -3 -2 -9t-2 -8q-9 -18 -27 -18h-6h-17q-17 7 -20 20q-4 16 -4 31z" />
<glyph unicode="k" horiz-adv-x="638" d="M104 1208q0 9 2 11q7 13 15 16h4q12 4 18 4q18 2 54 2h10q14 0 21.5 -6t11.5 -23q2 -10 2 -38v-226q-1 -10 -2 -31.5t-2 -31.5q0 -31 -2 -47v-41v-19v-8v-4v-80q-1 -45 -2.5 -135t-2.5 -135q0 -42 2 -62q0 -7 9 -10q2 -2 6 -2q6 0 8 2q51 48 78 98q9 18 -6 33 q-15 9 -9 27q3 14 17 14h2h2h25q13 0 39 -1t40 -1q18 -4 23 -8h2l2 -2q2 -2 2 -4q3 -11 -2 -21q-7 -10 -20 -10h-9q-4 0 -4 -2q-15 0 -24 -12q-29 -33 -35 -43q-13 -16 -6 -39q3 -19 10 -37q1 -4 4 -12.5t4 -12.5q12 -37 27 -75q27 -75 45 -119l2 -6q2 -4 5 -14.5t5 -14.5 q5 -13 21 -19q4 -2 10 -2q8 -2 20 -6l2 -2q9 -5 9 -20q0 -17 -13 -17q-16 -4 -24 -4h-2q-20 0 -56 4q-8 0 -12 2q-14 0 -20 13q-1 4 -25 63q-60 153 -61 156t-11 29q-4 8 -4 10q-3 6 -12 6q-6 0 -10 -4q-34 -39 -45 -53q-9 -14 -9 -25v-4v-25v-34v-3v-59q0 -38 27 -51 q7 -2 10 -19q0 -14 -12 -18h-2q-2 0 -6 -1t-6 -1h-19q-10 -1 -31.5 -2t-31.5 -2q-3 0 -39 6h-2l-2 2q-1 0 -4 6q-4 11 4 15q1 3 12 10q21 9 21 35q2 18 2 45v190v414q0 42 2 65v31v6v2q2 6 2 19v14v240q0 31 -6 61q-5 19 -23 23q-2 2 -8 2q-11 3 -14.5 9t-2.5 19z" />
<glyph unicode="l" horiz-adv-x="411" d="M104 1208q-3 22 17 25q24 8 57 8q25 0 49 -6q11 -3 11 -10q3 -9 8 -39q0 -23 2 -35q4 -98 4 -150v-231q-2 -33 -2 -100v-23v-8h-2v-6q0 -9 -1 -29.5t-1 -30.5v-4v-143v-233v-74v-2q0 -27 2 -41q0 -19 20 -29q4 -2 11 -2q0 -2 4 -2q15 -6 20 -14t4 -25q0 -9 -10 -14h-4 q-5 0 -15.5 -1t-15.5 -1h-2q-16 0 -46 1t-44 1q-23 0 -33 2h-10q-10 0 -16 6q-5 8 -5 20q3 16 17 19q8 0 14 2q9 0 13 2q6 2 12 8.5t6 13.5q2 16 2 46v155v10q0 43 -1 131t-1 132q0 251 2 378q0 44 -4 134q0 9 -1 29t-1 30v22q0 4 -1 14t-1 15q0 20 -6 25.5t-27 5.5h-4h-4 q-17 3 -17 18z" />
<glyph unicode="m" horiz-adv-x="843" d="M104 483q-4 9 2 21q0 1 1.5 2l3 2t2.5 2q8 4 10 4q12 2 39 2q18 0 28 -2q21 0 21 -16q1 -2 2 -5.5t2 -5.5q4 -8 14 -8q1 0 3.5 1t3.5 1q2 1 5 3t5 3q19 14 41 23q18 6 39 6q24 0 51 -12q14 -7 20 -19q5 -5 11 -14q1 -2 4 -6t4 -6q3 -6 12 -6q7 0 12 8q1 1 3 4t3 4 q1 2 3.5 5t3.5 5q30 43 88 43h6q70 -3 108 -65q17 -25 23 -62q17 -102 20 -182v-70v-2v-43q0 -27 2 -37q0 -13 15 -20q1 0 4 -1t4 -1l8 -4q10 -3 10 -15q-4 -18 -14 -18l-2 -2h-2q-7 0 -21.5 -1t-21.5 -1q-17 0 -57 4q-8 0 -11 6q-6 6 -2 17q0 7 6 10q1 0 4 1t5 1t10 4 q11 5 14 18v23q2 14 2 43q0 76 -2 115q0 64 -18 141q-2 14 -10 33q-19 37 -58 37h-12h-25q-22 -3 -34 -21q-9 -12 -15 -27q-16 -40 -16 -77l-4 -121l4 -146q0 -24 20 -30q10 -5 11 -6q4 -4 4 -17q-2 -5 -9 -8q-12 -4 -16 -4q-13 0 -40 -1t-42 -1q-9 0 -12 8q-8 15 4 27 q1 1 3 2t3 2q2 2 4 2q9 6 12 18q3 9 3 17q0 136 -5 188q-2 36 -14 102q-1 5 -2 15.5t-2 15.5q-2 12 -10 31q-7 14 -17 24q-9 15 -32 15q-28 0 -56 -19q-36 -25 -47 -65q-12 -52 -12 -96v-23v-180v-25q4 -14 14 -22q6 -4 13 -11q4 -7 0 -14q-3 -10 -11 -10h-2l-2 -2h-39 q-33 0 -51 2q-8 0 -12 8q-3 11 4 21q2 1 5 3t5 3q12 9 12 20q2 10 2 29q-2 113 -2 340v8q0 2 -1 6t-1 6v2q0 26 -22 29q-2 0 -4 2q-10 3 -13 12z" />
<glyph unicode="n" horiz-adv-x="626" d="M104 498q3 16 17 16q50 4 86 4q11 0 16 -10q1 -2 2 -6t2 -6q0 -1 1 -4.5t1 -4.5q3 -10 17 -10q2 0 4 2q28 16 92 31l6 2q3 0 8.5 1t8.5 1q19 0 43 -8q15 -6 28 -25q20 -23 23 -47q4 -8 4 -16q4 -24 4 -35q10 -62 10 -111q-2 -47 -2 -141q2 -12 2 -39t2 -41q0 -14 15 -18 q1 -1 4 -2t4 -2q4 0 12 -4q12 -4 8 -19q-1 -1 -2 -2.5t-2 -2.5t-2 -1q-2 -2 -7.5 -4t-6.5 -2q-23 -2 -60 -2h-32q-3 0 -11 4q-10 3 -10 8q-3 9 2 16q4 8 10 11q19 13 19 37q2 10 2 34v2v68v102v5q0 9 -1 27.5t-1 27.5q0 37 -6 55q-3 17 -17 31q-26 26 -61 26q-13 0 -29 -4 q-36 -11 -56 -36t-20 -60v-8v-115v-14l-2 -33q0 -51 2 -78v-30v-2q0 -25 19 -31l2 -2q4 0 6 -2q13 -6 10 -21q0 -9 -12 -16q-4 -2 -12 -2q-14 -2 -47 -2q-39 0 -62 2q-10 3 -10 14q0 18 10 21q22 10 19 32q0 2 2 4v5v32q-2 106 -2 326q0 19 -2 25q0 1 -13 14q-4 2 -10 2 q-2 2 -4 2q-24 5 -21 29z" />
<glyph unicode="o" horiz-adv-x="552" d="M119 362q2 8 6 25t6 25q14 47 64 88q11 9 38 18q21 6 43 6q37 0 71 -17.5t52 -47.5q26 -43 33 -74v-2q18 -78 18 -119q0 -8 -1 -14v-16q0 -31 -5 -82q-10 -53 -26 -80q-40 -69 -123 -72q-2 -2 -6 -2q-32 0 -70 14q-38 12 -61 45q-27 41 -37 82q-17 60 -17 117 q0 54 15 106zM195 254q2 -16 7 -45.5t7 -42.5q1 -2 2 -7.5t2 -8.5q7 -33 20 -60q16 -29 48 -35q3 0 9 -1t9 -1h18q25 0 38.5 10t27.5 37q0 1 1 4t1 5h2q18 59 19 77v39v17v15q0 62 -21 132q-12 45 -51 78q-17 14 -43 14q-22 0 -43 -14q-45 -39 -53 -98q-4 -30 -4 -58.5 t4 -56.5z" />
<glyph unicode="p" horiz-adv-x="579" d="M102 500q0 14 13 20q2 1 7 2t7 2h53h8h5h8v-2h2q16 -8 26 -8q16 0 31 6q12 4 43 4h31h6q8 -2 20 -6q54 -23 89 -80q18 -30 18 -61q0 -11 4 -23q2 -4 2 -8l2 -2v-201h-2q0 -2 -1 -4.5t-1 -3.5v-2q-2 -3 -5.5 -11t-4.5 -11q-20 -54 -64 -84q-36 -26 -82 -29h-8q-6 0 -19 1 t-20 1h-20h-2q-8 0 -14.5 -5.5t-6.5 -12.5q0 -5 -1 -16.5t-1 -16.5v-43v-2v-66q0 -55 -2 -82v-2v-45v-16q0 -21 -2 -29v-6q0 -37 37 -43v-2h2h2l2 -2q6 -3 10 -14q0 -13 -4 -17t-8 -4q-6 -2 -20 -2q-74 0 -111 2q-10 0 -14 2l-2 2h-2v2l-2 2v2q-4 18 14 27q4 0 6 2 q1 1 4.5 2.5t5.5 3.5q8 4 11 14q2 6 2 25v463v80q-4 55 -4 164v57v6v12q0 35 -33 41h-2h-2q-11 5 -11 17zM221 102q0 -6 1 -15t1 -13q0 -16 19 -27q27 -12 57 -12q9 0 33 4q23 4 39 20q26 26 45 66q14 32 18 82q4 32 4 65q0 75 -24 150q-14 47 -68 57h-27q-22 0 -34 -2 q-33 -7 -49 -20q-12 -13 -15 -25v-26v-115v-43v-33v-113z" />
<glyph unicode="q" horiz-adv-x="546" d="M102 236q0 73 17 153q20 86 104 127q20 8 41 8h8q37 0 68 -10h12q13 0 19 4q24 8 43 8q1 0 49 -6q3 0 6.5 -4t3.5 -10q3 -9 0 -21q0 -10 -8 -14q-6 0 -8 -2h-2q-19 -6 -19 -25q0 -4 -1 -12t-1 -12v-127q0 -76 -1 -230t-1 -231q0 -12 1 -37t1 -37q0 -4 1 -13t1 -13 q0 -5 6 -11h4q7 0 7 5l4 2q8 12 14 18q21 34 49 59q12 12 29 19h2q8 0 16 -8q6 -6 6 -15l-4 -8v-2q-9 -12 -24 -27q-34 -30 -47 -57q-6 -12 -18.5 -33t-18.5 -32q-5 -9 -15 -23q-8 -17 -14.5 -23t-19.5 -6t-21 2q-28 6 -31 31v33v4v104v80v101v37q-2 28 -26 28q-2 0 -4 -2 h-13q-4 -2 -10 -2h-18q-29 0 -43 4q-68 12 -105 76q-39 70 -39 150zM156 195q6 -58 47 -111q30 -37 73 -37h7h8h12h4q4 1 13.5 3t13.5 3q26 7 26 31v8q2 6 2 21v104v33h3v43v96q0 5 -1.5 16t-1.5 17v4q0 30 -28 39q-13 5 -45 14h-19q-65 0 -94 -59q-11 -21 -18 -58 q-7 -43 -7 -89q0 -38 5 -78z" />
<glyph unicode="r" horiz-adv-x="516" d="M104 27q3 8 11 12h4q12 6 14 8q10 3 10 14q1 6 2 20t2 21v74q0 54 3 107q0 14 1 44t1 46q0 9 1 27.5t1 27.5v33q0 5 -1 9t-3 6.5t-4 4.5t-5 3.5t-4.5 2l-4.5 1.5l-3 1h-4h-4q-10 3 -10 15q0 18 12 18v2q3 0 8 1t8 1h37h12h5q20 0 22 -4q2 -1 8 -22q0 -9 6 -15q3 -6 13 -6 q2 2 4 2q3 2 14 13q40 32 96 32h21q19 -3 31 -18q8 -6 4 -23q-13 -20 -33 -20h-6q-24 4 -41 4h-2q-32 0 -56 -18q-42 -36 -45 -82q-2 -18 -2 -60v-61v-17v-10v-28v-5v-82q0 -22 2 -36q0 -14 13 -21q2 0 4 -2l8 -4q9 -6 11.5 -17t-3.5 -22l-6 -6h-2q-12 -4 -18 -4 q-66 0 -107 2q-10 0 -14 2q-7 3 -9 8q-6 9 -2 21z" />
<glyph unicode="s" horiz-adv-x="473" d="M102 72q0 10 9 16q2 2 8 2q8 0 10 -2l10 -10q1 -1 3 -4t3 -4t2.5 -3.5t2.5 -3.5q25 -31 67 -34h2q26 0 44.5 16t19.5 41q1 11 1 22q0 41 -18 76q-21 47 -59 82l-10 10q-19 16 -35 35q-31 36 -39 60q-10 32 -4 61q6 33 31 55q44 41 90 41q8 0 12 -2h14q19 0 27 -2t24 -10 q6 -3 9 -12l2 -10h-11q-6 2 -14 2q-20 4 -31 4q-4 0 -11 -1t-11 -1q-19 -3 -32.5 -16t-14.5 -31q-2 -12 -2 -33q0 -24 16 -43q33 -38 68 -64q11 -7 43 -39q30 -35 39 -80q3 -20 3 -37q0 -40 -14 -71q-24 -59 -82 -74q-27 -8 -55 -8q-37 0 -78 23q-30 18 -39 49z" />
<glyph unicode="t" horiz-adv-x="401" d="M102 496q0 10 13 16q4 4 10 4q25 6 25 33q2 14 2 43q2 115 2 326v161v45q0 27 -2 37q0 18 -17 25q-2 0 -5 1t-5 1q-6 0 -8 2q-9 3 -13 14q-3 15 7 25q4 4 6 4h2q40 4 59 4q21 0 31 -2q10 0 10 -8q6 -18 6 -35v-23q0 -77 -2 -114t-2 -109v-86v-24q2 -20 2 -76 q2 -37 2 -107v-65q0 -7 1 -22.5t1 -22.5q0 -9 7 -16t18 -9h22h19l8 -2q25 0 37 -2q5 0 14 -6q6 -2 6 -12q0 -8 -6 -11q-16 -4 -20 -4h-41q-11 0 -15 -2h-6h-12q-20 0 -28.5 -8.5t-8.5 -28.5q-2 -70 -2 -206v-35v-35q0 -26 10 -74q0 -11 11 -26q18 -37 57 -37q21 0 45 14 q4 2 18 16q7 7 11 9q0 1 1 2t1 2l16 12l-2 -21q-2 -2 -2 -6q-17 -33 -61 -53q-6 -2 -17 -2q-10 -2 -28 -2h-17h-2q-29 0 -55 20q-41 28 -53 72q-13 50 -13 86q0 17 1 49t1 47q0 13 1 40t1 42v2q0 13 1 40t1 42v15q-3 13 -14 18q-2 2 -10 6q-2 0 -10 4q-9 9 -9 13z" />
<glyph unicode="u" horiz-adv-x="589" d="M104 506q3 8 11 12q28 8 45 8q19 0 37 -6q10 -3 10 -16q0 -18 -8 -23q-17 -12 -17 -32v-29v-238v-30v-7q1 -29 22 -49.5t48 -25.5q4 -2 16 -2q29 0 56 16t38 39q15 26 15 51q2 33 2 82v39v16v6h-2v23v82v8v10q3 21 -21 35q-6 4 -6 25q2 9 12 14q48 10 72 10q15 0 39 -4 q12 -3 12 -14q3 -19 -10 -27q-16 -6 -16 -26v-41v-125v-144q-2 -14 -2 -45v-22q0 -22 12 -31q13 -7 10 -31q-4 -12 -12 -12h-51h-8q-23 0 -29 21q-1 1 -3 5t-3 5q-8 4 -11 4h-4q-6 -4 -18 -8q-3 -2 -21 -11q-32 -14 -67 -14q-15 0 -35 4q-56 12 -74 62q-11 34 -14 71 q-7 67 -7 158q0 36 1 76v8q0 7 1 20.5t1 20.5q2 8 2 25q3 19 -16 32q-13 7 -7 25z" />
<glyph unicode="v" horiz-adv-x="643" d="M102 500q0 8 3.5 13t6.5 6l9 3t18 2h23q21 0 67 -4q4 0 11 -1t10 -1h4l2 -2l2 -2q5 -12 0 -27l-2 -2q-2 -2 -6 -4q-2 0 -4 -2q-6 0 -8 -2q-6 -4 -11 -14v-10l2 -2q5 -17 12.5 -49t10.5 -42l2 -6q5 -20 16.5 -58t16.5 -58q2 -7 5 -21.5t5 -21.5v-2q3 -11 9 -32.5t9 -33.5 q4 -7 9 -10q2 -2 4 -2q8 0 8 6h2q1 3 3 8t3 8q23 75 76 260q3 8 5.5 16.5t5 18.5l3.5 14q4 18 1.5 23t-17.5 16q-15 9 -12 25q3 8 10 12q16 4 20 4h19h14h12h6v2l11 -2q20 0 28 -2q10 0 13 -10q3 -12 -2 -20h-2l-3 -2h-2q-3 -3 -10 -3q-2 -1 -5 -2t-5 -2q-17 -3 -23 -16 l-4 -12t-4 -15q-11 -37 -26 -98l-9 -31v-2v-2l-18 -57q-10 -36 -31 -106t-28 -93q-11 -26 -19 -39q-9 -12 -22 -12q-2 0 -6.5 -1t-6.5 -1q-6 0 -10 2q-16 0 -22 14q-2 4 -19 43l-2 9q-23 71 -29 96q-7 26 -20 88q-2 6 -5 18.5t-5 18.5q-20 91 -45 168q-6 14 -21 20 q-8 0 -10 2h-8q-15 3 -15 21z" />
<glyph unicode="w" horiz-adv-x="845" d="M104 496v4q-3 20 15 24q16 4 22 4h31q41 0 64 -2q1 0 3 -1t3 -1h2q16 -3 12 -22q0 -8 -6 -10l-6 -3q-1 -1 -11 -6q-6 -3 -6 -12q-3 -7 0 -14q0 -3 1 -9.5t1 -9.5q8 -39 15 -63q9 -36 27.5 -108.5t27.5 -108.5l2 -11q1 -2 3 -7t3 -7q2 0 2 -4q2 -2 6 -2q7 0 9 4q2 0 2 2 q2 2 6 10q2 16 10 43q1 7 6.5 30t7.5 36q3 11 10.5 34.5t10.5 35.5t9 33.5t9 33.5q8 32 13 57q3 16 -2 27q-8 8 -25 8h-8q-19 5 -15 25q0 12 11 12q12 2 37 2h6h20q12 -1 16 -5t9 -15q28 -102 35 -144q3 -19 10 -41q11 -38 28 -129q2 -14 9 -34q1 -2 2 -7t2 -8q0 -1 2 -3 t2 -3l6 -2q8 0 10 8l10 43q14 69 27 119q2 10 7 29.5t7 29.5q3 14 9.5 40t9.5 40q0 2 1 7.5t1 7.5v4q0 16 -12 20q-4 2 -9 2q-1 0 -3 1t-3 1q-13 3 -16 17q-3 10 4 20q6 6 12 6q10 2 31 2h10h8h7h8h6v2h10h17q14 0 22 -2q14 0 14 -12q3 -16 -12 -22q-2 0 -5.5 -1.5 t-4.5 -1.5q-2 0 -6 -1t-6 -1q-13 -3 -19 -16q-4 -12 -4 -18q-1 -3 -2 -8.5t-2 -8.5q-8 -35 -10 -57q-9 -55 -37 -141q-9 -32 -21 -84q-2 -11 -4 -15q-11 -50 -20 -80q0 -6 -4 -18q-3 -9 -6 -21q-10 -20 -29 -20q-4 0 -6 2q-17 0 -21 12q-5 12 -14 43q-4 20 -12 66 q-14 51 -19 92q-2 8 -12 53q-1 4 -3 11.5t-3 11.5q-12 52 -17 67q0 2 -2.5 5.5t-5.5 3.5h-2l-2 -2q-5 -2 -8 -9q-4 -12 -4 -16l-25 -96q-24 -99 -51 -201q-4 -18 -8 -25q-7 -14 -21 -14q-2 -2 -10 -2q-32 0 -45 33q-28 76 -43 162q-13 69 -27 127q-3 11 -8 32.5t-8 32.5 q-1 6 -6.5 27.5t-7.5 32.5q-6 18 -8 22q-5 11 -19 14q-2 2 -8 2q-2 1 -6 2.5t-6 2.5h-5z" />
<glyph unicode="x" horiz-adv-x="581" d="M102 12q0 8 7 11l4 2h2q35 2 49 38q4 8 22 50q12 24 17 39q3 6 9 19t9 19q6 15 17 39.5t14 30.5q9 20 0 37q-20 35 -25 45l-6 12q-9 16 -20 45q-5 13 -37 66q-16 24 -41 24h-2q-3 3 -4 3h-2q-6 1 -9.5 7t-1.5 11q0 16 15 16h22h17h16h6v2h8h17q14 0 20 -2q4 0 6 -2 q5 -10 5 -12q-2 -7 -9 -18q-13 -10 -6 -27q8 -17 25.5 -52l27.5 -55l2 -4h3q4 -8 12 -8t12 8q7 13 19 36t21.5 41t16.5 34q8 12 -2 22l-2 5l-4 4v2q-3 16 0 22q4 4 15 8q40 5 45 5q7 0 37 -5q5 0 12 -10q4 -11 -2 -20q-4 -4 -8 -4q-3 -1 -9.5 -2t-9.5 -2q-5 0 -8 -3 q-12 0 -23 -14q-9 -18 -10 -22q-44 -99 -67 -140q0 -1 -1 -3t-1 -3l-3 -2q-9 -19 0 -37q3 -9 9 -18q4 -9 12 -28.5t12 -28.5q3 -5 8.5 -14.5t8.5 -14.5q4 -8 12 -24.5t12 -24.5q11 -25 33 -54q4 -4 16 -20q4 -8 21 -12q6 0 10 -2q6 -6 6 -15q-2 0 -2 -4v-4h-6 q-22 -7 -41 -10q-10 -1 -31.5 -3t-31.5 -3h-7h-2q-9 0 -12 6q-6 9 0 20q4 4 8 6q14 11 8 27q-23 55 -59 141q-6 12 -8 15l-2 4l-2 2q-4 4 -10 4q-10 0 -13 -6q-1 -2 -3 -5t-3 -5q-3 -6 -9 -17.5t-9 -17.5q-7 -19 -35 -76q-2 -7 -7.5 -18.5t-6.5 -14.5q-6 -15 10 -26h4v-2 q8 0 8 -11q0 -9 -10 -16h-2q-1 -1 -4.5 -2t-5.5 -2q-6 0 -18.5 -1t-18.5 -1q-15 0 -43 4q-13 0 -13 16z" />
<glyph unicode="y" horiz-adv-x="585" d="M104 494v4q-3 18 13 24q8 4 16 4q14 2 45 2t45 -2q12 0 15 -8q3 -13 -5 -24q-5 -5 -8 -5q-18 -9 -18 -28v-12q-2 -4 -2 -15q0 -27 -2 -39q0 -15 -1 -45t-1 -45q-3 -26 0 -47q0 -52 6 -108q4 -40 8 -54v-2q3 -13 23 -33q21 -16 65 -16q47 0 66 16q28 19 28 52v118v5v28v8 v7v38v113q0 6 -1 17t-1 16q-3 10 -12 14q-12 4 -16 6q-9 0 -11 2q-10 3 -10 17q-3 11 10 20h2q8 4 13 4q16 -1 47.5 -2t44.5 -2q2 0 5 -1t5 -1l4 -4l2 -2v-2q7 -20 -6 -29q-4 0 -6 -2l-12 -6q-9 -5 -9 -14q-2 -14 -2 -43q0 -38 -1 -114.5t-1 -113.5v-116v-92q0 -76 -4 -115 q-2 -31 -2 -92v-15q0 -25 -8 -75q-6 -45 -41 -70q-8 -8 -33 -23q-3 -1 -10 -3t-10 -3h-31q-19 0 -27 2q-10 0 -32 11q-21 14 -35 28q-14 11 -14 35v12l10 -6q2 -1 16 -10q10 -7 15 -14h2q1 -1 5.5 -7t8.5 -8q17 -14 49 -14q30 0 49 16q29 29 33 54q0 6 2 10q0 4 1 11t1 11 q3 105 3 189q0 42 -1 78v10v2l-2 2q0 4 -5.5 8t-10.5 4h-2h-2q-2 -1 -6.5 -2t-6.5 -2q-21 -6 -47 -6q-23 0 -61 10q-10 2 -25 10q-35 15 -47 54q-8 23 -10 39q-6 37 -14 118q-1 9 -2.5 30t-2.5 30v4q0 7 -1 24t-1 25q0 14 -1 40t-1 38v4v29q0 29 -24 32q-1 1 -4 2.5t-4 2.5z " />
<glyph unicode="z" horiz-adv-x="544" d="M106 12q-6 12 0 23q1 3 6 11t7 11q26 35 57 99q3 5 9.5 16t9.5 16q15 27 24 54q6 10 14 30q7 16 25 45q18 33 35 58v2q32 53 37 63q4 5 8 23q2 4 -6 12q-8 4 -13 4q-19 -1 -57 -2t-57 -2q-5 0 -17 -4q-13 -3 -16 -16q0 -7 -2 -11v-8q-4 -16 -23 -16h-2q-9 0 -12 10 q-1 15 -1 28q0 21 3 36q3 20 23 20q24 4 41 4h41h26h29h10h4h15h26h45q21 0 33 -2q6 0 10 -6t4 -12q0 -12 -10 -29q-8 -15 -41 -66q-11 -21 -24 -38q-41 -56 -68 -121q-6 -19 -25 -47q-25 -39 -65 -121l-6 -10q-2 -4 -2 -13q0 -8 8 -12t18 -4q10 -2 29 -2q30 0 84 4 q6 2 16 2q22 4 27 20q0 1 1 4.5t1 4.5q1 2 2 6t2 6q4 8 19 12h2q5 0 9.5 -4t4.5 -8v-2l2 -2v-12q0 -21 -2 -33q0 -16 -16 -19q-3 0 -9.5 -1t-9.5 -1h-10q-3 -1 -10.5 -2t-10.5 -2q-15 0 -47 -4q-62 -4 -82 -4h-30h-35h-2h-21q-10 0 -16 2q-12 0 -19 10z" />
<glyph unicode="{" horiz-adv-x="497" d="M104 748.5q1 8.5 5 11.5q12 12 18 16q26 23 45 47q7 14 8 17q13 58 13 82q0 10 1 30.5t1 32.5q1 5 1.5 15t1.5 18.5t3 15.5q4 36 4 51q0 4 12 101q8 57 35 123q19 53 72 96q24 17 45 20q15 4 22 -10q0 -2 1 -6t1 -6q3 -10 -4 -17q-6 -6 -10 -8q-18 -10 -45 -37 q-28 -28 -37 -65q-1 -2 -2 -6t-2 -6q-8 -21 -8 -50q-1 -16 -2 -45.5t-2 -44.5q0 -16 -2 -24q-4 -18 -9 -76t-6 -63q0 -2 -6 -46q0 -28 -10 -61q-4 -11 -6 -23q-4 -6 -9.5 -13.5t-5.5 -8.5l-20 -25q-6 -6 -21 -16q-8 -8 -2 -18q1 0 2 -2t2 -3q31 -27 41 -77q17 -70 17 -101 q0 -49 8 -88q2 -16 2 -45q1 -10 2 -31.5t2 -31.5q0 -27 2 -39q6 -24 6 -49q1 -23 6.5 -66t6.5 -49q6 -29 18 -55q15 -26 37 -33q7 -4 29 -8l18 -6q3 -2 8 -11q4 -11 -6 -16q-8 -4 -10 -6q-17 -2 -45 2q-7 0 -19 4q-8 4 -22.5 11.5t-16.5 8.5q-41 23 -51 70q-2 2 -2 8 q-10 45 -12 94q0 38 -2 58q-1 8 -1.5 23t-1.5 28t-3 25q-4 20 -4 63q-2 18 -2 57q0 13 -3 25q-8 31 -8 70q-4 45 -10 63q-1 2 -2.5 11t-3.5 14q-7 30 -31 45q-3 3 -11 7t-11 7q-4 4 -7 10q-3 3 -2 11.5z" />
<glyph unicode="|" horiz-adv-x="280" d="M102 63q0 120 2 179q6 60 7 63q2 8 2 25q1 24 2 71t2 70v64v350q0 23 4 69q6 47 0 97q0 4 -1 12t-1 12q-4 191 -2 287q0 2 1 6t1 6q2 8 8 14.5t12 6.5q2 2 6 2q11 0 15 -2q8 -8 8 -15q0 -8 1 -23t1 -22v-141q0 -21 2 -31q5 -10 4.5 -67.5t-0.5 -65.5v-6q-6 -28 -6 -109 v-57q-4 -29 2 -51q6 -29 0 -57q-4 -32 -4 -50q0 -68 -4 -204q0 -57 -6 -76q-4 -86 -4 -127v-148q0 -15 -1 -44t-1 -44q0 -10 -15 -20q-11 -2 -24 4q-5 3 -9 10q0 2 -1 6t-1 6z" />
<glyph unicode="}" horiz-adv-x="497" d="M104 41q-3 8 0 14v6q0 5 5 5q2 4 10 8q7 5 35 28q34 34 49 80q0 2 1 6.5t1 6.5q11 78 10 88q0 35 2 51q5 62 8 76q2 10 2 32q4 32 4 50q1 20 7 54t8 48q11 34 24 51q14 22 41 39q8 8 0 16q-36 39 -45 91q-8 18 -12 55q0 18 -2 26q-3 14 -8 95q-1 10 -1.5 35.5t-1.5 43 t-5 35.5q-1 5 -2.5 15.5t-2.5 15.5q0 31 -2 45q0 17 -4 45q-6 27 -6 55q-2 26 -18 76q-1 3 -13 21q-10 14 -20 16q-9 3 -27.5 9.5t-27.5 9.5q-5 2 -7.5 8t0.5 12q6 9 15 12q17 3 33 0q7 -2 21.5 -6t21.5 -6q7 -4 21.5 -13.5t21.5 -13.5q14 -11 24 -28q17 -43 19 -62 q0 -13 4 -37q6 -41 6 -77q0 -8 1 -25t1 -25q0 -63 8 -96q1 -4 1 -12t1 -12q0 -26 4 -84q0 -21 2 -31q6 -21 6 -45q2 -28 17 -74q6 -22 26 -35q3 -3 15 -10t16 -12q4 -4 4 -10q0 -14 -8 -19q-24 -13 -55 -51q-16 -16 -23 -45q0 -4 -1 -12.5t-1 -12.5q-5 -95 -10 -121 q-2 -12 -2 -38q-5 -64 -8 -76q-2 -6 -2 -19q0 -2 -2 -24t-4 -33q-21 -84 -35 -115q-23 -55 -74 -94q-6 -4 -19.5 -11t-19.5 -11q-9 -5 -18 0.5t-9 15.5z" />
<glyph unicode="~" horiz-adv-x="702" d="M104 692.5q-3 7.5 0 12.5q14 28 46 53q12 9 28 12q2 1 6 2t6 2q33 10 62 10q5 -1 14 -1t13 -1q14 -4 69 -8q51 -4 68 -12q32 -4 57 2q5 2 15.5 5t15.5 5q21 6 39 21q8 8 20 14q8 0 12 -2q17 -7 23 -21q4 -9 0 -18q-18 -18 -45 -35q-25 -12 -35 -14q-2 0 -6 -1t-6 -1 q-42 -14 -88 -4q-28 4 -76 8q-3 0 -39 6q-39 8 -61 10q-29 3 -56 -14q-6 -5 -19.5 -16.5t-19.5 -16.5q-2 -1 -5 -3t-5 -3q-12 -6 -24 0q-6 1 -9 8.5z" />
<glyph unicode="&#xa1;" horiz-adv-x="278" d="M102 -455q0 103 2 154v25q5 36 5 172v18q-5 34 -5 76v114q0 40 2 58q3 38 3 71q1 8 1 25t1 25q7 14 12 14q17 3 33 0q9 -3 12 -12q4 -8 4 -13q2 -6 2 -18v-375v-168q0 -96 -2 -145v-12q-3 -23 -22 -29q-17 -7 -31 -4q-3 0 -9 4.5t-6 7.5q0 2 -1 6t-1 6zM113 469v6v12 q3 16 16 23t27 2q10 -3 15.5 -14.5t0.5 -20.5q-2 -2 -2 -6q-1 -1 -2 -3t-2 -3q-11 -16 -33 -16q-7 0 -13.5 6.5t-6.5 13.5z" />
<glyph unicode="&#xa2;" horiz-adv-x="444" d="M102 195q0 15 1 33.5t1 25.5q0 36 11 63q8 48 16 74q2 5 5 15.5t5 15.5q10 20 31 41q25 25 57 39q13 5 17 24v27q0 10 1 30.5t1 32.5q0 5 4 13q1 4 10 7t12 1q1 -1 4 -4.5t3 -5.5q6 -21 0 -45q-5 -18 -5 -43q0 -22 17 -25q22 -4 35 -14q1 -1 6 -11q2 0 2 -2.5t-2 -3.5 q-3 -6 -8 -6q-12 4 -19 4q-15 3 -24 -6q-4 -4 -7 -10v-19q-2 -37 -2 -108q1 -34 -4 -193q0 -22 -6 -43q-7 -31 -4 -57q2 -6 7.5 -10.5t11.5 -3.5q6 0 18 4q5 2 14.5 6t14.5 6q5 3 10 -2q7 -7 4 -12q-6 -17 -25 -27q-19 -11 -47 -18l-8 -8q-4 -8 -4 -13q-4 -37 -10 -55 q0 -6 -8 -10q-6 -3 -15.5 1.5t-11.5 10.5v12q-2 10 -2 33v18q-4 13 -10 17q-14 7 -17 8q-30 15 -49 47q-17 33 -20 47q-7 18 -7 31q-1 12 -2 35.5t-2 32.5zM184 127q3 -33 17 -55q0 -6 10 -6q1 -1 2.5 -1t2.5 2t1 5q0 2 6 145q0 35 4 51q2 8 2 25q1 8 2 25.5t2 25.5 q0 38 3 76q0 3 -1.5 9t-1.5 9q3 0 5 2q0 2 2 4q-7 0 -7 -6q-7 0 -10 -6q-14 -24 -14 -47q-5 -34 -8 -45q-1 -5 -3 -15.5t-3 -15.5q-5 -42 -9 -55q-2 -6 -2 -21q-3 -53 0 -106z" />
<glyph unicode="&#xa3;" horiz-adv-x="610" d="M104 418q0 13 5 16l4 4q20 4 32 6q3 1 8.5 3.5t8.5 3.5q12 3 16 18q0 51 -6 76q-1 6 -2 18.5t-2 18.5q-3 43 -8 69q-4 10 -4 33q-4 86 -4 133q5 62 12 82q2 24 26 64q10 14 33 30q26 13 53 19q34 8 76 -2q4 -1 12.5 -4.5t12.5 -4.5q10 -2 26 -14q19 -14 37 -35 q12 -14 9 -30q0 -3 -6 -6.5t-9 -0.5q-3 1 -5.5 2.5t-5.5 4.5t-5 4q-22 20 -70 43q-17 11 -43 8q-6 0 -18 -4q-13 -6 -27 -17q-10 -7 -16 -18q-1 -2 -4 -5t-4.5 -5.5t-2.5 -5.5q-15 -30 -26 -93q-4 -35 2 -63q2 -12 5 -35.5t5 -34.5v-6q1 -8 4 -24.5t4 -24.5q2 -8 4.5 -25.5 t4.5 -25.5q6 -24 10 -68q0 -19 8 -51q3 -12 18 -16h19q8 0 12 -2q6 0 10 -6.5t2 -12.5q-4 -11 -12 -14l-24 -6q-7 -1 -13 -9t-6 -14q-1 -17 -2 -48.5t-2 -47.5v-45q-4 -20 -4 -31q-2 -2 -2 -6q-2 -8 -4 -25t-2 -18q-2 -11 -7 -29t-6 -22q-4 -30 -8 -43q12 -8 19 -8 q44 0 61 -7q16 -1 45 -3t45 -3h31q26 4 37 11q4 1 12 4t12 4q7 3 14.5 -1t8.5 -14v-6q-2 -3 -5 -8t-5 -8q-19 -19 -49 -29q-6 -2 -18 -4t-13 -2q-28 0 -82 8q-59 16 -133 6q-13 0 -19 2q-6 1 -11 7.5t-5 11.5q0 1 -1 3t-1 3q0 63 8 94q4 20 4 33q2 43 2 133v82q0 4 -4 12 q0 3 -5.5 7t-8.5 4q-5 0 -25 -5q-9 0 -18 3q-11 0 -15 12z" />
<glyph unicode="&#xa4;" horiz-adv-x="573" d="M104 741v13q8 47 43 98q4 9 -2 18q-6 6 -12 15q-8 8 -12 14q-8 8 4 23q3 3 9 3.5t9 -1.5q10 -5 11 -6q12 -12 24 -21q6 -6 17 -6q6 0 6 2q18 6 39 6q5 0 15.5 0.5t19 0.5t16.5 -1q6 0 16 -0.5t13.5 -0.5t11 -1t12 -2.5t12.5 -4t16.5 -6.5t20.5 -10q12 -4 19 7q2 3 7 9 t7 9t8 10.5t8 10.5q3 3 11.5 1t11.5 -6q10 -12 2 -28q-6 -10 -17.5 -25t-15.5 -22q-6 -6 -6 -13q-1 -2 -2 -6t-2 -6q2 -3 5 -11t5 -11q12 -21 10 -53t-14 -58q-3 -7 -11.5 -17t-10.5 -14q-4 -12 -2 -18q9 -13 10 -17q2 -2 6 -7t6 -7q0 -1 1 -3t1 -3q3 -9 0 -18 q-3 -7 -13 -9.5t-14 2.5q-15 11 -49 41q-6 6 -18 6q-9 0 -27.5 -1t-27.5 -1q-48 0 -88 11q-9 3 -13 -4q-6 -6 -19 -24t-22 -26q-8 -8 -14 -10q-4 -2 -12 2q-9 9 -4 17q5 10 19 28.5t19 28.5q3 6 0 12q-5 9 -8 11l-18 24q-10 21 -17 55zM166 748q-2 -11 2 -27q2 -3 7.5 -17.5 t10.5 -21.5q14 -18 29 -25q28 -12 43 -12q34 -3 70 0q24 6 43 25q20 27 20 51q2 12 2 33v37q-2 20 -16 40q-11 18 -21 23q-35 22 -73 16q-24 -3 -47 -16q-34 -15 -50 -47q-2 -10 -10 -25q-2 -5 -5 -17t-5 -17z" />
<glyph unicode="&#xa5;" horiz-adv-x="714" d="M102 1413q0 3 4 8.5t7 5.5q3 3 6 3q7 0 22 1t23 1q18 -4 26 -17q42 -65 66 -123q20 -45 66 -131q23 -40 26 -45q6 -13 29 -49q2 -2 7 -6t7 -6q13 9 15 12q23 41 36 76q4 14 16 41.5t17 40.5q4 12 13.5 38t13.5 42q2 8 10 28q7 14 20.5 42.5t20.5 43.5q7 17 25 17 q15 0 24 -9q6 -6 6 -10q0 -2 -1 -6t-1 -6q-42 -122 -63 -174q-3 -10 -11 -23q-10 -18 -19 -39.5t-19.5 -49t-16.5 -40.5q-6 -19 -16 -35q-21 -41 -35 -81q-6 -13 0 -25q3 -10 14 -10h13q54 10 139 6q9 0 14.5 -5.5t5.5 -13.5v-6q-4 -8 -6 -10q-17 -10 -61 -14q-72 0 -109 -4 q-4 -4 -10 -7v-6q-3 -30 0 -57q2 -5 8 -9.5t10 -4.5q68 0 103 6q23 6 49 -4q6 0 12 -6q4 -4 4 -17q0 -4 -3.5 -9t-6.5 -5q-16 -4 -24 -4q-2 0 -27 -2t-37 -4q-50 -4 -70 -4q-6 0 -12 -6t-6 -11q0 -2 -1 -6t-1 -6q0 -31 -2 -45q0 -59 -2 -90q0 -41 -4 -64q-2 -12 -2 -37 q-2 -53 -2 -159v-191q1 -15 1 -31t-0.5 -35.5t-0.5 -29.5q0 -8 -9 -17q-8 -6 -28 -10q-19 -4 -31 2q-12 5 -16 21q-2 2 -2 12q-2 12 -2 37v250q0 250 -2 377v24q0 3 -6 7.5t-9 4.5h-102q-13 0 -25 3q-3 0 -7.5 4.5t-4.5 7.5v6q0 18 18 25q18 4 58 8h57q21 0 21 16v51 q0 6 -13 15q-20 1 -62.5 1t-64.5 1q-6 0 -10 5t-4 11q0 1 1 3t1 3q0 12 10 15q6 2 18.5 5t18.5 5q20 4 33 4h63q1 2 4.5 5t4.5 5q0 2 1 6t1 6q0 16 -9 31q-4 7 -13 21.5t-13 21.5q-56 90 -86 164q-14 34 -31 63q-11 22 -32.5 68.5t-33.5 69.5q-4 12 -4 18z" />
<glyph unicode="&#xa6;" horiz-adv-x="274" d="M102 76q0 104 2 157q1 19 2.5 54.5t2.5 54.5q0 36 6 76q4 27 4 82v69q0 6 5 11.5t11 5.5h12q8 0 14 -8t5 -15q-4 -32 -4 -49q-1 -30 -3 -91.5t-3 -92.5q0 -4 -1 -12t-1 -11v-155q0 -55 -4 -70q-2 -6 -2.5 -18.5t-2.5 -18.5q-4 -8 -8 -10q-9 -6 -22 0q-11 4 -11 14 q0 4 -1 13t-1 14zM119 885v39q0 139 2 184q-2 49 -2 242v18q4 20 20 23q4 2 13 2q6 1 11 -4t5 -11q2 -6 2 -18v-64q2 -70 2 -204q0 -131 -2 -197q0 -17 -18 -21q-6 -2 -15 -2h-6q-5 0 -12 13z" />
<glyph unicode="&#xa7;" horiz-adv-x="612" d="M102 379v39q0 29 4 43q2 4 7 24q2 12 10 37q10 33 18 64q11 12 19 24q12 25 51 64q6 6 17.5 14t13.5 10q3 3 28 13q3 2 5 7.5t1 8.5q-34 54 -65 109q-9 12 -14 22q-25 33 -64 105q-15 30 -18 65q-6 70 0 141q0 12 2.5 25t7 30t6.5 25q2 5 5 15.5t5 15.5q5 18 19 39 q9 15 18 27q23 36 60 65q27 20 53 23q31 3 63 0q12 -4 17 -9q23 -18 41 -41q14 -20 8 -43q-2 -4 -4 -4q-3 -3 -10 0q-4 2 -21 25q-6 6 -10 8q-12 12 -29 12q-36 3 -74 -14q-39 -19 -63 -53q-19 -30 -21 -53q-4 -99 0 -146q3 -43 25 -86q4 -9 19.5 -44.5t23.5 -55.5 q9 -20 25 -43q5 -8 14 -24.5t14 -24.5q24 -37 33 -56q4 -8 47 -75q9 -14 25.5 -41t25.5 -41q17 -27 31 -76q3 -9 9 -27.5t9 -27.5q6 -17 9 -37q0 -9 4 -25q8 -24 8 -57q0 -59 -2 -88q0 -37 -14 -88q-5 -24 -27 -78q-4 -8 -13.5 -25.5t-13.5 -25.5q-11 -19 -24 -29 q-22 -19 -37 -27q-3 -2 -5 -7.5t1 -8.5q25 -45 45 -76q25 -35 37 -74q30 -84 39 -135q3 -18 6 -39q7 -32 2 -55q-4 -34 -8 -90q0 -16 -7 -37q-12 -59 -43 -113q-2 -4 -6 -11t-6 -11q-13 -32 -51 -55q-24 -12 -29 -13h-6q-4 -1 -12.5 -2t-11.5 -2q-18 -6 -52 -6q-28 -2 -63 8 q-24 11 -37 23q-13 11 -29 35q-14 28 -16 34q-2 3 -2 19q0 4 4 12q3 1 8.5 -1t7.5 -5q14 -14 17 -20q1 -1 6 -11l10 -10q3 -2 19.5 -14.5t25.5 -18.5q5 -5 25 -10q8 -2 24 -2q17 0 25 2q5 2 15.5 5t15.5 5q32 11 55 41q25 42 31 64q1 2 2 6t2 6q1 8 2.5 23.5t3.5 28.5t6 24 q0 57 -2 69q-4 18 -8 58q-1 15 -7 46t-7 48q0 2 -5 12q-3 8 -12 33t-14 39q-16 35 -43 78q-32 46 -43 69q-3 5 -8.5 14.5t-8.5 14.5q-33 47 -67 109q-10 15 -15 20q-30 44 -43 70q-15 27 -30 57q-1 3 -2 9.5t-2 9.5q-11 54 -11 100zM176 475h2v-51q0 -27 6 -57q8 -31 27 -72 q3 -6 8 -19.5t8 -19.5q28 -65 54 -102q32 -51 51 -86q4 -4 4 -7q1 0 3 -1t3 -1q2 -2 6 -2q33 15 43 35q6 9 10 17q18 30 29 84q11 113 -4 190q-4 20 -4 31q-2 37 -25 92q-7 21 -14 35q-14 44 -59 104q0 4 -5 4q-8 8 -16 8q-29 -4 -43 -12q-31 -16 -57 -49q-25 -32 -25 -64 q0 -39 -2 -57z" />
<glyph unicode="&#xa8;" horiz-adv-x="438" d="M102 1376q1 3 2 9.5t2 9.5q3 9 15 12q6 2 18 2q16 -4 21 -12q7 -15 2 -25t-15 -20q-9 -9 -22 -9q-17 0 -21 15q0 3 -1 9t-1 9zM272 1364v14q0 7 2 11q2 10 15 18q8 2 24 2q8 -2 14.5 -9t6.5 -14q1 -12 -5.5 -23.5t-17.5 -16.5q-9 -3 -18 -3q-7 0 -14 6.5t-7 14.5z" />
<glyph unicode="&#xa9;" horiz-adv-x="1329" d="M106 668q-4 35 0 51q5 15 5 18q5 49 6 51q4 11 10.5 31t12.5 36t12 30q34 70 49 96q69 102 127 149q76 62 127 84q43 22 47 23q26 15 45 23q59 20 86 22q10 0 26 4q13 4 64 4q12 0 18 -2q4 0 56 -12q36 -9 71 -27q24 -14 33 -18q37 -16 103 -66q17 -17 53 -45 q56 -50 90 -116q28 -58 37 -95q26 -72 33 -102q4 -11 8 -37q0 -102 -2 -121q0 -10 -4 -26q-5 -22 -9 -50q-5 -37 -18 -73q-3 -9 -9 -28t-9 -28q-26 -81 -91 -153q-34 -39 -45 -53q-4 -3 -12 -9.5t-12 -9.5q-33 -28 -90 -49q-7 -3 -20.5 -8t-20.5 -8q-27 -9 -37 -9 q-3 -1 -9.5 -2t-9.5 -2q-17 -5 -75 -10h-84q-34 0 -93 19q-24 8 -36 14q-12 5 -37.5 14.5t-38.5 14.5q-4 2 -12.5 5t-12.5 5q-58 24 -72 33t-51 43q-17 15 -43.5 43.5t-35.5 37.5q-2 3 -6.5 8.5t-6.5 8.5q-56 79 -82 149q-16 46 -24 66q-11 72 -11 76zM158 686q1 -5 3 -15.5 t3 -15.5q0 -15 7.5 -42t8.5 -40q7 -18 19 -54.5t18 -53.5q8 -19 16 -33q6 -8 48 -61q35 -40 94 -74q4 -2 11 -6t11 -6q7 -4 21.5 -13.5t21.5 -13.5q20 -16 37 -25q12 -6 34 -18t34 -18q12 -2 33.5 -12t31.5 -13q13 -2 38 -5t38 -5q29 -4 51 2q24 4 37 4q27 2 62 14 q53 19 127 64q42 24 79 71q63 79 101 162q3 5 8 16.5t8 16.5q17 92 17 96q0 1 6 25q3 18 4 60.5t-2 60.5q0 2 -1 6t-1 6q-4 12 -4 18q-4 36 -13 56q-3 10 -8 30.5t-8 30.5q-12 35 -23 53q-13 29 -51 86q-24 37 -55 62l-35 28q-22 19 -57 44q-84 41 -117 47q-16 5 -46 10 t-42 8h-12q-48 4 -82 -4q-18 -4 -58 -8q-33 -14 -45 -21q-11 -5 -29.5 -14.5t-21.5 -11.5q-40 -16 -108 -68q-44 -32 -68 -65q-19 -27 -31 -41q-21 -25 -67 -115q-2 -3 -13 -31q-12 -47 -12 -49q-12 -53 -12 -55q0 -1 -6 -43q-3 -15 0 -27zM524 629v30q0 54 2 64q1 14 7 39 t8 35q8 35 18 67q6 19 16 35q4 7 9 10q29 38 71 49q11 6 25 9q25 11 55 -2q12 -4 17 -9q4 -2 8 -10q3 -7 -6 -10q-6 -1 -17 0.5t-14 1.5q-51 0 -78 -47q-1 -2 -6 -17q-2 -10 -7.5 -35t-6.5 -40q0 -9 -2 -13q-11 -35 -15 -143q0 -24 4 -78q0 -35 31 -59q2 -2 7 -6t7 -6 q10 -5 13 -5q37 -7 61 9q12 4 19 4q6 3 10 -4q4 -8 2 -13q-10 -14 -17 -18q-24 -15 -53 -18q-30 -3 -57 2q-46 6 -68 41q-4 5 -8 11t-8.5 13.5t-7.5 11.5q-4 8 -4 13q-1 7 -6.5 26.5t-7.5 33.5t-1 28z" />
<glyph unicode="&#xaa;" horiz-adv-x="458" d="M102 1188q0 40 2 63q3 68 48 129q18 21 47 31q34 12 69 6q9 -2 28 -5t28 -5q9 -1 15.5 -9.5t6.5 -17.5v-32q2 -41 2 -127q0 -26 6 -50q0 -3 1 -9t1 -9v-45v-39q0 -5 -5 -11t-11 -7q-23 -4 -33 12q-2 4 -4 5t-3.5 0.5t-6.5 -3.5q-13 -9 -17 -10q-8 -4 -12 -4h-31 q-28 -3 -55 14q-28 16 -41 29q-12 12 -14 20q-14 30 -19 55q0 3 -1 9.5t-1 9.5zM166 1153q0 -15 12 -35q8 -15 27 -28l22 -11q18 -4 31 4q17 10 23 31q3 10 8 43q4 12 4 19q5 77 6 92v84q0 3 -1 10t-1 10t-6 9.5t-10 7.5q-21 8 -52 0q-18 -5 -34 -27q-24 -40 -27 -76 q-8 -62 -2 -133z" />
<glyph unicode="&#xab;" horiz-adv-x="663" d="M103.5 718.5q-0.5 12.5 5.5 18.5q3 1 5.5 2.5t5.5 4.5t5 4q2 2 27 14q80 39 141 86q19 15 35 18q9 3 16 -4q4 -2 8 -10q16 -24 -6 -39q-33 -26 -78 -53q-9 -5 -28.5 -15.5t-28.5 -15.5l-12 -12q-7 -7 0 -10q10 -10 20 -15q11 -6 61 -30t76 -39q7 -2 11 -15l-5 -10 q-6 -9 -18 -6q-12 2 -41 14q-21 9 -39 21q-39 18 -74 37q-23 12 -69 32q-8 4 -10 6q-7 4 -7.5 16.5zM294.5 707q-0.5 12 6.5 18q8 8 14 12q5 2 23.5 12t28.5 15q65 30 122 78q4 2 11.5 6t11.5 6q6 4 15 2t14 -8q10 -10 10 -23q0 -10 -6 -16q-3 -3 -9.5 -9t-9.5 -9 q-8 -5 -23 -15.5t-27.5 -18.5t-24.5 -14q-5 -3 -25 -13t-31 -17q-5 -5 -5 -11.5t5 -9.5q12 -7 29 -14q22 -12 66 -34.5t65 -33.5q8 -4 4 -16q-1 -4 -8 -9t-12 -5q-1 1 -3.5 1t-3.5 1q-9 3 -57 24q-41 23 -125 64q-8 4 -23.5 11t-23.5 11q-8 3 -8.5 15z" />
<glyph unicode="&#xac;" horiz-adv-x="753" d="M102 680v6q2 12 11 29q12 8 16 8q25 2 72 2q31 0 37 2q29 4 81 4q23 0 68 1t68 1q51 0 145 4q2 0 7 -1t7 -1q14 -3 19 -14q12 -15 12 -35q-1 -34 -1 -47t2 -47t3 -47v-31q3 -19 -24 -22q-5 0 -15 10q-12 61 -16 151q0 6 -5 11.5t-11 5.5h-13q-55 0 -84 -2q-33 0 -51 -2 q-8 0 -24.5 -1t-24.5 -1q-16 -1 -48 -2.5t-48 -2.5q-77 0 -154 3q-3 0 -9 1t-9 1t-7 6.5t-4 9.5z" />
<glyph unicode="&#xad;" d="M102 696q0 13 4 19q4 4 5 4q37 16 67 16h64q107 -6 217 0q33 3 69 0q12 0 17 -8q8 -12 -2 -22q-2 -5 -11 -9q-73 -12 -151 -12q-14 1 -29.5 1t-31 -0.5t-19.5 -0.5h-162h-24q-3 0 -8 4.5t-5 7.5z" />
<glyph unicode="&#xae;" horiz-adv-x="1327" d="M102 713q0 56 19 118q20 66 57 136q5 13 23 39q46 68 82 104q63 67 141 109q50 27 102 51q45 20 84 28q24 7 45 7q14 2 50 2q24 0 38 -2q13 0 19 -2q74 -19 115 -41q19 -14 26 -17q34 -14 90 -59q19 -14 70 -58q5 -5 14.5 -16t14.5 -16q30 -33 53 -80q26 -57 37 -94 q2 -6 7.5 -20t8.5 -21q2 -9 7 -28t7 -28q9 -42 11 -57q0 -58 -2 -70q-7 -28 -7 -51q-5 -41 -8 -49q-2 -4 -2 -12q-2 -32 -22 -86q-4 -7 -8 -25q-1 -3 -9 -25.5t-14 -33.5q-5 -8 -14.5 -24.5t-14.5 -24.5q-10 -19 -30 -43q-20 -20 -41 -48q-41 -46 -103 -75q-16 -8 -65 -25 q-8 -4 -25 -8t-18 -4q-4 -1 -12.5 -3t-12.5 -3q-38 -4 -57 -8q-43 -7 -107 0q-7 0 -20 3t-19 3q-23 3 -43 12q-5 2 -47 19t-65 24q-15 5 -41 17.5t-29 13.5q-26 11 -39 22q-65 56 -121 121q-7 5 -12 14q-61 95 -76 142q-2 5 -6 14t-6 14q-8 20 -21 74q-2 6 -2 19 q-2 18 -2 51zM156 684q0 -12 2 -18q5 -17 13 -50t13 -49q1 -4 4.5 -12t4.5 -12q1 -5 22 -66q10 -23 23 -39q33 -44 38 -49q28 -30 74 -61q8 -5 24.5 -14.5t24.5 -14.5q4 -3 13.5 -8t13.5 -8q57 -38 82 -50q18 -13 80 -36q40 -15 82 -15h69q34 2 88 17q74 25 152 80 q6 4 14 12q49 45 68 76q2 2 9.5 13.5t10.5 18.5q42 57 68 123q12 31 14 53q0 11 4 27q9 27 9 55q2 23 2 64q1 14 -4 90q0 9 -6 28t-7 21q-6 33 -26 90q-5 11 -39 68q-5 10 -17 26q-26 44 -61 72q-5 4 -14.5 13.5t-14.5 13.5q-12 11 -61 45q-73 41 -129 53q-6 1 -18.5 4 t-18.5 4q-12 4 -19 4q-91 10 -157 -8q-3 -1 -15.5 -2.5t-21.5 -3.5q-7 -3 -80 -41q-48 -22 -98 -59q-47 -36 -86 -84q-7 -9 -20.5 -29t-20.5 -29q-13 -20 -27 -49q-4 -8 -8 -12q-12 -21 -21 -45q-20 -59 -22 -86q0 -2 -1 -6t-1 -6q-15 -44 -8 -109zM520 477q-4 -11 2 -20 q3 -5 8 -8q6 -3 15 -3q41 -2 106 -2q4 0 19 5h2l6 6q6 11 3.5 22t-11.5 17l-8 4l-5 2q-12 6 -12 20q-2 14 -2 37v82v4v29v10v16v62q0 41 2 59q3 46 45 82q25 19 55 19h3q10 0 40 -5h7q18 0 32 21q4 17 -4 22q-13 16 -30 19h-21q-54 0 -96 -33q-8 -8 -14 -12l-5 -2 q-9 0 -12 6q-6 6 -6 14q-6 22 -8 23q-2 4 -23 4h-4h-12h-37q-3 0 -8 -1t-8 -1v-2q-13 0 -13 -19q0 -10 11 -14h4h4q24 -8 24 -29v-32q0 -9 -1 -28t-1 -28q0 -16 -1 -46t-1 -44q-2 -35 -2 -106v-74q-1 -7 -2 -21t-2 -20q0 -11 -10 -14q-4 -4 -14 -9h-5q-7 -4 -10 -12z" />
<glyph unicode="&#xb0;" horiz-adv-x="448" d="M102 1255v45q1 4 3.5 12.5t3.5 12.5q19 44 20 47q11 21 27 35q5 3 15 10t15 10q10 7 19 7q18 3 39 0q8 0 22 -9q4 -2 7.5 -4.5t7.5 -5.5t6 -4q34 -23 49 -65q1 -5 4.5 -13.5t3.5 -9.5q0 -19 2 -27q0 -39 -31 -82q-18 -24 -51 -34q-18 -9 -28 -11q-9 -4 -13 0 q-16 2 -43 11q-46 13 -67 47q-11 15 -11 28zM147 1296q0 -6 3 -12l6 -24q13 -30 45 -33q27 -3 49 2q22 3 31 22q12 24 12 41v21q0 10 -2 18q-10 38 -35 60l-12 6q-24 7 -43 -4q-22 -13 -35 -35q-11 -22 -19 -62z" />
<glyph unicode="&#xb1;" horiz-adv-x="653" d="M104 481q4 16 15 19q34 10 45 12t43 2q9 0 28 -1t29 -1q14 0 44 -1t44 -1q21 1 60.5 2t60.5 2q54 0 64 -2q4 0 10 -6q6 -12 0 -25l-4 -4q-40 -12 -82 -12q-43 -2 -127 -2q-32 0 -96 -1t-95 -1q-4 0 -13 1t-13 1q-5 0 -9.5 6t-3.5 12zM104 807q6 17 23 20q30 9 61 9 q14 0 42 -1t42 -1q3 0 9.5 1t9.5 1q9 0 14 10v6q3 48 -4 84q-5 33 -2 76q0 8 2 12q6 9 14 12q6 1 13.5 -2t9.5 -8q4 -8 4 -10q2 -11 4 -30t2 -21q0 -68 2 -103q0 -2 1 -6t1 -6q2 -5 8.5 -10.5t10.5 -5.5q67 0 100 6q18 2 51 2q5 0 13 -4q10 -1 13.5 -12.5t-1.5 -18.5 q-3 -5 -8 -8q-4 -2 -13 -2q-32 -4 -51 -4q-7 -1 -21.5 -2.5t-21.5 -2.5q-10 -2 -30.5 -2.5t-26.5 -1.5q-19 0 -23 -18q0 -2 -1 -6t-1 -6v-13q6 -23 6 -63v-64q0 -2 -1 -6.5t-1 -7.5q-10 -10 -14 -10q-10 0 -18.5 6t-10.5 14q-8 33 -8 70q2 29 2 84q0 8 -6.5 14t-13.5 6h-19 h-24q-27 0 -41 -2q-12 0 -39 1t-41 1q-9 0 -14 7t-3 16z" />
<glyph unicode="&#xb2;" horiz-adv-x="366" d="M102 954q2 29 23 86q2 6 7 18.5t7 18.5q36 82 68 205q3 13 6 38t4 32q2 5 -4 16t-16 8q-8 -3 -19.5 -12t-17.5 -12q-6 -6 -17 4q-4 8 -2 12q4 15 9 23q4 8 8 10q23 23 57 20q20 0 29 -12q20 -29 14 -61q-8 -47 -14 -74q-15 -75 -29 -117q-12 -49 -37 -117q-8 -27 -10 -43 q-3 -5 6 -8q9 -2 25 -1.5t26 -0.5q17 0 25 -2q4 0 10 -6q7 -17 0 -31q-7 -10 -16 -10q-10 -1 -30.5 -2t-29.5 -2q-12 1 -34 1t-33 1q-5 2 -10 8t-5 10z" />
<glyph unicode="&#xb3;" horiz-adv-x="335" d="M102 971q0 4 4 8t7 2l7.5 -2.5t8.5 -2.5t8 -1q7 -3 15.5 1t11.5 11q11 19 14 35q5 38 8 51q4 12 4 19q4 67 0 100q-2 19 -14 55q-4 8 -8 10q-6 9 -23 21q-3 3 -3.5 9t1.5 9q7 7 9 11q24 24 14 65q0 6 -4 10q-3 5 -11 8.5t-12 2.5q-6 0 -18 -4q-7 0 -10 6q-3 7 0 10 q7 12 26 16q21 3 37 -2q25 -6 31 -30q4 -14 4 -43q0 -4 -6 -58q11 -36 20 -59q4 -11 8 -37q3 -62 0 -121q0 -28 -10 -55q-2 -4 -4 -12.5t-4 -12.5l-6 -18q-22 -43 -68 -37q-22 0 -35 22q-2 4 -2 13z" />
<glyph unicode="&#xb4;" horiz-adv-x="497" d="M105 1225.5q-2 13.5 6 19.5q1 2 4 5t4 5q113 87 207 146q5 3 15 8.5t13 7.5q15 6 29 -4q4 -2 8 -10q3 -3 3 -8.5t-3 -8.5q-2 -2 -4.5 -5.5t-3.5 -4.5q-4 -3 -13.5 -9t-13.5 -9t-23 -16t-28 -21q-2 -1 -5 -3t-5 -3q-18 -12 -53 -36t-54 -36q-22 -14 -53 -31l-12 -6 q-2 2 -6 2q-10 4 -12 17.5z" />
<glyph unicode="&#xb5;" horiz-adv-x="536" d="M102 82v287q0 30 4 88q0 6 3.5 16.5t3.5 13.5q4 15 20 15q25 0 29 -27q2 -4 2 -14v-43v-242v-39q0 -11 4 -31l6 -12q16 -22 39 -31q7 -3 25 -8q34 0 49 11q2 1 6 2t6 2q26 14 43 45q2 6 6 18.5t6 18.5q0 3 1 9t1 9v78v215q0 3 1 9t1 9q0 19 19 23q21 3 39 0q4 0 6 -2 q3 0 6.5 -5.5t3.5 -9.5q2 -8 2 -24v-375q0 -43 -2 -63q0 -11 -2 -15q-7 -20 -24 -26q-23 -7 -44 8q-2 2 -2 4l-6 18q-3 13 -14 6l-17 -8.5t-21.5 -10t-20.5 -7.5q-11 -2 -74 -2q-9 0 -25 4q-7 1 -10.5 -2.5t-3.5 -11.5q-1 -9 -1 -29t-1 -29q0 -20 -1 -57t-1 -57 q0 -13 -6 -25q-4 -14 -21 -18t-26 6q-7 7 -7 10q0 2 -1 6t-1 6v70v217z" />
<glyph unicode="&#xb6;" horiz-adv-x="835" d="M102 1200q0 7 1 22.5t1 22.5q1 3 2.5 9.5t2.5 9.5q2 12 10 36q10 45 41 72q18 18 22 21q13 9 17 10q51 16 73 18q23 0 68 1t66 1q75 -2 223 2q46 0 71 -2h13q10 -1 15.5 -12t0.5 -22q-8 -8 -10 -9q-11 -4 -37 -8h-39q-4 -1 -6 -3t-4.5 -5t-3.5 -4q0 -3 -1 -9.5t-1 -9.5 q0 -119 2 -178v-102q-2 -70 -2 -211v-96q0 -16 1 -50t1 -51v-102q0 -21 -1 -61.5t-1 -59.5q0 -170 -2 -256q0 -55 -2 -82v-12q-4 -16 -5 -32.5t-1 -38t-1 -32.5q-4 -82 -4 -120q-4 -19 -22 -19h-12q-5 0 -7 2l-8 8q-2 6 -2 21q0 33 1 98.5t1 98.5q0 40 1 120.5t1 120.5 q0 27 2 39q4 25 4 76q2 48 2 287q0 182 2 274v166q0 119 -2 178v31q-8 14 -20 14q-49 2 -147 -2q-20 0 -23 -24v-13q0 -115 2 -172v-96q-2 -55 -2 -166v-178q0 -15 1 -45t1 -45q0 -43 -1 -130t-1 -130q0 -4 -1 -11t-1 -10q2 -25 2 -54t-1 -64t-1 -54q0 -25 -2 -37 q-1 -4 -2 -13t-2 -13q-1 -31 -2 -95.5t-2 -95.5q-1 -12 -2 -35t-2 -34q0 -5 -6.5 -11t-10.5 -6q-14 0 -20 2q-3 0 -7 5t-4 8q-2 6 -2 18q1 37 1 109t1 108q0 115 3 229q0 19 1 57t1 58q0 27 2 39q6 23 6 70q-2 80 -2 241q0 127 2 193v18q0 6 -5 11.5t-10 7.5h-12 q-31 -2 -112 16q-8 2 -23 12q-20 17 -31 33q-9 13 -10 17l-6 12q-21 47 -21 98z" />
<glyph unicode="&#xb7;" horiz-adv-x="313" d="M104 684q3 34 33 49q11 5 25 2q12 -4 16 -8q34 -17 31 -51q1 -26 -13 -39.5t-40 -11.5q-15 0 -19 2q-39 20 -33 57z" />
<glyph unicode="&#xb8;" horiz-adv-x="305" d="M104 -186q-3 6 5 10q3 1 9 2t9 2q9 3 16 10q22 19 19 45q-3 29 -23 43q-3 2 -8 6.5t-8 6.5q-4 4 -8 16q0 17 2 25q1 6 9.5 8.5t12.5 -0.5q9 -9 11 -15q3 -11 16 -18q16 -5 27 -27q8 -12 8 -22q1 -7 2 -18v1v-28q-5 -18 -8 -25q-14 -20 -33 -26q-23 -10 -45 -7h-6 q-7 3 -7 11z" />
<glyph unicode="&#xb9;" horiz-adv-x="333" d="M104 940q-3 15 13 18q4 1 12 2.5t12 2.5q2 1 9 8q2 4 2 12q2 20 2 57q5 60 6 64q2 10 2 33v184q0 8 -2 12q0 5 -5 7t-10 -1q-3 -2 -10 -6t-10 -6q-3 -1 -8.5 1t-7.5 5q-8 13 0 25l4 4q27 30 51 49q2 2 10 6t12 0q7 -7 7 -10q2 -4 2 -14v-64q-2 -111 -2 -330v-20 q0 -4 10 -14q3 -1 9 -2t9 -2q1 0 6 -5q4 -4 4 -16q-5 -9 -14 -14q-3 0 -9 -1t-9 -1q-13 0 -38 1t-38 1h-6q-3 2 -8 6.5t-5 7.5z" />
<glyph unicode="&#xba;" horiz-adv-x="448" d="M102 1255v45q1 4 3.5 12.5t3.5 12.5q19 44 20 47q11 21 27 35q5 3 15 10t15 10q10 7 19 7q18 3 39 0q8 0 22 -9q4 -2 7.5 -4.5t7.5 -5.5t6 -4q34 -23 49 -65q1 -5 4.5 -13.5t3.5 -9.5q0 -19 2 -27q0 -39 -31 -82q-18 -24 -51 -34q-18 -9 -28 -11q-9 -4 -13 0 q-16 2 -43 11q-46 13 -67 47q-11 15 -11 28zM147 1296q0 -6 3 -12l6 -24q13 -30 45 -33q27 -3 49 2q22 3 31 22q12 24 12 41v21q0 10 -2 18q-10 38 -35 60l-12 6q-24 7 -43 -4q-22 -13 -35 -35q-11 -22 -19 -62z" />
<glyph unicode="&#xbb;" horiz-adv-x="667" d="M102 598q0 6 4 10q13 9 17 10q73 39 131 66q12 8 16 12q3 3 2.5 8.5t-4.5 6.5q-23 16 -78 45q-35 21 -67 47q-2 0 -6 4q-8 13 -6 22q1 2 3 6.5t3 6.5q6 11 17 14.5t20 -2.5q5 -4 15 -11.5t15 -11.5q53 -39 115 -69q8 -4 25.5 -13.5t25.5 -13.5q12 -8 17 -18 q1 -4 -1.5 -13t-5.5 -12l-12 -6q-52 -23 -153 -76q-38 -19 -64 -28q-8 0 -12 -2q-4 0 -10.5 6.5t-6.5 11.5zM298.5 607q-1.5 10 4.5 14q4 4 6 4q23 10 68 33.5t67 33.5q23 14 27 19q-4 8 -6 10q-35 22 -51 29q-56 30 -97 61l-8 8q-7 10 -4 19q3 11 10 22q3 5 10.5 7t12.5 -1 q2 -1 6 -2t6 -2q29 -19 37 -26q37 -29 92 -56q9 -5 28 -15t28 -15q10 -5 20 -15q6 -3 6 -10q6 -10 -2 -18q-2 -1 -5 -4t-5.5 -4.5t-5.5 -2.5q-83 -38 -154 -75q-47 -23 -63 -29q-11 -4 -19 2q-7 3 -8.5 13z" />
<glyph unicode="&#xbc;" horiz-adv-x="874" d="M104 59q6 17 7 19q34 94 36 100q4 11 8.5 23t11 26t9.5 23q4 8 12.5 25.5t12.5 25.5q25 52 39 88q2 4 12.5 27.5t17.5 34.5q37 67 76 161q48 106 72 150q34 70 49 96q11 22 61 139q8 21 19 47q12 24 34 72.5t33 73.5q4 10 17 33q12 18 33 57.5t34 58.5q3 4 7.5 14.5 t7.5 14.5q10 10 22 2q10 -10 10 -27q0 -10 -2 -14q-3 -7 -10.5 -25.5t-11.5 -27.5q-29 -54 -64 -133q-5 -12 -15.5 -35.5t-12.5 -28.5q-44 -86 -66 -151q-16 -40 -28 -64q-8 -17 -33.5 -71.5t-40.5 -83.5q-2 -4 -12 -29q-17 -30 -42.5 -89.5t-31.5 -72.5q-6 -14 -17.5 -41.5 t-17.5 -40.5q-35 -73 -43 -98q-11 -28 -25 -59q-20 -38 -30 -70q-1 -3 -25 -51q-6 -11 -23.5 -41.5t-25.5 -48.5q-2 -7 -18 -33q-12 -17 -33 -2q-16 9 -13 26zM123 940q-3 8 6 16q2 0 12 5q3 1 9.5 2t9.5 2q5 3 8 8q2 8 2 26q1 10 2 31.5t2 32.5q10 52 6 131v141 q-4 11 -14 4q-4 -2 -11.5 -6t-11.5 -6q-3 -3 -7.5 -1t-6.5 5q-7 10 -4 19q1 2 4.5 8t5.5 8q5 6 12 13t15.5 15t13.5 13q10 7 23 10q2 2 10 -2q8 -8 8 -16q0 -95 -4 -121q0 -3 -1 -9t-1 -9q0 -111 -2 -166v-109q0 -8 8 -16q21 -7 23 -8q9 -3 12 -13q7 -17 -10 -20 q-3 0 -9.5 -1t-9.5 -1h-82q-1 0 -3 1t-3 1q-5 0 -8.5 4t-3.5 8zM584 150q0 19 10 36q25 55 39 109q12 31 31.5 92.5t31.5 91.5q3 13 19 17q4 0 9 -3.5t5 -7.5q0 -2 1 -6t1 -6v-45v-190q0 -7 1 -21.5t1 -21.5q0 -5 3.5 -10t6.5 -5q12 -4 19 -4q4 -4 4 -6q6 -7 4.5 -17 t-10.5 -14q-1 0 -3 -1t-3 -1q-18 -3 -21 -20v-51v-39q0 -1 -8 -17q-14 0 -18 4q-9 6 -9 17q-2 12 -2 69q-1 4 -2 12.5t-2 12.5q0 2 -1.5 3.5t-3.5 2.5t-3 2q-4 2 -12 2h-70q-2 0 -6 2t-6 2q-6 3 -6 11zM635 182l4 -4q4 -2 12 -2h31q10 10 10 17q6 66 0 131q0 4 -2 6l-2 4 q-1 0 -3 -1t-3 -1q-10 -25 -12 -29q-5 -25 -27 -84q-8 -24 -8 -37z" />
<glyph unicode="&#xbd;" horiz-adv-x="854" d="M104 55q3 8 8.5 24.5t8.5 24.5q16 37 20 48q3 11 41 106q8 19 24.5 56t24.5 55q27 53 54 108q28 47 43 86q25 66 69 156q8 19 54 108q13 22 24 44.5t27 59.5t20 46q58 137 70 164q29 61 84 157q17 33 37 66q5 8 13 8.5t13 -6.5q8 -8 11 -14v-9q-8 -27 -31 -75 q-57 -116 -72 -156q-6 -13 -18.5 -37.5t-18.5 -36.5q-28 -62 -45 -106q-7 -19 -23 -53.5t-20 -44.5q-21 -44 -57 -121q-3 -7 -9.5 -20.5t-9.5 -20.5q-5 -12 -17.5 -36t-21 -43.5t-14.5 -37.5q-12 -25 -32 -73.5t-31 -71.5q-26 -51 -35 -82q-2 -4 -5 -11.5t-5 -11.5 q-4 -11 -21 -48t-24 -58q-1 -5 -6.5 -15t-6.5 -14q-16 -23 -57 -107q-17 -26 -27 -34q-4 -4 -12 -4q-12 6 -20 14q-9 9 -7 16zM125 940q-3 7 2 12q9 7 31 11q9 3 12 12q4 16 4 26q2 4 2 13q5 179 4 215v96q0 8 -4 16q-7 0 -16.5 -6.5t-12.5 -7.5q-15 -7 -18 10q-3 11 4 25 q3 3 13 13.5t15.5 16t15 13t18.5 12.5q8 4 16 -4q6 -3 6 -10v-25v-178q-2 -45 -2 -133v-84q0 -15 14 -18q3 -1 9.5 -2t9.5 -2q4 -4 4 -7q5 -10 2 -16q-4 -8 -10 -8q-12 -4 -19 -4h-82q-15 3 -18 14zM588 25q-3 18 4 38q4 12 8.5 26t11 31t9.5 27q25 56 63 187q8 26 16 74v26 q-2 8 -10 12t-14 0q-5 -4 -15.5 -11t-15.5 -11q-4 -5 -10.5 -2t-7.5 10q-3 14 4 31q7 11 12 14q5 2 14.5 7.5t14.5 7.5q13 5 30 2q13 -3 23 -13q13 -17 16 -35q0 -35 -4 -43q-3 -12 -8 -42t-10 -46q-3 -21 -9 -46t-10 -39t-14.5 -46.5t-13.5 -40.5q-2 -6 -9.5 -26.5 t-9.5 -32.5q-3 -7 0 -14q0 -6 9 -9q11 -2 33.5 -1t35.5 -1q14 -5 17 -18q0 -11 -7 -25q-8 -4 -10 -6q-4 -2 -12 -2q-39 0 -66 -2q-12 2 -49 2q-6 0 -11 5.5t-5 11.5z" />
<glyph unicode="&#xbe;" horiz-adv-x="876" d="M104 59q1 2 2.5 6.5t2.5 6.5q2 10 10 30q10 20 16 41q10 30 19 54q9 21 27.5 61t27.5 61q4 9 13.5 29t13.5 29q15 40 49 102q12 21 34 70q47 115 132 282q20 35 79 175q4 10 13.5 31.5t13.5 31.5q27 55 51 111q15 29 27 49q14 23 40 69t40 70q2 3 6.5 4t9.5 -2 q14 -6 17 -24v-7q0 -3 -3 -6q-4 -9 -11 -26.5t-11 -26.5q-16 -28 -41 -83t-31 -67q-35 -73 -47 -102q-25 -56 -33 -78q-14 -37 -43 -98q-11 -21 -28.5 -61t-24.5 -54q-12 -23 -31.5 -64.5t-23.5 -49.5q-7 -15 -19.5 -44.5t-19.5 -43.5q-12 -37 -45 -105q-23 -45 -37 -82 q-5 -14 -35 -82q-4 -11 -13 -32.5t-13 -32.5q-1 -3 -17 -35q-8 -17 -25.5 -49t-21.5 -41q-13 -26 -31 -47q-8 -8 -18 -2q-2 2 -7 5t-7 5q-12 12 -7 22zM160 961q0 4 4 12q3 6 10 4q3 -1 9.5 -3t9.5 -3q6 -3 14.5 0.5t11.5 9.5q4 0 4 4q14 36 15 49q0 1 2 15.5t4 21.5 q10 39 6 115q-2 20 -14 55q-3 6 -7 10t-12 11.5t-12 11.5q-11 7 0 22l4 4q23 23 16 66q-2 9 -8.5 16t-15.5 7h-15q-6 -3 -12 -3q-4 0 -4 5q-7 3 0 10q8 16 31 20q9 3 18 0q10 -3 25 -10q10 -5 18 -25q2 -6 2 -18q3 -39 -2 -70q-3 -13 2 -24q0 -4 4 -12q4 -13 10 -30 q9 -25 10.5 -35.5t2.5 -39.5v-12v-21q0 -37 -2 -57q0 -11 -4 -31q-2 -8 -6.5 -24.5t-6.5 -24.5q-2 -3 -5 -11t-5 -11q-15 -24 -39 -33q-20 -7 -37 2q-2 1 -8 4.5t-8 5.5q-6 6 -10 17zM584 156q2 4 2 12q10 25 12 29q19 42 29 77q13 44 67 199q4 8 4 12q1 4 9.5 7.5t13.5 1.5 q4 0 6 -2q1 -2 3 -5.5t3 -5.5v-39v-102v-121q0 -4 1 -12t1 -12q0 -10 10 -15q3 -2 6 -3t7 -1.5t6 -1.5q10 -5 10 -16q-5 -15 -8 -17l-18 -6q-11 -4 -11 -14q-2 -23 -2 -70q0 -5 -1 -15.5t-1 -15.5q0 -2 -4 -6q-6 -6 -16 -4q-9 0 -15 13v18q0 43 -2 63v15q0 5 -5 10.5 t-11 5.5h-70q-2 0 -6 1t-6 1q-6 0 -11 7t-3 12zM635 190q0 -3 3.5 -8.5t6.5 -5.5q16 -3 31 0q4 0 6 2q4 0 8 4.5t4 7.5q2 12 2 78q0 45 -2 68q0 8 -4 8t-4 -4q-1 -2 -6 -12.5t-6 -16.5q-27 -82 -37 -108q0 -9 -2 -13z" />
<glyph unicode="&#xbf;" horiz-adv-x="8472" d="M104 -203q5 28 9 115q0 36 10 61q1 4 2 12.5t2 12.5q11 45 31 70q9 12 16 26q4 11 8 37q4 20 4 27q1 17 3.5 55t3.5 59q0 13 4 37q3 32 39 43q4 1 10 -1t6 -5q0 -2 1 -7t1 -7q0 -76 -8 -113q-4 -54 -4 -76q-2 -10 -2 -26q0 -17 -11 -35q-13 -22 -16 -29q-17 -22 -27 -57 q-1 -3 -18 -74q-2 -8 -2 -24q-6 -98 0 -199q0 -9 4 -25q1 -7 4 -21.5t4 -21.5q2 -11 15 -28q9 -9 16 -9q12 -3 24 0q26 9 50 29q11 11 16 21q16 29 16 59q1 5 1.5 23.5t2.5 27.5q4 15 13 21q6 6 12 0q8 -8 8 -17q2 -6 2 -18q-2 -4 -2 -12q-3 -8 -8 -52q-6 -49 -45 -88 q-2 -4 -10 -8q-30 -24 -64 -29l-24 -6q-11 -3 -25 4q-23 13 -35 37q-7 10 -10 23q-2 10 -6.5 29t-7.5 34.5t-4 30.5q-5 42 -7 49q-6 20 -2 45zM203.5 577.5q4.5 14.5 17.5 18.5q8 4 12 0q13 -5 18.5 -18.5t-1.5 -28.5q-9 -13 -23 -10q-11 0 -20 12q-8 12 -3.5 26.5z M8124 872q1 9 6.5 33t6.5 37q16 65 69 94q21 14 41 17q11 0 27 4q25 3 45 -17q18 -15 29 -49q12 -56 16 -80q6 -46 6 -90q-2 -47 -6 -145q0 -13 -2 -19q-4 -11 -7.5 -32.5t-4.5 -24.5q-12 -39 -29 -61q-3 -4 -9 -13.5t-9 -13.5q-1 -8 -4.5 -21t-4.5 -18q-2 -8 -2 -24 q-1 -15 -3 -44.5t-3 -44.5q0 -36 -10 -81q-2 -9 -10 -17q-15 -8 -25 -10q-6 -2 -11 2t-5 10q-3 53 4 115q3 13 8 82q0 23 2 33q0 12 6 24q3 4 8.5 13.5t8.5 13.5q19 27 39 94q1 4 2 12.5t2 12.5q6 14 10 63q0 111 -2 164q0 14 -2 20q-2 10 -6.5 31t-6.5 31q-4 17 -14 28 q-14 14 -35 11q-37 -9 -63 -41q-5 -5 -10 -15q-15 -34 -15 -55v-33q-3 -19 -12 -34q-8 -11 -16 -3q-7 3 -7 11q-2 5 -2 30zM8225 32q-3 15 6 25q15 18 33 4q12 -10 12 -25t-12 -24q-8 -4 -13 -4q-5 -3 -10 2q-13 7 -16 22z" />
<glyph unicode="&#xc0;" horiz-adv-x="980" d="M104 0q0 -3 3.5 -6.5t7.5 -3.5q1 0 2 -1t2 -1q3 0 9 -1t9 -1h29h2h86h43q13 0 49 4q6 2 19 2q2 2 6 2q2 0 2 2q10 3 10 14q0 14 -8 19q-9 6 -19 6q-3 1 -9.5 2t-10.5 2h-12q-19 4 -19 22q1 3 2 10.5t2 10.5q2 7 5 23.5t5 23.5q25 114 33 172q4 26 8 41v4q7 21 25 25h25h8 q7 0 22.5 -1t22.5 -1q43 0 102 6q16 2 49 2h15h10q24 0 33 -25q3 -15 6 -33q6 -16 14 -59q4 -19 12.5 -55t12.5 -55q3 -18 10 -39q1 -3 2 -8t2 -7q6 -17 2 -39q0 -5 -5 -11t-11 -7h-2q-3 0 -8.5 -1t-8.5 -1q-10 0 -16 -2h-16q-2 0 -8 -1t-9 -1q-11 -4 -14 -19q0 -16 14 -20 q4 0 13.5 -1t13.5 -1h31h20h2h21h6h18q42 0 62 2q10 0 30 4q13 4 13 20q0 13 -15 17q-8 2 -22 2q-33 3 -44 15t-16 44q-7 63 -20 109q-13 44 -23 108q0 6 -12 72q-1 9 -4 24t-4 21q-2 15 -12 82q-1 4 -2.5 13.5t-2.5 13.5q-4 38 -16 110q-9 28 -12 72q-3 36 -21 121 q-2 12 -6 32q-12 62 -16 93q-4 18 -11.5 53.5t-11.5 52.5q-1 7 -3 21.5t-3 21.5q-3 14 -8 42t-8 42q-17 66 -35 166q-2 6 -5 20.5t-5 20.5q-6 22 -31 25h-10h-13q-3 0 -127 -13q-1 0 -3 -1t-3 -1h-2q-8 -4 -8 -8q-3 -11 0 -20q0 -9 8 -13q5 0 14.5 -1t14.5 -1h2h18 q5 0 14.5 -1t14.5 -1q12 0 19 -10q10 -10 6 -23q-6 -20 -9 -43q-13 -71 -20 -102q-15 -64 -27 -129q-21 -108 -32 -154v-6v-4q-5 -16 -9 -41q-15 -78 -18 -94q-19 -95 -25 -135q-3 -16 -8 -47t-8 -47q-2 -9 -5 -28t-5 -28q-13 -74 -33 -149q-1 -5 -4 -19t-4 -22 q0 -3 -1 -8.5t-1 -8.5q-13 -64 -21 -94q-8 -27 -10 -43q-1 -3 -2 -10t-2 -10l-2 -11q-1 -6 -4 -17t-4 -17q-3 -13 -17 -21q-13 -10 -47 -18l-2 -2q-15 -4 -24 -13t-7 -18zM381 449v2q2 4 2 12l4 12q2 10 6 32t6 32q10 38 17 79q1 5 2 15.5t2 15.5q17 117 35 201v6q2 2 2 8 q2 40 18 109q2 10 4 14q15 64 27 184q1 3 2 8t2 7l2 4q3 8 8 8q3 0 6 -6l2 -2q4 -4 4 -8q5 -20 5 -29q6 -23 14 -80q20 -137 41 -239q32 -154 43 -236q1 -10 3 -21.5t5 -25t4 -21.5v-2q2 -8 6 -28q0 -2 1 -6.5t1 -6.5q1 -3 2 -9.5t2 -10.5q3 -32 -26 -35q-21 -6 -47 -6h-33 h-25h-18v-2h-6h-23h-22q-27 0 -39 2h-19q-2 2 -4 2q-6 0 -11 7.5t-5 13.5zM415 1614q-2 7 1 12q3 6 14 10h6q22 -4 31 -8q13 -7 36 -20.5t36 -20.5q3 -2 8 -16q0 -7 -6 -10q-9 -9 -23 -5q-3 1 -9 3.5t-9 3.5q-13 6 -37.5 18t-36.5 18q-4 0 -4 5q-5 3 -7 10z" />
<glyph unicode="&#xc1;" horiz-adv-x="980" d="M104 0q0 -3 3.5 -6.5t7.5 -3.5q1 0 2 -1t2 -1q3 0 9 -1t9 -1h29h2h86h43q13 0 49 4q6 2 19 2q2 2 6 2q2 0 2 2q10 3 10 14q0 14 -8 19q-9 6 -19 6q-3 1 -9.5 2t-10.5 2h-12q-19 4 -19 22q1 3 2 10.5t2 10.5q2 7 5 23.5t5 23.5q25 114 33 172q4 26 8 41v4q7 21 25 25h25h8 q7 0 22.5 -1t22.5 -1q43 0 102 6q16 2 49 2h15h10q24 0 33 -25q3 -15 6 -33q6 -16 14 -59q4 -19 12.5 -55t12.5 -55q3 -18 10 -39q1 -3 2 -8t2 -7q6 -17 2 -39q0 -5 -5 -11t-11 -7h-2q-3 0 -8.5 -1t-8.5 -1q-10 0 -16 -2h-16q-2 0 -8 -1t-9 -1q-11 -4 -14 -19q0 -16 14 -20 q4 0 13.5 -1t13.5 -1h31h20h2h21h6h18q42 0 62 2q10 0 30 4q13 4 13 20q0 13 -15 17q-8 2 -22 2q-33 3 -44 15t-16 44q-7 63 -20 109q-13 44 -23 108q0 6 -12 72q-1 9 -4 24t-4 21q-2 15 -12 82q-1 4 -2.5 13.5t-2.5 13.5q-4 38 -16 110q-9 28 -12 72q-3 36 -21 121 q-2 12 -6 32q-12 62 -16 93q-4 18 -11.5 53.5t-11.5 52.5q-1 7 -3 21.5t-3 21.5q-3 14 -8 42t-8 42q-17 66 -35 166q-2 6 -5 20.5t-5 20.5q-6 22 -31 25h-10h-13q-3 0 -127 -13q-1 0 -3 -1t-3 -1h-2q-8 -4 -8 -8q-3 -11 0 -20q0 -9 8 -13q5 0 14.5 -1t14.5 -1h2h18 q5 0 14.5 -1t14.5 -1q12 0 19 -10q10 -10 6 -23q-6 -20 -9 -43q-13 -71 -20 -102q-15 -64 -27 -129q-21 -108 -32 -154v-6v-4q-5 -16 -9 -41q-15 -78 -18 -94q-19 -95 -25 -135q-3 -16 -8 -47t-8 -47q-2 -9 -5 -28t-5 -28q-13 -74 -33 -149q-1 -5 -4 -19t-4 -22 q0 -3 -1 -8.5t-1 -8.5q-13 -64 -21 -94q-8 -27 -10 -43q-1 -3 -2 -10t-2 -10l-2 -11q-1 -6 -4 -17t-4 -17q-3 -13 -17 -21q-13 -10 -47 -18l-2 -2q-15 -4 -24 -13t-7 -18zM381 449v2q2 4 2 12l4 12q2 10 6 32t6 32q10 38 17 79q1 5 2 15.5t2 15.5q17 117 35 201v6q2 2 2 8 q2 40 18 109q2 10 4 14q15 64 27 184q1 3 2 8t2 7l2 4q3 8 8 8q3 0 6 -6l2 -2q4 -4 4 -8q5 -20 5 -29q6 -23 14 -80q20 -137 41 -239q32 -154 43 -236q1 -10 3 -21.5t5 -25t4 -21.5v-2q2 -8 6 -28q0 -2 1 -6.5t1 -6.5q1 -3 2 -9.5t2 -10.5q3 -32 -26 -35q-21 -6 -47 -6h-33 h-25h-18v-2h-6h-23h-22q-27 0 -39 2h-19q-2 2 -4 2q-6 0 -11 7.5t-5 13.5zM422 1577q0 7 6 10q62 34 78 43q12 6 31 6q2 -2 6 -2q10 -3 10 -14q0 -10 -6 -16q-69 -41 -96 -48h-7q-8 -2 -18 5q-12 4 -4 16z" />
<glyph unicode="&#xc2;" horiz-adv-x="980" d="M104 0q0 -3 3.5 -6.5t7.5 -3.5q1 0 2 -1t2 -1q3 0 9 -1t9 -1h29h2h86h43q13 0 49 4q6 2 19 2q2 2 6 2q2 0 2 2q10 3 10 14q0 14 -8 19q-9 6 -19 6q-3 1 -9.5 2t-10.5 2h-12q-19 4 -19 22q1 3 2 10.5t2 10.5q2 7 5 23.5t5 23.5q25 114 33 172q4 26 8 41v4q7 21 25 25h25h8 q7 0 22.5 -1t22.5 -1q43 0 102 6q16 2 49 2h15h10q24 0 33 -25q3 -15 6 -33q6 -16 14 -59q4 -19 12.5 -55t12.5 -55q3 -18 10 -39q1 -3 2 -8t2 -7q6 -17 2 -39q0 -5 -5 -11t-11 -7h-2q-3 0 -8.5 -1t-8.5 -1q-10 0 -16 -2h-16q-2 0 -8 -1t-9 -1q-11 -4 -14 -19q0 -16 14 -20 q4 0 13.5 -1t13.5 -1h31h20h2h21h6h18q42 0 62 2q10 0 30 4q13 4 13 20q0 13 -15 17q-8 2 -22 2q-33 3 -44 15t-16 44q-7 63 -20 109q-13 44 -23 108q0 6 -12 72q-1 9 -4 24t-4 21q-2 15 -12 82q-1 4 -2.5 13.5t-2.5 13.5q-4 38 -16 110q-9 28 -12 72q-3 36 -21 121 q-2 12 -6 32q-12 62 -16 93q-4 18 -11.5 53.5t-11.5 52.5q-1 7 -3 21.5t-3 21.5q-3 14 -8 42t-8 42q-17 66 -35 166q-2 6 -5 20.5t-5 20.5q-6 22 -31 25h-10h-13q-3 0 -127 -13q-1 0 -3 -1t-3 -1h-2q-8 -4 -8 -8q-3 -11 0 -20q0 -9 8 -13q5 0 14.5 -1t14.5 -1h2h18 q5 0 14.5 -1t14.5 -1q12 0 19 -10q10 -10 6 -23q-6 -20 -9 -43q-13 -71 -20 -102q-15 -64 -27 -129q-21 -108 -32 -154v-6v-4q-5 -16 -9 -41q-15 -78 -18 -94q-19 -95 -25 -135q-3 -16 -8 -47t-8 -47q-2 -9 -5 -28t-5 -28q-13 -74 -33 -149q-1 -5 -4 -19t-4 -22 q0 -3 -1 -8.5t-1 -8.5q-13 -64 -21 -94q-8 -27 -10 -43q-1 -3 -2 -10t-2 -10l-2 -11q-1 -6 -4 -17t-4 -17q-3 -13 -17 -21q-13 -10 -47 -18l-2 -2q-15 -4 -24 -13t-7 -18zM381 449v2q2 4 2 12l4 12q2 10 6 32t6 32q10 38 17 79q1 5 2 15.5t2 15.5q17 117 35 201v6q2 2 2 8 q2 40 18 109q2 10 4 14q15 64 27 184q1 3 2 8t2 7l2 4q3 8 8 8q3 0 6 -6l2 -2q4 -4 4 -8q5 -20 5 -29q6 -23 14 -80q20 -137 41 -239q32 -154 43 -236q1 -10 3 -21.5t5 -25t4 -21.5v-2q2 -8 6 -28q0 -2 1 -6.5t1 -6.5q1 -3 2 -9.5t2 -10.5q3 -32 -26 -35q-21 -6 -47 -6h-33 h-25h-18v-2h-6h-23h-22q-27 0 -39 2h-19q-2 2 -4 2q-6 0 -11 7.5t-5 13.5zM393 1579q4 8 6 10q9 7 29 20.5t29 20.5q4 2 12 5t12 5q11 4 19 -2q12 -2 28 -12q8 -6 26 -18.5t26 -18.5q8 -3 8 -14q0 -6 -6.5 -11.5t-12.5 -4.5q-8 0 -12 2q-5 2 -55 30q-12 8 -23 0 q-6 -2 -18 -10q-26 -15 -45 -22h-6q-7 -1 -13.5 6.5t-3.5 13.5z" />
<glyph unicode="&#xc3;" horiz-adv-x="980" d="M104 0q0 -3 3.5 -6.5t7.5 -3.5q1 0 2 -1t2 -1q3 0 9 -1t9 -1h29h2h86h43q13 0 49 4q6 2 19 2q2 2 6 2q2 0 2 2q10 3 10 14q0 14 -8 19q-9 6 -19 6q-3 1 -9.5 2t-10.5 2h-12q-19 4 -19 22q1 3 2 10.5t2 10.5q2 7 5 23.5t5 23.5q25 114 33 172q4 26 8 41v4q7 21 25 25h25h8 q7 0 22.5 -1t22.5 -1q43 0 102 6q16 2 49 2h15h10q24 0 33 -25q3 -15 6 -33q6 -16 14 -59q4 -19 12.5 -55t12.5 -55q3 -18 10 -39q1 -3 2 -8t2 -7q6 -17 2 -39q0 -5 -5 -11t-11 -7h-2q-3 0 -8.5 -1t-8.5 -1q-10 0 -16 -2h-16q-2 0 -8 -1t-9 -1q-11 -4 -14 -19q0 -16 14 -20 q4 0 13.5 -1t13.5 -1h31h20h2h21h6h18q42 0 62 2q10 0 30 4q13 4 13 20q0 13 -15 17q-8 2 -22 2q-33 3 -44 15t-16 44q-7 63 -20 109q-13 44 -23 108q0 6 -12 72q-1 9 -4 24t-4 21q-2 15 -12 82q-1 4 -2.5 13.5t-2.5 13.5q-4 38 -16 110q-9 28 -12 72q-3 36 -21 121 q-2 12 -6 32q-12 62 -16 93q-4 18 -11.5 53.5t-11.5 52.5q-1 7 -3 21.5t-3 21.5q-3 14 -8 42t-8 42q-17 66 -35 166q-2 6 -5 20.5t-5 20.5q-6 22 -31 25h-10h-13q-3 0 -127 -13q-1 0 -3 -1t-3 -1h-2q-8 -4 -8 -8q-3 -11 0 -20q0 -9 8 -13q5 0 14.5 -1t14.5 -1h2h18 q5 0 14.5 -1t14.5 -1q12 0 19 -10q10 -10 6 -23q-6 -20 -9 -43q-13 -71 -20 -102q-15 -64 -27 -129q-21 -108 -32 -154v-6v-4q-5 -16 -9 -41q-15 -78 -18 -94q-19 -95 -25 -135q-3 -16 -8 -47t-8 -47q-2 -9 -5 -28t-5 -28q-13 -74 -33 -149q-1 -5 -4 -19t-4 -22 q0 -3 -1 -8.5t-1 -8.5q-13 -64 -21 -94q-8 -27 -10 -43q-1 -3 -2 -10t-2 -10l-2 -11q-1 -6 -4 -17t-4 -17q-3 -13 -17 -21q-13 -10 -47 -18l-2 -2q-15 -4 -24 -13t-7 -18zM381 449v2q2 4 2 12l4 12q2 10 6 32t6 32q10 38 17 79q1 5 2 15.5t2 15.5q17 117 35 201v6q2 2 2 8 q2 40 18 109q2 10 4 14q15 64 27 184q1 3 2 8t2 7l2 4q3 8 8 8q3 0 6 -6l2 -2q4 -4 4 -8q5 -20 5 -29q6 -23 14 -80q20 -137 41 -239q32 -154 43 -236q1 -10 3 -21.5t5 -25t4 -21.5v-2q2 -8 6 -28q0 -2 1 -6.5t1 -6.5q1 -3 2 -9.5t2 -10.5q3 -32 -26 -35q-21 -6 -47 -6h-33 h-25h-18v-2h-6h-23h-22q-27 0 -39 2h-19q-2 2 -4 2q-6 0 -11 7.5t-5 13.5zM389 1583q4 11 12 14q7 7 23 11q4 0 13.5 1t13.5 1q12 -2 36 -2q29 -3 58 0h18q4 0 15 -11q3 -5 0.5 -12.5t-7.5 -9.5q-6 -6 -10 -6q-2 -2 -6 -2q-12 -4 -18 -4q-6 1 -18.5 3t-18.5 3q-5 1 -18 4 t-21 4q-41 -12 -47 -14q-12 -3 -23 8q-2 4 -2 12z" />
<glyph unicode="&#xc4;" horiz-adv-x="980" d="M104 0q0 -3 3.5 -6.5t7.5 -3.5q1 0 2 -1t2 -1q3 0 9 -1t9 -1h29h2h86h43q13 0 49 4q6 2 19 2q2 2 6 2q2 0 2 2q10 3 10 14q0 14 -8 19q-9 6 -19 6q-3 1 -9.5 2t-10.5 2h-12q-19 4 -19 22q1 3 2 10.5t2 10.5q2 7 5 23.5t5 23.5q25 114 33 172q4 26 8 41v4q7 21 25 25h25h8 q7 0 22.5 -1t22.5 -1q43 0 102 6q16 2 49 2h15h10q24 0 33 -25q3 -15 6 -33q6 -16 14 -59q4 -19 12.5 -55t12.5 -55q3 -18 10 -39q1 -3 2 -8t2 -7q6 -17 2 -39q0 -5 -5 -11t-11 -7h-2q-3 0 -8.5 -1t-8.5 -1q-10 0 -16 -2h-16q-2 0 -8 -1t-9 -1q-11 -4 -14 -19q0 -16 14 -20 q4 0 13.5 -1t13.5 -1h31h20h2h21h6h18q42 0 62 2q10 0 30 4q13 4 13 20q0 13 -15 17q-8 2 -22 2q-33 3 -44 15t-16 44q-7 63 -20 109q-13 44 -23 108q0 6 -12 72q-1 9 -4 24t-4 21q-2 15 -12 82q-1 4 -2.5 13.5t-2.5 13.5q-4 38 -16 110q-9 28 -12 72q-3 36 -21 121 q-2 12 -6 32q-12 62 -16 93q-4 18 -11.5 53.5t-11.5 52.5q-1 7 -3 21.5t-3 21.5q-3 14 -8 42t-8 42q-17 66 -35 166q-2 6 -5 20.5t-5 20.5q-6 22 -31 25h-10h-13q-3 0 -127 -13q-1 0 -3 -1t-3 -1h-2q-8 -4 -8 -8q-3 -11 0 -20q0 -9 8 -13q5 0 14.5 -1t14.5 -1h2h18 q5 0 14.5 -1t14.5 -1q12 0 19 -10q10 -10 6 -23q-6 -20 -9 -43q-13 -71 -20 -102q-15 -64 -27 -129q-21 -108 -32 -154v-6v-4q-5 -16 -9 -41q-15 -78 -18 -94q-19 -95 -25 -135q-3 -16 -8 -47t-8 -47q-2 -9 -5 -28t-5 -28q-13 -74 -33 -149q-1 -5 -4 -19t-4 -22 q0 -3 -1 -8.5t-1 -8.5q-13 -64 -21 -94q-8 -27 -10 -43q-1 -3 -2 -10t-2 -10l-2 -11q-1 -6 -4 -17t-4 -17q-3 -13 -17 -21q-13 -10 -47 -18l-2 -2q-15 -4 -24 -13t-7 -18zM381 449v2q2 4 2 12l4 12q2 10 6 32t6 32q10 38 17 79q1 5 2 15.5t2 15.5q17 117 35 201v6q2 2 2 8 q2 40 18 109q2 10 4 14q15 64 27 184q1 3 2 8t2 7l2 4q3 8 8 8q3 0 6 -6l2 -2q4 -4 4 -8q5 -20 5 -29q6 -23 14 -80q20 -137 41 -239q32 -154 43 -236q1 -10 3 -21.5t5 -25t4 -21.5v-2q2 -8 6 -28q0 -2 1 -6.5t1 -6.5q1 -3 2 -9.5t2 -10.5q3 -32 -26 -35q-21 -6 -47 -6h-33 h-25h-18v-2h-6h-23h-22q-27 0 -39 2h-19q-2 2 -4 2q-6 0 -11 7.5t-5 13.5zM397 1591q0 8 6 11q21 14 43 0q10 -10 7 -21q-1 -1 -2.5 -3t-3 -5.5t-3.5 -5.5q-5 -6 -14.5 -8t-17.5 2q-22 7 -15 30zM535 1581v12q3 9 14 13q8 0 12 2q4 -2 10 -2q17 -3 17 -25q-3 -18 -25 -22 q-12 -3 -20 3.5t-8 18.5z" />
<glyph unicode="&#xc5;" horiz-adv-x="980" d="M104 0q0 -3 3.5 -6.5t7.5 -3.5q1 0 2 -1t2 -1q3 0 9 -1t9 -1h29h2h86h43q13 0 49 4q6 2 19 2q2 2 6 2q2 0 2 2q10 3 10 14q0 14 -8 19q-9 6 -19 6q-3 1 -9.5 2t-10.5 2h-12q-19 4 -19 22q1 3 2 10.5t2 10.5q2 7 5 23.5t5 23.5q25 114 33 172q4 26 8 41v4q7 21 25 25h25h8 q7 0 22.5 -1t22.5 -1q43 0 102 6q16 2 49 2h15h10q24 0 33 -25q3 -15 6 -33q6 -16 14 -59q4 -19 12.5 -55t12.5 -55q3 -18 10 -39q1 -3 2 -8t2 -7q6 -17 2 -39q0 -5 -5 -11t-11 -7h-2q-3 0 -8.5 -1t-8.5 -1q-10 0 -16 -2h-16q-2 0 -8 -1t-9 -1q-11 -4 -14 -19q0 -16 14 -20 q4 0 13.5 -1t13.5 -1h31h20h2h21h6h18q42 0 62 2q10 0 30 4q13 4 13 20q0 13 -15 17q-8 2 -22 2q-33 3 -44 15t-16 44q-7 63 -20 109q-13 44 -23 108q0 6 -12 72q-1 9 -4 24t-4 21q-2 15 -12 82q-1 4 -2.5 13.5t-2.5 13.5q-4 38 -16 110q-9 28 -12 72q-3 36 -21 121 q-2 12 -6 32q-12 62 -16 93q-4 18 -11.5 53.5t-11.5 52.5q-1 7 -3 21.5t-3 21.5q-3 14 -8 42t-8 42q-17 66 -35 166q-2 6 -5 20.5t-5 20.5q-6 22 -31 25h-10h-13q-3 0 -127 -13q-1 0 -3 -1t-3 -1h-2q-8 -4 -8 -8q-3 -11 0 -20q0 -9 8 -13q5 0 14.5 -1t14.5 -1h2h18 q5 0 14.5 -1t14.5 -1q12 0 19 -10q10 -10 6 -23q-6 -20 -9 -43q-13 -71 -20 -102q-15 -64 -27 -129q-21 -108 -32 -154v-6v-4q-5 -16 -9 -41q-15 -78 -18 -94q-19 -95 -25 -135q-3 -16 -8 -47t-8 -47q-2 -9 -5 -28t-5 -28q-13 -74 -33 -149q-1 -5 -4 -19t-4 -22 q0 -3 -1 -8.5t-1 -8.5q-13 -64 -21 -94q-8 -27 -10 -43q-1 -3 -2 -10t-2 -10l-2 -11q-1 -6 -4 -17t-4 -17q-3 -13 -17 -21q-13 -10 -47 -18l-2 -2q-15 -4 -24 -13t-7 -18zM381 449v2q2 4 2 12l4 12q2 10 6 32t6 32q10 38 17 79q1 5 2 15.5t2 15.5q17 117 35 201v6q2 2 2 8 q2 40 18 109q2 10 4 14q15 64 27 184q1 3 2 8t2 7l2 4q3 8 8 8q3 0 6 -6l2 -2q4 -4 4 -8q5 -20 5 -29q6 -23 14 -80q20 -137 41 -239q32 -154 43 -236q1 -10 3 -21.5t5 -25t4 -21.5v-2q2 -8 6 -28q0 -2 1 -6.5t1 -6.5q1 -3 2 -9.5t2 -10.5q3 -32 -26 -35q-21 -6 -47 -6h-33 h-25h-18v-2h-6h-23h-22q-27 0 -39 2h-19q-2 2 -4 2q-6 0 -11 7.5t-5 13.5zM428 1589q-3 38 23 58q13 9 28 12h13q30 0 51 -31q1 -2 2 -6t2 -6v-19q-3 -34 -31 -43q-8 -4 -12 -4q-2 0 -6 -1t-6 -1q-27 4 -43 13q-18 9 -21 28zM467 1612q-14 -21 10 -31q11 -6 23 2q9 4 16 19 v6q-7 17 -20 22q-9 0 -13 -2q-10 -6 -16 -16z" />
<glyph unicode="&#xc6;" horiz-adv-x="1150" d="M104 16q-2 12 7 21q8 8 24 12h2q24 6 47 19q14 11 17 22q5 26 8 33l2 12q0 7 4 19q1 7 4 21.5t4 21.5q12 37 23 94q0 2 1 7t1 7q4 30 8 43q19 68 33 148q2 8 5 26t5 27q4 34 16 94q5 33 25 133q3 16 18 94q1 7 3.5 20.5t3.5 20.5q2 2 2 4v5q6 25 32 153q13 69 27 127 q6 27 20 103q2 17 9 40q0 14 -6 23q-5 7 -19 12h-29q-12 0 -18 2h-2q-19 0 -29 2q-5 2 -10 11q0 14 2 20q0 4 8 8h2l4 2q18 2 56 5.5t53 5.5q47 0 141 -4h148q49 2 145 2q14 0 40.5 1t47.5 1t39 -2q3 -2 8 -11q6 -9 6 -20q8 -64 2 -117q0 -6 -6 -12q-12 -8 -20 -8 q-4 0 -12 4l-5 2l-2 2v2q-1 3 -2.5 9.5t-2.5 11t-1 8.5q-2 10 -2 30q-2 6 -2 21q-4 22 -24 22q-2 0 -6.5 1t-6.5 1t-5.5 -1t-4.5 -1q-58 -4 -84 -4q-30 0 -80 4q-6 2 -16 2h-12h-7q-17 0 -24 -22v-2q0 -2 -1 -6.5t-1 -6.5q0 -17 -1 -54t-1 -56q0 -20 -1 -57t-1 -54 q0 -6 1 -18.5t1 -18.5l2 -6q0 -6 5 -11t11 -5q0 -2 4 -2q2 0 7.5 -1t7.5 -1q68 2 200 2h6q11 0 15 2q18 0 22 18q0 1 1 5t1 6q0 8 2 10q0 10 13 10q2 2 6 2q16 0 22 -16v-2q2 -2 2 -7q0 -1 1 -4t1 -4v-10v-104q0 -9 -2 -13v-4q-4 -8 -8 -10h-2h-14h-12h-2l-3 2l-2 2v2 q-2 4 -2 12v11v2q-1 3 -2 8.5t-2 7.5q-3 14 -14 19q-2 0 -6 1t-6 1h-2h-13h-4q-62 -5 -86 -5q-7 0 -21.5 1.5t-21.5 1.5h-41h-18q-3 0 -11 -1.5t-12 -1.5q-22 -4 -22 -24q-2 -6 -2 -19v-342v-57h-2v-6v-47v-119q0 -6 -1 -18t-1 -17v-24q-2 -23 -2 -70v-16q-3 -40 0 -80 q0 -10 1 -21.5t2.5 -25t2.5 -21.5v-10q3 -24 28 -27h29h61h5q7 0 22.5 -1t22.5 -1h2h41h20q4 0 14 1t15 1q18 4 22 25q0 4 1 11t1 11v25q0 16 9 25q6 6 26 6h4h2l2 -2l2 -2l2 -2v-2v-2q3 -6 3 -9v-110v-8q-5 -15 -17 -19q-8 -4 -12 -4h-21h-2h-149h-39q-10 2 -29 2h-41h-22 h-10q-43 0 -66 2q-8 1 -26 2t-27 2h-6q-13 6 -13 10v27l2 4l2 2q2 2 4 2h3l2 2q28 4 34.5 12t6.5 33v9v4q2 16 2 53v76v149h-9q-33 0 -49 -2q-58 -6 -102 -6q-7 0 -22.5 1t-22.5 1h-8h-25q-8 -2 -16 -8.5t-9 -14.5v-6q-3 -9 -8 -39q-8 -58 -33 -172q-8 -33 -10 -47 q-1 -3 -2 -9t-2 -9q0 -8 6 -15.5t13 -7.5q2 0 6 -1t6 -1q14 0 20 -2q3 -1 9.5 -3t9.5 -3q8 -5 8 -18q0 -14 -10 -17h-4q-1 0 -2 -1t-2 -1q-3 0 -10 -1t-11 -1q-32 -4 -47 -4h-43h-88h-31q-2 0 -7.5 1t-8.5 1q-4 0 -4 2q-11 0 -11 8zM381 461q0 -6 5 -12.5t11 -6.5l4 -2 q3 0 9.5 -1t9.5 -1h39h20h2h23h6v2h18h25h33q13 0 37 4q0 124 -2 187q0 41 -3 82q0 7 -1 23t-1 24q0 12 -1 33.5t-1 29.5v189v2q0 49 -1 150t-1 151q0 27 -2 39v8q0 6 -4 10q-18 2 -55 2h-14q-14 -45 -19 -76q0 -5 -1 -13.5t-1 -12.5q-1 -6 -6 -41q-2 -2 -2 -8q-2 -4 -2 -15 q0 -2 -1 -6t-1 -6q-1 -9 -4 -24t-4 -21q-1 -5 -2 -14.5t-2 -14.5v-2q-10 -32 -19 -112q-2 -22 -9 -65t-9 -64v-7v-4q-2 -4 -2 -10q-19 -97 -23 -125q-31 -156 -37 -207q-4 -26 -8 -37l-2 -14q0 -1 -1 -4.5t-1 -5.5v-4z" />
<glyph unicode="&#xc7;" horiz-adv-x="649" d="M102 688v115q0 18 2 26q5 21 5 76q0 33 4 103l6 36q4 12 7 35t7 35q3 10 8.5 31.5t8.5 30.5q2 20 13 57.5t13 46.5q4 18 12 29q30 50 37 59q24 34 56 51q3 1 9 4t9 4q26 13 41 13q8 1 23.5 4t23.5 4q5 -1 35 -6q6 0 17 -1t16 -1q34 -7 57 -27q10 -7 18 -24q0 -1 1 -3.5 t1 -3.5q2 -10 -6 -18t-16 -4q-4 3 -14.5 8.5t-14.5 7.5q-16 2 -43 10q-21 3 -37 -2l-24 -6q-69 -21 -105 -88q-10 -20 -16 -41q-2 -4 -2 -12q-6 -24 -12 -51q-1 -10 -11 -49q-2 -8 -5 -25t-5 -25q-4 -28 -4 -45q-1 -21 -2 -63.5t-2 -63.5q0 -24 -2 -38q-6 -29 -6 -89v-235 q0 -23 2 -33q3 -12 8 -67q5 -68 8 -84q1 -6 2 -18.5t2 -18.5q0 -31 9 -58v-6q1 -7 3 -23.5t4.5 -28.5t6.5 -23q2 -11 5 -23.5t7 -27t6 -23.5q2 -10 15 -27q14 -21 32 -31q24 -12 62 -8q12 2 32 7t25 6q36 19 62 45q5 4 14 12t14 12q8 4 13 2q10 -3 10 -14q0 -1 -2 -8t-4 -11 q-16 -29 -43 -47q-49 -31 -92 -41q-6 -2 -18.5 -3t-18.5 -3q-1 -1 -3.5 -2t-3.5 -2q0 -2 5 -12l12 -6q2 -2 10 -6q13 -13 17 -21q1 -5 4 -15.5t4 -15.5q11 -34 -15 -71q-10 -13 -24 -19q-26 -10 -49 -4q-7 4 -7 8q0 8 7 11l4 2q2 1 6.5 2t5.5 2q20 6 27 26q5 16 2 37 q-3 20 -19 33q-4 4 -6 4q-14 7 -18 31q0 8 -2 12q0 4 -4 4q-19 8 -31 10q-5 2 -15.5 4.5t-15.5 4.5q-4 0 -16 6q-5 4 -15.5 12t-15.5 12q-2 2 -6 7.5t-6 7.5q-21 35 -37 82q0 8 -2 17t-5.5 20.5t-4.5 17.5q-15 57 -15 67q-1 10 -5.5 30.5t-4.5 33.5q-1 9 -4 30t-4 33 q-6 30 -6 64q-1 19 -2 57.5t-2 57.5q0 60 -5 82q-2 8 -2 24z" />
<glyph unicode="&#xc8;" horiz-adv-x="702" d="M104 1391q0 -11 13 -15q2 0 7 -1t7 -1q8 0 12 -2q6 0 11.5 -6t7.5 -12v-6q0 -7 1 -20t1 -19q0 -205 2 -303v-191q0 -40 2 -63q0 -31 2 -47q0 -13 1 -41t1 -41q2 -129 2 -390v-75q0 -36 -2 -54v-2v-8q0 -26 -6.5 -34.5t-34.5 -12.5h-2l-2 -2l-4 -2l-4 -2v-4v-25 q0 -8 12 -10q2 -2 6 -2q9 0 27 -1t26 -1q40 -4 64 -4h12h23h41h28h39q49 -2 150 -2q14 0 22 2q9 0 13 2q14 7 14 18v2q2 2 2 7v110q0 6 -2 8v2v4h-2l-2 3l-2 2h-2h-4q-20 0 -27 -7q-8 -5 -8 -24v-23q-2 -8 -2 -24q-1 -9 -8 -16t-15 -7q-10 -2 -28 -2h-23h-154q-16 0 -26 2 q-25 0 -29 25v10q-6 35 -6 68q-2 27 -2 79v3q0 10 2 16v67q0 4 1 12.5t1 12.5q0 6 1 18.5t1 18.5v119v45v6h2v57v342v19q1 10 8 17t15 7q10 2 24 2h19h41h43q61 0 86 4h4q8 0 12 -2h2q6 0 10 -2q14 -3 17 -16q2 -6 2 -18h2v-13v-10l2 -2v-2l4 -4h2h12h13h2l2 2q4 0 8 8v4 q2 4 2 12q0 72 -2 105v10v8q0 1 -1 3t-1 3v2q-7 17 -23 17h-6q-12 -3 -12 -10q-2 -4 -2 -13q-2 -4 -2 -10q-4 -18 -23 -18h-14h-6q-66 -2 -201 -2q-10 0 -14 2h-4q-15 4 -19 18v6q0 6 -1 17.5t-1 17.5q0 72 2 111q0 20 1 56.5t1 53.5q0 2 1 6.5t1 6.5v2q7 22 25 22h4h14h15 q41 -6 82 -6q42 0 82 6h12h12q22 -4 25 -24v-21q1 -5 2 -15t2 -14q0 -15 6 -30v-2h2l4 -4q6 -3 12 -3q11 0 21 7q6 6 6 12q5 41 -2 119l-6 18q-7 14 -21 14q-6 3 -12 3q-28 4 -41 4q-14 0 -22 -2t-23 -2h-33q-137 0 -207 2h-16q-9 0 -66 -5q-20 -3 -34 -8h-2l-2 -2 q-3 -2 -3 -4q-5 -8 -2 -22zM264 1614q0 8 7 13.5t14 4.5q8 0 16 -4q27 -11 84 -45q4 -1 7 -4.5t1 -5.5v-12q-2 -5 -8 -9.5t-10 -3.5q-7 4 -25 8q-46 20 -78 41q-8 3 -8 17z" />
<glyph unicode="&#xc9;" horiz-adv-x="702" d="M104 1391q0 -11 13 -15q2 0 7 -1t7 -1q8 0 12 -2q6 0 11.5 -6t7.5 -12v-6q0 -7 1 -20t1 -19q0 -205 2 -303v-191q0 -40 2 -63q0 -31 2 -47q0 -13 1 -41t1 -41q2 -129 2 -390v-75q0 -36 -2 -54v-2v-8q0 -26 -6.5 -34.5t-34.5 -12.5h-2l-2 -2l-4 -2l-4 -2v-4v-25 q0 -8 12 -10q2 -2 6 -2q9 0 27 -1t26 -1q40 -4 64 -4h12h23h41h28h39q49 -2 150 -2q14 0 22 2q9 0 13 2q14 7 14 18v2q2 2 2 7v110q0 6 -2 8v2v4h-2l-2 3l-2 2h-2h-4q-20 0 -27 -7q-8 -5 -8 -24v-23q-2 -8 -2 -24q-1 -9 -8 -16t-15 -7q-10 -2 -28 -2h-23h-154q-16 0 -26 2 q-25 0 -29 25v10q-6 35 -6 68q-2 27 -2 79v3q0 10 2 16v67q0 4 1 12.5t1 12.5q0 6 1 18.5t1 18.5v119v45v6h2v57v342v19q1 10 8 17t15 7q10 2 24 2h19h41h43q61 0 86 4h4q8 0 12 -2h2q6 0 10 -2q14 -3 17 -16q2 -6 2 -18h2v-13v-10l2 -2v-2l4 -4h2h12h13h2l2 2q4 0 8 8v4 q2 4 2 12q0 72 -2 105v10v8q0 1 -1 3t-1 3v2q-7 17 -23 17h-6q-12 -3 -12 -10q-2 -4 -2 -13q-2 -4 -2 -10q-4 -18 -23 -18h-14h-6q-66 -2 -201 -2q-10 0 -14 2h-4q-15 4 -19 18v6q0 6 -1 17.5t-1 17.5q0 72 2 111q0 20 1 56.5t1 53.5q0 2 1 6.5t1 6.5v2q7 22 25 22h4h14h15 q41 -6 82 -6q42 0 82 6h12h12q22 -4 25 -24v-21q1 -5 2 -15t2 -14q0 -15 6 -30v-2h2l4 -4q6 -3 12 -3q11 0 21 7q6 6 6 12q5 41 -2 119l-6 18q-7 14 -21 14q-6 3 -12 3q-28 4 -41 4q-14 0 -22 -2t-23 -2h-33q-137 0 -207 2h-16q-9 0 -66 -5q-20 -3 -34 -8h-2l-2 -2 q-3 -2 -3 -4q-5 -8 -2 -22zM295 1563q-4 12 4 16q13 9 45 26.5t43 22.5q8 4 25 4q7 0 14 -10q3 -5 1 -13t-5 -10q-27 -17 -78 -40q-14 -6 -31 -9h-4q-11 3 -14 13z" />
<glyph unicode="&#xca;" horiz-adv-x="702" d="M104 1391q0 -11 13 -15q2 0 7 -1t7 -1q8 0 12 -2q6 0 11.5 -6t7.5 -12v-6q0 -7 1 -20t1 -19q0 -205 2 -303v-191q0 -40 2 -63q0 -31 2 -47q0 -13 1 -41t1 -41q2 -129 2 -390v-75q0 -36 -2 -54v-2v-8q0 -26 -6.5 -34.5t-34.5 -12.5h-2l-2 -2l-4 -2l-4 -2v-4v-25 q0 -8 12 -10q2 -2 6 -2q9 0 27 -1t26 -1q40 -4 64 -4h12h23h41h28h39q49 -2 150 -2q14 0 22 2q9 0 13 2q14 7 14 18v2q2 2 2 7v110q0 6 -2 8v2v4h-2l-2 3l-2 2h-2h-4q-20 0 -27 -7q-8 -5 -8 -24v-23q-2 -8 -2 -24q-1 -9 -8 -16t-15 -7q-10 -2 -28 -2h-23h-154q-16 0 -26 2 q-25 0 -29 25v10q-6 35 -6 68q-2 27 -2 79v3q0 10 2 16v67q0 4 1 12.5t1 12.5q0 6 1 18.5t1 18.5v119v45v6h2v57v342v19q1 10 8 17t15 7q10 2 24 2h19h41h43q61 0 86 4h4q8 0 12 -2h2q6 0 10 -2q14 -3 17 -16q2 -6 2 -18h2v-13v-10l2 -2v-2l4 -4h2h12h13h2l2 2q4 0 8 8v4 q2 4 2 12q0 72 -2 105v10v8q0 1 -1 3t-1 3v2q-7 17 -23 17h-6q-12 -3 -12 -10q-2 -4 -2 -13q-2 -4 -2 -10q-4 -18 -23 -18h-14h-6q-66 -2 -201 -2q-10 0 -14 2h-4q-15 4 -19 18v6q0 6 -1 17.5t-1 17.5q0 72 2 111q0 20 1 56.5t1 53.5q0 2 1 6.5t1 6.5v2q7 22 25 22h4h14h15 q41 -6 82 -6q42 0 82 6h12h12q22 -4 25 -24v-21q1 -5 2 -15t2 -14q0 -15 6 -30v-2h2l4 -4q6 -3 12 -3q11 0 21 7q6 6 6 12q5 41 -2 119l-6 18q-7 14 -21 14q-6 3 -12 3q-28 4 -41 4q-14 0 -22 -2t-23 -2h-33q-137 0 -207 2h-16q-9 0 -66 -5q-20 -3 -34 -8h-2l-2 -2 q-3 -2 -3 -4q-5 -8 -2 -22zM262.5 1567q-2.5 10 3.5 14q0 4 4 4q43 30 64 41q6 6 16 6q16 5 31 -2q35 -20 70 -45q1 -1 3 -5t3 -5q4 -11 -6 -16q-12 -6 -25 -3q-5 2 -14.5 7.5t-14.5 7.5q-4 3 -13 8t-13 8q-10 8 -25 0q-23 -16 -49 -28q-2 -1 -8 -2.5t-8 -2.5q-2 0 -5 1 t-4 1q-7 1 -9.5 11z" />
<glyph unicode="&#xcb;" horiz-adv-x="702" d="M104 1391q0 -11 13 -15q2 0 7 -1t7 -1q8 0 12 -2q6 0 11.5 -6t7.5 -12v-6q0 -7 1 -20t1 -19q0 -205 2 -303v-191q0 -40 2 -63q0 -31 2 -47q0 -13 1 -41t1 -41q2 -129 2 -390v-75q0 -36 -2 -54v-2v-8q0 -26 -6.5 -34.5t-34.5 -12.5h-2l-2 -2l-4 -2l-4 -2v-4v-25 q0 -8 12 -10q2 -2 6 -2q9 0 27 -1t26 -1q40 -4 64 -4h12h23h41h28h39q49 -2 150 -2q14 0 22 2q9 0 13 2q14 7 14 18v2q2 2 2 7v110q0 6 -2 8v2v4h-2l-2 3l-2 2h-2h-4q-20 0 -27 -7q-8 -5 -8 -24v-23q-2 -8 -2 -24q-1 -9 -8 -16t-15 -7q-10 -2 -28 -2h-23h-154q-16 0 -26 2 q-25 0 -29 25v10q-6 35 -6 68q-2 27 -2 79v3q0 10 2 16v67q0 4 1 12.5t1 12.5q0 6 1 18.5t1 18.5v119v45v6h2v57v342v19q1 10 8 17t15 7q10 2 24 2h19h41h43q61 0 86 4h4q8 0 12 -2h2q6 0 10 -2q14 -3 17 -16q2 -6 2 -18h2v-13v-10l2 -2v-2l4 -4h2h12h13h2l2 2q4 0 8 8v4 q2 4 2 12q0 72 -2 105v10v8q0 1 -1 3t-1 3v2q-7 17 -23 17h-6q-12 -3 -12 -10q-2 -4 -2 -13q-2 -4 -2 -10q-4 -18 -23 -18h-14h-6q-66 -2 -201 -2q-10 0 -14 2h-4q-15 4 -19 18v6q0 6 -1 17.5t-1 17.5q0 72 2 111q0 20 1 56.5t1 53.5q0 2 1 6.5t1 6.5v2q7 22 25 22h4h14h15 q41 -6 82 -6q42 0 82 6h12h12q22 -4 25 -24v-21q1 -5 2 -15t2 -14q0 -15 6 -30v-2h2l4 -4q6 -3 12 -3q11 0 21 7q6 6 6 12q5 41 -2 119l-6 18q-7 14 -21 14q-6 3 -12 3q-28 4 -41 4q-14 0 -22 -2t-23 -2h-33q-137 0 -207 2h-16q-9 0 -66 -5q-20 -3 -34 -8h-2l-2 -2 q-3 -2 -3 -4q-5 -8 -2 -22zM276 1577q0 11 7 18q9 9 23 9t24 -9q1 -2 2 -6t2 -6v-6q-6 -20 -27 -23h-6q-10 0 -17.5 6.5t-7.5 16.5zM416 1569q-5 11 0.5 21.5t17.5 11.5q2 2 6 2q12 0 23 -11q2 -2 2 -4q5 -11 -0.5 -21.5t-18.5 -13.5q-12 0 -18 2q-9 3 -12 13z" />
<glyph unicode="&#xcc;" horiz-adv-x="409" d="M102 -4v-2l2 -2q0 -1 1 -2t1 -2l3 -2h2q3 0 10 -1t10 -1h19q25 0 65 4q36 4 57 4h7l2 2q14 5 14 16q0 3 -1 9.5t-1 9.5q0 8 -6 8q-3 1 -8.5 3t-8.5 3q-2 1 -7 3t-7 3q-14 3 -14 19q0 45 2 65q0 21 2 31q0 9 1 26t1 25q0 330 2 549q0 202 -2 311v117q-2 18 -2 55v6 q0 98 2 119q3 14 8 20t18 9q4 2 9 2q2 1 7 2t7 2q10 3 10 14q0 13 -8 29l-2 4h-33h-2q-10 -4 -29 -4h-6h-6q-69 -4 -102 -10q-17 -3 -17 -21q0 -23 21 -26q2 0 5 -1t5 -1q13 0 17 -2q10 -3 14 -15q2 -8 2 -28v-78v-74v-88v-2v-90q0 -31 -2 -45q-5 -44 -2 -105q6 -64 0 -116 q-1 -18 -2 -54.5t-2 -54.5v-2v-49v-47v-54q0 -46 -2 -69q0 -92 -2 -129q0 -9 -1 -26.5t-1 -26.5v-5q-2 -14 -2 -45q-3 -49 -3 -100q0 -48 -38 -57h-5l-2 -4v-5v-24zM137 1622q5 10 15 10q12 0 18 -2q3 -2 11.5 -5t11.5 -5q9 -5 31.5 -17t33.5 -20q8 -8 8 -16q-1 -2 -2 -6.5 t-2 -6.5q-6 -6 -12 -6q-11 0 -23 8q-49 20 -84 41q-12 12 -6 25z" />
<glyph unicode="&#xcd;" horiz-adv-x="409" d="M102 -4v-2l2 -2q0 -1 1 -2t1 -2l3 -2h2q3 0 10 -1t10 -1h19q25 0 65 4q36 4 57 4h7l2 2q14 5 14 16q0 3 -1 9.5t-1 9.5q0 8 -6 8q-3 1 -8.5 3t-8.5 3q-2 1 -7 3t-7 3q-14 3 -14 19q0 45 2 65q0 21 2 31q0 9 1 26t1 25q0 330 2 549q0 202 -2 311v117q-2 18 -2 55v6 q0 98 2 119q3 14 8 20t18 9q4 2 9 2q2 1 7 2t7 2q10 3 10 14q0 13 -8 29l-2 4h-33h-2q-10 -4 -29 -4h-6h-6q-69 -4 -102 -10q-17 -3 -17 -21q0 -23 21 -26q2 0 5 -1t5 -1q13 0 17 -2q10 -3 14 -15q2 -8 2 -28v-78v-74v-88v-2v-90q0 -31 -2 -45q-5 -44 -2 -105q6 -64 0 -116 q-1 -18 -2 -54.5t-2 -54.5v-2v-49v-47v-54q0 -46 -2 -69q0 -92 -2 -129q0 -9 -1 -26.5t-1 -26.5v-5q-2 -14 -2 -45q-3 -49 -3 -100q0 -48 -38 -57h-5l-2 -4v-5v-24zM133.5 1565.5q-0.5 9.5 5.5 15.5l4 4q8 4 36 19t42 22q12 6 25 6q11 0 14 -10q8 -17 -4 -25 q-62 -34 -90 -45q-4 0 -12 -4q-2 1 -6.5 2t-6.5 2q-7 4 -7.5 13.5z" />
<glyph unicode="&#xce;" horiz-adv-x="409" d="M102 -4v-2l2 -2q0 -1 1 -2t1 -2l3 -2h2q3 0 10 -1t10 -1h19q25 0 65 4q36 4 57 4h7l2 2q14 5 14 16q0 3 -1 9.5t-1 9.5q0 8 -6 8q-3 1 -8.5 3t-8.5 3q-2 1 -7 3t-7 3q-14 3 -14 19q0 45 2 65q0 21 2 31q0 9 1 26t1 25q0 330 2 549q0 202 -2 311v117q-2 18 -2 55v6 q0 98 2 119q3 14 8 20t18 9q4 2 9 2q2 1 7 2t7 2q10 3 10 14q0 13 -8 29l-2 4h-33h-2q-10 -4 -29 -4h-6h-6q-69 -4 -102 -10q-17 -3 -17 -21q0 -23 21 -26q2 0 5 -1t5 -1q13 0 17 -2q10 -3 14 -15q2 -8 2 -28v-78v-74v-88v-2v-90q0 -31 -2 -45q-5 -44 -2 -105q6 -64 0 -116 q-1 -18 -2 -54.5t-2 -54.5v-2v-49v-47v-54q0 -46 -2 -69q0 -92 -2 -129q0 -9 -1 -26.5t-1 -26.5v-5q-2 -14 -2 -45q-3 -49 -3 -100q0 -48 -38 -57h-5l-2 -4v-5v-24zM114.5 1574.5q0.5 7.5 4.5 10.5l4 4q48 32 57 37q17 11 37 8q2 -1 6 -2t6 -2q29 -14 68 -45q8 -5 8 -14 q-3 -10 -8 -12q-10 -6 -23 -3q-3 1 -9 4.5t-9 4.5q-7 4 -21.5 12t-21.5 12q-8 4 -12 0q-21 -11 -49 -28q-3 -1 -9.5 -3.5t-9.5 -3.5q-11 0 -16 9q-3 4 -2.5 11.5z" />
<glyph unicode="&#xcf;" horiz-adv-x="409" d="M102 0v-2l2 -2q0 -1 1 -2t1 -2l3 -2h2q3 0 10 -1t10 -1h19q25 0 65 4q36 4 57 4h7l2 2q14 5 14 16q0 3 -1 9.5t-1 9.5q0 8 -6 8q-3 1 -8.5 3t-8.5 3q-2 1 -7 3t-7 3q-14 3 -14 19q0 45 2 65q0 21 2 31q0 9 1 26t1 25q0 330 2 549q0 202 -2 311v117q-2 18 -2 55v6 q0 99 2 119q3 14 8 20t18 9q4 2 9 2q2 1 7 2t7 2q10 3 10 14q0 13 -8 29l-2 4h-33h-2q-10 -4 -29 -4h-6h-6q-69 -4 -102 -10q-17 -3 -17 -21q0 -23 21 -26q2 0 5 -1t5 -1q13 0 17 -2q10 -3 14 -15q2 -8 2 -28v-78v-74v-88v-2v-90q0 -31 -2 -45q-5 -44 -2 -105q6 -64 0 -116 q-1 -18 -2 -54.5t-2 -54.5v-2v-49v-47v-53q0 -47 -2 -70q0 -92 -2 -129q0 -9 -1 -26.5t-1 -26.5v-4q-2 -14 -2 -46q-3 -50 -3 -100q0 -48 -38 -57h-5l-2 -4v-4v-25zM113 1587q3 13 18 17q21 4 33 -11q4 -4 4 -10v-6q-7 -23 -33 -23q-14 0 -21 10.5t-1 22.5zM248 1571v6 q0 10 6 18t16 9q19 0 27 -13q4 -2 4 -10q0 -15 -10 -22q-15 -9 -31 -3q-9 3 -12 15z" />
<glyph unicode="&#xd0;" horiz-adv-x="860" d="M104 711q-2 11 5 22q14 8 49 12q35 0 53 -2q117 0 174 2q37 4 53 0q7 -2 13 -8q2 -7 -2 -16q-3 -3 -9 -6q-82 -8 -123 -8q-108 0 -159 -2q-7 0 -20.5 1t-20.5 1q-6 -3 -13 4zM184 4q0 10 11 14q6 2 16 2q4 1 12.5 3.5t12.5 3.5q22 4 22 26q2 10 2 29v106q0 197 -4 295v6 v17q-8 103 -4 246v98q8 123 4 293v129q0 23 -4 69q-2 10 -2 29q-4 18 -23 21h-14h-16q-10 3 -13 14q-3 22 17 25q40 8 71 8h9h51h33h4q30 0 80 -8q32 -6 55 -25l4 -2q86 -74 88 -76q36 -36 51 -67q36 -74 64 -166q13 -55 24 -107q13 -67 13 -86t2 -29q8 -63 8 -163v-25v-49 q0 -45 -6 -86q-1 -7 -3.5 -22.5t-3.5 -22.5q-1 -6 -6 -41q-3 -22 -16 -90q-1 -7 -3 -20.5t-3 -20.5q-10 -63 -55 -148q-2 -3 -6.5 -9t-6.5 -9q-24 -29 -41 -47.5t-46 -42t-60 -37.5q-62 -43 -168 -47q-14 -2 -43 -2q-26 0 -66 -4h-6q-3 0 -9.5 1t-10.5 1q-2 2 -4 2 q-11 0 -11 14zM334 1321q0 -101 2 -152v-79l2 -21v-43q2 -29 2 -86v-180q-2 -20 -2 -64v-28q-6 -93 -2 -240q0 -35 2 -53q0 -49 2 -74v-119q0 -14 1 -40t1 -40q0 -35 2 -51q0 -20 25 -20h2q44 0 82 28q3 2 9 7.5t9 7.5q3 3 10.5 9t10.5 9q75 51 135 133q36 51 47 103 q1 6 4 18.5t4 18.5q29 123 31 180v4v4q0 3 1 8t1 8q0 6 1 19.5t1 19.5v43v19v12v29q2 54 -10 137q-4 33 -14 92t-13 82q-14 74 -33 139q-2 5 -6 15.5t-6 15.5q-17 32 -43 65q-33 39 -98 95q-37 26 -86 39q-20 4 -31 4q-4 0 -11 -1t-10 -1q-22 -7 -22 -25v-47z" />
<glyph unicode="&#xd1;" horiz-adv-x="837" d="M104 1399q0 -6 5 -21q0 -4 4.5 -8t9.5 -4q8 2 22 2q6 2 17 2q13 0 22 -6q9 -9 9 -37q0 -9 -1.5 -26t-1.5 -25v-92q3 -126 3 -250v-2q0 -219 2 -328q2 -58 -2 -166q-3 -38 -3 -73q0 -9 -2 -11v-8v-20q-1 -9 -2 -27t-2 -27q0 -71 -2 -106v-2v-72q0 -5 -1 -13.5t-1 -12.5 q-3 -16 -16 -19q-8 -4 -12 -4q-8 -4 -13 -4q-10 -3 -10 -12q-2 -6 -2 -23q0 -4 3.5 -8t8.5 -4q2 0 4 -2h9q105 4 159 14h6l2 2q11 4 11 14q0 19 -2 25q-2 4 -21 10h-4q-29 12 -29 41v17v6l2 516v10q0 11 3 23q0 18 2 28q12 62 12 135v127v80q0 13 10 13h2q6 -3 6 -9 q4 -8 8 -24v-2q2 -8 17 -64q17 -85 39 -164l6 -18q2 -6 6 -19.5t6 -19.5q1 -2 2 -7.5t2 -8.5l4 2l-4 -2q1 -4 4.5 -11.5t4.5 -11.5q5 -18 14 -51.5t14 -50.5v-4q1 -3 3 -9.5t3 -9.5q6 -52 35 -149q4 -11 8 -29q24 -73 29 -94q3 -9 9 -27.5t9 -27.5q1 -4 4.5 -15.5t4.5 -19.5 q3 -14 9 -43t9 -43l2 -4q1 -9 4 -24t4 -21t-3 -13.5t-9 -9.5q-6 -1 -15 -4l-12 -4q-11 -3 -14 -14q0 -17 4 -21t17 -8q16 0 22 -2h8h60h16q7 0 35 4q6 0 14 4q6 6 6 8q5 13 -4 31q-3 5 -14 8q-27 9 -27 37q2 10 2 27q0 33 2 47q7 43 7 106v80q3 206 0 416v385v164v4v28 q0 11 4 23q6 20 24 23q2 0 5 1t5 1q9 0 21 4q12 3 12 14q2 6 2 16q-3 17 -18 21h-2q-4 2 -15 2h-2h-4q-93 -6 -96 -6q-17 0 -35 -6q-6 -3 -10 -15q-6 -14 2 -22q4 -4 8 -4q4 -2 15 -2q3 -1 9 -2t9 -2q14 -3 18 -21q2 -10 2 -29v-4q2 -8 2 -22t3 -29v-27q4 -32 4 -51 q1 -59 2 -176t2 -174v-27v-81l-2 -127q0 -53 -1 -162t-1 -164q0 -13 -1 -38t-1 -38v-6q0 -3 -1 -7.5t-1 -6.5v-2q-3 -7 -9 -7h-2q-6 0 -10 7q0 1 -1 4.5t-1 5.5q-2 5 -8 29q-7 50 -41 155q-15 48 -17 68q-10 48 -14 61q-3 14 -10 42t-10 42q-2 6 -5.5 18.5t-5.5 18.5 q-2 7 -5 21.5t-5 21.5q-4 15 -12 46.5t-12 47.5q-35 125 -66 269q-14 70 -49 210q-5 21 -35 123v6q-9 27 -10 29q-6 16 -23 19q-8 2 -22 2h-17q-27 -6 -51 -6q-9 0 -18 -3q-17 0 -41 -6q-20 -3 -17 -22zM340 1552q-10 13 0 23l4 4q26 17 49 14h39q21 -4 62 0h14q10 0 14 -8 q1 -2 2 -6t2 -6q0 -6 -6 -12q-18 -18 -45 -15l-24 6q-5 1 -15.5 3.5t-15.5 3.5q-24 0 -39 -5q-4 -1 -12.5 -4t-12.5 -4q-3 -1 -8.5 1t-7.5 5z" />
<glyph unicode="&#xd2;" horiz-adv-x="733" d="M102 737q1 29 2 86t2 84v97q0 32 17 106q11 42 20 68q3 11 9.5 33t9.5 34q1 5 4 15.5t4 15.5q8 21 25 45q5 7 14 20.5t14 20.5q16 20 25 29q21 24 61 34q30 6 64 0l18 -6q24 -3 47 -16q37 -29 51 -49q42 -56 64 -109q2 -6 7 -18.5t7 -18.5q10 -29 25 -84t20 -73 q4 -16 4 -25q0 -31 2 -45q0 -18 3 -33q8 -36 8 -82q1 -9 1 -19.5t-0.5 -23.5t-0.5 -20v-58q3 -67 0 -133q-5 -50 -8 -57q-1 -4 -1.5 -12.5t-1.5 -12.5q0 -1 -2 -16t-4 -22q-8 -32 -8 -50q0 -22 -6.5 -60t-7.5 -46q-7 -17 -15 -64q-2 -14 -9.5 -38.5t-8.5 -28.5 q-4 -22 -8 -29q-12 -41 -35 -82q-11 -22 -29 -43q-25 -32 -71 -51q-9 -4 -23 -8q-6 -2 -20 -2q-45 9 -86 39q-29 25 -39 41q-43 75 -53 108q-3 7 -16.5 36t-20.5 46q-8 15 -15 41q-14 55 -20 68q-1 3 -2 9t-2 9q-1 9 -4 30.5t-4 33.5q-3 30 -3 63q0 79 -4 223zM172 573 q0 -12 2 -18q3 -13 8 -70q0 -22 2 -32q1 -4 8 -40t15 -53q2 -15 11 -41.5t11 -37.5q3 -13 29 -84q16 -44 39 -95q13 -32 33 -55q13 -19 37 -22h18q13 0 25 8l7 7q7 6 11 11q11 11 27 35q29 48 34 68q17 32 31 84q20 78 21 92q0 10 2 14q8 38 10 62q0 6 4 18q3 8 6 23l4 20 q10 40 13 70q0 39 4 57q4 36 4 57q1 13 2 38t2 38q0 55 6 82v14v25q-2 17 -5 51t-5 51q0 9 -2 13q-5 28 -15 67q-2 6 -4 18.5t-4 18.5q-1 6 -5 18.5t-5 18.5q-1 13 -16 76q-10 50 -35 88q-29 41 -36 48t-48 36q-4 2 -10 8q-5 2 -22 10t-26 10q-16 3 -30 -6q-31 -24 -47 -51 q-18 -36 -33 -61q0 -5 -4 -13q-25 -94 -27 -137q0 -23 -4 -33q-4 -15 -8 -49q0 -18 -6 -39q-4 -24 -4 -37q-4 -23 -4 -69q0 -16 -3 -25q-3 -13 -8 -69q-5 -86 -8 -103q-2 -6 -2 -18v-97zM287 1618q3 9 12 12h12q18 -4 23 -8q8 -4 36 -19t42 -22q11 -11 8 -16q0 -1 -2 -6 t-4 -7q-6 -6 -17 -6q-2 1 -6 2t-6 2q-28 11 -90 45q-11 7 -8 23z" />
<glyph unicode="&#xd3;" horiz-adv-x="731" d="M102 733q0 92 4 260q0 9 11 94q0 7 4 19q35 116 45 160q10 32 29 57q5 6 30 41q4 8 21 25q25 25 53 32q24 6 49 6q3 0 9.5 -1t9.5 -1q33 -8 45 -10q8 -4 10 -6q39 -19 63 -53q46 -61 66 -109q2 -6 6 -18.5t6 -18.5q9 -23 16.5 -49t16.5 -58t14 -50q4 -24 4 -39 q5 -58 9 -76q4 -58 4 -88q1 -10 1 -21t-0.5 -23.5t-0.5 -19.5v-45q3 -34 -2 -153v-6v-7q-5 -15 -8.5 -47t-8.5 -47q-4 -19 -8 -57q-2 -38 -18 -107q0 -4 -4 -12q-15 -79 -33 -135q-7 -24 -15 -43q-19 -37 -26 -49q-13 -21 -37 -45l-8 -8q-36 -23 -76 -35h-12q-42 9 -76 33 q-6 3 -27 18q-9 7 -20 25q-4 7 -13.5 21.5t-13.5 21.5q-3 6 -18 41q-4 10 -13.5 31.5t-13.5 31.5q-4 8 -11 23.5t-11 23.5q-13 34 -17 53q-1 2 -6.5 26.5t-11.5 35.5q0 1 -1 3t-1 3q-1 15 -6 49t-5 53q-4 172 -4 250zM172 565q6 -38 6 -69q1 -5 1.5 -18.5t2.5 -20.5 q2 -6 13 -62q3 -10 8 -30.5t8 -30.5q3 -9 9 -27.5t9 -27.5q23 -81 54 -144q1 -1 4 -9t4 -13q7 -21 18 -35q16 -27 21 -33q9 -14 30 -18q40 -10 64 20l4 4q38 45 59 96q25 59 35 103q17 53 17 76q9 39 12 73q0 7 4 19q5 13 9.5 36.5t6.5 30.5q1 4 7 45q0 13 2 19q6 38 6 69 q1 18 2 54.5t2 54.5q0 27 2 39q6 34 6 70q0 31 -2 45q-3 14 -6 40.5t-4 34.5q0 16 -6 31q-3 11 -12.5 57.5t-16.5 71.5q-1 14 -7.5 36.5t-8.5 33.5q-13 50 -37 86q-2 3 -5.5 7t-5.5 7l-4 6q-21 32 -45 45q-3 2 -26 19q-34 19 -58 26h-12l-12 -6q-37 -26 -54 -61 q-3 -6 -10 -19.5t-10 -19.5q-12 -28 -14 -43q-6 -11 -11 -34.5t-6 -27.5q-8 -40 -8 -63q0 -21 -4 -31q-4 -15 -8 -49q0 -15 -4 -39q-11 -40 -11 -88q0 -47 -6 -70q-4 -10 -4 -30q-1 -15 -2 -44.5t-2 -45.5q0 -20 -4 -52q-6 -47 0 -94zM301 1563q0 11 8 16q60 38 92 49 q2 1 6.5 2t6.5 2q14 0 18 -14q3 -14 -6 -23q-79 -41 -96 -47q-9 0 -13 -2q-1 0 -3 1t-3 1q-10 3 -10 15z" />
<glyph unicode="&#xd4;" horiz-adv-x="733" d="M102 676q0 32 1 95t1 95q0 20 1 58.5t1 56.5q0 38 11 102q0 1 6 25q7 27 22.5 79.5t22.5 78.5q9 34 29 57q22 33 24 37q18 25 35 37q10 12 33 20q4 0 12 4q35 11 74 2q8 -4 12 -4q58 -8 100 -63q46 -63 66 -117q2 -4 5 -11t5 -11q16 -44 47 -166q4 -16 4 -25 q4 -68 11 -96q0 -28 4 -82q0 -9 -1 -28.5t-1 -28.5v-46q3 -23 3 -48.5t-1.5 -56t-1.5 -46.5q0 -18 -6 -33q-5 -20 -5 -24v-13q-1 -11 -3 -22.5t-5 -25t-4 -21.5q-1 -11 -3 -34.5t-3 -35.5q-2 -8 -5 -24.5t-5 -24.5q-7 -22 -15 -64q-3 -17 -16 -67q-2 -6 -6 -18.5t-6 -18.5 q-6 -27 -29 -70q-16 -29 -37 -53q-8 -8 -12 -14q-37 -25 -61 -33q-29 -13 -56 -2q-30 7 -67 33q-27 23 -37 43q-3 4 -9 13t-8 13q-16 26 -26 52q-8 23 -29 65q-10 20 -16 41q-17 38 -21 59q-1 2 -6.5 26.5t-11.5 35.5q0 1 -1 3t-1 3q-1 16 -6 55t-5 60q0 30 -2 89t-2 89z M174 670q-7 -75 2 -121q2 -10 2 -33q5 -66 12 -88q0 -28 13 -61q6 -25 41 -134q13 -43 37 -96q9 -12 12 -28q11 -22 12 -23q3 -5 9.5 -16.5t9.5 -16.5q19 -25 47 -28h12q17 0 25 8q13 9 18 16q36 42 61 96q18 40 37 109q15 57 15 68q9 40 12 81q1 2 2 6.5t2 6.5 q21 83 23 119q0 3 1 9t1 9q6 18 6 57q1 19 2 57.5t2 57.5q1 5 1.5 21t2.5 24q4 20 4 74q0 23 -2 39q-4 23 -8 63q0 21 -6 39q-18 71 -21 92l-24 105q-7 36 -31 78q-11 18 -33 47q-6 9 -18 18q-52 38 -80 51q-5 0 -13 4q-17 7 -28 -2q-32 -22 -49 -51q-2 -4 -13 -23.5 t-15 -27.5t-10 -23t-9 -28q-4 -10 -7 -30t-6 -28q-4 -15 -8 -49q0 -33 -8 -57q-2 -10 -2 -31q0 -2 -2 -17t-4 -22q-11 -43 -11 -94q0 -43 -6 -63q-1 -6 -2 -18.5t-2 -18.5q0 -31 -4 -97q0 -20 -2 -30zM273 1569q-1 7 3 12q1 0 5 4q9 5 29.5 19.5t33.5 21.5q9 6 18 6 q18 4 31 -6q10 -6 30 -18.5t30 -18.5l4 -4q1 -1 2 -3t2 -3q4 -6 0 -18q-2 -3 -7.5 -5.5t-9.5 -1.5q-3 1 -9 2.5t-9 2.5q-18 12 -51 26q-7 7 -17 0q-35 -22 -51 -29q-2 -1 -8 -2t-8 -2q-8 2 -12 7q-5 3 -6 10z" />
<glyph unicode="&#xd5;" horiz-adv-x="733" d="M104 764q-1 47 0.5 131.5t1.5 112.5q0 32 17 106q2 6 5 18.5t5 18.5q3 10 10.5 29.5t10.5 29.5q10 46 14 56q10 35 27 57q7 8 26 37q16 20 25 29q43 46 116 36q42 -9 56 -14q17 -10 26.5 -17t16.5 -11.5t13 -11.5t8.5 -10.5t11.5 -16.5t14 -21q27 -37 59 -119 q8 -25 43 -153q2 -6 4 -18t2 -13v-51q1 -5 2.5 -16.5t2.5 -16.5q3 -14 8 -76v-45v-108q1 -21 -0.5 -61.5t-1.5 -53.5q0 -4 -2 -6q-1 -6 -3.5 -18.5t-3.5 -18.5q-2 -12 -2 -39q-1 -2 -2 -6t-2 -6q-8 -24 -8 -56q-5 -42 -8 -57q-2 -9 -6 -33t-8 -35q-2 -4 -2 -12 q0 -12 -2.5 -24.5t-7.5 -28t-7 -23.5q-1 -3 -10.5 -35.5t-13.5 -50.5q-1 -3 -4.5 -8t-4.5 -8q-7 -17 -22 -39q-6 -16 -29 -43q-14 -17 -39 -31q-21 -14 -59 -24h-6q-38 8 -53 16q-5 3 -18.5 11.5t-20.5 11.5q-23 17 -35 37q-5 10 -20.5 36t-22.5 41q-21 54 -25 60 q-4 9 -12 26.5t-12 26.5q-13 29 -23 72q-1 3 -2 9t-2 9q-1 6 -6 18.5t-6 18.5q0 19 -6 37q-5 40 -5 45q0 50 -1 150t-1 149zM172 596q-3 -41 6 -82q2 -8 2 -25q0 -20 7 -55.5t8 -44.5q1 -2 2 -6t2 -6q17 -57 22 -80q26 -88 76 -197q14 -31 33 -53q11 -16 32 -21t35 1 q2 1 6.5 3t6.5 3l7 7q7 6 11 11q38 45 59 96q25 57 29 84q3 6 14 50q7 22 11 55q0 10 4 26q1 6 4 26t6 30t7 30.5t7 30.5q9 24 9 51q1 9 2 29t2 29q3 15 8 94q0 16 1 48t1 48q3 79 -2 146q0 3 -6 51q-2 10 -11 42t-10 50q0 2 -1 6t-1 6q-14 40 -20 88q-7 29 -15 47 q-14 40 -51 89q-16 20 -26 28q-6 4 -18.5 12.5t-18.5 12.5q-35 21 -64 26q-4 2 -12 -2q-43 -29 -62 -71q-3 -5 -9 -16.5t-9 -16.5q-4 -7 -8 -21.5t-4 -15.5q-25 -70 -25 -123q-1 -5 -2 -16.5t-2 -16.5q-3 -7 -8 -43q0 -15 -4 -39q-10 -39 -13 -100q0 -21 -2 -31 q-6 -40 -6 -75q-6 -50 -6 -52q-4 -28 -4 -45v-102zM266 1561q-3 5 8 16q2 1 17 6q7 0 22 1t21 1q9 -1 26 -2t25 -2q20 -3 37 4q1 0 3 1t3 1q12 0 18 -6q1 -2 2.5 -6t2.5 -6q0 -7 -7 -10q-15 -11 -28 -11q-9 -3 -19 0q-6 1 -18.5 4t-18.5 4q-43 3 -69 -8h-6q-5 -2 -11.5 2.5 t-7.5 10.5z" />
<glyph unicode="&#xd6;" horiz-adv-x="739" d="M104 725v72q0 29 2 43q5 44 5 102q0 44 2 64v20.5t0.5 15.5t1.5 14t1 11t2.5 13t3 12.5t4 17t5.5 20.5q9 38 14 50q2 7 6.5 21.5t6.5 21.5l2.5 7.5t2.5 8.5t1 8q7 28 18 47q10 23 23 39q12 14 31 41q14 18 20 23q19 15 33 20q4 0 12 4q30 10 70 4q7 -2 21.5 -5t21.5 -5 q12 -4 16 -8q41 -25 74 -70q43 -64 67 -137q33 -110 45 -166q2 -6 7 -43q0 -13 1 -35.5t1 -33.5q1 -6 2 -17t2 -16q9 -54 0 -107q-3 -23 2 -39q9 -53 0 -106q-1 -5 -2 -14t-2 -13q-1 -12 -2 -35t-2 -34q0 -16 -7 -37q-4 -12 -4 -19q-2 -21 -10 -69q-1 -6 -3 -33.5t-7 -42.5 q-5 -13 -9 -38.5t-8 -35.5q-3 -16 -8 -33.5t-12 -38t-10 -32.5q-9 -36 -29 -64l-9.5 -19t-14.5 -24q-13 -15 -37 -35q-28 -17 -72 -30h-12q-28 7 -47 18q-2 1 -14.5 7.5t-18.5 11.5q-29 18 -39 41q-3 5 -10.5 15t-10.5 15q-11 20 -28 58q-5 14 -35 82q-13 27 -21 47 q-4 8 -4 12q-2 14 -6 29t-9.5 33.5t-8.5 29.5q-4 16 -4 25q-2 23 -2 63q-2 25 -2 70q0 27 -2 39q-5 39 -5 139zM176 571q4 -88 12 -120q2 -6 2 -19q0 -16 13 -55q5 -16 14 -55q41 -136 72 -191q0 -4 2 -6q3 -12 8 -23.5t15.5 -28.5t13.5 -22q6 -12 18 -18q25 -15 53 -6 q10 3 17 10q34 32 67 92q4 10 12.5 29.5t12.5 29.5q17 57 22 80q11 38 17 88q2 22 10 56q16 62 18 94q11 37 11 82q5 100 8 119q2 6 2 20q0 76 2 115q1 23 -1 46t-7 59t-6 46q0 5 -4 13q-7 18 -7 30q0 2 -12 49q-11 46 -12 50q0 2 -12 55q-15 60 -68 123l-12 12 q-53 43 -107 59l-16 -8q-12 -10 -37 -35q-12 -16 -16 -26q-15 -24 -27 -51q-13 -29 -23 -72q-1 -16 -7.5 -49.5t-6.5 -52.5q0 -10 -10 -68q-1 -8 -4 -32.5t-6 -37.5q0 -2 -3.5 -21t-3.5 -30q3 -64 -8 -121q-1 -6 -2 -18.5t-2 -18.5q-2 -57 -2 -172zM256 1577q0 8 8 16 q24 16 45 -2q7 -7 4 -12q0 -15 -16 -25q-6 -2 -18 -2q-10 1 -16.5 8.5t-6.5 16.5zM395 1565q-3 9 0 18q0 10 11 14q13 6 24 2q19 -5 16 -26q0 -10 -10 -17q-4 -2 -16 -6h-6q-4 0 -10.5 5t-8.5 10z" />
<glyph unicode="&#xd7;" horiz-adv-x="544" d="M102 653q4 11 11 15q1 1 3 2t3 2q9 3 18 0q39 -19 66 -49q9 -10 27.5 -31t27.5 -31q6 -5 15.5 -5t15.5 5l4 4q2 2 6 7.5t6 7.5q7 7 28.5 30.5t31.5 36.5q19 23 36 35q4 3 12 2.5t11 -4.5l12 -12q-14 -27 -43 -64q-10 -11 -30.5 -32t-30.5 -33q-9 -9 -13 -15 q-5 -3 -5 -10.5t5 -11.5q8 -11 13 -15q73 -63 86 -75q3 -4 10 -12.5t10 -12.5q6 -5 2 -16q-7 -10 -14 -15q-6 -3 -12 0q-18 12 -21 15q-46 40 -47 41q-18 14 -47 43q-3 2 -8 6t-8 6q-6 6 -17 2q-8 -4 -12 -8q-15 -12 -27 -27q-35 -43 -84 -86q-3 -3 -8.5 -3.5t-7.5 3.5 q-2 3 -5 8.5t-5 8.5q-3 6 0 12q13 27 47 65q45 40 65 62q7 7 0 18q-1 1 -3.5 4.5t-4.5 5.5q-4 4 -13 12.5t-13 12.5l-86 86q-3 1 -7 10z" />
<glyph unicode="&#xd8;" horiz-adv-x="733" d="M104 770q0 40 1 118.5t1 117.5q0 36 15 94q23 83 24 86q4 14 11.5 40t11.5 40q2 7 7.5 19.5t6.5 14.5t3 6.5t3 6.5q13 19 50 65q14 18 28 27q6 7 17 10q19 8 36 10q14 4 43 0q5 -1 15.5 -4t15.5 -4q24 0 53 -22q9 -5 37 -33q11 -8 17 0q11 26 12 35l6 18q1 6 9 7.5 t14 -1.5q13 -10 16 -24q-6 -46 -18 -94q-7 -17 2 -31q30 -68 41 -113q17 -61 22 -86q12 -30 12 -76q0 -28 7 -63q4 -10 4 -31q2 -35 2 -102v-84q3 -10 0.5 -65.5t-2.5 -67.5q0 -7 -4 -19q-5 -25 -5 -30q-5 -37 -6 -39q-8 -24 -8 -58q-5 -53 -22 -125q0 -1 -1 -3t-1 -3 q-1 -17 -5.5 -37.5t-8 -32.5t-11.5 -37.5t-10 -33.5q-11 -33 -13 -37q-13 -30 -30 -55q-31 -51 -86 -72q-4 -2 -12.5 -5t-12.5 -5q-12 -3 -24 0q-67 16 -109 61q-8 6 -16 -2q-6 -9 -6 -18q-5 -18 -19 -39q-3 -6 -10 -6q-19 -3 -29 10q-8 11 -6 18q3 15 8 43t8 43q7 44 7 64 q-1 12 -11 31q-3 7 -9 20.5t-9 20.5q-18 36 -33 96q-2 6 -5 18.5t-5 18.5q-2 2 -2 6q-3 11 -6 33.5t-6 33.5q-3 12 -3 27q0 33 -1.5 137.5t-0.5 161.5zM172 582q0 -17 2 -25q2 -11 3 -24t1.5 -28.5t1.5 -23.5q0 -2 2 -17t4 -22q3 -23 9 -43q3 -21 20 -73q1 -2 3 -5.5t3 -5.5 l4 -4q4 0 4 4q7 20 15 50q9 44 24 92q1 5 9.5 28.5t9.5 38.5q4 12 7.5 35.5t4.5 26.5q3 7 5 15.5t4 18.5l3 15q2 9 7.5 27.5t7.5 27.5q8 38 14 55q8 27 22.5 80.5t22.5 79.5q1 7 7 31.5t7 38.5q1 6 6 22.5t5 26.5q4 30 10 43q1 5 4 23t6 26q4 11 8 37q1 7 5.5 19t5.5 18 q5 38 22 80q1 3 2 9t2 9q2 9 -6 25l-4 4q-48 41 -92 59q-8 4 -19 4q-12 3 -22 -4q-1 -1 -3 -2t-3 -2q-35 -28 -50 -57q-4 -8 -11 -23.5t-11 -23.5q-7 -14 -8 -17q-2 -7 -6.5 -21.5t-6.5 -21.5q-8 -31 -10 -49q-4 -24 -4 -39q-5 -46 -8 -55q-2 -6 -2.5 -18t-1.5 -15 q-1 -5 -2 -15.5t-2 -15.5q-10 -41 -10 -102q0 -23 -7 -55q-4 -16 -4 -51q-5 -78 -6 -82q-4 -29 -4 -74v-55zM274 158q2 -5 7.5 -18t7.5 -21q14 -35 37 -68q16 -23 41 -26h20q11 0 23 8l18 18q12 14 31 41q15 22 22 39q12 29 29 70q1 5 15 53.5t16 75.5q0 10 3.5 28.5 t4.5 22.5q4 33 10 49q20 87 21 107v18q8 37 8 109q1 14 2 41t2 40q0 18 4 46q6 41 0 81q-1 10 -3 32t-3 32q-4 38 -10 55q-1 6 -4.5 17.5t-5.5 21.5t-3 19q-9 39 -14 55q-1 13 -4 27t-7.5 31.5t-6.5 27.5q-3 18 -15 29q-4 -4 -4 -7q-2 -7 -6.5 -21t-7 -25t-2.5 -21 q-1 -3 -3 -9.5t-3 -9.5q-2 -7 -6.5 -21.5t-6.5 -21.5q-13 -54 -16 -73q-9 -49 -14 -70q0 -14 -7 -40t-8 -34q-1 -6 -7 -25.5t-7 -29.5t-7 -29.5t-7 -25.5q-1 -3 -6.5 -24t-6.5 -32q-11 -34 -25.5 -97.5t-19.5 -82.5q-9 -53 -24 -110q-1 -7 -10 -41.5t-9 -53.5q0 -6 -4 -18 q-16 -61 -29 -139z" />
<glyph unicode="&#xd9;" horiz-adv-x="782" d="M104 1405q-3 -15 13 -23q2 0 6 -1t6 -1q2 -1 7 -2t7 -2q21 -7 21 -26q0 -3 1 -14t1 -19q-2 -59 -2 -182v-2v-193v-207v-12q0 -35 2 -51q4 -31 4 -95q0 -29 2 -45q1 -22 2 -67.5t2 -67.5q1 -17 2 -51t2 -51q0 -25 6 -60q4 -18 13.5 -53t11.5 -41q2 -4 5 -14t5 -14 q3 -14 10 -25q29 -42 56 -63q20 -16 35 -19q50 -12 88 -12h10q22 4 33 8q51 18 71 66q11 22 15 32q2 4 6 13.5t6 13.5q12 26 18 55q12 63 21 131q8 59 8 170v154v8v234v10q0 25 2 37q4 70 4 106v31v14q1 15 2 43.5t2 42.5q4 70 4 107v18v45q0 4 1 12.5t1 12.5q3 17 23 24 q2 1 7.5 2t8.5 2q7 0 11 2q16 4 16 23v12q0 11 -12 15q-4 0 -11 1t-10 1q-10 2 -29 2q-30 0 -104 -8q-5 0 -10 -5q-21 -7 -21 -24l2 -4v-19q3 -6 9 -6q3 -1 9.5 -2t10.5 -2h4h10q1 0 4 1t5 1q17 -4 20 -18v-4q0 -5 1 -14.5t1 -14.5v-147v-17q0 -111 -4 -168q-3 -33 0 -67 v-23q0 -25 2 -35v-16q2 -78 -2 -207q-6 -95 -6 -188v-70q-1 -12 -3 -33.5t-3 -32.5q-8 -49 -25 -112q-1 -5 -3 -15.5t-3 -15.5q-7 -34 -39 -90q-13 -22 -35 -35q-20 -10 -39 -10q-30 0 -51 24q-33 36 -57 91q-6 9 -6 20q-2 0 -2 4q-4 18 -9 29q-2 9 -6 27.5t-6 27.5 q-6 21 -6 43v55v2q-2 33 -2 103q0 22 -1 57t-1 49q0 5 -1 16.5t-1 16.5q0 6 -1 18.5t-1 18.5v49q0 29 -2 43v6q0 36 -2 52q-4 35 -4 94v178q0 29 2 47q6 147 6 170v68q0 16 2 20q4 12 14 12q3 1 9.5 2t9.5 2h10q4 0 6 2q13 0 25 3q12 4 12 14q0 14 -2 20q0 11 -15 15 q-4 2 -18 2h-2h-14q-7 0 -21.5 1t-21.5 1h-17h-10q-33 0 -51 -2q-4 0 -12.5 -1t-12.5 -1q-2 0 -4 -2h-4q-21 -6 -27 -31zM299 1610q0 8 2 12q13 16 29 10q20 -8 28 -12q7 -4 30.5 -17.5t35.5 -21.5q8 -4 8 -16q-2 -8 -9.5 -13t-14.5 -4q-2 1 -6 2t-5 2q-39 15 -86 43 q-9 6 -12 15z" />
<glyph unicode="&#xda;" horiz-adv-x="782" d="M104 1405q-3 -15 13 -23q2 0 6 -1t6 -1q2 -1 7 -2t7 -2q21 -7 21 -26q0 -3 1 -14t1 -19q-2 -59 -2 -182v-2v-193v-207v-12q0 -35 2 -51q4 -31 4 -95q0 -29 2 -45q1 -22 2 -67.5t2 -67.5q1 -17 2 -51t2 -51q0 -25 6 -60q4 -18 13.5 -53t11.5 -41q2 -4 5 -14t5 -14 q3 -14 10 -25q29 -42 56 -63q20 -16 35 -19q50 -12 88 -12h10q22 4 33 8q51 18 71 66q11 22 15 32q2 4 6 13.5t6 13.5q12 26 18 55q12 63 21 131q8 59 8 170v154v8v234v10q0 25 2 37q4 70 4 106v31v14q1 15 2 43.5t2 42.5q4 70 4 107v18v45q0 4 1 12.5t1 12.5q3 17 23 24 q2 1 7.5 2t8.5 2q7 0 11 2q16 4 16 23v12q0 11 -12 15q-4 0 -11 1t-10 1q-10 2 -29 2q-30 0 -104 -8q-5 0 -10 -5q-21 -7 -21 -24l2 -4v-19q3 -6 9 -6q3 -1 9.5 -2t10.5 -2h4h10q1 0 4 1t5 1q17 -4 20 -18v-4q0 -5 1 -14.5t1 -14.5v-147v-17q0 -111 -4 -168q-3 -33 0 -67 v-23q0 -25 2 -35v-16q2 -78 -2 -207q-6 -95 -6 -188v-70q-1 -12 -3 -33.5t-3 -32.5q-8 -49 -25 -112q-1 -5 -3 -15.5t-3 -15.5q-7 -34 -39 -90q-13 -22 -35 -35q-20 -10 -39 -10q-30 0 -51 24q-33 36 -57 91q-6 9 -6 20q-2 0 -2 4q-4 18 -9 29q-2 9 -6 27.5t-6 27.5 q-6 21 -6 43v55v2q-2 33 -2 103q0 22 -1 57t-1 49q0 5 -1 16.5t-1 16.5q0 6 -1 18.5t-1 18.5v49q0 29 -2 43v6q0 36 -2 52q-4 35 -4 94v178q0 29 2 47q6 147 6 170v68q0 16 2 20q4 12 14 12q3 1 9.5 2t9.5 2h10q4 0 6 2q13 0 25 3q12 4 12 14q0 14 -2 20q0 11 -15 15 q-4 2 -18 2h-2h-14q-7 0 -21.5 1t-21.5 1h-17h-10q-33 0 -51 -2q-4 0 -12.5 -1t-12.5 -1q-2 0 -4 -2h-4q-21 -6 -27 -31zM329.5 1570q0.5 10 6.5 13q73 40 88 47q2 0 6 1t6 1q10 1 17 -6t4 -16q0 -9 -4 -13q-54 -31 -97 -47q-8 0 -12 -2q-7 0 -10 6q-5 6 -4.5 16z" />
<glyph unicode="&#xdb;" horiz-adv-x="782" d="M104 1405q-3 -15 13 -23q2 0 6 -1t6 -1q2 -1 7 -2t7 -2q21 -7 21 -26q0 -3 1 -14t1 -19q-2 -59 -2 -182v-2v-193v-207v-12q0 -35 2 -51q4 -31 4 -95q0 -29 2 -45q1 -22 2 -67.5t2 -67.5q1 -17 2 -51t2 -51q0 -25 6 -60q4 -18 13.5 -53t11.5 -41q2 -4 5 -14t5 -14 q3 -14 10 -25q29 -42 56 -63q20 -16 35 -19q50 -12 88 -12h10q22 4 33 8q51 18 71 66q11 22 15 32q2 4 6 13.5t6 13.5q12 26 18 55q12 63 21 131q8 59 8 170v154v8v234v10q0 25 2 37q4 70 4 106v31v14q1 15 2 43.5t2 42.5q4 70 4 107v18v45q0 4 1 12.5t1 12.5q3 17 23 24 q2 1 7.5 2t8.5 2q7 0 11 2q16 4 16 23v12q0 11 -12 15q-4 0 -11 1t-10 1q-10 2 -29 2q-30 0 -104 -8q-5 0 -10 -5q-21 -7 -21 -24l2 -4v-19q3 -6 9 -6q3 -1 9.5 -2t10.5 -2h4h10q1 0 4 1t5 1q17 -4 20 -18v-4q0 -5 1 -14.5t1 -14.5v-147v-17q0 -111 -4 -168q-3 -33 0 -67 v-23q0 -25 2 -35v-16q2 -78 -2 -207q-6 -95 -6 -188v-70q-1 -12 -3 -33.5t-3 -32.5q-8 -49 -25 -112q-1 -5 -3 -15.5t-3 -15.5q-7 -34 -39 -90q-13 -22 -35 -35q-20 -10 -39 -10q-30 0 -51 24q-33 36 -57 91q-6 9 -6 20q-2 0 -2 4q-4 18 -9 29q-2 9 -6 27.5t-6 27.5 q-6 21 -6 43v55v2q-2 33 -2 103q0 22 -1 57t-1 49q0 5 -1 16.5t-1 16.5q0 6 -1 18.5t-1 18.5v49q0 29 -2 43v6q0 36 -2 52q-4 35 -4 94v178q0 29 2 47q6 147 6 170v68q0 16 2 20q4 12 14 12q3 1 9.5 2t9.5 2h10q4 0 6 2q13 0 25 3q12 4 12 14q0 14 -2 20q0 11 -15 15 q-4 2 -18 2h-2h-14q-7 0 -21.5 1t-21.5 1h-17h-10q-33 0 -51 -2q-4 0 -12.5 -1t-12.5 -1q-2 0 -4 -2h-4q-21 -6 -27 -31zM307 1563v6q0 13 6 16q30 21 60 39q4 4 16 8q18 7 31 -2q8 -3 34 -19.5t35 -23.5q5 -5 5 -6q4 -8 2 -12q0 -6 -5.5 -10.5t-11.5 -4.5q-15 5 -18 7 t-21.5 11.5t-29.5 14.5q-10 6 -19 0q-8 -5 -24.5 -14t-24.5 -14q-15 -5 -18 -5q-8 0 -17 9z" />
<glyph unicode="&#xdc;" horiz-adv-x="782" d="M104 1405q-3 -15 13 -23q2 0 6 -1t6 -1q2 -1 7 -2t7 -2q21 -7 21 -26q0 -3 1 -14t1 -19q-2 -59 -2 -182v-2v-193v-207v-12q0 -35 2 -51q4 -31 4 -95q0 -29 2 -45q1 -22 2 -67.5t2 -67.5q1 -17 2 -51t2 -51q0 -25 6 -60q4 -18 13.5 -53t11.5 -41q2 -4 5 -14t5 -14 q3 -14 10 -25q29 -42 56 -63q20 -16 35 -19q50 -12 88 -12h10q22 4 33 8q51 18 71 66q11 22 15 32q2 4 6 13.5t6 13.5q12 26 18 55q12 63 21 131q8 59 8 170v154v8v234v10q0 25 2 37q4 70 4 106v31v14q1 15 2 43.5t2 42.5q4 70 4 107v18v45q0 4 1 12.5t1 12.5q3 17 23 24 q2 1 7.5 2t8.5 2q7 0 11 2q16 4 16 23v12q0 11 -12 15q-4 0 -11 1t-10 1q-10 2 -29 2q-30 0 -104 -8q-5 0 -10 -5q-21 -7 -21 -24l2 -4v-19q3 -6 9 -6q3 -1 9.5 -2t10.5 -2h4h10q1 0 4 1t5 1q17 -4 20 -18v-4q0 -5 1 -14.5t1 -14.5v-147v-17q0 -111 -4 -168q-3 -33 0 -67 v-23q0 -25 2 -35v-16q2 -78 -2 -207q-6 -95 -6 -188v-70q-1 -12 -3 -33.5t-3 -32.5q-8 -49 -25 -112q-1 -5 -3 -15.5t-3 -15.5q-7 -34 -39 -90q-13 -22 -35 -35q-20 -10 -39 -10q-30 0 -51 24q-33 36 -57 91q-6 9 -6 20q-2 0 -2 4q-4 18 -9 29q-2 9 -6 27.5t-6 27.5 q-6 21 -6 43v55v2q-2 33 -2 103q0 22 -1 57t-1 49q0 5 -1 16.5t-1 16.5q0 6 -1 18.5t-1 18.5v49q0 29 -2 43v6q0 36 -2 52q-4 35 -4 94v178q0 29 2 47q6 147 6 170v68q0 16 2 20q4 12 14 12q3 1 9.5 2t9.5 2h10q4 0 6 2q13 0 25 3q12 4 12 14q0 14 -2 20q0 11 -15 15 q-4 2 -18 2h-2h-14q-7 0 -21.5 1t-21.5 1h-17h-10q-33 0 -51 -2q-4 0 -12.5 -1t-12.5 -1q-2 0 -4 -2h-4q-21 -6 -27 -31zM301 1573q-3 13 6 22t23 9q11 0 22 -11q1 -2 2 -6t2 -6q0 -19 -16 -25q-6 -2 -18 -2q-17 0 -21 19zM435.5 1579q0.5 10 4.5 14q11 11 23 11 q16 -3 26 -13q5 -10 5 -12q-4 -16 -18 -22t-27 -1q-9 4 -11 9q-3 4 -2.5 14z" />
<glyph unicode="&#xdd;" horiz-adv-x="821" d="M104 1434q-3 -26 2 -39l3 -6l2 -3h2q14 -5 41 -8q21 -3 30 -24q13 -31 31 -66l2 -2q25 -54 45 -94q46 -101 82 -154q14 -24 16 -28l7 -6q15 -25 12 -48v-45v-18v-105v-235v-197v-2q2 -80 2 -243q0 -9 -4 -29q0 -13 -17 -16q-2 -1 -6 -2.5t-6 -2.5q-6 0 -10 -2 q-14 0 -19 -20v-16q0 -13 7.5 -19t15.5 -6t12 -2h4h23q41 0 115 8l4 2l24 6l2 2q3 0 6 6q6 10 3 23q-6 9 -15 12q-12 4 -18 4q-2 1 -7 2t-8 2q-13 3 -16 17q0 3 -1 9t-1 9q-6 132 -6 295v8q0 29 2 43q6 70 6 140v26q0 2 1 7.5t1 7.5v2q0 41 2 61q8 62 4 141v17q0 14 -1 40 t-1 40q-3 40 17 84q37 73 67 155q1 1 2 4.5t2 4.5q36 69 72 174q4 16 8 26q11 19 27 19h4q4 1 14 2t15 2q14 0 14 14v23q-3 9 -14 12q-12 4 -21 4h-20h-15h-2h-12h-2h-15h-2h-14h-24q-5 0 -25 -4l-4 -2l-4 -2v-4q-2 -12 -2 -35q0 -7 6 -10q1 0 2 -1t2 -1q2 0 4 -2 q12 -7 16 -10.5t3.5 -9.5t-5.5 -19q0 -5 -4 -13q-9 -22 -10 -28q-14 -46 -57 -156l-2 -2q-3 -9 -9 -21q-11 -32 -30 -57q-6 -6 -13 -6q-8 0 -14 6q0 2 -2 2v2q-4 4 -6 8q-41 62 -80 142q-18 38 -59 123q-6 19 -4 24q3 6 24 10h6h4l2 2q0 1 1 3.5t1 3.5q3 15 -4 32v2 q-1 1 -3 3.5t-3 3.5q-12 4 -16 4q-58 12 -133 12q-23 0 -35 -2h-6h-2q-10 -5 -13 -14zM373 1569q-4 7 2 10q4 4 4 6q26 13 65 37q3 1 9.5 4t9.5 4q12 4 22 4l7 -2q4 0 8 -4.5t4 -9.5q4 -14 -10 -21q-34 -18 -72 -36q-4 -1 -12.5 -3.5t-12.5 -3.5q-17 -3 -24 15z" />
<glyph unicode="&#xde;" horiz-adv-x="614" d="M102 86.5v28.5q0 21 1 61t1 60v32q5 36 5 88v133q0 133 2 199q2 31 2 96q2 109 2 330q0 40 6 84q6 66 -2 127q-3 27 0 57q0 14 6 23l10 10q27 15 47 8q17 -4 19 -14q12 -78 12 -115q0 -53 4 -159q0 -5 5 -11t9 -6q4 -2 15 -2q10 -2 30 -2q16 1 97 -4q30 -4 43 -8 q31 -10 55 -41q4 -6 11.5 -19.5t11.5 -19.5q1 -6 4 -18.5t4 -18.5q14 -56 4 -121q0 -2 -12 -55q-1 -2 -3.5 -6t-3.5 -6q-25 -48 -67 -74q-12 -10 -33 -18q-52 -19 -106 -25q-33 -3 -64 -6q-3 0 -7.5 -4.5t-4.5 -7.5t-1 -9.5t-1 -9.5v-199q0 -42 1 -127t1 -127v-147 q0 -4 -1 -12.5t-1 -12.5q0 -12 -17 -18q-26 -3 -51 0q-6 0 -12 4.5t-6 9.5q-3 14 -6.5 27t-5 16.5t-2.5 12t-1 17zM203 754q0 -2 1 -6.5t1 -6.5q4 -4 4 -6q4 0 4 -4q36 -6 70 0q16 2 43 10q51 14 80 39q2 4 10 8q17 12 28 41q0 1 11 39v74q0 13 -4 33q-3 17 -9 31 q-12 30 -14 34q-2 2 -6 7.5t-6 7.5q-15 11 -29 14q-37 6 -76 6q-13 0 -40.5 -2t-41.5 -2q-12 -6 -12 -12q-2 -2 -2 -6q-2 -15 -3.5 -54.5t-4.5 -60.5q-2 -6 -2 -18q0 -111 -2 -166z" />
<glyph unicode="&#xdf;" horiz-adv-x="669" d="M104 1329q0 67 2 82q0 10 11 14q1 0 3 1t3 1q2 1 10.5 4t13.5 3h64h12q24 -7 80 -11q6 -3 15 -7t12 -5q32 -18 47 -43q30 -54 43 -104q6 -18 6 -37q3 -42 -4 -90q-3 -30 -19 -62q-3 -8 -13.5 -23.5t-12.5 -19.5q-5 -7 -4.5 -20.5t6.5 -20.5q16 -18 49 -51q34 -34 57 -76 q5 -11 14.5 -30.5t12.5 -26.5q2 -5 12 -24t13 -29q2 -8 5 -24.5t5 -24.5q1 -2 6 -39q5 -68 8 -82q4 -20 4 -64q0 -8 0.5 -23.5t0.5 -28.5t-1 -24q0 -50 -2 -75q0 -2 -12 -76q-2 -14 -10 -37q0 -12 -4 -18q-3 -9 -7.5 -28t-7.5 -28q-11 -44 -22 -65q-5 -8 -15 -37 q-3 -6 -13 -29.5t-17 -34.5q-7 -12 -22.5 -37t-22.5 -38q-3 -3 -8.5 -10.5t-8.5 -10.5q-24 -30 -63 -61q-6 -3 -13 0q-12 3 -16 18v6q5 9 8 11q5 6 16.5 19t16.5 19q20 18 49 66q3 6 9.5 17.5t9.5 17.5q1 2 5 12.5t7 15.5q1 2 53 138q12 32 23 86q1 5 2 15t2 15q4 102 2 154 q-1 14 -1 43.5t-1 44.5q0 47 -2 72q0 16 -2 24q-4 11 -9 49q0 13 -8 33q-5 16 -16 41q-21 34 -39 72q-15 30 -39 51q-47 38 -61 45q-9 5 -11 8q-13 10 -16 27q-4 29 -2 43q0 12 10 22q5 5 16.5 15.5t16.5 15.5q26 26 33 68q5 35 -2 84q-2 24 -17 67q-2 6 -7 17.5t-7 17.5 q-9 22 -31 31q-3 2 -11 5t-11 5q-48 4 -72 2q-2 0 -5.5 -1t-4.5 -1q-8 -4 -8 -10q-2 -4 -2 -25q0 -229 2 -344q2 -29 2 -84v-223q0 -59 4 -88q2 -12 2 -39v-154q0 -59 -4 -88q-2 -12 -2 -39v-108q0 -25 2 -37q4 -25 4 -108v-7q-5 -11 -12 -14q-16 -6 -52 -2q-8 2 -15 11 t-7 18q-1 16 -2 47.5t-2 46.5v199q0 73 -4 94v26q-2 72 -2 217v275q0 229 -5 395z" />
<glyph unicode="&#xe0;" horiz-adv-x="604" d="M104 231q-2 -38 17 -108l2 -2q12 -51 65 -86q3 -2 5 -2q3 -2 9 -6.5t9 -6.5q45 -22 90 -22q37 0 68 16q2 2 8 2q13 0 18 -10q4 -6 19 -10q8 -2 24 -2q29 0 56 8h2v2q6 6 6 10q0 11 -6 15q-1 1 -3.5 2t-3.5 2q-2 1 -5 3t-5 3q-11 5 -14 22v21v12q0 3 -1 11t-1 12 q0 33 -2 49q-4 31 -4 84q-2 47 -2 151v37q0 13 12 25l2 2q2 0 6 4q12 9 6 29v2l-2 2l-4 4q-2 0 -5 1t-5 1q-37 0 -111 12q-24 4 -39 4q-23 0 -73 -8q-3 0 -15 -6q-33 -13 -57 -47q-45 -66 -53 -123l-2 -6q-13 -71 -11 -103zM187 244q-1 59 1 59q3 46 31 117q8 18 27 41l2 2 q18 24 49 24h25h34q13 0 22 -9t11 -23v-66v-12v-6v-9v-16v-39q0 -29 -6 -59q-2 -12 -2 -35q-2 -2 -2 -6q-3 -44 -19 -115q-3 -6 -6 -18q-16 -37 -55 -37q-10 0 -16 2q-50 13 -70 49q-25 45 -25 78v20zM249 689.5q-2 7.5 1 12.5q6 14 20 11h6q2 -1 10 -5.5t13 -7.5 t31.5 -17.5t38.5 -23.5q7 -4 4 -10q-3 -12 -13 -12q-6 -2 -18 2q-4 0 -12 4l-37 18.5l-37 18.5q-5 2 -7 9.5z" />
<glyph unicode="&#xe1;" horiz-adv-x="604" d="M104 231q-2 -38 17 -108l2 -2q12 -51 65 -86q3 -2 5 -2q3 -2 9 -6.5t9 -6.5q45 -22 90 -22q37 0 68 16q2 2 8 2q13 0 18 -10q4 -6 19 -10q8 -2 24 -2q29 0 56 8h2v2q6 6 6 10q0 11 -6 15q-1 1 -3.5 2t-3.5 2q-2 1 -5 3t-5 3q-11 5 -14 22v21v12q0 3 -1 11t-1 12 q0 33 -2 49q-4 31 -4 84q-2 47 -2 151v37q0 13 12 25l2 2q2 0 6 4q12 9 6 29v2l-2 2l-4 4q-2 0 -5 1t-5 1q-37 0 -111 12q-24 4 -39 4q-23 0 -73 -8q-3 0 -15 -6q-33 -13 -57 -47q-45 -66 -53 -123l-2 -6q-13 -71 -11 -103zM187 244q-1 59 1 59q3 46 31 117q8 18 27 41l2 2 q18 24 49 24h25h34q13 0 22 -9t11 -23v-66v-12v-6v-9v-16v-39q0 -29 -6 -59q-2 -12 -2 -35q-2 -2 -2 -6q-3 -44 -19 -115q-3 -6 -6 -18q-16 -37 -55 -37q-10 0 -16 2q-50 13 -70 49q-25 45 -25 78v20zM248 645q-1 1 0.5 8t3.5 9q64 36 72 40q18 11 30 11q6 2 12 -3.5 t5 -11.5q4 -11 -4 -16q-46 -27 -84 -43q-6 -2 -19 -2h-6q-4 2 -10 8z" />
<glyph unicode="&#xe2;" horiz-adv-x="604" d="M104 231q-2 -38 17 -108l2 -2q12 -51 65 -86q3 -2 5 -2q3 -2 9 -6.5t9 -6.5q45 -22 90 -22q37 0 68 16q2 2 8 2q13 0 18 -10q4 -6 19 -10q8 -2 24 -2q29 0 56 8h2v2q6 6 6 10q0 11 -6 15q-1 1 -3.5 2t-3.5 2q-2 1 -5 3t-5 3q-11 5 -14 22v21v12q0 3 -1 11t-1 12 q0 33 -2 49q-4 31 -4 84q-2 47 -2 151v37q0 13 12 25l2 2q2 0 6 4q12 9 6 29v2l-2 2l-4 4q-2 0 -5 1t-5 1q-37 0 -111 12q-24 4 -39 4q-23 0 -73 -8q-3 0 -15 -6q-33 -13 -57 -47q-45 -66 -53 -123l-2 -6q-13 -71 -11 -103zM187 244q-1 59 1 59q3 46 31 117q8 18 27 41l2 2 q18 24 49 24h25h34q13 0 22 -9t11 -23v-66v-12v-6v-9v-16v-39q0 -29 -6 -59q-2 -12 -2 -35q-2 -2 -2 -6q-3 -44 -19 -115q-3 -6 -6 -18q-16 -37 -55 -37q-10 0 -16 2q-50 13 -70 49q-25 45 -25 78v20zM201 659q1 1 2 3t2 2q17 17 67 47q5 0 13 4h18q2 -1 6 -2t6 -2 q10 -7 32 -21.5t32 -21.5l4 -4q6 -12 2 -19q-2 -3 -7.5 -5t-8.5 -1q-5 0 -13 4q-13 7 -49 29q-2 1 -6 2t-6 2q-4 -2 -12 -2q-55 -33 -60 -35q-9 -2 -18 4q-8 3 -4 16z" />
<glyph unicode="&#xe3;" horiz-adv-x="604" d="M104 231q-2 -38 17 -108l2 -2q12 -51 65 -86q3 -2 5 -2q3 -2 9 -6.5t9 -6.5q45 -22 90 -22q37 0 68 16q2 2 8 2q13 0 18 -10q4 -6 19 -10q8 -2 24 -2q29 0 56 8h2v2q6 6 6 10q0 11 -6 15q-1 1 -3.5 2t-3.5 2q-2 1 -5 3t-5 3q-11 5 -14 22v21v12q0 3 -1 11t-1 12 q0 33 -2 49q-4 31 -4 84q-2 47 -2 151v37q0 13 12 25l2 2q2 0 6 4q12 9 6 29v2l-2 2l-4 4q-2 0 -5 1t-5 1q-37 0 -111 12q-24 4 -39 4q-23 0 -73 -8q-3 0 -15 -6q-33 -13 -57 -47q-45 -66 -53 -123l-2 -6q-13 -71 -11 -103zM187 244q-1 59 1 59q3 46 31 117q8 18 27 41l2 2 q18 24 49 24h25h34q13 0 22 -9t11 -23v-66v-12v-6v-9v-16v-39q0 -29 -6 -59q-2 -12 -2 -35q-2 -2 -2 -6q-3 -44 -19 -115q-3 -6 -6 -18q-16 -37 -55 -37q-10 0 -16 2q-50 13 -70 49q-25 45 -25 78v20zM221 653q-2 3 2 11q10 10 29 14q51 0 76 -6q26 -6 55 4h12q2 0 8 -6 q1 -2 1 -4t-1 -2q-5 -10 -6 -11q-4 -2 -12 -5t-12 -5q-28 4 -43 4q-6 1 -19 2t-20 2q-28 0 -49 -8q-12 -6 -21 10z" />
<glyph unicode="&#xe4;" horiz-adv-x="604" d="M104 231q-2 -38 17 -108l2 -2q12 -51 65 -86q3 -2 5 -2q3 -2 9 -6.5t9 -6.5q45 -22 90 -22q37 0 68 16q2 2 8 2q13 0 18 -10q4 -6 19 -10q8 -2 24 -2q29 0 56 8h2v2q6 6 6 10q0 11 -6 15q-1 1 -3.5 2t-3.5 2q-2 1 -5 3t-5 3q-11 5 -14 22v21v12q0 3 -1 11t-1 12 q0 33 -2 49q-4 31 -4 84q-2 47 -2 151v37q0 13 12 25l2 2q2 0 6 4q12 9 6 29v2l-2 2l-4 4q-2 0 -5 1t-5 1q-37 0 -111 12q-24 4 -39 4q-23 0 -73 -8q-3 0 -15 -6q-33 -13 -57 -47q-45 -66 -53 -123l-2 -6q-13 -71 -11 -103zM187 244q-1 59 1 59q3 46 31 117q8 18 27 41l2 2 q18 24 49 24h25h34q13 0 22 -9t11 -23v-66v-12v-6v-9v-16v-39q0 -29 -6 -59q-2 -12 -2 -35q-2 -2 -2 -6q-3 -44 -19 -115q-3 -6 -6 -18q-16 -37 -55 -37q-10 0 -16 2q-50 13 -70 49q-25 45 -25 78v20zM201 666q4 16 18 16q16 3 29 -10q5 -5 2 -10q-7 -26 -31 -23q-4 0 -12 4 q-6 6 -6 23zM336 653q-5 8 2 19q9 12 27 12q18 -4 18 -22q0 -14 -10 -21q-6 -3 -16.5 -2.5t-14.5 4.5q-2 2 -6 10z" />
<glyph unicode="&#xe5;" horiz-adv-x="604" d="M104 231q-2 -38 17 -108l2 -2q12 -51 65 -86q3 -2 5 -2q3 -2 9 -6.5t9 -6.5q45 -22 90 -22q37 0 68 16q2 2 8 2q13 0 18 -10q4 -6 19 -10q8 -2 24 -2q29 0 56 8h2v2q6 6 6 10q0 11 -6 15q-1 1 -3.5 2t-3.5 2q-2 1 -5 3t-5 3q-11 5 -14 22v21v12q0 3 -1 11t-1 12 q0 33 -2 49q-4 31 -4 84q-2 47 -2 151v37q0 13 12 25l2 2q2 0 6 4q12 9 6 29v2l-2 2l-4 4q-2 0 -5 1t-5 1q-37 0 -111 12q-24 4 -39 4q-23 0 -73 -8q-3 0 -15 -6q-33 -13 -57 -47q-45 -66 -53 -123l-2 -6q-13 -71 -11 -103zM187 244q-1 59 1 59q3 46 31 117q8 18 27 41l2 2 q18 24 49 24h25h34q13 0 22 -9t11 -23v-66v-12v-6v-9v-16v-39q0 -29 -6 -59q-2 -12 -2 -35q-2 -2 -2 -6q-3 -44 -19 -115q-3 -6 -6 -18q-16 -37 -55 -37q-10 0 -16 2q-50 13 -70 49q-25 45 -25 78v20zM258 692q0 7 6 10q20 27 49 27h25q12 -1 22 -11t13 -22q3 -19 -6 -37 q-4 -4 -7 -10q-18 -24 -49 -24h-6h-6q-20 3 -34 23.5t-7 43.5zM287.5 682.5q-3.5 -11.5 5.5 -23.5q10 -10 22 -10q2 1 6 2t5 2q10 5 18 17q5 11 2 24q-3 6 -11.5 11t-15.5 4q-10 -5 -16 -9q-12 -6 -15.5 -17.5z" />
<glyph unicode="&#xe6;" horiz-adv-x="827" d="M102 201q0 50 2 75q3 50 23 113q11 28 37 74q26 37 63 51q16 8 25 8q63 6 121 -2q1 0 37 -6q31 -3 41 -33q4 -12 16 -4q16 12 22 15q4 3 13.5 8t13.5 8q43 22 98 16q9 0 13 -4q3 -1 9.5 -3t11.5 -4t9 -5q33 -17 39 -53q2 -4 2 -13q-4 -26 -8 -39q0 -4 -4 -12 q-13 -26 -31 -47q-2 -2 -7 -6t-7 -6q-47 -38 -78 -56q-34 -17 -59 -22q-14 -5 -19 -8q-10 -3 -10 -15q-3 -27 0 -57q0 -12 4 -18q23 -53 27 -58q12 -20 35 -37q4 -2 16 -10q35 -21 86 -8q23 7 39 20q4 3 12.5 10.5t12.5 10.5q6 3 12 0q9 -5 2 -16q-1 -1 -2 -3.5t-2 -3.5 l-4 -4q-31 -34 -68 -45q-4 -1 -9.5 -2.5t-13 -4t-12.5 -3.5h-53q-17 -2 -49 10q-6 2 -19.5 10t-21.5 9q-1 -1 -6 -11q-10 -18 -37 -18q-14 0 -23 12q-6 9 -12 21l-12 -6q-9 -9 -33 -21q-18 -6 -25 -6h-30q-11 0 -31 4l-18 6q-6 1 -17.5 6.5t-13.5 6.5q-19 9 -55 41 q-18 14 -23 30q-6 14 -27 84q-2 6 -2 21zM190 154q3 -6 3 -13q0 -1 1 -3t1 -3q11 -34 26 -51q2 -2 6 -7t6 -7q21 -16 58 -27h6q12 2 31 10q7 5 14 15q12 19 14 34q3 20 9 37q6 15 6 31q0 27 2 39q0 11 4 31q6 24 6 51v71v76v25q-1 6 -9 13t-14 9h-6q-33 3 -69 0 q-24 0 -37 -20q-5 -5 -17 -21q-11 -13 -24 -51q-2 -7 -5 -21.5t-5 -21.5q-4 -16 -4 -24q-8 -74 -3 -172zM485 328q0 -12 9 -15q33 6 94 37q12 5 24 21q3 4 9.5 12t9.5 12q6 9 6 19q3 15 0 30q0 21 -23 29q-31 7 -57 -2q-2 -1 -16 -10q-1 -1 -4 -4.5t-5 -5.5 q-34 -50 -47 -123z" />
<glyph unicode="&#xe7;" horiz-adv-x="444" d="M102 184v52v18q14 94 35 162q2 5 6.5 15t6.5 15q3 4 9 12.5t9 12.5q8 8 20 16q22 18 39 23q4 2 14.5 5t14.5 5q18 6 51 2q18 -4 27 -16q9 -6 2 -17q-8 -4 -12 -2q-20 12 -43 2q-28 -11 -29 -12q-31 -22 -37 -57q-4 -22 -11 -64t-11 -63q-5 -35 -5 -43q-3 -75 2 -135 q0 -13 13 -35q11 -15 22 -23q21 -21 54 -18q3 1 9 2t9 2q6 3 18 8.5t17 7.5q5 0 8 -6q3 -13 -2 -18q-6 -13 -19 -19q-2 -1 -47 -18q-6 -3 -6 -10q0 -8 6 -11q1 -1 11 -6q27 -18 30 -53q2 -10 2 -31q0 -23 -14 -43q-13 -19 -37 -22q-18 -3 -37 0q-4 0 -10 6q-2 1 -1 4.5 t4 6.5t5 3q2 1 6.5 2t6.5 2q8 0 12 4q6 3 10 7q13 21 14 28v15q-8 36 -28 47l-4 4q-12 6 -15 20q0 13 -2 19q-1 2 -3 5t-3 5q-27 9 -37 14q-22 10 -39 33q-27 42 -32 80q-5 25 -5 27q-4 10 -4 30z" />
<glyph unicode="&#xe8;" horiz-adv-x="538" d="M102 205v63q0 13 2 19q2 5 7 28t10 33q1 3 2 9.5t2 9.5q4 34 35 82q16 20 26 26q36 25 74 39q24 8 55 8q9 0 13 -2q37 -11 57 -26q20 -13 23 -37q3 -31 -2 -58q0 -2 -5 -12q-18 -37 -51 -63q-56 -50 -119 -72q-5 -2 -15 -5t-15 -5q-13 -4 -13 -21v-12q0 -43 2 -52t23 -51 q17 -38 55 -59q3 -1 9.5 -4t9.5 -4q2 -1 10.5 -3.5t15.5 -4.5q50 9 60 12t24 16.5t21 16.5q2 2 6 2h6q7 -4 4 -10q0 -5 -4 -13q-14 -15 -39 -32q-31 -17 -59 -23q-2 0 -6.5 -1t-6.5 -1h-63q-26 4 -37 10q-26 15 -43 27q-21 15 -33 39q-3 5 -8 16t-8 16q-13 30 -16 56 q0 5 -3 13.5t-4 10.5q-2 6 -2 19zM201 315q1 -1 4.5 -3.5t5.5 -2.5h12q19 6 76 33q24 13 45 45q10 21 8 41v14q0 10 -10 17q-16 12 -29 12h-24q-27 -3 -43 -25q-34 -52 -43 -112q-2 -6 -2 -19zM215 688q-1 3 2 9t6 8h6q16 0 31 -9q11 -6 33.5 -18.5t34.5 -18.5l4 -4 q1 -2 3 -5t3 -5q1 -6 -4 -12t-10 -4q-11 0 -13 2q-39 15 -86 43q-6 2 -10 14z" />
<glyph unicode="&#xe9;" horiz-adv-x="536" d="M102 203v12q0 47 2 70q0 3 17 67q1 3 3 9.5t3 9.5q2 21 23 59q19 36 51 53q27 18 37 23q20 8 30 10q12 6 39 6q19 0 37 -6q7 -5 29 -14q11 -4 28 -25q9 -13 9 -22v-45q-4 -14 -9 -25q-24 -46 -75 -84q-52 -34 -97 -49q-20 -8 -28 -12q-3 0 -5.5 -3.5t-2.5 -5.5 q-6 -36 -3 -69q1 -3 3.5 -9.5t3.5 -9.5q2 -7 7.5 -19.5t6.5 -14.5q18 -38 51 -58q7 -5 29 -14l24 -6q20 3 50 10q12 0 22 10q4 3 10.5 9t13 10t13.5 6q4 4 8 -4q3 -6 0 -13q-2 -2 -4.5 -5.5t-3.5 -4.5q-17 -20 -47 -33q-4 -4 -17 -8q-23 -10 -43 -10h-57q-28 0 -65 22 q-20 16 -29 25q-16 13 -25 31q-3 7 -10 22.5t-10 22.5l-6 18q-1 5 -3 15.5t-3 15.5q-3 6 -7 33zM201 311q8 -4 12 -4q33 9 88 35q21 14 33 31q8 12 12 20q13 18 6 49q-4 10 -10 17q-12 12 -27 12h-26q-23 -3 -37 -20q-17 -21 -21 -31q-22 -43 -28 -84q0 -2 -1 -6t-1 -6 q-3 -8 0 -13zM207 645q3 9 10 14q11 6 32.5 18.5t33.5 18.5q18 9 28 9q6 1 12.5 -3.5t6.5 -9.5q0 -10 -6 -16q-4 -4 -7 -4q-60 -31 -84 -41q-4 -2 -12 -2q-5 -2 -10 4t-4 12z" />
<glyph unicode="&#xea;" horiz-adv-x="542" d="M109 197q-9 48 0 96q2 5 3 15.5t3 15.5q6 13 11.5 38.5t8.5 34.5q9 29 39 66l8 8q52 33 78 43q24 8 57 8q7 0 19 -4q36 -13 45 -20q29 -17 35 -52v-6q-2 -6 -2 -18q-8 -47 -49 -88q-31 -31 -70 -53q-23 -15 -51 -25q-7 -3 -21.5 -8t-21.5 -8q-11 -4 -11 -15v-51 q0 -10 7 -24q2 -6 7.5 -20t8.5 -21q17 -39 55 -60q26 -13 49 -18h5q9 2 27.5 6t27.5 6q9 7 26 18.5t21 14.5q5 5 12 -2q6 -6 0 -11q0 -1 -1 -3t-1 -3q-14 -16 -43 -37l-12 -6q-46 -18 -80 -16h-33q-25 0 -53 14q-20 12 -37 25q-22 18 -29 35q-1 3 -4 8.5t-5.5 10.5l-4.5 9 q-9 18 -16 39q-3 18 -8 58zM197 639q-7 11 0 18q1 0 2 2.5t2 2.5q41 27 53 34q10 7 29 15h12q4 -2 11 -6.5t11 -6.5q9 -6 27 -17t27 -17q18 -11 4 -29q-2 -4 -10 -4q-4 1 -52 28q-18 9 -28 13q-13 -5 -39 -23q-14 -8 -33 -16q-11 -4 -16 6zM203 324q-1 -6 4.5 -11.5 t11.5 -5.5q2 2 6 2q34 10 80 35q34 20 45 53q4 8 4 13q0 12 2 16q-2 6 -2 14q-3 15 -12 21q-29 18 -61 8q-24 -10 -35 -29q-29 -44 -43 -116z" />
<glyph unicode="&#xeb;" horiz-adv-x="542" d="M104 227q-1 20 13 103q3 6 14 55q13 40 35 68q11 14 22 20q41 29 72 41q24 8 57 8q7 0 19 -4q25 -6 47 -20q23 -13 29 -39q0 -2 1 -6.5t1 -6.5q1 -7 -4 -43q0 -8 -7 -18q-19 -37 -47 -59q-48 -45 -112 -70q-7 -3 -19.5 -7t-15.5 -5q-16 -6 -16 -19q-3 -34 0 -63 q2 -10 18 -47q25 -57 82 -76q8 -4 24 -8q22 2 56 10q9 3 16 10q3 2 16 13t21 14h6q13 -4 6 -15q-4 -8 -8 -10q-6 -9 -18 -18q-24 -20 -43 -25q-3 -1 -9.5 -3t-9.5 -3q-16 -4 -24 -4q-9 -1 -28.5 -1t-29.5 -1q-25 0 -53 14q-21 10 -43 29q-15 12 -22 29q-4 9 -12.5 26.5 t-12.5 26.5q-7 15 -10 31q0 10 -4 30q-2 6 -7 43zM203 645q-5 14 2 24t22 7q16 0 19 -12q2 -2 2 -7q-3 -20 -23 -26q-13 -3 -20 8q0 1 -1 3t-1 3zM205 315q3 -6 10 -6q3 -3 6 0q43 10 92 41q19 12 31 31q14 25 12 49v12q-4 13 -10 17q-16 12 -29 12h-24q-27 -3 -43 -25 q-33 -50 -45 -112v-19zM334 657q0 5 5 12t11 7h19q18 -4 14 -25q-5 -13 -23 -20h-6q-20 6 -20 26z" />
<glyph unicode="&#xec;" horiz-adv-x="389" d="M104 696q3 6 15 9q3 -3 14 -3l12 -6q14 -7 39 -21t33 -18q2 0 6 -4q6 -12 0 -18q-2 -3 -7.5 -5t-8.5 -1q-40 15 -96 47q-15 8 -7 20zM111 496q-4 -14 10 -21q4 0 12 -4q20 -6 23 -29v-22q0 -23 2 -33q3 -40 8 -248v-4v-43q0 -21 -2 -33q-3 -16 -19 -22q-2 0 -4 -2 q-2 -1 -6 -2t-6 -2q-6 -6 -8 -15q-3 -19 16 -22h4q1 0 4.5 -1t4.5 -1h18h2h45h27q10 0 26 4q4 2 8 2q9 4 9 12q6 20 -17 27q-1 0 -2 1t-2 1h-6q-20 7 -20 24q-2 6 -2 19v68v10v4v10v19h-5h5v45v14q0 20 -3 41l-6 69v3v20q-5 80 -8 109q-2 12 -10.5 21t-20.5 9h-10 q-27 0 -43 -2q-22 -4 -24 -26z" />
<glyph unicode="&#xed;" horiz-adv-x="391" d="M104 637q-2 3 0 9t5 7q4 4 6 4q14 7 39 22t32 19q8 4 25 4h6q4 -2 10 -8q1 -1 -0.5 -8.5t-3.5 -9.5q-1 0 -3 -1t-3 -1q-70 -38 -90 -45q-7 -3 -14 0l-4 3q-4 3 -5 5zM113 496q-4 -14 10 -21q4 0 12 -4q20 -6 23 -29v-22q0 -23 2 -33q3 -40 8 -248v-4v-43q0 -21 -2 -33 q-3 -16 -19 -22q-2 0 -4 -2q-2 -1 -6 -2t-6 -2q-6 -6 -8 -15q-3 -19 16 -22h4q1 0 4.5 -1t4.5 -1h18h2h45h27q10 0 26 4q4 2 9 2q8 4 8 12q6 20 -17 27q-1 0 -2 1t-2 1h-6q-20 7 -20 24q-2 6 -2 19v68v10v4v10v19h-5h5v45v14q0 27 -2 41q-2 12 -7 69v3v20q-5 80 -8 109 q-2 12 -10.5 21t-20.5 9h-10q-27 0 -43 -2q-22 -4 -24 -26z" />
<glyph unicode="&#xee;" horiz-adv-x="411" d="M106 637q-6 15 5 22q3 2 23.5 15t29.5 20q13 10 29 13q6 3 12 0q3 -1 9 -3.5t9 -3.5q10 -7 31 -21.5t31 -21.5q6 -3 6 -10q2 -4 -4 -10t-13 -6l-4 2q-30 13 -51 29q-20 15 -45 -3q-41 -23 -57 -26q-7 -4 -11 4zM133 498q-4 -14 10 -21q5 0 13 -4q19 -5 22 -29v-22 q0 -23 2 -33q3 -40 8 -248v-4v-43q0 -21 -2 -33q-3 -16 -18 -22q-2 0 -4 -2q-2 -1 -6 -2t-6 -2q-8 -8 -9 -15q-3 -19 17 -22h4q1 0 4 -1t4 -1h18h3h45h26q11 0 27 4q4 2 8 2q8 4 8 12q6 21 -16 27q-1 0 -2 1t-2 1h-6q-21 7 -21 25q-2 6 -2 18v68v10v4v10v19h-4h4v45v14 q0 27 -2 41q-2 10 -3 22t-1.5 26t-1.5 22v2v20q-5 80 -8 109q-2 12 -10.5 21t-20.5 9h-10q-27 0 -43 -2q-23 -5 -25 -26z" />
<glyph unicode="&#xef;" horiz-adv-x="397" d="M104 662q4 7 9 10q10 6 30 2q14 -10 11 -23q-2 -12 -23 -20h-6q-11 0 -17.5 9.5t-3.5 21.5zM119 496q-4 -14 10 -21q4 0 12 -4q20 -6 23 -29v-22q0 -23 2 -33q3 -40 8 -248v-4v-43q0 -21 -2 -33q-3 -16 -18 -22q-2 0 -4 -2q-2 -1 -6.5 -2t-6.5 -2q-6 -6 -8 -15 q-3 -19 16 -22h5q1 0 4 -1t4 -1h18h2h45h27q10 0 26 4q4 2 9 2q8 4 8 12q6 20 -17 27q-1 0 -2 1t-2 1h-6q-20 7 -20 24q-2 6 -2 19v68v10v4v10v19h-4h4v45v14q0 27 -2 41l-6 69v3v20q-3 49 -9 109q-2 12 -10 21t-20 9h-11q-27 0 -43 -2q-22 -4 -24 -26zM238 655q0 11 8 15 q17 13 37 0q10 -7 4 -23q-3 -5 -19 -16q-15 -4 -22 6q-8 12 -8 18z" />
<glyph unicode="&#xf0;" horiz-adv-x="552" d="M104 643q0 8 2 12q1 3 4.5 8.5t4.5 8.5q-1 3 -4.5 9t-4.5 9q-5 7 0 17q6 12 19 16q6 3 12 0q6 -2 15 -8.5t12 -7.5q15 -7 24 -5q2 0 11 3.5t14 3.5t12 -7q3 -3 3.5 -9t-1.5 -9l-8 -8q-9 -6 -2 -17q6 -6 8 -10q10 -7 15 -14q27 -34 84 -94q7 -6 20.5 -19.5t20.5 -19.5 q19 -19 22 -23q38 -44 49 -96q11 -48 13 -63.5t2 -61.5q0 -63 -2 -96q0 -16 -7 -37q-1 -3 -3 -9.5t-3 -9.5q-11 -49 -57 -81q-36 -25 -70 -25h-39q-33 2 -77 27q-20 13 -31 30q-12 14 -19 33q-5 9 -10.5 25.5t-7.5 21.5q-1 3 -3 9.5t-3 9.5q-7 37 -10 63q-1 6 -1.5 18.5 t-1.5 18.5q-2 42 15 100q4 21 20 68q8 19 15 29q21 28 49 49q4 4 16 8q21 9 27 16q2 0 2 4q0 5 -2 7q-55 63 -80 90q-14 17 -35 8q-8 -4 -12 -4h-6q-3 0 -7.5 4.5t-3.5 7.5zM195 328q0 -65 8 -88q4 -8 4 -25q1 -13 7 -38t7 -38q15 -40 19 -47q10 -21 30 -29q27 -13 64 -10 q13 3 22 10q28 25 41 70q1 3 3 14.5t3 16.5q7 24 7 39v28q0 62 -9 97q-2 4 -2 14q-3 17 -20 66q-1 5 -6 12.5t-6 9.5q-10 14 -35 35q-5 3 -19 8q-13 5 -30 2q-9 0 -25 -8q-4 -4 -11 -11.5t-11 -11.5q-17 -17 -25 -36q-16 -54 -16 -80z" />
<glyph unicode="&#xf1;" horiz-adv-x="626" d="M104 504q-3 -24 21 -29q2 0 4 -2q6 0 10 -2q13 -13 13 -14q2 -6 2 -25q0 -220 2 -326v-32v-4l-2 -4q3 -23 -19 -33q-10 -3 -10 -21q0 -11 10 -14q23 -2 62 -2q33 0 47 2q8 0 12 2q12 7 12 16q3 15 -10 21q-2 2 -6 2l-2 2q-19 6 -19 31v2v30q-2 27 -2 78l2 33v14v115v8 q0 35 20.5 60.5t55.5 36.5q16 4 29 4q34 0 61 -27q14 -14 17 -31q6 -18 6 -55q0 -9 1 -27.5t1 -27.5v-4v-103v-67v-2q0 -25 -2 -35q0 -24 -19 -37q-7 -3 -10 -10q-5 -8 -2 -17q0 -5 10 -8q8 -4 11 -4h32q37 0 60 2q1 0 6.5 2t7.5 4l6 6q4 15 -8 19q-8 4 -12 4q-1 1 -4 2 t-4 2q-15 4 -15 18q-2 14 -2 41t-2 39q0 95 2 142q0 48 -10 110q0 11 -4 35q0 8 -4 16q-3 24 -23 47q-13 19 -28 25q-24 8 -43 8q-3 0 -8.5 -1t-8.5 -1l-6 -2q-64 -15 -92 -31q-2 -2 -4 -2q-13 0 -17 11q0 1 -1 4t-1 4q-1 2 -2 6t-2 6q-5 10 -16 10q-36 0 -86 -4 q-14 0 -17 -16zM223 662q11 10 15 12q17 9 41 12h14q8 0 24 -4q39 -8 62 4h6q15 3 23 -8q10 -14 -5 -29q-8 -8 -16 -8q-6 -2 -16 -2q-29 0 -41 4q-3 1 -8.5 3t-8.5 3q-23 3 -39 -2q-4 -1 -12 -4t-12 -4q-13 0 -19 2q-15 4 -8 21z" />
<glyph unicode="&#xf2;" horiz-adv-x="548" d="M102 227v64q0 17 7 45q3 19 20 72q8 33 33 61q5 5 13.5 14t12.5 13q15 15 35 18q6 2 21 8q6 0 15 1t13 1q26 0 34.5 -2t33.5 -14q3 -2 10 -6t10 -6q16 -8 29 -27q14 -19 19 -27q2 -2 12 -28q7 -16 13.5 -48t8.5 -38q2 -8 2 -25q2 -1 1 -58l-1 -57q0 -45 -12 -75 q-2 -17 -16 -41q-15 -28 -41 -47q-37 -22 -72 -25q-6 0 -19.5 1t-19.5 1q-24 0 -55 14q-40 15 -62 54q-5 10 -10 21.5t-11 25.5t-9 22q-1 8 -8 39t-7 49zM190 309q-3 -37 9 -78q4 -16 4 -24q1 -14 7 -39.5t7 -34.5q15 -35 19 -41q8 -19 32 -29q30 -13 62 -8q10 0 16 6 q22 19 33 41q5 11 14 41q12 66 10 101q0 43 -6 63q-2 8 -2 25q-1 14 -8.5 35.5t-9.5 31.5q0 9 -8 17q-20 32 -35 45q-15 12 -41 16q-31 0 -47 -16l-23 -23q-12 -16 -16 -26q-19 -48 -17 -80v-23zM201.5 708q1.5 10 7.5 13l4 4h8q31 -8 51 -23q8 -5 50 -26q12 -8 8 -23 q-2 -5 -8.5 -9t-10.5 -3q-2 0 -6 1t-6 1q-38 16 -84 43q-4 2 -10 8q-5 4 -3.5 14z" />
<glyph unicode="&#xf3;" horiz-adv-x="548" d="M102 309q4 27 7 33q2 6 6.5 25.5t9.5 29.5q6 32 29 62q18 25 34 39q2 1 27 14q28 12 70 12q20 0 43 -10q2 -2 6 -2q36 -18 53.5 -38.5t34.5 -65.5q12 -35 14 -62q1 -3 4.5 -14t3.5 -17q2 -14 2 -43v-32v-39q0 -35 -12 -82q-6 -22 -18 -47q-16 -24 -27 -35 q-22 -18 -39 -23q-4 -2 -11 -5t-11 -5q-2 0 -6.5 -1t-6.5 -1q-63 -6 -112 16q-3 0 -10 7q-38 21 -54 61q-23 46 -30 90q-5 20 -5 27q-2 35 -2 106zM190 289q0 -34 9 -64q6 -36 6 -37q2 -20 14 -61q6 -22 19 -41l6 -8q7 -8 12 -10q35 -18 68 -15q15 3 28 13q22 22 31 49 q16 54 16 80v45q3 39 -4 90q0 15 -6 30q-1 3 -3 9.5t-3 9.5q-9 41 -41 70l-18 18q-4 3 -17 8q-4 0 -12.5 1t-13.5 1q-16 0 -29 -10q-21 -16 -25 -21q-26 -34 -32 -75q-5 -23 -5 -82zM205 653q0 13 4 19l4 4q10 5 30.5 16.5t30.5 16.5q11 7 41 16q3 1 9 -2t8 -6 q3 -6 1.5 -15.5t-7.5 -13.5q-2 -2 -4 -2q-46 -27 -84 -43q-6 -2 -17 -2q-13 3 -16 12z" />
<glyph unicode="&#xf4;" horiz-adv-x="550" d="M104 229v33q-4 38 17 119l6 18q8 35 35 68q12 15 41 39q5 3 15.5 7t12.5 5q16 4 27 4q24 3 51 0q2 -1 17 -6l21 -10.5t16.5 -9.5t11 -7.5t9 -9.5t7.5 -9.5t9 -13t10 -14.5q6 -10 14 -30q1 -6 4.5 -17t5.5 -20.5t2 -18.5l6 -24q7 -18 7 -31v-96q0 -50 -13 -88 q-7 -42 -51 -86q-17 -15 -57 -27q-4 -2 -13 -2q-25 -3 -51 0q-35 3 -65 21q-27 14 -47 43q-4 8 -11.5 23.5t-11.5 23.5q-9 20 -20 71q-5 20 -5 45zM193 293q0 -35 8 -62q4 -20 4 -30q1 -14 7 -38.5t7 -31.5q4 -16 19 -41q9 -16 26 -24q38 -16 68 -11q6 0 18 8q24 20 31 39 q16 36 16 60q1 5 2 13.5t2 12.5q5 18 5 43q0 39 -5 64q-1 6 -2 18.5t-2 18.5l-6 24q-2 6 -6.5 23.5t-9.5 26.5q-10 23 -27 43l-8 8q-16 16 -45 20q-31 0 -47 -16l-23 -23q-12 -16 -16 -26q-18 -46 -16 -80v-19v-20zM195 663q0 9 6 15q23 14 59 39l16 8q17 7 31 -2 q30 -11 70 -43l4 -4q6 -6 6 -12q0 -9 -4 -13q-5 -10 -16 -6q-23 9 -33 17q-5 2 -14.5 7t-14.5 7q-14 7 -24 2q-5 -3 -16.5 -9.5t-16.5 -9.5q-17 -7 -29 -14q-8 -3 -18 4q-6 5 -6 14z" />
<glyph unicode="&#xf5;" horiz-adv-x="550" d="M102.5 298.5q0.5 13.5 3.5 25.5q6 33 25 92q17 48 64 86l12 6q36 16 59 16q6 -1 17 -1t16 -1q6 0 18 -4q15 -5 17 -6q36 -18 53.5 -37.5t34.5 -64.5q13 -33 16 -62q1 -6 4.5 -18t3.5 -19q0 -21 3 -39v-18v-21h-3v-36q2 -33 -14 -95q-4 -18 -24 -45q-24 -36 -76 -53 q-4 0 -6 -2q-42 -5 -88 4q-8 4 -13 4q-53 14 -82 68q-19 37 -28 76q-1 6 -4.5 18t-4.5 18q-2 12 -2 39v13q0 7 -1 25t-0.5 31.5zM190 651q-6 9 5 17q5 8 16 8q28 4 41 4q25 0 35 -2q34 -6 63 0q4 2 12 -2q6 -2 8.5 -8.5t-1.5 -12.5q-4 -8 -21 -12q-12 -4 -37 0q-4 1 -14.5 4 t-17.5 4q-34 4 -56 -6q-2 -1 -6 -2t-6 -2h-6q-12 4 -15 10zM193 289q0 -31 6 -58q6 -18 6 -36q2 -24 14 -64q1 -4 17 -41q13 -17 28 -24q29 -13 55 -13q23 0 39 19q18 22 21 32q17 40 20 72q0 12 1 33t1 33q0 11 -1 33.5t-1 35.5q-4 36 -14 62q-8 46 -51 86l-4 4 q-13 10 -35 14q-30 3 -51 -18q-17 -17 -23 -25q-12 -16 -14 -26q-14 -35 -14 -76v-43z" />
<glyph unicode="&#xf6;" horiz-adv-x="550" d="M104 283q0 10 2 14q1 12 11 61q3 7 9.5 31t12.5 37q16 32 31 47q4 4 8.5 9t10 10t8.5 8q9 9 22 12q4 0 6 2q23 10 56 10q31 0 55 -12q1 -1 3 -2t3 -2q54 -22 80 -86q12 -35 12 -37q1 -5 3 -15.5t3 -15.5q9 -27 9 -57v-64q0 -35 -3 -69q0 -30 -8 -49q-5 -27 -28 -58 q-14 -22 -41 -39q-4 -2 -12.5 -5t-12.5 -5q-12 -6 -31 -6q-33 -3 -63 2q-37 6 -68 31q-4 2 -10 8q-30 38 -37 59q-2 7 -7 21.5t-7 21.5q-4 8 -4 13q-14 98 -13 125zM186 678q5 11 19 14h18q19 -3 19 -22q0 -5 -4 -13q-11 -18 -33 -14q-14 3 -17 16q-7 11 -2 19zM193 338 q0 -69 8 -94q2 -6 2 -19q1 -9 7.5 -37t6.5 -45q8 -21 19 -47q14 -28 36 -33q18 -6 19 -6q34 -6 48.5 -1t33.5 30q2 3 5 8t5 8q12 35 12 37q9 39 11 51.5t2 49.5v16q0 19 -2 33q0 11 -3 20q-2 18 -10 49q-10 35 -12 41q-12 28 -23 39q-4 5 -26 27q-6 6 -25 10q-8 2 -24 2 q-17 0 -29 -12q-6 -4 -18 -16q-24 -24 -33 -62q-1 -5 -3 -15.5t-3 -15.5q-4 -12 -4 -18zM319 674q4 16 17 16q4 2 12 2q17 0 25 -6q7 -4 4 -10q0 -30 -33 -33q-4 0 -12 4q-13 10 -13 27z" />
<glyph unicode="&#xf7;" d="M104 481q-2 16 7 29q23 13 61 16q45 0 70 -2q123 -3 221 2q47 4 69 0q10 -3 15 -12q3 -8 -2 -18q-3 -5 -10 -9q-106 -12 -158 -12q-137 0 -205 -2q-8 0 -25 1t-26 1q-5 -2 -17 6zM301 748q4 20 10 28q1 1 3 2t3 2q12 9 21 -4q8 -8 8 -16v-12q0 -12 -8 -23q-8 -8 -14 -8 h-7q-7 3 -12.5 14t-3.5 17zM307 229q0 9 2 13q3 11 13 18q4 3 11.5 1.5t8.5 -7.5q9 -21 -2 -41q-3 -5 -8 -8q-4 -3 -12 -1.5t-9 7.5q-4 6 -4 18z" />
<glyph unicode="&#xf8;" horiz-adv-x="548" d="M102 307q0 11 4 31q3 8 8.5 29t10.5 32q14 56 63 99q10 7 23 14q4 0 12 4q28 8 43 8h27q12 0 24 -6q26 -11 35 -12q18 6 37 6q10 -2 16 -7.5t3 -12.5q0 -5 -3.5 -14t-3.5 -11v-12q1 -3 4.5 -9.5t4.5 -9.5q21 -48 26 -84q0 -12 2 -18q8 -18 8 -58v-57q0 -42 -10 -94 q-11 -42 -28 -64q-21 -35 -58 -47l-12 -6q-16 -8 -43 -8q-13 0 -45 4q-29 0 -43 -2h-19q-20 0 -28 10t-4 25q2 6 -2 18q0 2 -1.5 4t-3 5t-2.5 4q-11 22 -14 26q-2 6 -7 18.5t-7 18.5q-6 21 -13 49q-2 8 -2 25q-2 35 -2 102zM195 373q-15 -91 12 -183q0 -4 4 -4h4q7 9 16 35 q43 108 82 193q12 25 17 41q-2 2 -5.5 7t-5.5 7q-9 6 -18 6q-13 3 -25 0q-10 0 -18 -4q-54 -33 -63 -98zM250 82q-2 -6 4 -12q5 -6 16 -9q28 -9 56 -6q9 0 24 11q21 18 31 45q18 52 18 88q0 75 -2 112q-3 38 -18 68q-3 6 -10 2q-1 -1 -4 -4.5t-3 -5.5q-6 -13 -22 -52 t-25 -59q-31 -79 -39 -102q-13 -36 -16 -41q-8 -25 -10 -35z" />
<glyph unicode="&#xf9;" horiz-adv-x="589" d="M104 506q-6 -18 7 -25q19 -13 16 -32q0 -17 -2 -25q0 -7 -1 -20.5t-1 -20.5v-8q-4 -140 6 -234q3 -37 14 -71q18 -50 74 -62q20 -4 35 -4q35 0 67 14q18 9 21 11q12 4 18 8h4q3 0 11 -4q1 -1 3 -5t3 -5q6 -21 29 -21h8h51q8 0 12 12q3 24 -10 31q-12 9 -12 31v22 q0 31 2 45v144v125v41q0 20 16 26q13 8 10 27q0 11 -12 14q-24 4 -39 4q-24 0 -72 -10q-10 -5 -12 -14q0 -21 6 -25q24 -14 21 -35v-10v-8v-82v-23h2v-6v-16v-39q0 -49 -2 -82q0 -25 -15 -51q-11 -23 -38 -39t-56 -16q-12 0 -16 2q-27 5 -48 25.5t-22 49.5v7v30v238v29 q0 20 17 32q8 5 8 23q0 13 -10 16q-18 6 -37 6q-17 0 -45 -8q-8 -4 -11 -12zM215 721q4 4 10 4q3 -2 11.5 -5t11.5 -5q33 -16 71 -39q10 -3 13 -21l-4 -4q-4 -4 -13 -4q-4 0 -6 2q-5 1 -12.5 4t-9.5 4q-10 5 -31 16.5t-31 16.5q-1 0 -3 1t-3 1q-17 13 -4 29z" />
<glyph unicode="&#xfa;" horiz-adv-x="589" d="M104 506q-6 -18 7 -25q19 -13 16 -32q0 -17 -2 -25q0 -7 -1 -20.5t-1 -20.5v-8q-4 -140 6 -234q3 -37 14 -71q18 -50 74 -62q20 -4 35 -4q35 0 67 14q18 9 21 11q12 4 18 8h4q3 0 11 -4q1 -1 3 -5t3 -5q6 -21 29 -21h8h51q8 0 12 12q3 24 -10 31q-12 9 -12 31v22 q0 31 2 45v144v125v41q0 20 16 26q13 8 10 27q0 11 -12 14q-24 4 -39 4q-24 0 -72 -10q-10 -5 -12 -14q0 -21 6 -25q24 -14 21 -35v-10v-8v-82v-23h2v-6v-16v-39q0 -49 -2 -82q0 -25 -15 -51q-11 -23 -38 -39t-56 -16q-12 0 -16 2q-27 5 -48 25.5t-22 49.5v7v30v238v29 q0 20 17 32q8 5 8 23q0 13 -10 16q-18 6 -37 6q-17 0 -45 -8q-8 -4 -11 -12zM223 657q0 13 6 17q26 18 66 39q3 2 11 5.5t11 4.5q8 3 15.5 -1t7.5 -11q0 -13 -6 -19q-20 -12 -62 -33q-18 -9 -36 -12q-10 -3 -13 10z" />
<glyph unicode="&#xfb;" horiz-adv-x="589" d="M104 506q-6 -18 7 -25q19 -13 16 -32q0 -17 -2 -25q0 -7 -1 -20.5t-1 -20.5v-8q-4 -140 6 -234q3 -37 14 -71q18 -50 74 -62q20 -4 35 -4q35 0 67 14q18 9 21 11q12 4 18 8h4q3 0 11 -4q1 -1 3 -5t3 -5q6 -21 29 -21h8h51q8 0 12 12q3 24 -10 31q-12 9 -12 31v22 q0 31 2 45v144v125v41q0 20 16 26q13 8 10 27q0 11 -12 14q-24 4 -39 4q-24 0 -72 -10q-10 -5 -12 -14q0 -21 6 -25q24 -14 21 -35v-10v-8v-82v-23h2v-6v-16v-39q0 -49 -2 -82q0 -25 -15 -51q-11 -23 -38 -39t-56 -16q-12 0 -16 2q-27 5 -48 25.5t-22 49.5v7v30v238v29 q0 20 17 32q8 5 8 23q0 13 -10 16q-18 6 -37 6q-17 0 -45 -8q-8 -4 -11 -12zM205 659q-5 10 4 19q44 31 61 41q21 12 41 2q10 -5 64 -43l4 -4q7 -10 0 -17q-6 -6 -12 -4q-10 2 -27 15q-18 9 -33 18q-4 2 -12 2q-4 0 -12 -4t-25 -13.5t-25 -13.5l-12 -6q-12 0 -16 8z" />
<glyph unicode="&#xfc;" horiz-adv-x="589" d="M104 506q-6 -18 7 -25q19 -13 16 -32q0 -17 -2 -25q0 -7 -1 -20.5t-1 -20.5v-8q-4 -140 6 -234q3 -37 14 -71q18 -50 74 -62q20 -4 35 -4q35 0 67 14q18 9 21 11q12 4 18 8h4q3 0 11 -4q1 -1 3 -5t3 -5q6 -21 29 -21h8h51q8 0 12 12q3 24 -10 31q-12 9 -12 31v22 q0 31 2 45v144v125v41q0 20 16 26q13 8 10 27q0 11 -12 14q-24 4 -39 4q-24 0 -72 -10q-10 -5 -12 -14q0 -21 6 -25q24 -14 21 -35v-10v-8v-82v-23h2v-6v-16v-39q0 -49 -2 -82q0 -25 -15 -51q-11 -23 -38 -39t-56 -16q-12 0 -16 2q-27 5 -48 25.5t-22 49.5v7v30v238v29 q0 20 17 32q8 5 8 23q0 13 -10 16q-18 6 -37 6q-17 0 -45 -8q-8 -4 -11 -12zM190 682q8 8 15 10q16 0 24 -6q6 -6 4 -16q-4 -19 -24 -19q-8 0 -14 6q-13 13 -5 25zM326 672q0 14 14 18q9 3 18 0q9 -9 9 -14q2 -9 -4.5 -17t-16.5 -8q-7 0 -13.5 6.5t-6.5 14.5z" />
<glyph unicode="&#xfd;" horiz-adv-x="585" d="M104 494l5 -2q1 -1 4 -2.5t4 -2.5q24 -3 24 -32v-29v-4q0 -12 1 -38t1 -40q0 -8 1 -25t1 -24v-4q1 -9 2.5 -30t2.5 -30q8 -81 14 -118q2 -16 10 -39q12 -39 47 -54q15 -8 25 -10q38 -10 61 -10q26 0 47 6q2 1 6.5 2t6.5 2h2h2q5 0 10.5 -4t5.5 -8q0 -2 2 -2v-2v-10 q2 -109 -2 -267q0 -4 -1 -11t-1 -11q-2 -4 -2 -10q-4 -25 -33 -54q-19 -16 -49 -16q-32 0 -49 14q-4 2 -8.5 8t-5.5 7h-2q-5 7 -15 14q-14 9 -16 10l-10 6v-12q0 -24 14 -35q14 -14 35 -28q22 -11 32 -11q8 -2 27 -2h31q3 1 10 3t10 3q25 15 33 23q35 25 41 70q8 50 8 75v15 q0 61 2 92q4 39 4 115v92v116q0 37 1 113.5t1 114.5q0 29 2 43q0 9 9 14l12 6q2 2 6 2q13 9 6 29v2l-2 2l-4 4q-2 0 -5 1t-5 1q-13 1 -44.5 2t-47.5 2q-5 0 -13 -4h-2q-13 -9 -10 -20q0 -14 10 -17q2 -2 11 -2q4 -2 16 -6q9 -4 12 -14q0 -5 1 -16t1 -17v-113v-38v-7v-8v-28 v-5v-118q0 -33 -28 -52q-19 -16 -66 -16q-44 0 -65 16q-20 20 -23 33v2q-4 14 -8 54q-6 56 -6 108q-3 21 0 47q0 15 1 45t1 45q2 12 2 39q0 11 2 15v12q0 19 18 28q3 0 8 5q8 11 5 24q-3 8 -15 8q-14 2 -45 2t-45 -2q-8 0 -16 -4q-16 -6 -13 -24v-4zM252 641q-4 11 6 16 q38 24 78 45q5 3 22 9q9 3 18 -4.5t9 -16.5t-10 -16q-62 -34 -90 -45q-9 0 -13 -2q-13 0 -20 14z" />
<glyph unicode="&#xfe;" horiz-adv-x="561" d="M104 -145q0 151 2 229v37q5 29 5 63v332q0 99 2 148q0 22 1 64t1 63q0 213 2 319q0 44 6 88q6 69 -2 127q-2 18 -2 51q0 13 6 25q4 8 6 10q31 24 59 10q9 -3 13 -14q2 -12 5 -35.5t5 -34.5q2 -10 2 -32q4 -197 2 -299q0 -67 -4 -203q0 -11 -4 -27q0 -3 -1 -9t-1 -9 q0 -25 -1.5 -106t-0.5 -124q0 -8 8 -16h18q25 10 62 10h24q26 -9 60 -28q15 -9 26 -27q14 -19 19 -27q4 -8 12 -28q13 -40 15 -56q1 -4 4.5 -19.5t3.5 -23.5q2 -23 2 -63v-84q-5 -32 -8 -37q-1 -4 -3.5 -12.5t-3.5 -12.5q-15 -51 -59 -81q-30 -20 -63 -23q-53 -3 -89 10 q-4 0 -6 2q-6 1 -12 -3t-8 -9v-39q0 -145 -2 -217v-31q0 -10 -8 -18t-17 -8q-21 -3 -43 0q-5 0 -11.5 5t-6.5 11q-11 51 -13 88q-2 10 -2 64zM205 272q0 -8 4 -24q4 -15 8 -49q2 -24 14 -70q0 -2 17 -41q15 -18 28 -25q32 -13 62 -10q10 0 22 8q26 23 37 54q13 44 13 47 t3 22.5t3 28.5q1 10 1 22t-0.5 26t-0.5 22q-3 10 -7.5 40.5t-11.5 45.5q-1 4 -2 12t-2 12q-1 2 -3 6.5t-3 6.5q-19 37 -47 59q-4 4 -16 8q-8 2 -25 2q-25 0 -35 -12q-4 -3 -12 -10.5t-12 -10.5q-17 -20 -25 -45q-10 -30 -10 -61v-25v-39z" />
<glyph unicode="&#xff;" horiz-adv-x="585" d="M104 494l5 -2q1 -1 4 -2.5t4 -2.5q24 -3 24 -32v-29v-4q0 -12 1 -38t1 -40q0 -8 1 -25t1 -24v-4q1 -9 2.5 -30t2.5 -30q8 -81 14 -118q2 -16 10 -39q12 -39 47 -54q15 -8 25 -10q38 -10 61 -10q26 0 47 6q2 1 6.5 2t6.5 2h2h2q5 0 10.5 -4t5.5 -8q0 -2 2 -2v-2v-10 q2 -109 -2 -267q0 -4 -1 -11t-1 -11q-2 -4 -2 -10q-4 -25 -33 -54q-19 -16 -49 -16q-32 0 -49 14q-4 2 -8.5 8t-5.5 7h-2q-5 7 -15 14q-14 9 -16 10l-10 6v-12q0 -24 14 -35q14 -14 35 -28q22 -11 32 -11q8 -2 27 -2h31q3 1 10 3t10 3q25 15 33 23q35 25 41 70q8 50 8 75v15 q0 61 2 92q4 39 4 115v92v116q0 37 1 113.5t1 114.5q0 29 2 43q0 9 9 14l12 6q2 2 6 2q13 9 6 29v2l-2 2l-4 4q-2 0 -5 1t-5 1q-13 1 -44.5 2t-47.5 2q-5 0 -13 -4h-2q-13 -9 -10 -20q0 -14 10 -17q2 -2 11 -2q4 -2 16 -6q9 -4 12 -14q0 -5 1 -16t1 -17v-113v-38v-7v-8v-28 v-5v-118q0 -33 -28 -52q-19 -16 -66 -16q-44 0 -65 16q-20 20 -23 33v2q-4 14 -8 54q-6 56 -6 108q-3 21 0 47q0 15 1 45t1 45q2 12 2 39q0 11 2 15v12q0 19 18 28q3 0 8 5q8 11 5 24q-3 8 -15 8q-14 2 -45 2t-45 -2q-8 0 -16 -4q-16 -6 -13 -24v-4zM210.5 657 q2.5 10 8.5 13q6 6 17 6q16 0 24 -6q11 -7 6 -23q-7 -17 -22 -20q-22 -3 -33 14q-3 6 -0.5 16zM348 639q-7 18 4 29q0 4 4 4q18 9 37 0q6 -2 10 -15q0 -12 -7.5 -20t-18.5 -10h-15q-8 3 -14 12z" />
<glyph unicode="&#x2000;" horiz-adv-x="829" />
<glyph unicode="&#x2001;" horiz-adv-x="1659" />
<glyph unicode="&#x2002;" horiz-adv-x="829" />
<glyph unicode="&#x2003;" horiz-adv-x="1659" />
<glyph unicode="&#x2004;" horiz-adv-x="553" />
<glyph unicode="&#x2005;" horiz-adv-x="414" />
<glyph unicode="&#x2006;" horiz-adv-x="276" />
<glyph unicode="&#x2007;" horiz-adv-x="276" />
<glyph unicode="&#x2008;" horiz-adv-x="207" />
<glyph unicode="&#x2009;" horiz-adv-x="331" />
<glyph unicode="&#x200a;" horiz-adv-x="92" />
<glyph unicode="&#x2010;" d="M104 502q-2 15 7 28q25 14 61 17q45 0 70 -2q123 -3 221 2q47 4 69 0q10 -3 15 -12q3 -9 -2 -19q-2 -4 -10 -8q-106 -12 -158 -12q-137 0 -205 -2q-8 0 -25 1t-26 1q-5 -2 -17 6z" />
<glyph unicode="&#x2011;" d="M104 502q-2 15 7 28q25 14 61 17q45 0 70 -2q123 -3 221 2q47 4 69 0q10 -3 15 -12q3 -9 -2 -19q-2 -4 -10 -8q-106 -12 -158 -12q-137 0 -205 -2q-8 0 -25 1t-26 1q-5 -2 -17 6z" />
<glyph unicode="&#x2012;" d="M104 502q-2 15 7 28q25 14 61 17q45 0 70 -2q123 -3 221 2q47 4 69 0q10 -3 15 -12q3 -9 -2 -19q-2 -4 -10 -8q-106 -12 -158 -12q-137 0 -205 -2q-8 0 -25 1t-26 1q-5 -2 -17 6z" />
<glyph unicode="&#x2013;" horiz-adv-x="1228" d="M104 502q-5 15 16 28q58 14 140 17q104 0 162 -2q283 -3 509 2q108 4 159 0q23 -3 34 -12q7 -9 -4 -19q-5 -4 -23 -8q-244 -12 -364 -12q-316 0 -473 -2q-18 0 -57 1t-60 1q-12 -2 -39 6z" />
<glyph unicode="&#x2014;" horiz-adv-x="2253" d="M105 502q-10 15 32 28q115 14 281 17q207 0 323 -2q566 -3 1018 2q216 4 318 0q46 -3 69 -12q14 -9 -9 -19q-10 -4 -46 -8q-489 -12 -728 -12q-632 0 -945 -2q-37 0 -115.5 1t-119.5 1q-23 -2 -78 6z" />
<glyph unicode="&#x202f;" horiz-adv-x="331" />
<glyph unicode="&#x205f;" horiz-adv-x="414" />
<glyph unicode="&#x25fc;" horiz-adv-x="532" d="M0 0v532h532v-532h-532z" />
</font>
</defs>
</svg>
